<svg width="177" height="184" viewBox="0 0 177 184" fill="none" xmlns="http://www.w3.org/2000/svg">
    <path d="M176.584 163.719C176.398 163.062 176.212 162.406 176.035 161.75C176.017 161.696 176.017 161.643 176.026 161.59C176.079 160.907 175.495 160.41 175.442 159.807C175.371 158.973 174.698 158.689 174.291 158.157C174.034 157.82 173.724 157.519 173.396 157.253C172.511 156.534 171.882 155.647 171.484 154.583C171.396 154.343 171.227 154.122 171.05 153.935C170.723 153.589 170.404 153.208 169.997 152.968C169.049 152.401 168.377 151.443 167.305 151.044C167.119 150.973 166.978 150.778 166.827 150.636C166.261 150.077 165.579 149.669 164.933 149.217C163.596 148.276 161.993 147.78 160.745 146.689C160.435 146.414 160.045 146.236 159.7 145.997C159.399 145.793 159.098 145.571 158.806 145.349C158.257 145.482 158.16 144.897 157.814 144.711C157.496 144.533 157.239 144.249 156.938 144.045C156.637 143.85 156.221 143.779 155.999 143.522C155.512 142.963 155.017 142.458 154.397 142.014C153.795 141.589 153.237 141.11 152.547 140.817C152.414 140.755 152.325 140.595 152.201 140.498C151.555 139.992 151.219 139.123 150.324 138.892C150.253 138.874 150.218 138.724 150.147 138.644C149.979 138.449 149.837 138.183 149.616 138.076C149.058 137.819 148.704 137.349 148.297 136.941C148.031 136.684 147.81 136.329 147.491 136.187C146.925 135.939 146.562 135.495 146.145 135.096C145.234 134.218 144.516 133.136 143.321 132.586C142.631 131.85 141.807 131.273 140.993 130.688C140.833 130.572 140.727 130.377 140.586 130.235C140.178 129.836 139.771 129.446 139.346 129.064C138.877 128.639 138.425 128.178 137.894 127.849C137.389 127.53 136.876 127.202 136.593 126.723C136.283 126.182 135.698 126.013 135.371 125.517C134.485 124.177 133.255 123.157 132.095 122.075C131.484 121.507 131.05 120.745 130.271 120.354C130.192 120.31 130.165 120.177 130.094 120.097C128.819 118.536 127.181 117.348 125.871 115.84C124.897 115.263 124.189 114.394 123.401 113.613C121.852 112.079 120.187 110.713 118.169 109.835C117.744 109.649 117.363 109.347 116.956 109.099C116.451 109.356 116.336 108.726 115.946 108.637C115.495 108.54 115.061 108.3 114.654 108.061C113.414 107.334 112.024 107.041 110.696 106.571C110.404 106.473 110.032 106.367 109.775 106.473C108.952 106.81 108.102 106.651 107.261 106.695C106.889 106.713 106.491 106.66 106.154 106.784C105.234 107.138 104.189 107.236 103.419 107.954C101.949 108.611 100.975 109.773 100.161 111.103C99.9658 111.414 99.7622 111.733 99.5231 111.999C98.806 112.788 98.2128 113.64 97.8941 114.678C97.7879 115.015 97.5488 115.059 97.3009 114.811C95.7958 113.241 94.1402 111.857 92.4138 110.544C92.1217 110.323 91.856 110.039 91.6347 109.746C90.8999 108.779 90.1916 107.777 89.7755 106.624C89.5984 106.136 89.262 105.728 89.2797 105.143C89.3062 104.575 89.7578 104.336 89.9525 103.91C90.5369 102.668 91.5019 101.799 92.7148 101.196C93.0867 101.009 93.4762 100.832 93.8392 100.619C94.5652 100.202 95.362 99.8919 96.0083 99.3242C96.2297 99.1291 96.5838 99.0847 96.8583 98.9428C97.0884 98.8275 97.177 98.8896 97.3275 99.1114C97.6285 99.5371 98.0181 99.9096 98.3811 100.3C98.93 100.876 99.4877 101.444 100.028 102.038C100.488 102.544 100.957 103.058 101.347 103.617C101.772 104.22 102.197 104.779 102.879 105.125C103.091 105.231 103.259 105.515 103.339 105.746C103.516 106.243 103.914 106.207 104.313 106.251C104.516 106.269 104.738 106.447 104.862 106.198C104.95 106.021 104.95 105.79 104.941 105.586C104.933 105.435 104.871 105.276 104.791 105.143C104.047 103.936 103.445 102.642 102.312 101.692C101.621 101.116 101.037 100.415 100.417 99.7588C100.205 99.5371 99.895 99.2533 99.9127 99.0049C99.9304 98.5969 100.391 98.7477 100.674 98.7033C100.913 98.6679 101.002 98.4905 101.143 98.3308C101.949 97.4172 102.781 96.5391 103.543 95.5812C104.171 94.7829 104.72 93.958 105.216 93.0799C105.42 92.7074 105.535 92.2639 105.8 91.9623C106.411 91.2616 106.686 90.4013 107.075 89.5941C107.323 89.0797 107.553 88.5386 107.775 88.0064C108.27 86.7913 108.695 85.5406 109.067 84.2811C109.315 83.4385 109.404 82.5427 109.652 81.6823C109.917 80.7776 110.165 79.8551 110.262 78.9238C110.342 78.1255 110.776 77.4248 110.714 76.5999C110.679 76.1831 110.599 75.7307 110.856 75.3582C111.121 74.9679 110.555 74.5333 110.944 74.1696C111.059 73.4423 111.245 72.715 111.281 71.9877C111.343 70.7636 111.396 69.5396 111.307 68.3156C111.219 67.0738 111.528 65.8675 111.369 64.608C111.148 62.8873 111.449 61.1311 111.042 59.4015C110.882 58.7451 111.05 58.0178 110.997 57.3348C110.944 56.6519 110.794 55.9866 110.679 55.3125C110.493 54.2925 110.333 53.2814 110.28 52.2436C109.961 51.7114 110.085 51.1083 109.979 50.5406C109.855 49.9286 109.536 49.3521 109.421 48.7312C109.244 47.7466 108.846 46.8242 108.678 45.8308C108.536 44.9704 108.226 44.1101 107.739 43.3473C107.518 42.9925 107.226 42.5845 107.226 42.2031C107.226 41.3516 106.845 40.6775 106.535 39.9501C106.243 39.276 105.906 38.6108 105.694 37.9101C105.366 36.8369 104.853 35.8878 104.251 34.9476C103.684 34.0606 103.197 33.1204 102.755 32.1625C102.595 31.8166 102.454 31.4973 102.188 31.2312C101.967 31.0006 101.692 30.8054 101.533 30.5393C100.816 29.404 99.7268 28.6057 98.8503 27.6212C98.7794 27.5414 98.5581 27.5502 98.4165 27.5857C98.3545 27.5946 98.2925 27.7542 98.2837 27.8518C98.2394 28.2243 98.2394 28.5791 98.5493 28.8807C98.93 29.2532 99.2752 29.6524 99.6205 30.0604C99.6648 30.1136 99.6648 30.3087 99.6382 30.3176C99.3018 30.4418 99.3284 30.5837 99.5231 30.8587C100.214 31.7988 100.754 32.8189 101.241 33.8744C101.595 34.6372 101.967 35.4 102.48 36.0829C102.825 36.5442 103.1 37.0763 103.286 37.6263C103.702 38.8237 104.189 39.9768 104.711 41.1209C104.818 41.3604 104.871 41.6177 104.95 41.866C105.216 42.7086 105.393 43.5956 105.765 44.3939C106.438 45.8574 106.659 46.4783 106.88 47.9595C106.978 48.6336 107.013 49.3521 107.243 49.9552C107.465 50.5317 107.438 51.0994 107.553 51.6582C107.668 52.2525 107.872 52.8468 107.81 53.4588C107.757 54.0619 108.014 54.603 108.084 55.1706C108.111 55.3746 108.084 55.6052 108.005 55.7915C107.916 56.0044 107.969 56.164 108.014 56.3769C108.262 57.7251 108.563 59.0644 108.465 60.457C108.421 61.0956 108.456 61.7342 108.465 62.3729C108.465 62.639 108.483 62.905 108.527 63.1623C108.784 64.404 108.784 65.0515 108.536 66.2756C108.492 66.4796 108.474 66.6924 108.456 66.8964C108.421 67.4552 108.651 67.9874 108.501 68.5817C108.359 69.1316 108.447 69.7436 108.439 70.329C108.439 70.5951 108.483 70.8701 108.421 71.1273C108.093 72.3957 107.792 73.6729 107.704 74.9856C107.447 75.305 107.482 75.6863 107.5 76.0589C107.562 77.1853 107.438 78.2763 106.987 79.3141C106.942 79.4116 106.88 79.5092 106.88 79.6068C106.88 80.5736 106.509 81.4428 106.269 82.3564C106.057 83.1724 105.845 83.9796 105.561 84.7601C105.26 85.5939 105.207 86.5252 104.623 87.2436C103.879 89.5143 102.693 91.5632 101.515 93.621C101.329 93.9403 101.108 94.233 100.913 94.5434C100.32 95.4836 99.4877 96.2553 99.0539 97.3019C98.8945 97.6833 98.5227 97.7986 98.1863 97.9405C97.8233 98.0913 97.478 98.1268 97.177 97.772C96.7254 97.2487 96.0791 97.2664 95.5568 97.4527C93.9277 98.047 92.3253 98.7477 90.953 99.8298C90.1739 100.442 89.5364 101.196 89.2443 102.242C88.9875 103.156 88.8724 104.105 88.5803 104.992C88.2438 106.039 88.4032 106.952 88.7839 107.892C88.8636 108.088 88.9787 108.283 88.9875 108.487C88.9964 108.788 89.1734 108.957 89.3328 109.17C89.7047 109.657 89.6781 109.649 89.1469 109.906C88.5803 110.172 87.9605 110.314 87.4736 110.775C86.9689 111.245 86.1544 111.13 85.6409 111.653C85.5258 111.777 85.2425 111.733 85.0389 111.777C84.2066 111.955 83.4895 112.407 82.737 112.753C81.9756 113.099 81.1256 113.214 80.4085 113.667C80.32 113.72 80.196 113.746 80.1341 113.817C79.6914 114.341 79.0185 114.429 78.443 114.571C77.9295 114.696 77.416 114.837 76.938 115.015C75.6011 115.512 74.1668 115.6 72.8565 116.159C72.7149 116.221 72.5466 116.212 72.3873 116.212C71.5462 116.23 70.7671 116.682 69.9083 116.558C69.3417 116.913 68.6688 116.789 68.0668 116.94C67.3939 117.117 66.7211 117.152 66.0393 117.206C65.7383 117.232 65.4462 117.383 65.1451 117.472C64.7556 117.587 64.4369 117.294 64.0739 117.259C64.0208 117.25 63.9676 117.268 63.9234 117.294C63.3213 117.605 62.6839 117.489 62.0553 117.498C61.2585 117.507 60.4971 117.419 59.718 117.215C59.2222 117.081 58.6644 117.197 58.1332 117.232C57.5577 117.268 56.9645 117.117 56.4068 117.374C55.9464 117.144 55.4329 117.658 54.9725 117.277C54.5918 117.525 54.1491 117.605 53.7596 117.41C53.2638 117.161 52.8831 117.614 52.4139 117.507C52.1128 117.436 51.803 117.392 51.502 117.303C50.9973 117.152 50.4661 117.135 49.9614 117.401C49.687 117.552 49.3771 117.764 49.1027 117.738C48.6866 117.702 48.66 117.215 48.4829 116.913C48.2173 116.461 47.8897 116.035 47.7127 115.547C47.0664 113.764 46.2696 112.043 45.4019 110.358C45.2337 110.03 45.0832 109.684 44.8973 109.374C44.7733 109.179 44.4457 109.187 44.3661 108.93C43.2328 109.019 42.2235 109.329 41.6392 110.429C41.5949 110.518 41.4975 110.589 41.4267 110.66C40.7716 111.343 40.4617 112.292 39.6914 112.877C39.3284 113.746 38.7087 114.483 38.3723 115.37C38.1863 115.857 37.6374 116.106 37.2479 115.804C36.7609 115.423 36.1766 115.405 35.6631 115.174C34.4236 114.616 33.2284 113.959 32.042 113.294C30.8999 112.647 29.811 111.893 28.66 111.254C27.9075 110.846 27.1549 110.438 26.5706 109.835C26.0217 109.258 25.3665 108.833 24.8088 108.283C24.4369 107.919 23.9677 107.635 23.6578 107.236C23.286 106.748 22.7548 106.509 22.3121 106.145C21.7455 105.675 21.1788 105.223 20.745 104.611C20.506 104.265 20.205 103.945 19.8774 103.688C18.9212 102.934 18.3811 101.799 17.3984 101.072C17.3187 101.018 17.2833 100.894 17.239 100.805C16.9734 100.229 16.4599 99.8387 16.1147 99.3065C15.7694 98.7743 15.3533 98.2865 14.9903 97.772C14.1935 96.6633 13.4321 95.5191 12.5998 94.437C12.1395 93.8339 12.0332 93.0799 11.5905 92.4856C11.1125 91.8559 10.7849 91.1286 10.3333 90.4811C9.70475 89.5764 9.23552 88.5652 8.70431 87.5896C8.1554 86.5695 7.62419 85.5406 7.08413 84.5117C7.0133 84.3698 6.8805 84.2457 6.84508 84.0949C6.60604 82.9152 5.97744 81.8508 5.81808 80.6357C5.7384 80.068 5.57904 79.4915 5.34885 78.9682C4.86191 78.0368 4.5786 76.9725 4.2156 75.9347C4.03853 75.438 3.87032 74.9413 3.47191 74.5599C3.15319 74.2672 2.94956 73.9035 2.88758 73.46C2.85217 73.2117 2.68395 72.9722 2.55115 72.7416C2.47147 72.6086 2.34752 72.5021 2.24128 72.3868C2.10848 72.2449 1.75434 72.3247 1.71893 72.511C1.66581 72.7682 1.72778 73.1052 1.59498 73.2826C1.17887 73.8237 1.31167 74.4091 1.38249 74.9768C1.47103 75.6509 1.65695 76.3072 1.80746 76.9725C2.00224 77.8417 2.31211 78.6932 2.32982 79.5979C2.59542 79.8995 2.33867 80.2809 2.48032 80.6179C2.62198 80.9461 2.56001 81.3807 2.74593 81.6646C3.04695 82.1258 3.15319 82.6136 3.28599 83.1281C3.55159 84.1392 4.13592 85.0528 4.29528 86.1172C4.31299 86.2147 4.40153 86.2946 4.47235 86.3833C4.98586 87.013 5.14522 87.8113 5.46394 88.5297C5.63216 88.9111 5.70299 89.3546 5.94203 89.6828C7.0133 91.1286 7.70387 92.805 8.69546 94.2951C9.01418 94.774 9.30634 95.2796 9.55424 95.8029C9.78443 96.2819 10.0589 96.7343 10.4219 97.1157C10.6432 97.3463 10.9088 97.5325 10.9442 97.8873C11.8827 98.8098 12.1483 100.238 13.2638 101.036C13.3789 101.125 13.4321 101.302 13.5029 101.444C13.7242 101.861 14.0252 102.207 14.3705 102.544C15.2559 103.44 16.0881 104.398 16.7787 105.444C17.1948 106.074 17.7171 106.553 18.2483 107.076C19.2576 108.061 20.5945 108.673 21.3382 109.932C21.3913 110.021 21.4799 110.11 21.5772 110.145C22.2501 110.403 22.6574 110.988 23.1532 111.458C23.2683 111.564 23.3834 111.715 23.525 111.751C24.8265 112.132 25.7561 113.143 26.8982 113.782C27.5887 114.163 28.2085 114.651 28.8814 115.059C30.0057 115.751 31.139 116.425 32.2811 117.081C32.6441 117.285 33.0513 117.419 33.4409 117.569C34.3262 117.906 35.2116 118.226 36.0969 118.554C36.3448 118.643 36.4334 118.829 36.336 119.051C35.8844 120.062 35.5923 121.126 35.0788 122.119C33.7419 124.701 32.7946 127.45 31.6525 130.111C31.5462 130.359 31.3957 130.528 31.2187 130.714C30.6609 131.326 30.3156 132.027 30.9177 132.843C31.2098 133.242 31.2806 133.712 31.3338 134.191C31.3515 134.307 31.5197 134.502 31.6082 134.493C32.5113 134.431 33.1487 134.697 33.3612 135.681C33.3966 135.859 33.6357 135.992 33.7773 136.151C34.2554 136.657 34.7069 137.18 35.2116 137.65C36.2917 138.662 37.3187 139.726 38.6202 140.471C39.1602 140.781 39.6826 141.172 40.1253 141.624C40.4882 141.988 40.9309 142.076 41.3382 142.289C41.8871 142.573 42.3386 142.484 42.8167 142.183C43.1531 141.97 43.401 141.748 43.1443 141.296C43.1 141.225 43.2063 140.994 43.3036 140.914C44.4457 140.045 45.8712 139.726 47.0752 138.972C47.4736 138.724 47.8897 138.493 48.3236 138.325C50.6697 137.438 52.6795 136.001 54.6184 134.44C54.9282 134.191 55.1761 133.845 54.9371 133.349C54.8309 133.127 54.8309 132.825 54.8486 132.568C54.9105 131.646 54.6184 130.794 54.2996 129.969C53.4054 127.654 52.3076 125.437 51.3072 123.166C50.9442 122.35 50.5812 121.534 50.2182 120.727C50.1031 120.479 50.3244 120.452 50.4484 120.452C50.8734 120.443 51.3514 120.354 51.7056 120.523C52.2191 120.771 52.7414 120.709 53.2549 120.78C53.6711 120.842 54.0783 120.904 54.4856 121.028C54.9991 121.188 55.548 121.552 56.1323 121.144C56.2031 121.091 56.3448 121.126 56.4422 121.144C56.8849 121.215 57.3275 121.366 57.7702 121.357C58.2306 121.348 58.691 121.188 59.1513 121.108C59.3107 121.082 59.4701 121.073 59.6294 121.073C60.4262 121.073 61.2231 121.082 62.0199 121.082C62.6042 121.082 63.2328 121.206 63.7551 121.02C64.6405 120.7 65.5258 120.78 66.42 120.754C66.6325 120.745 66.8804 120.798 67.0486 120.7C67.5444 120.408 68.0756 120.505 68.598 120.443C68.8105 120.416 69.0672 120.496 69.2266 120.399C70.0145 119.92 70.9265 119.884 71.7675 119.618C72.6263 119.352 73.4674 119.068 74.3882 119.148C74.5387 119.157 74.698 119.095 74.8485 119.051C75.8401 118.74 76.9468 118.882 77.841 118.217C77.8764 118.19 77.9473 118.199 78.0004 118.199C78.7618 118.208 79.4169 117.862 80.0721 117.552C81.1168 117.064 82.1526 116.567 83.2859 116.265C83.6843 116.159 84.0473 115.964 84.49 115.92C85.0477 115.866 85.0743 115.201 85.455 114.944C85.6232 114.829 85.8268 114.749 86.0216 114.687C86.4643 114.536 86.6502 113.995 87.1903 113.968C87.3231 113.959 87.4205 113.631 87.571 113.489C87.7569 113.312 88.0048 113.197 88.1819 113.01C88.8193 112.31 89.7666 111.955 90.2624 111.094C90.3864 110.873 90.6166 110.855 90.7848 111.023C91.7852 111.972 92.8919 112.797 94.0074 113.605C94.1757 113.729 94.3262 113.879 94.4767 114.03C95.2735 114.811 96.026 115.627 96.9733 116.239C97.2301 116.407 97.3186 116.807 97.1947 117.099C97.0796 117.392 96.9114 117.667 96.7963 117.96C96.7432 118.093 96.69 118.261 96.7166 118.403C96.8405 119.113 96.8405 119.849 97.0176 120.523C97.177 121.117 97.6019 121.641 97.903 122.19C98.1243 122.607 98.3899 123.006 98.5493 123.441C98.8149 124.195 99.0893 124.922 99.594 125.561C99.7887 125.809 99.9304 126.093 100.063 126.386C100.107 126.492 99.8242 126.679 100.028 126.749C100.408 126.891 100.639 127.104 100.816 127.468C101.099 128.08 101.577 128.577 101.887 129.198C102.197 129.827 102.852 130.297 103.366 130.821C103.888 131.344 104.375 131.885 104.72 132.559C105.154 133.42 105.871 134.094 106.579 134.715C107.73 135.708 108.828 136.763 109.953 137.792C110.227 138.041 110.51 138.298 110.732 138.591C111.343 139.398 112.166 139.957 112.927 140.586C113.255 140.852 113.609 141.092 113.883 141.411C115.211 142.937 116.876 144.09 118.346 145.465C118.956 146.041 119.647 146.538 120.338 147.017C121.993 148.152 123.427 149.545 124.924 150.875C125.278 151.195 125.605 151.54 125.951 151.877C126.287 152.215 126.632 152.552 126.969 152.889C127.341 153.27 127.695 153.66 128.076 154.033C128.412 154.37 128.766 154.671 128.846 155.195C128.943 155.807 129.722 155.452 129.97 155.904C129.997 155.949 130.041 155.984 130.076 156.029C130.767 156.836 131.325 157.74 132.157 158.423C132.511 159.23 133.157 159.78 133.795 160.348C133.954 160.49 134.096 160.659 134.193 160.845C134.725 161.812 135.69 162.486 136.07 163.568C136.132 163.754 136.345 163.887 136.478 164.047C137.363 165.085 138.301 166.078 139.036 167.24C139.461 167.914 139.957 168.517 140.55 169.067C141.055 169.528 141.427 170.105 141.79 170.699C142.392 171.684 143.029 172.668 143.79 173.529C144.446 174.274 145.234 174.957 146.066 175.489C147.332 176.296 148.12 177.467 148.775 178.726C149.191 179.542 149.829 180.181 150.28 180.952C150.298 180.988 150.386 181.023 150.395 181.015C150.758 180.633 151.183 181.148 151.555 180.944C151.741 180.837 151.927 180.74 152.113 180.642C152.272 180.562 152.538 180.686 152.609 180.855C152.644 180.952 152.688 181.05 152.706 181.157C153.095 182.691 154.078 183.622 155.893 183.702C156.77 183.738 157.628 183.986 158.505 183.88C158.921 184.11 159.328 183.746 159.709 183.853C160.134 183.977 160.541 184.084 160.94 183.906C161.329 183.738 161.763 184.154 162.117 183.782C163.277 183.649 164.33 183.134 165.455 182.877C165.756 182.806 166.057 182.709 166.349 182.593C166.624 182.496 166.747 182.141 167.164 182.247C167.482 182.327 167.535 181.839 167.854 181.724C168.129 181.627 168.35 181.334 168.58 181.121C169.315 180.438 169.952 179.649 170.811 179.09C171.006 178.957 171.112 178.673 171.245 178.451C171.767 177.591 172.316 176.757 172.786 175.87C173.255 174.983 173.644 174.07 174.326 173.316C174.556 173.058 174.618 172.65 174.742 172.305C175.079 171.364 175.388 170.415 175.734 169.475C175.937 168.925 176.07 168.375 176.052 167.79C176.035 167.107 176.061 166.442 176.265 165.759C176.424 165.085 176.3 164.366 176.584 163.719ZM50.6078 129.473C50.8202 129.951 51.015 130.448 51.1744 130.945C51.2983 131.344 51.3692 131.761 51.4223 132.009C51.3869 132.337 51.378 132.497 51.3603 132.657C51.3337 132.87 51.2895 133.065 51.0858 133.198C50.6343 133.473 50.2093 133.792 49.749 134.049C49.0673 134.431 48.359 134.777 47.6684 135.149C47.0221 135.495 46.4289 135.947 45.7915 136.293C44.2687 137.118 42.7282 137.943 41.0991 138.546C40.7096 138.688 40.4882 138.599 40.1695 138.262C39.2311 137.278 38.3369 136.267 37.4781 135.22C36.6104 134.173 35.6985 133.118 34.5122 132.373C34.2377 132.204 34.1934 131.983 34.3351 131.708C35.0345 130.351 35.5834 128.931 36.3448 127.601C37.1505 126.182 37.8056 124.665 38.5405 123.202C38.8946 122.501 39.293 121.809 39.6649 121.117C39.7357 120.984 39.8596 120.833 39.8596 120.7C39.8331 120.106 40.1253 119.698 40.5325 119.326C40.7361 119.139 40.7893 118.891 40.8512 118.616C40.9486 118.208 41.0637 117.782 41.2851 117.436C41.7631 116.682 42.3032 115.973 42.6042 115.121C43.0646 114.935 42.861 114.172 43.4807 114.128C43.826 114.412 43.7729 114.873 43.9854 115.237C44.4015 115.911 44.3926 116.744 44.7733 117.454C45.1186 118.101 45.5613 118.713 45.6675 119.476C46.3935 120.505 46.6503 121.756 47.4028 122.802C48.1376 123.814 48.5803 125.038 49.1204 126.182C49.6162 127.255 50.1208 128.364 50.6078 129.473ZM173.246 164.951C173.078 165.43 173.175 165.998 173.14 166.521C173.095 167.204 173.184 167.923 172.617 168.455C172.458 169.173 172.184 169.848 171.909 170.539C170.944 172.979 169.138 176.092 167.633 177.688C167.093 178.265 166.473 178.762 165.889 179.294C165.57 179.578 165.242 179.817 164.791 179.897C164.534 179.941 164.286 180.048 164.056 180.181C163.463 180.527 162.825 180.722 162.144 180.864C161.471 181.006 160.816 181.148 160.125 181.112C159.647 181.086 159.169 181.103 158.691 181.103V181.139C158.16 181.139 157.628 181.121 157.097 181.139C155.211 181.21 153.919 180.19 152.83 178.806C152.741 178.7 152.688 178.478 152.741 178.363C153.149 177.476 152.821 176.447 153.299 175.586C153.591 173.91 153.662 173.697 154.485 172.03C154.512 171.985 154.547 171.941 154.556 171.888C154.857 170.486 155.822 169.484 156.628 168.384C157.159 167.657 157.69 166.938 158.222 166.22C158.319 166.096 158.408 165.963 158.514 165.838C159.178 165.085 159.824 164.313 160.524 163.594C160.966 163.142 161.515 162.796 161.958 162.353C162.4 161.909 162.763 161.386 163.171 160.907C163.312 160.747 163.463 160.57 163.649 160.49C164.304 160.206 164.224 159.559 164.419 159.044C164.428 159.018 164.392 158.929 164.357 158.92C164.269 158.885 164.136 158.814 164.074 158.849C161.674 160.091 160.594 161.022 159.036 163.027C158.744 163.408 158.337 163.63 158.018 164.002C157.097 165.102 156.256 166.246 155.397 167.382C154.193 168.961 153.972 169.351 153.432 171.089C153.14 172.038 152.715 172.943 152.564 173.954C152.493 174.415 152.369 174.877 152.352 175.356C152.334 175.675 152.352 176.012 152.237 176.296C152.051 176.739 152.113 177.112 152.316 177.511C152.378 177.635 152.369 177.848 152.299 177.972C152.246 178.079 151.998 178.212 151.953 178.176C151.705 177.99 151.458 177.777 151.263 177.529C150.74 176.872 150.245 176.189 149.722 175.524C149.598 175.365 149.421 175.232 149.253 175.098C148.589 174.575 147.925 174.07 147.27 173.546C147.19 173.484 147.111 173.404 147.057 173.316C146.411 172.349 145.694 171.426 145.154 170.406C144.649 169.457 143.95 168.668 143.365 167.79C143.011 167.266 142.524 166.832 142.445 166.158C142.436 166.06 142.374 165.909 142.303 165.892C141.719 165.723 141.568 165.164 141.276 164.747C140.975 164.313 140.692 163.869 140.373 163.452C139.806 162.69 139.213 161.954 138.647 161.191C137.894 160.171 137.177 159.124 136.407 158.113C135.991 157.581 135.495 157.111 135.034 156.614C134.415 155.958 133.751 155.337 133.175 154.645C132.6 153.962 132.024 153.306 131.378 152.685C130.74 152.081 130.271 151.292 129.669 150.636C128.315 149.154 126.96 147.655 125.207 146.6C124.986 146.467 124.782 146.281 124.605 146.086C123.605 144.968 122.303 144.249 121.064 143.451C120.665 143.194 120.223 143.025 120.019 142.538C119.966 142.413 119.789 142.28 119.647 142.263C118.717 142.156 118.319 141.252 117.558 140.897C116.566 139.655 115.344 138.67 114.043 137.783C113.255 137.242 112.582 136.568 111.9 135.903C111.103 135.131 110.333 134.351 109.439 133.659C108.447 132.896 107.606 131.921 106.712 131.016C106.323 130.111 105.508 129.561 104.862 128.878C104.499 128.497 104.171 128.098 103.87 127.654C103.463 127.051 102.87 126.563 102.365 126.022C102.073 125.712 101.79 125.401 101.497 125.091C101.524 124.39 100.798 124.053 100.701 123.397C100.656 123.095 100.506 122.794 100.364 122.519C99.9393 121.703 99.771 120.842 99.8065 119.92C99.833 119.122 99.8684 118.323 99.7976 117.534C99.7268 116.762 100.116 116.097 100.161 115.361C100.169 115.174 100.347 114.988 100.47 114.82C101.117 113.986 101.728 113.134 102.285 112.239C102.498 111.893 103.888 110.482 104.233 110.234C104.401 110.11 104.632 110.021 104.72 109.853C105.455 108.575 106.712 108.425 107.978 108.292C108.394 108.247 108.802 108.256 109.218 108.105C109.598 107.963 110.085 107.937 110.466 108.052C111.9 108.487 113.476 108.566 114.716 109.56C114.955 109.755 115.273 109.87 115.566 109.995C117.602 110.855 119.222 112.292 120.763 113.817C121.444 114.483 122.135 115.13 122.879 115.733C124.472 117.055 125.844 118.616 127.075 120.283C127.296 120.576 127.482 120.904 127.739 121.153C129.12 122.465 130.36 123.92 131.635 125.339C132.414 126.2 133.273 126.98 133.937 127.956C134.556 128.86 135.592 129.446 136.15 130.439C136.911 130.838 137.31 131.628 137.991 132.133C138.62 132.604 139.116 133.26 139.7 133.801C140.745 134.768 141.816 135.717 142.87 136.666C143.064 136.843 143.259 137.03 143.445 137.216C143.817 137.588 143.914 138.156 144.401 138.466C144.844 138.75 145.234 139.132 145.694 139.389C146.686 139.93 147.305 140.888 148.208 141.535C148.403 142.023 148.908 142.165 149.288 142.431C150.501 143.283 151.546 144.329 152.688 145.27C153.308 145.775 153.999 146.148 154.645 146.6C155.247 147.026 155.796 147.611 156.469 147.842C157.177 148.081 157.566 148.64 158.133 149.013C158.443 149.208 158.788 149.341 159.107 149.527C159.284 149.633 159.505 149.749 159.585 149.917C159.753 150.308 160.054 150.423 160.426 150.529C161.497 150.831 162.418 151.461 163.348 152.037C164.463 152.729 165.499 153.554 166.579 154.317C166.747 154.441 166.925 154.565 167.11 154.654C167.792 154.973 168.385 155.425 168.89 155.966C169.271 156.366 169.74 156.578 170.2 156.836C170.289 156.889 170.422 156.862 170.51 156.915C171.041 157.253 171.564 157.607 172.095 157.953C172.237 158.512 172.378 159.062 172.511 159.621C172.75 160.579 172.963 161.546 173.219 162.503C173.45 163.302 173.547 164.1 173.246 164.951ZM47.5356 109.56C48.1908 109.622 48.8371 110.039 49.5099 109.649C49.5896 109.604 49.7224 109.622 49.8198 109.649C50.3244 109.791 50.8291 109.932 51.3337 110.083C51.8207 110.234 52.343 110.003 52.83 110.234C53.1576 110.394 53.5028 110.482 53.8481 110.269C54.2996 110.607 54.7689 110.163 55.2027 110.287C56.088 110.553 57.0442 110.358 57.9207 110.775C58.2217 110.917 58.6201 110.802 58.992 110.704C59.8508 110.482 60.745 110.225 61.6126 110.252C62.5422 110.278 63.3745 110.039 64.2421 109.844C64.3926 109.808 64.5343 109.657 64.6759 109.657C65.8446 109.666 66.9158 109.17 68.0491 109.001C68.4298 108.948 68.7396 108.824 69.0672 108.646C69.6604 108.318 70.2447 107.981 70.8999 107.768C71.6436 107.529 72.3607 107.209 73.1044 106.952C74.1403 106.589 75.1053 106.012 76.088 105.498C76.814 105.107 77.3452 104.327 78.3102 104.398C78.4342 104.407 78.567 104.22 78.6998 104.14C78.9743 103.981 79.231 103.777 79.5232 103.67C81.1345 103.076 82.3917 101.941 83.7463 100.947C84.2066 100.61 84.4988 100.034 85.1451 99.9717C85.5789 99.5194 86.0128 99.067 86.4554 98.6235C86.6059 98.4816 86.8184 98.4018 86.9778 98.2687C87.2168 98.0559 87.509 97.8518 87.6329 97.5858C87.934 96.9205 88.4829 96.5125 88.9698 96.0247C89.3505 95.6522 89.7047 95.2619 90.0499 94.8627C90.4306 94.4281 90.7759 93.958 91.1743 93.5323C92.2633 92.3703 93.246 91.1375 94.1668 89.8425C94.459 88.92 95.1495 88.237 95.6365 87.4388C95.8578 87.0751 96.1146 86.7381 96.2916 86.3567C96.8671 85.1149 97.4249 83.8643 97.9649 82.6136C98.3014 81.842 98.5935 81.0525 98.8945 80.272C99.3284 79.1456 99.4523 77.9393 99.8507 76.8039C100.391 75.2695 100.612 73.6463 101.028 72.0764C101.356 70.8435 101.701 69.5574 101.435 68.2269C101.4 68.0318 101.391 67.7568 101.497 67.606C101.754 67.2335 101.524 66.9053 101.506 66.5594C101.48 66.2046 101.444 65.8498 101.427 65.495C101.409 65.0693 101.418 64.6435 101.409 64.2178C101.391 63.6856 101.497 63.109 101.32 62.639C101.073 61.956 101.161 61.2819 101.099 60.5989C101.019 59.7652 101.126 58.9225 100.807 58.1065C100.621 57.6275 100.426 57.051 100.524 56.5809C100.63 56.0665 100.532 55.6052 100.347 55.2238C99.7445 53.9732 99.47 52.6427 99.1779 51.3034C99.0451 50.6914 98.868 50.0883 98.6555 49.494C98.3368 48.607 97.9295 47.7555 97.6197 46.8685C97.5134 46.5581 97.3895 46.2654 97.1416 46.0614C96.2739 45.3341 95.9995 44.1544 95.1672 43.4005C95.0876 42.5933 94.4855 42.0966 94.0251 41.5378C93.2815 40.642 92.4758 39.7905 91.6524 38.9745C91.4134 38.735 91.015 38.6729 90.6874 38.531C90.3952 38.9301 90.7228 39.214 90.8556 39.551C90.9884 39.8881 91.0769 40.2517 91.2009 40.5976C91.2894 40.8371 91.3425 41.1209 91.5019 41.2983C92.0597 41.9458 92.4758 42.6732 92.9539 43.3739C93.3788 44.0036 93.7772 44.5979 93.8215 45.3784C94.3616 45.955 94.8308 46.6113 95.0256 47.3652C95.3089 48.4917 95.9995 49.4762 96.088 50.6559C96.9379 52.084 96.7963 53.8224 97.5488 55.2859C97.6374 55.4545 97.5665 55.7028 97.5931 55.9157C97.6374 56.2705 97.5134 56.5188 97.239 56.7406C96.2208 57.5743 95.3266 58.5145 94.6183 59.641C94.4767 59.8627 94.2996 60.0667 94.1048 60.253C93.0336 61.2553 92.3253 62.4438 92.1305 63.9251C92.0951 64.1646 91.8295 64.2533 91.6524 64.1202C91.1124 63.7122 90.6785 63.1889 89.988 62.9405C89.4922 62.7631 89.1115 62.6478 88.7131 63.0558C88.5626 63.2066 88.3501 63.3485 88.1553 63.1977C87.8543 62.976 87.6595 63.1002 87.5267 63.3574C87.385 63.6324 87.3673 64.0315 87.1549 64.1912C86.8538 64.4218 86.8361 64.6879 86.7653 64.9983C86.4908 66.1691 86.2075 67.3665 85.5966 68.4043C85.1008 69.238 84.9238 70.1694 84.5962 71.0386C84.3749 71.6151 84.2952 72.2715 84.2598 72.8924C84.2244 73.5576 83.9676 74.1164 83.6666 74.6841C83.6223 74.7728 83.6223 74.8881 83.6223 74.9945C83.6577 75.9613 83.2859 76.8483 83.0646 77.7619C83.0114 77.9925 83.0291 78.1699 83.1265 78.365C83.1708 78.4537 83.2239 78.5956 83.1796 78.6666C82.9406 79.0657 82.7547 79.5802 82.3917 79.8019C82.0464 80.0148 81.8339 79.4294 81.524 79.252C81.3027 79.1189 81.0548 79.0302 80.8158 78.9238C80.4262 78.7553 80.0544 78.5335 79.656 78.4448C79.1779 78.3384 78.806 78.161 78.505 77.7441C78.3722 77.5579 78.0446 77.4337 77.8056 77.4248C77.2567 77.3982 76.8052 77.0966 76.3094 76.9281C75.8578 76.7773 75.4329 76.4669 74.9813 76.4403C74.4236 76.4137 74.2731 75.8726 73.7861 75.7662C72.7503 75.5356 71.8207 74.9679 70.9884 74.3648C70.0677 73.6907 69.023 73.3713 68.0137 72.9279C67.7038 72.7859 67.3851 72.9279 67.1903 73.2206C66.9955 73.5044 66.9512 73.8947 67.1549 74.1075C67.4028 74.3736 67.6861 74.6131 67.9871 74.826C68.8016 75.4114 69.6693 75.9258 70.4307 76.5733C71.4577 77.4514 72.6352 77.9747 73.8835 78.4271C74.2996 78.5779 74.7069 78.569 75.123 78.6222C75.5834 78.6843 76.0349 78.8972 76.4953 78.9149C77.053 78.9327 77.5134 79.0391 77.9118 79.4737C78.1155 79.6955 78.4342 79.8285 78.7175 79.9704C79.3815 80.2897 80.0367 80.5913 80.8158 80.547C81.1876 80.5204 81.5418 80.5026 81.8693 80.2897C82.0287 80.1922 82.3032 80.4228 82.2943 80.6179C82.2855 81.0437 82.25 81.4428 82.1261 81.8686C81.71 83.2168 81.648 84.6625 81.0725 85.9753C80.9574 87.4565 80.4616 88.8491 80.1075 90.2682C79.9658 90.827 79.833 91.3947 79.7799 91.9712C79.7002 92.8582 79.8862 93.7806 79.47 94.6321C79.594 95.5546 79.1602 96.3972 79.0362 97.2842C79.0185 97.3818 78.8857 97.5059 78.9123 97.568C79.0274 97.8518 79.1248 98.1623 79.3284 98.3663C79.4966 98.5348 79.8065 98.5614 80.0632 98.6324C81.2053 98.9694 81.6214 98.7566 82.3386 97.7986C83.0468 96.8496 83.0911 95.7408 83.2505 94.6676C83.3833 93.7806 83.4984 92.8848 83.7728 92.0422C83.9853 91.3858 83.7551 90.6496 84.1978 90.0376C84.2775 89.9312 84.2509 89.7183 84.2244 89.5675C84.1004 88.8579 84.366 88.2104 84.5785 87.5629C84.729 87.1017 84.7733 86.6405 84.8795 86.1881C85.2071 84.8665 85.3399 83.5006 85.7383 82.1879C85.8888 81.6912 86.0482 81.1767 86.119 80.6623C86.3315 79.1012 86.6945 77.5756 87.0486 76.0411C87.1549 75.5799 87.3762 75.1453 87.3939 74.6752C87.4382 73.398 88.0313 72.236 88.0756 70.9676C88.4032 70.5064 88.3235 69.9654 88.3855 69.442C88.4475 68.8744 88.6865 68.3067 88.6688 67.7391C88.6422 67.0206 88.9433 66.3997 89.0761 65.7345C89.1026 65.6192 89.3771 65.5394 89.4745 65.6103C89.563 65.6724 89.6515 65.7256 89.7312 65.7966C90.9707 66.9408 92.042 68.289 93.4762 69.2203C93.5648 69.2735 93.6356 69.3622 93.7064 69.442C94.3881 70.2581 95.2381 70.9056 95.8313 71.8103C95.9906 72.0586 96.3005 72.2271 96.5749 72.3691C96.8494 72.5199 97.1681 72.5819 97.4514 72.6972C97.7879 72.8392 97.9295 73.1319 97.7967 73.46C97.3452 74.5776 97.1858 75.7928 96.6635 76.8926C96.4864 77.2652 96.4776 77.7086 96.3536 78.1078C96.088 78.9593 95.8135 79.8019 95.5302 80.6445C95.3974 81.0348 95.3089 81.4517 94.8928 81.6912C94.7954 81.7444 94.8042 81.975 94.7688 82.1258C94.7246 82.3298 94.698 82.5427 94.6272 82.7289C94.4147 83.2611 94.2642 83.8465 93.9455 84.3077C93.6179 84.7956 93.4497 85.3721 93.1044 85.8067C92.7325 86.2768 92.582 86.8356 92.2633 87.3057C91.9711 87.7403 91.617 88.104 91.4576 88.6451C91.316 89.124 90.8733 89.5143 90.5989 89.9578C90.2093 90.5964 89.7312 91.1552 89.2443 91.714C88.3412 92.7517 87.4205 93.7629 86.5882 94.8627C85.8268 95.8828 85.1008 96.9383 84.1093 97.7543C83.7817 98.0204 83.4541 98.3131 83.0823 98.4727C82.3474 98.7832 81.6569 99.138 81.1345 99.7677C81.0371 99.883 80.8777 99.9451 80.7449 100.025C79.5409 100.761 78.4607 101.701 77.115 102.198C76.5484 102.712 75.8136 102.89 75.1319 103.165C74.4059 103.458 73.7507 103.945 72.9008 103.901C72.7237 103.892 72.5024 104.043 72.3519 104.167C72.0951 104.38 71.8029 104.451 71.5019 104.549C70.8025 104.761 70.0765 104.903 69.4479 105.32C69.324 105.4 69.1469 105.48 69.0052 105.471C68.2439 105.409 67.5621 105.764 66.8539 105.932C66.2784 106.074 65.7029 105.985 65.1451 106.181C64.1978 106.5 63.2062 106.624 62.2235 106.739C61.471 106.828 60.7804 106.934 60.1783 107.413C60.019 107.538 59.8065 107.653 59.6117 107.653C58.7618 107.671 57.8853 107.777 57.0708 107.6C56.4422 107.467 55.8313 107.378 55.2027 107.351C54.6184 107.325 54.034 107.334 53.4497 107.351C53.0602 107.36 52.706 107.298 52.4493 106.988C52.2634 106.766 52.0155 106.704 51.741 106.713C51.4223 106.722 51.0593 106.81 50.7937 106.695C49.8729 106.305 48.9167 106.385 47.9783 106.411C47.27 106.429 46.6237 106.322 45.9951 105.985C45.7738 105.861 45.4905 105.773 45.2426 105.79C44.7822 105.826 44.4369 105.586 44.0385 105.453C43.7994 105.373 43.5781 105.161 43.3036 105.356C42.197 105.063 41.0903 104.788 39.9925 104.46C39.7003 104.371 39.4524 104.14 39.1691 104.007C39.0274 103.936 38.8681 103.892 38.7176 103.883C37.9827 103.848 37.4072 103.466 36.9292 102.961C36.3802 102.384 35.6985 101.967 35.0788 101.488C34.6273 101.134 34.0783 100.903 33.6091 100.566C33.1045 100.202 32.6706 99.75 32.1217 99.4395C31.5728 99.1291 31.0416 98.792 30.4838 98.5082C29.8729 98.1889 29.324 97.8075 28.8017 97.3463C28.2439 96.8584 27.7924 96.2642 27.2258 95.8295C26.7034 95.4393 26.4024 94.8982 25.942 94.4725C25.4374 94.0112 24.9593 93.5057 24.5077 92.9912C23.8437 92.2462 23.2063 91.4656 22.5423 90.7117C21.8429 89.9223 21.5241 88.8491 20.6565 88.1927C19.718 86.4986 18.3546 85.0617 17.6552 83.2168C17.6197 83.1192 17.5932 83.0039 17.5312 82.9241C16.9646 82.1613 16.6813 81.2477 16.1589 80.4583C15.9553 80.1567 15.7782 79.8019 15.734 79.456C15.6454 78.7553 15.3533 78.1433 15.1142 77.5046C14.6804 76.3516 14.0341 73.735 13.9633 72.5021C13.919 71.7748 13.9101 71.0209 13.7154 70.329C13.5826 69.8589 13.5029 69.4066 13.5029 68.9365C13.494 68.4309 13.2461 67.9608 13.3789 67.4109C13.4675 67.0383 13.193 66.5949 13.2019 66.1957C13.2107 65.7345 13.3789 65.2733 13.4232 64.8032C13.4498 64.5548 13.3789 64.2799 13.317 64.0315C13.1133 63.0824 13.131 62.2487 13.3612 61.3883C13.4409 61.0867 13.4852 60.7674 13.494 60.457C13.5117 59.6144 13.5472 58.7895 13.7419 57.9469C13.9456 57.0865 14.2289 56.2084 14.1492 55.2948C14.5122 54.4078 14.5919 53.4588 14.8221 52.5452C14.9549 52.0219 15.07 51.4542 15.4418 50.9575C15.9819 50.2568 16.1589 49.3255 16.6459 48.5715C16.6105 47.995 16.9469 47.5781 17.239 47.1435C17.3807 46.9218 17.4958 46.6734 17.5755 46.4251C17.6286 46.2299 17.6109 46.0082 17.602 45.7953C17.5932 45.6002 17.3719 45.4139 17.1594 45.4316C17.0089 45.4494 16.8141 45.4583 16.7167 45.5558C16.274 46.0082 15.8402 46.4605 15.548 47.0459C15.1054 47.9418 14.707 48.8554 14.0164 49.627C13.7242 49.9552 13.5826 50.4608 13.4763 50.9131C13.1576 52.2436 12.9274 53.5829 12.3342 54.8424C12.0952 55.348 11.9358 55.9512 11.9358 56.5188C11.927 57.7961 11.4312 59.0201 11.5817 60.3062C11.5994 60.457 11.5817 60.6433 11.5197 60.7763C11.2984 61.2109 11.4932 61.6633 11.4223 62.0979C11.3515 62.6123 11.2453 63.0913 11.4932 63.6146C11.6082 63.863 11.5197 64.2532 11.4223 64.5459C11.2984 64.9185 11.2187 65.2467 11.4312 65.6103C11.5994 65.9119 11.4843 66.2135 11.4223 66.5328C11.3515 66.8521 11.4135 67.2069 11.44 67.5439C11.4843 68.0672 11.5463 68.5994 11.5905 69.1227C11.6348 69.5928 11.5286 70.1339 11.7233 70.533C11.9889 71.0741 11.6171 71.5442 11.7853 72.0586C11.927 72.5021 11.8561 73.0166 12.0067 73.4512C12.1306 73.8148 12.1837 74.1608 12.1837 74.5333C12.1837 75.1187 12.228 75.7041 12.2368 76.2895C12.2368 76.6177 12.2988 76.9104 12.4582 77.2031C12.9363 78.0812 12.9982 79.1189 13.4675 80.0059C13.7773 81.7976 14.8132 83.3143 15.3975 84.9996C15.4684 85.1947 15.6277 85.3544 15.7428 85.5229C16.699 86.9775 17.7171 88.3878 18.4962 89.9489C18.7707 90.5166 19.1248 91.0665 19.5321 91.5366C20.5237 92.6985 21.5772 93.8161 22.5954 94.9603C23.0204 95.4304 23.3922 95.9448 23.8172 96.4149C24.3218 96.9649 24.7911 97.568 25.3931 97.9849C26.0571 98.4461 26.6237 98.9783 27.1638 99.5637C27.8898 100.344 28.7308 100.965 29.6959 101.435C30.7406 101.941 31.803 102.429 32.5732 103.351C32.6618 103.458 32.8566 103.475 32.9805 103.573C33.7862 104.158 34.7158 104.611 35.3798 105.365C35.7162 105.746 36.0969 106.003 36.5396 106.083C37.0265 106.163 37.4426 106.376 37.8853 106.535C39.0717 106.97 40.2403 107.422 41.4356 107.839C42.0287 108.043 42.6573 108.15 43.2505 108.354C43.6578 108.496 44.127 108.575 44.3838 108.992C44.8441 109.037 45.2957 108.957 45.7649 109.161C46.2873 109.365 46.9159 109.507 47.5356 109.56ZM96.4776 69.2913C95.9818 68.5905 95.3797 68.014 94.7865 67.4109C94.636 67.2601 94.4767 67.127 94.335 66.9674C93.8392 66.4175 93.3523 65.8587 92.8653 65.3087C93.0424 64.5193 93.7418 64.1379 94.2465 63.6412C95.2381 62.6833 96.0172 61.548 96.9733 60.5546C97.115 60.4038 97.2655 60.253 97.4426 60.1377C97.6551 59.9869 98.1243 60.1554 98.2394 60.4038C98.4165 60.794 98.5493 61.1754 98.5316 61.6189C98.4961 62.4616 98.5227 63.3131 98.5227 64.1646H98.5404C98.5404 64.9628 98.5138 65.7522 98.5493 66.5416C98.5758 67.1359 98.2482 67.6858 98.3102 68.2358C98.381 68.83 98.2571 69.3711 98.0712 69.8855C97.9649 70.196 98.1066 70.3734 98.1597 70.604C98.1686 70.6483 98.1597 70.7104 98.142 70.7548C98.0889 70.8789 98.0003 70.8967 97.8941 70.7902C97.416 70.2935 96.8671 69.8501 96.4776 69.2913ZM44.3395 108.948C44.3306 108.948 44.3306 108.948 44.3218 108.948C44.3218 108.975 44.3395 108.983 44.3484 109.001C44.3572 109.001 44.3661 109.001 44.3749 109.001C44.3661 108.975 44.3484 108.966 44.3395 108.948ZM1.37364 63.2598C1.38249 63.4018 1.9137 63.863 2.07307 63.8098C2.25013 63.7565 2.45376 63.6058 2.52459 63.4372C2.88758 62.6123 3.25058 61.7963 3.21516 60.8561C3.19745 60.4836 3.1886 60.0933 3.28599 59.7474C3.67554 58.275 3.85261 56.7494 4.25987 55.2859C4.41923 54.7183 4.49006 54.1506 4.55204 53.5741C4.61401 53.0064 4.8442 52.4742 4.83535 51.8711C4.81764 50.5938 5.26031 49.3964 5.66757 48.2079C5.84464 47.7112 6.01286 47.2233 6.14566 46.7089C6.44668 45.6002 6.81852 44.5003 7.24349 43.4271C7.98718 41.5644 8.77514 39.7284 9.5631 37.8924C9.76673 37.4134 10.0412 36.9522 10.3156 36.5087C10.9 35.5685 11.6437 34.7347 12.1395 33.7413C12.3519 33.3156 12.5644 32.8898 12.8212 32.4996C13.857 30.9207 14.7158 29.2355 16.3891 28.1356C17.4338 27.4438 18.2926 26.4593 19.2311 25.5989C20.1607 24.7563 21.2585 24.0733 21.9934 23.0089C22.073 22.8936 22.259 22.8404 22.3829 22.7428C22.8876 22.3703 23.3922 21.98 23.9057 21.6075C24.1182 21.4567 24.3307 21.2527 24.5786 21.2084C25.7738 20.9689 26.5972 19.8602 27.8721 19.8069C27.9606 19.8069 28.058 19.7094 28.1288 19.6384C28.4918 19.2393 28.9079 18.9909 29.4568 18.8313C29.9438 18.6894 30.3245 18.2015 30.8114 18.0419C32.0686 17.625 33.2107 16.9686 34.3971 16.401C34.7246 16.2413 35.0788 16.0639 35.4329 16.0462C36.0438 16.0196 36.5573 15.8244 37.0708 15.5229C37.8588 15.0616 38.7441 14.8665 39.6206 14.7689C40.2581 14.698 40.8601 14.5738 41.4621 14.3875C42.4537 14.0771 43.4542 13.7667 44.4546 13.4828C44.7999 13.3853 45.1894 13.2256 45.5082 13.2966C45.8534 13.3764 46.0571 13.3409 46.3669 13.1635C47.0929 12.7378 47.8809 12.4007 48.7574 12.4894C49.2443 12.5426 49.6693 12.3031 50.1208 12.2322C50.6874 12.1435 51.2718 11.8863 51.803 11.975C52.3962 12.0814 52.9274 11.8685 53.494 11.8774C55.7162 11.9217 57.9473 11.8774 60.1783 11.8419C60.8069 11.833 61.4532 11.9838 62.0464 11.6202C62.4448 11.7266 62.8432 11.8153 63.2416 11.629C63.7817 11.9572 64.3749 11.8153 64.9504 11.8508C65.3222 11.8774 65.756 11.7887 66.0482 11.9484C66.6502 12.2854 67.3231 12.0104 67.8986 12.2943C68.5449 12.6136 69.2532 12.4717 69.926 12.5338C70.7759 12.6136 71.5816 12.791 72.343 13.1635C72.6706 13.3232 72.9627 13.6602 73.2903 13.7046C73.6799 13.7489 74.1049 13.5538 74.5121 13.4651C74.7689 13.4119 75.0345 13.3853 75.2735 13.2966C75.4063 13.2522 75.4771 13.2256 75.5214 13.3675C75.5391 13.4119 75.548 13.474 75.5303 13.5183C75.4683 13.6602 75.4152 13.811 75.3355 13.944C74.0517 16.055 73.1487 18.3701 71.9357 20.5254C71.8561 20.6584 71.8472 20.8358 71.7675 20.96C71.5108 21.3592 71.8472 21.9623 71.4222 22.2461C71.0593 22.4945 70.59 22.592 70.1651 22.7606C70.0765 22.9291 69.9968 23.1065 69.8995 23.2662C69.4745 23.9935 69.3151 24.7119 69.8021 25.5102C70.0145 25.8561 70.1562 26.2641 70.1651 26.7165C70.1739 27.0713 70.3421 27.4261 70.4572 27.772C70.5369 28.0203 70.7405 28.2509 70.7494 28.4993C70.7759 29.2089 71.1035 29.812 71.3072 30.4595C71.5108 31.107 71.5993 31.79 71.9357 32.402C72.0331 32.5794 72.0066 32.81 72.0597 33.014C72.104 33.218 72.1128 33.4664 72.2368 33.6083C72.9185 34.4066 72.7237 35.1516 72.1925 35.9144C72.104 36.0386 72.0686 36.2071 71.9889 36.3402C71.5551 37.0409 71.3957 37.8037 71.4222 38.6197C71.44 39.0454 71.5108 39.4978 71.3868 39.8881C71.254 40.3227 71.3603 40.6952 71.4134 41.0943C71.44 41.2983 71.4311 41.529 71.3603 41.7241C71.015 42.6554 71.0681 43.6222 71.2186 44.5447C71.378 45.5115 71.4931 46.5404 72.2368 47.312C72.3342 47.4096 72.3253 47.6047 72.3784 47.7555C72.5555 48.2256 72.8034 48.3587 73.1841 48.1901C75.2647 47.2677 77.1681 46.0348 79.0982 44.8551C79.8153 44.4205 80.4439 43.8351 81.0902 43.3029C81.4178 43.0279 81.7277 42.7352 81.3913 42.2385C81.3381 42.1676 81.4355 41.9192 81.5418 41.8305C82.0641 41.387 82.6307 40.9968 83.1442 40.5444C83.7374 40.0122 84.2332 39.3559 84.8795 38.9035C85.5435 38.4423 86.0393 37.848 86.6059 37.307C87.9074 36.0652 89.1734 34.7968 90.4483 33.5462C91.2452 32.7656 92.0331 31.9762 92.8388 31.2134C93.2195 30.8498 93.6533 30.5571 94.0163 30.1846C94.4944 29.6967 94.9193 29.1557 95.3797 28.6412C95.7693 28.2066 96.1677 27.7809 96.5838 27.3728C96.9999 26.9737 97.4603 26.6189 97.8764 26.2109C98.2837 25.8118 98.6467 25.3594 99.0451 24.9514C99.7445 24.2241 100.47 23.5234 101.17 22.7961C101.418 22.53 101.737 22.2993 101.772 21.8825C101.79 21.6341 101.949 21.5277 102.188 21.4922C102.551 21.439 102.923 21.4124 103.268 21.2971C103.658 21.1729 103.826 20.5077 103.56 20.215C103.348 19.9843 103.109 19.7449 102.834 19.6118C102.206 19.3102 101.675 18.9022 101.117 18.4942C100.223 17.8379 99.293 17.2259 98.4961 16.4453C98.381 16.3389 98.2571 16.2236 98.1243 16.1526C96.9114 15.5229 95.787 14.7689 94.7954 13.8199C94.4501 13.4917 93.9809 13.2966 93.4939 13.5981C93.246 13.7489 93.0867 13.6159 92.9627 13.4651C92.7945 13.2611 92.6174 13.0393 92.5555 12.7998C92.3253 11.9129 91.8649 11.1767 91.316 10.4494C90.9087 9.91718 90.528 9.36726 90.2447 8.72864C89.8463 7.81505 89.3505 6.92808 88.775 6.11206C87.8897 4.86143 87.0309 3.61079 86.2607 2.28033C85.995 1.82797 85.756 1.34901 85.455 0.923259C85.2514 0.621688 84.9769 0.355595 84.6936 0.133852C84.4457 -0.0701524 83.8348 -0.0435431 83.6754 0.231419C83.4718 0.595079 83.0911 0.674906 82.8432 0.940999C82.6839 1.10952 82.5865 1.31353 82.7281 1.50866C83.1885 2.13841 83.5515 2.82139 83.8437 3.53983C83.1265 3.44227 82.5156 3.64627 82.1349 4.28489C81.8516 4.76386 81.4444 5.03882 81.0283 5.37587C80.2049 6.0411 79.5232 6.86599 78.9654 7.7707C78.7441 8.12549 78.6378 8.54237 78.3988 8.88829C77.6816 9.93492 76.9202 10.9461 76.1943 11.9838C76.0438 12.1967 75.9375 12.0282 75.8224 11.975C75.3266 11.7621 74.9017 11.4516 74.5741 11.017C73.6622 9.82849 72.3519 9.45596 70.9707 9.34065C70.227 9.27856 69.4922 9.2076 68.8105 8.94151C68.297 8.73751 67.7835 8.73751 67.2523 8.70203C66.7388 8.66655 66.2253 8.58672 65.7206 8.51576C65.4727 8.48028 65.2071 8.46254 64.9858 8.36498C64.5608 8.16984 64.1004 8.23193 63.6666 8.10775C63.1708 7.96584 62.6131 8.01906 62.0818 8.02793C61.6569 8.02793 61.1876 7.97471 60.8247 8.13436C60.258 8.38272 59.6826 8.32063 59.1071 8.35611C58.6378 8.38272 58.0978 8.46254 57.6905 8.28515C57.177 8.06341 56.7786 8.49802 56.3182 8.33837C56.1235 8.26741 55.9198 8.21419 55.7162 8.16984C55.5126 8.13436 55.2735 8.04567 55.0965 8.11662C54.6981 8.27628 54.2908 8.38272 53.8658 8.38272C53.4586 8.39159 53.0425 8.45367 52.6795 8.54237C51.8118 8.76412 50.8822 8.52463 50.05 8.92377C49.5985 8.41819 49.1823 8.94151 48.7397 8.95038C48.1996 8.96812 47.7038 9.10117 47.1903 9.26082C46.6945 9.42048 46.1545 9.44709 45.6675 9.63335C45.1894 9.81075 44.6936 9.71318 44.2156 9.89944C43.2417 10.2808 42.2678 10.7066 41.1788 10.6356C41.0814 10.6268 40.984 10.7155 40.8867 10.7421C40.0898 10.9816 39.293 11.363 38.4785 11.4162C37.6286 11.4694 37 12.1967 36.1235 12.0371C35.2558 12.7466 34.0783 12.7466 33.1487 13.3853C32.4847 13.8376 31.6171 14.0061 30.8291 14.2811C30.4307 14.423 30.0589 14.5561 29.7047 14.8044C29.147 15.1858 28.5095 15.4785 27.8721 15.7003C27.031 16.0018 26.1456 16.1881 25.4816 16.8445C24.7556 16.942 24.3307 17.5806 23.7286 17.8556C22.073 18.5918 20.6742 19.6828 19.3639 20.8802C18.1687 21.9712 16.6636 22.7517 15.8579 24.2507C15.7605 24.4281 15.548 24.5345 15.4064 24.6942C15.1585 24.9691 14.884 25.2264 14.6981 25.5457C14.5742 25.7497 14.4414 25.8472 14.22 25.8916C13.5737 26.0069 13.1399 26.5213 12.5644 26.7608C12.3342 27.5946 11.4932 28.0115 11.1656 28.8009C10.9 29.4218 10.5281 30.0249 10.1032 30.5571C9.85526 30.8675 9.45685 31.0183 9.28864 31.4707C9.13813 31.8875 8.77514 32.2335 8.52724 32.6237C8.02259 33.4309 7.54451 34.2469 7.04871 35.0629C6.88935 35.329 6.65916 35.5862 6.57062 35.8789C6.21649 37.0409 5.64986 38.123 5.2249 39.2494C4.83535 40.2783 4.26872 41.2451 3.98541 42.3184C3.80834 42.9747 3.7021 43.6843 3.42764 44.2786C2.82561 45.5824 2.61313 47.0016 2.09963 48.3232C1.87829 48.8997 1.71893 49.5383 1.69237 50.1592C1.6481 51.2679 1.14345 52.3146 1.30281 53.4499C1.32052 53.5475 1.32052 53.6894 1.2674 53.7603C0.957529 54.1861 1.09033 54.6828 1.01065 55.1529C0.930968 55.6052 0.789313 56.0487 0.762752 56.5011C0.727339 57.2373 0.567976 57.9823 0.815873 58.7097C1.1523 59.7119 1.32937 60.7408 1.33823 61.8052C1.33823 62.3019 1.35593 62.7809 1.37364 63.2598ZM76.2917 17.7492C76.4599 16.9952 76.8937 16.2945 77.2301 15.5761C77.2921 15.443 77.4338 15.3366 77.5488 15.2302C77.7348 15.0616 78.4519 14.1392 78.5581 13.9263C79.0716 12.9506 79.594 11.9838 80.1164 11.017C80.6476 10.0414 81.2319 9.10117 81.7188 8.10775C82.3651 6.78616 83.1619 5.53553 83.7197 4.16959C83.7905 3.99219 83.8348 3.79706 83.8791 3.61079C83.9233 3.61966 83.9765 3.62853 83.9942 3.65514C84.7379 4.9856 85.8091 6.10319 86.482 7.48687C86.7742 8.09001 87.3231 8.56011 87.7392 9.11003C88.2792 9.82848 88.7927 10.5647 89.324 11.292C89.5099 11.5492 89.7312 11.7798 89.9437 12.0193C90.0145 12.0991 90.1296 12.1612 90.1562 12.2499C90.2713 12.6491 90.3067 13.0659 90.466 13.4385C90.6166 13.811 91.2097 13.7933 91.2717 14.3432C91.3248 14.8222 91.8826 14.9995 92.1659 15.3543C93.0513 15.2124 93.4497 15.9397 94.0163 16.3832C95.7958 17.7846 97.6905 19.0175 99.6825 20.0908C99.9127 20.215 100.178 20.2504 100.417 20.348C100.506 20.3835 100.594 20.4811 100.63 20.5786C100.727 20.8358 100.488 20.7915 100.373 20.8092C100.028 20.8447 99.7976 21.0487 99.5497 21.2527C99.1867 21.5632 98.8149 21.8559 98.4519 22.1574C97.2301 23.1508 96.026 24.162 94.6449 24.9248C94.5564 24.978 94.4767 25.0578 94.4058 25.1377C93.37 26.2641 91.9623 27.0003 91.1124 28.3219C90.6254 28.5703 90.351 29.0137 90.0499 29.4572C89.8463 29.7588 89.5896 30.0692 89.2797 30.2555C87.9871 31.0538 87.1991 32.3488 86.1633 33.3954C85.8622 33.697 85.5966 34.034 85.2868 34.3179C84.0916 35.3822 83.1531 36.6683 82.1084 37.8657C81.5595 38.4955 80.9928 39.1075 80.4262 39.7195C79.8862 40.3049 79.3107 40.8549 78.7529 41.4225C78.567 41.6088 78.2837 41.7684 78.204 41.9902C77.841 42.9836 76.9468 43.3561 76.15 43.8351C75.6808 44.1189 75.3355 44.6511 74.6892 44.6068C74.4324 44.1012 74.5829 43.5601 74.6095 43.0457C74.6538 42.0523 74.5033 41.0411 74.8928 40.0654C75.061 39.6486 74.6449 39.1696 74.8839 38.7084C74.4855 37.6884 74.7069 36.6151 74.6095 35.5685C74.5564 34.9387 74.6538 34.309 74.3882 33.6881C74.2642 33.4131 74.3262 33.0583 74.3173 32.739C74.2731 31.7988 74.2908 30.8587 74.0606 29.9096C73.8658 29.1024 73.9278 28.2332 73.6445 27.4349C73.3612 26.6367 73.3612 25.7852 73.0778 24.9869C72.8742 24.4281 72.9805 23.8072 73.3612 23.3282C74.2465 22.2018 74.6892 20.8181 75.5126 19.6473C75.8755 19.0974 76.1412 18.4499 76.2917 17.7492ZM34.5564 61.3262C34.0783 61.3706 33.6357 61.5036 33.1753 61.6544C32.6352 61.8318 32.0509 61.9028 31.4843 62.0003C30.5989 62.1423 29.7136 62.2398 28.8371 62.3995C28.5272 62.4527 28.2351 62.5946 27.9517 62.7277C27.6507 62.8696 27.4471 63.0824 27.4825 63.4727C27.5002 63.7743 27.3586 63.9428 27.0133 63.9428C26.8185 63.9428 26.6149 64.067 26.4467 64.1823C25.9774 64.5193 25.517 64.8741 25.0655 65.2289C24.2864 65.8498 23.4365 66.4086 22.7548 67.127C22.3121 67.5971 21.8251 67.9697 21.3559 68.3954C20.8601 68.8566 20.4617 69.4243 20.0013 69.9299C19.8597 70.0807 19.6738 70.196 19.5144 70.329C18.4343 71.1894 17.5666 72.236 16.7433 73.327C16.6813 73.4068 16.761 73.6197 16.8318 73.735C16.8584 73.7794 17.0531 73.806 17.1151 73.7616C18.0182 73.123 19.0363 72.6618 19.8597 71.9078C20.2846 71.5176 20.7716 71.1894 21.1523 70.7725C21.4356 70.4621 21.9225 70.3822 22.0642 69.9299C22.2324 69.442 22.8344 69.4509 23.0912 68.9897C23.2683 68.6615 23.6578 68.422 23.888 68.0761C24.0916 67.7745 24.3749 67.4818 24.6848 67.3044C25.6941 66.7368 26.3227 65.8321 26.9602 64.9185C27.0487 64.7943 27.1107 64.6435 27.1815 64.5016C27.2877 64.2887 27.4294 64.3952 27.5533 64.4661C27.8012 64.5992 28.0491 64.608 28.3147 64.5105C29.3594 64.1379 30.4307 63.8896 31.5551 63.9251C31.7587 63.9339 31.9801 63.9073 32.1748 63.8364C33.069 63.5171 34.0429 63.6058 34.946 63.3042C35.4418 63.1445 35.973 62.976 36.4776 63.0115C37.1948 63.0558 37.8322 62.7809 38.4785 62.6035C39.1868 62.4172 39.9128 62.3463 40.621 62.1511C41.5772 61.885 42.5422 61.6012 43.5161 61.4593C44.8176 61.273 46.0394 60.732 47.3674 60.6787C49.1469 60.049 51.0681 59.9514 52.83 59.2418C52.9716 59.1886 53.1487 59.1709 53.2992 59.1798C54.0075 59.2418 54.6538 58.9669 55.2912 58.7717C55.8047 58.6121 56.3005 58.4968 56.8406 58.4968C57.1593 58.4968 57.478 58.5323 57.7525 58.3194C57.9296 58.1775 58.0624 58.3194 58.1421 58.4347C58.5405 58.9846 59.0717 58.9137 59.5675 58.7008C60.6122 58.2484 61.7011 58.142 62.8255 58.1863C63.3036 58.2041 63.7729 58.2129 64.1093 57.734C64.2067 57.6009 64.49 57.5566 64.6848 57.5566C65.6409 57.5477 66.2164 56.918 66.7742 56.2705C67.146 55.8359 66.9867 54.9666 66.4732 54.7537C65.8888 54.5143 65.3753 54.1329 64.7113 54.0619C64.0739 53.9821 62.7901 54.0176 61.9313 54.2127C61.2673 54.3723 60.6122 54.603 59.9393 54.6384C58.6644 54.7094 57.4338 54.9134 56.2209 55.2771C56.1412 55.3037 56.0084 55.2593 55.9375 55.1972C55.8756 55.1351 55.849 55.0198 55.8313 54.9223C55.8224 54.8779 55.8579 54.8247 55.8844 54.7804C56.8406 52.9 57.3718 50.8599 57.9915 48.8554C58.6378 46.7532 59.2487 44.6334 59.8596 42.5224C60.1341 41.5644 60.6387 40.6686 60.8512 39.7018C61.2054 38.0431 61.8074 36.4732 62.374 34.8944C62.7459 33.8655 63.1177 32.8366 63.4453 31.79C63.7906 30.699 63.826 29.5105 64.3749 28.4727C64.4457 28.3485 64.4014 28.1623 64.4103 28.0203C64.4014 27.8429 64.4546 27.6301 64.3749 27.5325C64.2155 27.3462 63.9676 27.2309 63.7817 27.0624C63.5869 26.8939 63.4718 27.0535 63.401 27.16C62.7281 28.1534 61.772 28.9605 61.471 30.2112C61.4001 30.5127 61.2673 30.9207 60.8778 31.1159C60.7538 31.178 60.6653 31.3465 60.6122 31.4795C59.8508 33.4397 59.0717 35.3822 58.3634 37.3602C57.8676 38.7439 57.5312 40.1808 56.9645 41.5467C56.8849 41.7418 56.8052 41.937 56.7609 42.141C56.451 43.5779 55.9021 44.9349 55.3709 46.292C55.0256 47.1701 54.6538 48.0482 54.3882 48.9529C53.9367 50.5229 53.3258 52.0307 52.768 53.5563C52.5024 54.2836 51.8118 54.8691 51.9446 55.7383C51.7499 55.9068 51.5551 56.235 51.3692 56.2261C50.6166 56.1906 49.988 56.7406 49.2089 56.6164C48.9256 56.572 48.6157 56.7849 48.3059 56.8559C46.9336 57.1841 45.5967 57.663 44.1978 57.8759C44.0473 57.9025 43.888 57.9469 43.7463 58.0001C42.4891 58.5145 41.2142 59.0024 39.9836 59.57C39.4612 59.8095 38.9477 59.8805 38.4697 59.6676C38.1067 59.5079 37.7702 59.4813 37.3984 59.4725C37.0265 59.4636 36.6016 59.5523 36.3006 59.3926C35.5834 59.0112 34.7689 58.9669 34.0695 58.6298C33.0248 58.1243 31.9269 57.7429 30.838 57.3703C29.9438 57.0688 29.0407 56.8027 28.2528 56.2705C26.066 55.5698 23.9057 54.7449 21.6658 54.2216C20.5414 53.9643 19.4259 53.6894 18.3634 53.2104C18.0536 53.0685 17.6375 53.1306 17.2745 53.1483C17.1771 53.1572 17.0443 53.3435 17 53.4765C16.9292 53.6894 17 53.9555 17.2213 53.9998C17.788 54.124 18.4166 54.1506 18.8415 54.5497C19.2931 54.9755 19.8066 55.1706 20.3643 55.348C21.5241 55.7206 22.622 56.2084 23.6932 56.7938C24.3307 57.1397 24.9858 57.4502 25.7295 57.5921C26.5972 57.7517 27.4205 58.1509 28.2616 58.4524C28.9522 58.7008 29.6428 58.9491 30.3333 59.1886C31.0239 59.4281 31.741 59.6232 32.4139 59.8982C33.0956 60.182 33.7685 60.457 34.521 60.5013C34.7955 60.5191 35.1319 60.865 35.0434 60.9714C34.9106 61.1134 34.7335 61.3085 34.5564 61.3262ZM70.1385 22.734C70.1385 22.7517 70.1385 22.7606 70.1385 22.7783C70.1473 22.7783 70.1562 22.7694 70.1651 22.7694C70.1739 22.7517 70.1828 22.7428 70.1916 22.7251C70.1828 22.734 70.1562 22.734 70.1385 22.734ZM69.0407 20.8891C68.1288 20.4367 67.2257 20.0642 66.1721 20.1617C65.2248 20.2504 64.3306 19.7094 63.3656 19.8069C62.7901 19.4078 62.135 19.5497 61.5064 19.5409C60.3908 19.5142 59.2753 19.532 58.1598 19.532C57.8942 19.532 57.5843 19.6029 57.3718 19.4876C56.4599 18.9821 55.5037 19.3191 54.5741 19.2836C53.9278 19.6296 53.2284 19.5497 52.5555 19.5142C50.7494 19.4344 48.9787 19.7183 47.1903 19.869C47.031 19.8868 46.8716 19.9045 46.7211 19.9577C45.1717 20.4544 43.5781 20.7915 42.0465 21.3592C41.3028 21.6341 40.5679 22.0066 39.8065 22.0776C38.9832 22.1574 38.4342 22.8936 37.5843 22.8138C37.3984 22.7961 37.1859 22.9468 37.0088 23.0621C36.1678 23.6032 35.2027 23.8782 34.3351 24.3749C33.3346 24.9514 32.3696 25.5723 31.4134 26.2198C30.413 26.885 29.2886 27.3817 28.5803 28.4106C28.0757 28.5348 27.8455 28.996 27.4825 29.2976C27.1195 29.5991 26.8185 29.9451 26.3758 30.1846C25.9951 30.3886 25.7826 30.8941 25.4728 31.2489C24.2776 32.5971 22.8699 33.7413 21.834 35.2314C21.2408 36.0829 20.5148 36.8546 20.1784 37.8835C19.8597 38.8858 19.4878 39.8792 19.054 40.8371C18.8061 41.3693 18.9035 41.7418 19.2576 42.1232C19.4347 42.3184 19.6206 42.5046 19.8243 42.6732C19.8685 42.7086 20.0367 42.682 20.0633 42.6377C20.382 42.1587 20.7185 41.6797 20.9929 41.1653C21.409 40.3759 21.7986 39.5687 22.1704 38.7527C22.8167 37.3336 23.8614 36.2071 24.9062 35.0895C25.216 34.7525 25.7118 34.6106 25.9243 34.1316C26.1456 33.6438 26.73 33.5107 27.0221 33.0229C27.2789 32.5883 27.8012 32.331 28.1642 31.9496C28.6777 31.4174 29.3417 31.0893 29.8287 30.5127C30.3333 29.9185 31.0593 29.5637 31.6702 29.0758C32.8123 28.1534 34.0252 27.3108 35.4064 26.7342C35.8844 26.5302 36.3625 26.344 36.8229 26.069C37.3895 25.7231 38.0624 25.4481 38.7264 25.3505C39.8419 25.1909 40.8424 24.7563 41.834 24.295C42.4537 24.0112 43.0912 23.7895 43.7552 23.5943C44.3661 23.4081 45.0124 23.4524 45.6055 23.2129C46.9424 22.663 48.4121 22.8581 49.7755 22.4856C49.8552 22.459 49.988 22.5211 50.0677 22.5832C50.5104 22.9025 50.8557 22.3614 51.2806 22.459C51.7321 22.5654 52.2014 22.6187 52.6618 22.6896C53.8481 22.1574 55.1938 22.6364 56.3891 22.1397C56.4333 22.122 56.4953 22.1308 56.5484 22.1397C56.8494 22.2107 57.1593 22.3614 57.4603 22.3526C57.8145 22.3437 58.1686 22.1752 58.5316 22.1397C58.8415 22.1042 59.2045 22.0687 59.4701 22.2018C59.9305 22.4235 60.3997 22.3703 60.8689 22.388C61.1876 22.3969 61.5506 22.3171 61.8162 22.4501C62.6573 22.8848 63.5958 22.6098 64.4546 22.8936C65.3222 23.1863 66.243 22.9912 67.1372 23.0355C67.5356 23.0533 67.8632 23.071 68.0668 23.479C68.1111 23.5589 68.3678 23.6209 68.474 23.5766C68.9256 23.346 69.5365 23.3903 69.7844 22.7961C69.8109 22.7251 70.0234 22.734 70.1739 22.7162C70.2093 21.8736 69.8463 21.2882 69.0407 20.8891ZM45.9951 101.444C46.243 101.666 46.4732 101.453 46.7211 101.417C47.3497 101.311 47.8189 100.965 48.1111 100.46C49.0584 98.8098 50.3244 97.3817 51.3426 95.7763C52.4404 94.0467 53.5825 92.3349 54.6449 90.5875C55.247 89.603 55.8401 88.6007 56.4599 87.625C56.7698 87.1372 57.1239 86.676 57.4426 86.197C58.3988 84.7424 59.3638 83.2966 60.2846 81.8153C61.6834 79.5802 63.0469 77.3184 64.4369 75.0743C64.9327 74.2761 65.3399 73.4334 65.8092 72.6174C66.2784 71.7925 66.8096 71.0031 67.3054 70.196C67.6949 69.5662 68.1553 68.972 68.4652 68.3067C68.8547 67.473 69.3063 66.719 70.0322 66.1425C70.3421 65.8941 70.5015 65.5748 70.5015 65.158C70.4484 64.8475 70.4041 64.5371 70.3244 64.2355C69.8552 62.3462 69.1469 60.5368 68.5714 58.6919C68.4475 58.3016 68.2527 58.0089 67.9517 57.8049C66.969 57.122 67.1903 57.1131 66.5617 57.9823C66.0039 58.7629 65.942 59.5168 66.1544 60.3772C66.3581 61.1932 66.4466 62.0269 66.8627 62.7986C67.0221 63.1002 66.969 63.5171 66.9955 63.8896C67.0398 64.6258 67.0309 65.3708 67.1195 66.0982C67.146 66.3376 67.1195 66.4707 66.9778 66.6392C66.0216 67.7657 64.9858 68.83 64.3395 70.1782C63.0115 71.757 61.8074 73.4157 60.8512 75.2517C60.2403 75.3848 60.3997 76.0323 60.0987 76.3782C59.8242 76.6975 59.6206 77.0878 59.3196 77.3539C58.93 77.6998 59.0451 78.2408 58.7175 78.6134C58.1155 79.2786 57.7614 80.1124 57.2744 80.8574C56.6635 81.7799 56.0526 82.7023 55.4417 83.6248C53.4851 86.6227 51.5728 89.6562 49.7667 92.7517C49.5542 93.1154 49.2178 93.4968 49.2001 93.8782C49.1646 94.7474 48.6069 95.3151 48.1908 95.9715C47.6861 96.7697 47.2789 97.6212 46.6237 98.3308C46.1368 98.863 45.8092 99.5548 45.4462 100.193C45.3488 100.362 45.278 100.655 45.3577 100.797C45.4993 101.036 45.7649 101.24 45.9951 101.444ZM115.521 51.4719C115.982 52.1017 116.504 52.7226 116.752 53.4942C117.425 54.0885 117.505 55.1263 118.354 55.6052C118.478 55.6762 118.549 55.8536 118.611 55.9955C119.134 57.0865 119.709 58.142 120.223 59.2418C120.426 59.6676 120.701 60.0579 120.984 60.4481C121.551 61.2375 122.56 61.3794 123.507 60.7142C123.906 60.4393 124.313 60.2973 124.685 60.4659C125.242 60.7231 125.809 60.7231 126.385 60.7408C126.544 60.7497 126.73 60.732 126.854 60.8029C127.509 61.2109 128.341 60.8561 128.979 61.3262C129.767 60.9892 130.51 61.4504 131.281 61.4504C132.201 61.4593 133.14 61.5657 134.025 61.8052C134.494 61.9294 134.99 61.8939 135.406 62.0802C135.849 62.2753 136.389 61.9915 136.725 62.3551C137.15 62.8075 137.637 62.2309 138.053 62.5236C138.532 62.8607 138.921 62.2221 139.417 62.3729C139.585 62.4172 139.824 62.293 140.001 62.1866C140.55 61.8584 140.807 61.1045 140.462 60.5191C139.904 59.57 139.514 58.5234 138.85 57.6364C138.47 57.1308 138.08 56.6253 137.708 56.1197C136.761 54.8513 135.822 53.5829 134.742 52.4121C134.202 51.8356 133.503 51.401 133.087 50.7358C132.794 50.2657 132.361 49.9907 132.015 49.6093C131.661 49.219 131.369 48.7489 130.962 48.4296C130.121 47.7733 129.483 46.9306 128.731 46.1944C128.58 46.0437 128.421 45.9017 128.288 45.7332C128.12 45.5292 127.934 45.6623 127.748 45.6445C126.969 45.5824 126.207 45.8485 125.428 45.7243C125.074 45.6711 124.667 45.4316 124.366 45.5381C123.428 45.8663 122.471 45.6623 121.524 45.7953C120.674 45.7953 119.815 45.7155 118.992 45.8219C118.478 45.8929 117.956 45.9904 117.451 46.088C116.956 46.1856 116.451 46.3452 115.955 46.3452C115.176 46.3364 114.893 46.9218 114.53 47.3919C114.362 47.6136 114.282 47.9861 114.326 48.27C114.494 49.4142 114.813 50.4963 115.521 51.4719ZM116.779 48.3143C117.389 48.1547 118.027 48.3498 118.664 48.1458C119.204 47.9684 119.806 47.9684 120.382 47.9595C120.984 47.9507 121.559 47.6136 122.179 47.8087C123.543 47.4806 124.968 47.4894 126.296 47.0193C126.508 46.9484 126.703 47.0282 126.845 47.2322C126.96 47.4007 127.04 47.6668 127.199 47.7289C128.014 48.0571 128.501 48.7667 129.12 49.3166C129.705 49.8399 130.342 50.3011 130.785 50.9664C132.564 52.2613 133.636 54.2038 135.096 55.7915C135.778 56.5277 136.026 57.5477 136.628 58.3549C136.92 58.7363 136.911 59.3483 137.035 59.8539C136.956 59.9248 136.894 60.0135 136.805 60.049C136.708 60.0845 136.584 60.0933 136.495 60.0579C135.999 59.8539 135.495 59.7208 134.955 59.7474C134.096 59.2685 133.104 59.4725 132.184 59.2064C131.449 58.9935 130.634 59.0378 129.855 58.8693C129.032 58.683 128.164 58.6919 127.367 58.4613C126.606 58.2484 125.8 58.2839 125.074 57.938C124.897 57.8493 124.658 57.8493 124.454 57.8582C123.923 57.867 123.401 57.8848 122.905 57.6364C122.737 57.5566 122.489 57.5921 122.285 57.6275C122.099 57.663 121.922 57.8493 121.781 57.5477C121.586 57.1131 121.267 56.7672 121.081 56.3148C120.825 55.7028 120.4 55.1174 119.93 54.6384C119.47 54.1683 119.169 53.6184 118.85 53.0774C118.177 51.9509 117.389 50.8777 116.929 49.627C116.805 49.2811 116.681 48.9352 116.539 48.5981C116.442 48.3409 116.655 48.3498 116.779 48.3143ZM150.811 165.484C150.192 165.262 149.651 164.898 149.271 164.393C148.669 163.594 148.111 162.761 147.642 161.883C147.226 161.102 146.96 160.242 146.615 159.417C146.376 158.849 145.915 158.503 145.349 158.299C145.287 158.273 145.136 158.335 145.11 158.388C144.888 158.849 144.561 159.284 144.933 159.86C145.092 160.109 145.092 160.472 145.092 160.747C145.092 160.933 145.003 161.084 144.959 161.226C144.826 161.164 144.649 161.129 144.561 161.022C144.056 160.455 143.897 159.727 143.622 159.053C142.861 157.208 142.161 155.337 141.373 153.51C141.108 152.897 140.833 152.25 140.94 151.523C141.046 150.822 140.647 150.192 140.568 149.509C140.532 149.172 140.116 149.092 139.851 148.942C139.7 148.862 139.045 149.385 139.045 149.571C139.045 150.52 138.939 151.461 139.293 152.392C139.762 153.616 139.966 154.938 140.807 156.011C141.028 156.286 141.196 156.676 141.223 157.022C141.267 157.634 141.524 158.131 141.807 158.636C142.17 159.275 142.498 159.94 142.666 160.667C142.728 160.925 142.781 161.191 142.905 161.421C143.206 161.971 143.489 162.566 143.906 163.027C144.162 163.302 144.658 163.346 145.039 163.515C145.234 163.594 145.402 163.727 145.597 163.798C145.676 163.834 145.827 163.816 145.889 163.754C146.376 163.337 146.641 163.674 146.907 164.038C147.155 164.375 147.403 164.721 147.659 165.049C148.049 165.546 148.377 166.131 148.864 166.504C149.35 166.867 149.997 167.018 150.572 167.258C150.944 167.417 151.422 167.089 151.449 166.646C151.475 166.131 151.342 165.67 150.811 165.484Z" fill="#CCCCCC" />
</svg>
    