<svg width="64" height="65" viewBox="0 0 64 65" fill="none" xmlns="http://www.w3.org/2000/svg">
    <path d="M43.68 58.853C43.8148 58.8699 43.9967 58.7548 44.1847 58.8343C44.2873 58.7822 44.4114 58.7768 44.4981 58.6932C44.7179 58.4827 44.991 58.4491 45.2768 58.4534C45.3085 58.4534 45.3426 58.4571 45.3733 58.4494C45.6107 58.3827 45.8509 58.3709 46.0981 58.3839C46.2915 58.3937 46.4669 58.4352 46.6428 58.4964C46.7897 58.5474 46.9329 58.6165 47.0216 58.7417C47.1013 58.8582 47.2093 58.8666 47.3238 58.8801C47.358 58.8838 47.395 58.8792 47.4301 58.8749C47.7206 58.8372 47.9522 58.9488 48.1492 59.1494C48.2149 59.2163 48.284 59.2788 48.3426 59.3525C48.4738 59.5178 48.4757 59.6616 48.3619 59.8314C48.3215 59.8896 48.2767 59.9444 48.2361 60.0007C48.2038 60.0441 48.213 60.0864 48.2439 60.128C48.3078 60.2128 48.3715 60.2957 48.4278 60.3835C48.4815 60.4656 48.4864 60.5538 48.4627 60.6514C48.3983 60.9 48.2175 61.0406 48.0053 61.1515C47.8269 61.2464 47.6404 61.3088 47.4321 61.2575C47.4136 61.2519 47.3838 61.2516 47.3713 61.263C47.2697 61.3386 47.1474 61.3261 47.0332 61.348C46.7583 61.3996 46.5 61.3445 46.2496 61.2254C46.2075 61.205 46.1649 61.1806 46.1205 61.1742C46.0257 61.1603 45.9289 61.1623 45.8624 61.2494C45.7665 61.3717 45.6601 61.4893 45.5081 61.5257C45.3618 61.5595 45.2389 61.6555 45.0738 61.6502C44.901 61.6458 44.7296 61.7182 44.552 61.6749C44.3926 61.6353 44.2259 61.7288 44.0656 61.6499C44.0193 61.628 43.9478 61.6585 43.8913 61.6497C43.7541 61.6291 43.6195 61.6141 43.4858 61.5575C43.2517 61.4581 43.0863 61.3207 43.052 61.0586C42.9534 60.9169 43.0347 60.7727 43.0509 60.6307C43.0634 60.5226 43.0697 60.5258 42.9693 60.4829C42.8502 60.4325 42.7346 60.3777 42.6157 60.3292C42.4133 60.2456 42.3069 60.089 42.2713 59.8804C42.2307 59.6467 42.2624 59.4376 42.4673 59.2842C42.4764 59.2772 42.4937 59.2731 42.4966 59.2648C42.5711 59.0486 42.7644 59.0425 42.9443 58.9908C43.1699 58.9256 43.3944 58.8664 43.68 58.853ZM43.5623 59.2166C43.4218 59.2339 43.2818 59.255 43.1425 59.2663C43.0523 59.2734 42.9878 59.3129 42.935 59.3825C42.8633 59.4762 42.8046 59.5781 42.7709 59.6907C42.7458 59.7766 42.7688 59.8507 42.8467 59.9043C42.8944 59.9379 42.9457 59.969 42.9981 59.9922C43.3303 60.1328 43.7688 60.1064 44.0789 59.9223C44.1619 59.8727 44.2427 59.8371 44.3383 59.8253C44.4264 59.8165 44.4648 59.8393 44.4444 59.9306C44.5287 59.9558 44.5532 59.9942 44.494 60.0764C44.3768 60.2348 44.2339 60.3451 44.0327 60.3679C43.8783 60.3849 43.8086 60.4941 43.7953 60.6279C43.7888 60.7036 43.7638 60.758 43.7258 60.8199C43.6612 60.9225 43.4991 61.0056 43.5797 61.1456C43.6431 61.2581 43.805 61.1415 43.907 61.2138C43.9287 61.2289 43.9762 61.2132 44.0114 61.2088C44.2926 61.1762 44.5718 61.1438 44.853 61.1112C44.9486 61.0995 45.0309 61.0597 45.1144 61.014C45.1833 60.9779 45.1875 60.932 45.1723 60.8727C45.1609 60.8287 45.1511 60.7806 45.1285 60.742C45.103 60.6958 45.0833 60.6647 45.149 60.6349C45.1751 60.6219 45.1984 60.5855 45.2065 60.5549C45.2422 60.4104 45.3906 60.4257 45.482 60.3632C45.5514 60.3152 45.5987 60.41 45.6544 60.4445C45.6844 60.4626 45.7179 60.4939 45.7474 60.4923C45.8928 60.4823 45.9842 60.5815 46.095 60.6448C46.197 60.7013 46.3071 60.743 46.4106 60.7953C46.4761 60.8287 46.5409 60.8405 46.6151 60.8313C46.8373 60.802 47.0607 60.7824 47.2802 60.7475C47.4551 60.7201 47.6043 60.6288 47.7416 60.5212C47.7543 60.5117 47.7466 60.4495 47.7289 60.434C47.6848 60.3979 47.6335 60.3668 47.5796 60.3478C47.4323 60.2929 46.9828 60.2299 46.827 60.2352C46.6592 60.2401 46.5008 60.2241 46.4134 60.0454C46.4052 60.0267 46.3801 60.016 46.3626 60.0024C46.339 59.9875 46.2814 60.0025 46.3096 59.9418C46.3282 59.9001 46.3372 59.828 46.366 59.8205C46.5231 59.7775 46.6485 59.6536 46.8235 59.6597C46.9508 59.6637 47.0818 59.6338 47.1908 59.7309C47.2064 59.7447 47.2364 59.747 47.2581 59.7463C47.3756 59.7357 47.4934 59.7272 47.6073 59.7033C47.642 59.6951 47.6748 59.6398 47.6917 59.6002C47.7008 59.5774 47.6885 59.5256 47.669 59.5123C47.6198 59.4828 47.5604 59.4507 47.507 59.4513C47.1829 59.4576 46.8518 59.3741 46.5425 59.5325C46.4646 59.4789 46.4144 59.5542 46.3512 59.5718C46.2173 59.61 46.1583 59.5975 46.0837 59.4745C46.0514 59.4213 45.9648 59.3767 46.0081 59.2944C46.0483 59.2185 46.0398 59.1012 46.172 59.0968C46.2015 59.0951 46.2311 59.0619 46.2538 59.0374C46.2677 59.0219 46.2844 58.9961 46.2803 58.9789C46.2759 58.9597 46.2511 58.9351 46.2309 58.9317C46.0834 58.9084 45.9326 58.8737 45.7846 58.8781C45.5615 58.8839 45.3402 58.921 45.1171 58.9425C45.0093 58.9518 44.9604 59.0052 44.9236 59.1083C44.8217 59.3911 44.7536 59.4172 44.4853 59.2648C44.3341 59.1789 44.1788 59.1565 44.0154 59.1648C43.8635 59.1697 43.7125 59.1981 43.5623 59.2166Z" fill="black" />
    <path d="M31.1327 63.446C30.9215 63.468 30.7503 63.5088 30.5741 63.4457C30.4996 63.4193 30.4104 63.4027 30.3391 63.4193C30.2796 63.4345 30.2377 63.5127 30.1791 63.5515C29.95 63.7019 29.7079 63.8106 29.4227 63.7628C29.3662 63.754 29.3046 63.736 29.2509 63.7505C29.0511 63.8007 28.8552 63.7538 28.6582 63.7464C28.4434 63.7393 28.2691 63.6109 28.2423 63.3932C28.2146 63.1678 28.0883 63.0907 27.9011 63.0663C27.7219 63.043 27.6042 62.9391 27.5045 62.8054C27.4904 62.7874 27.4761 62.7675 27.462 62.7495C27.2841 62.5268 27.3114 62.2986 27.4478 62.0707C27.4772 62.0198 27.527 61.9742 27.5384 61.9215C27.5611 61.8162 27.6231 61.773 27.7166 61.728C27.8211 61.6757 27.9205 61.6299 28.0405 61.6073C28.151 61.5878 28.2488 61.5461 28.3712 61.5587C28.5153 61.5706 28.675 61.5647 28.8149 61.4785C28.896 61.429 28.9913 61.4469 29.0883 61.4626C29.2257 61.4851 29.3556 61.5422 29.5026 61.53C29.5712 61.5235 29.632 61.5515 29.6824 61.4783C29.7042 61.446 29.7587 61.4216 29.8016 61.4163C29.9165 61.4002 30.0307 61.3625 30.1495 61.411C30.1766 61.4214 30.221 61.412 30.2469 61.397C30.2984 61.365 30.3452 61.3435 30.4096 61.3671C30.451 61.3818 30.5009 61.3855 30.5461 61.3819C30.6741 61.376 30.8036 61.3502 30.9314 61.3582C31.045 61.3639 31.1467 61.4343 31.2625 61.4575C31.3926 61.4849 31.5128 61.5766 31.6307 61.6489C31.6779 61.6786 31.7065 61.7343 31.7474 61.7766C31.8242 61.8539 31.8343 61.9355 31.7845 62.0304C31.7527 62.0935 31.7843 62.1409 31.8364 62.1779C31.978 62.2828 32.1197 62.3876 32.2576 62.4949C32.3409 62.5596 32.3548 62.6566 32.3038 62.7417C32.2561 62.8206 32.22 62.9138 32.1545 62.9771C32.0572 63.0719 31.9796 63.1978 31.8245 63.2248C31.7586 63.2368 31.6935 63.2705 31.6322 63.3037C31.4647 63.3913 31.2871 63.4447 31.1327 63.446ZM30.9063 62.0398C30.907 62.0456 30.9077 62.0515 30.9084 62.0573C31.0109 62.0368 31.1133 62.0163 31.2158 61.9958C31.2236 61.9949 31.2336 61.9798 31.2307 61.9723C31.2295 61.9626 31.2198 61.948 31.2115 61.9451C31.0415 61.8673 30.8642 61.8103 30.6789 61.8015C30.5394 61.795 30.3984 61.8242 30.2575 61.8375C30.1636 61.8471 30.1147 61.8847 30.1162 61.993C30.1162 62.0581 30.0814 62.1294 30.045 62.1872C30.0232 62.2195 29.9656 62.2344 29.9224 62.2378C29.8932 62.2414 29.8581 62.2141 29.8282 62.1961C29.4849 61.9819 29.1041 61.9617 28.7167 61.9679C28.6218 61.9697 28.5281 61.997 28.4355 62.0005C28.2189 62.0114 28.0657 62.1348 27.9249 62.2783C27.8897 62.3142 27.8974 62.3764 27.9376 62.3971C27.9797 62.4176 28.0321 62.4249 28.0654 62.4544C28.1474 62.5251 28.2305 62.5721 28.3433 62.5878C28.4598 62.6011 28.5697 62.6409 28.6876 62.6007C28.8359 62.5509 28.9599 62.6244 29.0826 62.6882C29.1164 62.7058 29.1156 62.7315 29.0863 62.7667C29.0254 62.8353 28.9735 62.9127 28.9173 62.9867C28.8405 63.0869 28.8495 63.0799 28.9198 63.1521C29.0085 63.2457 29.104 63.2813 29.2316 63.2557C29.3475 63.2316 29.4658 63.2269 29.5824 63.2087C29.6465 63.1988 29.6888 63.1719 29.6375 63.0934C29.5913 63.0241 29.6547 62.9591 29.6746 62.8955C29.7119 62.7805 29.7988 62.7303 29.9178 62.7472C29.9641 62.7534 30.0079 62.7717 30.0513 62.7861C30.283 62.866 30.5216 62.9057 30.7638 62.943C31.0729 62.9918 31.3372 62.8863 31.6105 62.7895C31.6486 62.777 31.6877 62.7248 31.6949 62.6864C31.7031 62.6401 31.6578 62.6101 31.6064 62.5948C31.438 62.5464 31.2718 62.4998 31.0926 62.5238C30.964 62.5416 30.8338 62.5458 30.705 62.5616C30.6309 62.5708 30.5676 62.5549 30.4996 62.5337C30.4029 62.5041 30.397 62.4891 30.3829 62.3902C30.3531 62.1966 30.4636 62.112 30.6253 62.0744C30.6599 62.0662 30.6955 62.0657 30.7307 62.0614C30.7892 62.0542 30.8477 62.047 30.9063 62.0398Z" fill="black" />
    <path d="M35.2281 59.0287C35.492 59.016 35.6745 58.9541 35.8617 58.9942C35.9692 58.902 36.0653 58.9908 36.1527 59.0254C36.3108 59.0868 36.4597 59.106 36.6303 59.0752C36.8722 59.0296 37.1203 59.0011 37.3668 58.9925C37.5641 58.9859 37.7595 59.029 37.9333 59.1378C37.9633 59.1558 37.9898 59.1782 38.0183 59.2003C38.2755 59.3916 38.3066 59.5317 38.1523 59.8229C38.1232 59.8758 38.1399 59.9152 38.1808 59.9417C38.31 60.0264 38.3302 60.1423 38.2958 60.2806C38.2854 60.3253 38.2875 60.3744 38.271 60.4178C38.2516 60.4695 38.2303 60.5372 38.1883 60.5661C37.8688 60.7868 37.536 60.9797 37.1331 61.0056C36.9012 61.0203 36.6694 61.0843 36.4331 61.0305C36.4045 61.0242 36.3679 61.0484 36.3384 61.0658C36.2624 61.1087 36.1841 61.1164 36.101 61.101C36.0664 61.0934 36.018 61.0698 36.0018 61.0836C35.8963 61.1755 35.778 61.0993 35.6692 61.1166C35.5294 61.1397 35.4125 61.1068 35.3118 61.0126C35.2086 60.9149 35.0831 60.8928 34.9519 60.9208C34.8033 60.9529 34.6768 60.9231 34.5566 60.8313C34.5108 60.7975 34.4531 60.779 34.3988 60.7561C34.286 60.7088 34.2141 60.623 34.1465 60.5248C33.9616 60.2615 34.0693 60.1062 34.2923 59.9387C34.3999 59.9275 34.4715 59.8339 34.5852 59.8238C34.6869 59.8133 34.6869 59.7975 34.6187 59.6935C34.5941 59.6551 34.5581 59.62 34.539 59.577C34.4982 59.4873 34.4911 59.3975 34.5538 59.3109C34.6536 59.1724 34.7697 59.0693 34.955 59.0623C35.0711 59.0559 35.1891 59.0335 35.2281 59.0287ZM37.025 60.1588C36.9079 60.1732 36.7913 60.1915 36.6736 60.2001C36.6148 60.2054 36.5233 60.1377 36.5144 60.0816C36.5021 60.0141 36.4753 59.9247 36.5417 59.8849C36.6504 59.8183 36.7797 59.7906 36.8883 59.7239C36.9547 59.6842 36.9963 59.7324 37.0488 59.7239C37.1988 59.7035 37.3485 59.6811 37.4978 59.6549C37.5076 59.6537 37.5111 59.6177 37.5145 59.5976C37.5153 59.5876 37.5092 59.5706 37.5031 59.5694C37.2487 59.5139 36.9959 59.5036 36.7395 59.5608C36.6083 59.6696 36.4214 59.6315 36.2834 59.7333C36.2399 59.7662 36.1726 59.7666 36.1143 59.7758C36.056 59.7849 36.0021 59.7817 35.9664 59.717C35.9385 59.6672 35.8901 59.6278 35.8495 59.5874C35.8135 59.5524 35.8494 59.5223 35.8556 59.492C35.8645 59.4357 35.8429 59.4048 35.7844 59.3962C35.6574 59.3783 35.5278 59.4357 35.4001 59.3803C35.377 59.3694 35.3365 59.3941 35.3045 59.4079C35.1288 59.4768 35.1202 59.4878 35.0172 59.6326C34.9852 59.678 35.0173 59.6977 35.0375 59.7169C35.0711 59.7483 35.1126 59.7964 35.1502 59.7957C35.3067 59.7962 35.4254 59.9236 35.5829 59.9161C35.6183 59.9137 35.6282 59.946 35.5999 59.9574C35.4993 59.9934 35.6013 60.0815 35.5497 60.1293C35.4182 60.2519 35.2882 60.3705 35.0866 60.277C35.0571 60.2628 35.0178 60.2657 34.9827 60.27C34.9613 60.2727 34.9437 60.2906 34.9234 60.303C34.9322 60.3098 34.9412 60.3185 34.9514 60.3212C35.1193 60.3657 35.2837 60.4302 35.4627 60.4201C35.5158 60.4175 35.5431 60.4457 35.5771 60.4809C35.6445 60.5456 35.6752 60.5379 35.703 60.4734C35.7903 60.2654 35.7969 60.2547 35.8307 60.2722C35.9264 60.3255 36.0434 60.2461 36.1364 60.3254C36.1784 60.3616 36.243 60.3714 36.2942 60.4006C36.3558 60.4345 36.4196 60.47 36.4709 60.517C36.5558 60.5953 36.6203 60.4591 36.6972 60.5049C36.7975 60.5636 36.9029 60.5348 37.0071 60.5122C37.1905 60.4738 37.36 60.3859 37.5473 60.3629C37.5687 60.3602 37.5927 60.3454 37.6085 60.3297C37.6469 60.2875 37.7126 60.2419 37.7127 60.1946C37.7159 60.1074 37.6275 60.1617 37.5817 60.1436C37.3951 60.0758 37.2091 60.1421 37.025 60.1588Z" fill="black" />
    <path d="M36.361 56.8379C36.2985 56.8456 36.2634 56.8499 36.2283 56.8542C35.7698 56.9106 35.7698 56.9106 35.3526 56.7233C35.3129 56.7065 35.2585 56.6836 35.2716 56.6287C35.2847 56.5738 35.3063 56.4923 35.3424 56.4799C35.4222 56.4524 35.4887 56.4126 35.559 56.3724C35.5849 56.3574 35.6341 56.3553 35.6597 56.3699C35.8089 56.4561 35.9699 56.4284 36.1262 56.4269C36.1855 56.4255 36.2408 56.4247 36.2944 56.4575C36.318 56.4724 36.3612 56.469 36.3895 56.4577C36.4651 56.4286 36.5449 56.4011 36.6084 56.3538C36.746 56.2481 36.8677 56.2075 37.0512 56.2816C37.2368 56.3574 37.4447 56.2923 37.6377 56.2351C37.6586 56.2285 37.676 56.2087 37.6917 56.1909C37.7073 56.1732 37.7164 56.1504 37.7279 56.1313C37.7174 56.1266 37.7084 56.1179 37.6984 56.1171C37.5283 56.1026 37.3629 56.0302 37.1914 56.1499C37.0928 56.2173 36.96 56.1685 36.8543 56.1145C36.7403 56.0575 36.7121 55.9248 36.7831 55.8254C36.8034 55.7972 36.83 55.7722 36.8504 55.7441C36.8619 55.7249 36.8726 55.6999 36.87 55.6786C36.8686 55.6669 36.835 55.6513 36.8194 55.6532C36.5967 55.6787 36.3757 55.7019 36.1538 55.7331C36.0643 55.7461 36.0487 55.8131 36.1315 55.874C36.221 55.9418 36.1875 56.0071 36.1651 56.0829C36.1499 56.136 36.113 56.1583 36.0644 56.1662C35.9713 56.1817 35.8835 56.1925 35.7929 56.1326C35.726 56.0876 35.6449 56.0561 35.5657 56.0402C35.5006 56.0265 35.4238 56.0301 35.3589 56.0499C35.2901 56.0702 35.256 56.1316 35.2419 56.2102C35.2328 56.2646 35.1892 56.3134 35.1555 56.3609C35.0982 56.4429 34.9833 56.459 34.9086 56.3992C34.7699 56.286 34.7198 56.1364 34.7305 55.9654C34.7328 55.9356 34.7558 55.8972 34.7812 55.8783C34.9478 55.7513 35.1069 55.6114 35.3392 55.6164C35.4326 55.6187 35.5268 55.5953 35.6204 55.5837C35.6672 55.578 35.7044 55.5576 35.7371 55.5181C35.801 55.4412 35.9431 55.3409 36.0126 55.3264C36.1168 55.3037 36.2251 55.2983 36.3244 55.2683C36.4142 55.2415 36.5019 55.2465 36.5897 55.2357C36.9002 55.1995 37.166 55.2989 37.4209 55.455C37.5516 55.5355 37.6794 55.6086 37.8416 55.6064C37.9089 55.606 37.9739 55.6513 38.0414 55.6686C38.2955 55.7379 38.4164 55.9322 38.4978 56.1588C38.5225 56.2308 38.4899 56.3038 38.4418 56.3472C38.3829 56.3998 38.3035 56.4313 38.2286 56.4661C38.1761 56.4904 38.1183 56.5034 38.0653 56.5237C38.0331 56.5356 38.0014 56.5671 37.9716 56.5668C37.8031 56.5658 37.6627 56.664 37.5017 56.6917C37.3856 56.7138 37.2685 56.7282 37.1522 56.7327C37.0832 56.7353 37.0155 56.716 36.9467 56.7047C36.7606 56.8341 36.5361 56.7966 36.361 56.8379Z" fill="black" />
    <path d="M32.7533 53.3051C32.7515 53.2422 32.6582 53.2083 32.7109 53.1209C32.7505 53.0569 32.7344 52.9741 32.8143 52.9149C33.0666 52.728 33.355 52.6571 33.6576 52.6218C33.6889 52.618 33.7283 52.6328 33.7544 52.6513C33.8001 52.6852 33.8485 52.7246 33.8818 52.7698C33.9783 52.9098 34.1044 53.0008 34.2671 53.0518C34.3536 53.0786 34.4381 53.1215 34.4793 53.2151C34.6101 53.2641 34.5413 53.3968 34.5906 53.4756C34.637 53.5468 34.6378 53.6019 34.5879 53.6633C34.552 53.7091 34.5206 53.7603 34.4757 53.7974C34.4327 53.8343 34.3812 53.8662 34.3275 53.8807C34.1952 53.9167 34.0596 53.9413 33.9245 53.9698C33.8086 53.9939 33.4717 53.9761 33.3525 53.9415C33.2517 53.9105 33.1518 53.8873 33.0437 53.8947C32.8318 53.9109 32.6872 53.7985 32.5909 53.6269C32.5603 53.5714 32.5578 53.4869 32.5741 53.4258C32.5955 53.3423 32.669 53.2957 32.7619 53.2942C32.8014 53.3741 32.8728 53.4068 32.9517 53.4365C33.1554 53.514 33.3636 53.516 33.5748 53.4782C33.5904 53.4763 33.6012 53.4513 33.6154 53.4377C33.6047 53.4311 33.5954 53.4204 33.5857 53.4216C33.516 53.4184 33.4457 53.427 33.3789 53.4155C33.2919 53.4006 33.2533 53.3284 33.2797 53.2364C33.292 53.1915 33.3238 53.1442 33.2668 53.1157C33.2437 53.1047 33.2024 53.1236 33.1724 53.1372C33.0321 53.1879 32.8927 53.2465 32.7533 53.3051ZM33.9549 53.4117C33.9434 53.3993 33.9325 53.375 33.9203 53.3726C33.844 53.3642 33.7823 53.3935 33.7429 53.4595C33.7362 53.4702 33.7445 53.5047 33.7508 53.5078C33.8426 53.5301 33.9156 53.4955 33.9549 53.4117Z" fill="black" />
    <path d="M30.2062 58.0882C30.2073 58.0644 30.2083 58.0406 30.2074 58.017C30.206 57.9738 30.2334 57.9388 30.2668 57.9525C30.467 58.0344 30.632 58.1522 30.7064 58.3699C30.719 58.4078 30.7062 58.433 30.7059 58.4626C30.7023 58.5301 30.707 58.6006 30.7154 58.6686C30.7371 58.8612 30.6752 58.9536 30.4909 59.0493C30.286 59.1553 30.0745 59.1912 29.8464 59.1562C29.7777 59.1449 29.7072 59.1516 29.6382 59.1542C29.5672 59.157 29.496 59.1736 29.4275 59.1643C29.242 59.1378 29.0536 59.1196 28.9663 58.9094C28.9409 58.8474 28.8871 58.7968 28.8429 58.7431C28.7777 58.6643 28.7819 58.5691 28.7726 58.4775C28.7695 58.4523 28.8005 58.4149 28.8242 58.3982C28.9026 58.3432 28.972 58.2794 29.0001 58.1852C29.0347 58.0646 29.1414 58.0298 29.237 58.0022C29.3363 57.9723 29.4448 57.9688 29.5507 57.9597C29.6329 57.9516 29.5996 58.003 29.5907 58.0436C29.588 58.0537 29.613 58.0803 29.6274 58.0844C29.7871 58.1101 29.9501 58.1315 30.1128 58.1016C30.1477 58.0954 30.1821 58.0852 30.2148 58.0772C30.2248 58.0938 30.2154 58.1462 30.262 58.1069C30.2435 58.1013 30.225 58.0957 30.2062 58.0882ZM29.6849 58.2134C29.6463 58.2221 29.5295 58.2385 29.4185 58.2699C29.3651 58.2863 29.3123 58.3244 29.2759 58.3663C29.2277 58.4255 29.3039 58.4654 29.3182 58.517C29.3382 58.5835 29.3486 58.6513 29.3706 58.7176C29.3924 58.782 29.4959 58.8186 29.5823 58.7961C29.6381 58.7833 29.6509 58.7423 29.6447 58.6918C29.6325 58.5769 29.699 58.5214 29.7971 58.4975C29.8873 58.4745 29.9812 58.465 30.072 58.4459C30.1049 58.4399 30.1408 58.4256 30.166 58.4048C30.1911 58.3839 30.2185 58.349 30.2188 58.3194C30.2196 58.2936 30.1914 58.2576 30.1656 58.2411C30.0417 58.1676 29.9015 58.1868 29.6849 58.2134Z" fill="black" />
    <path d="M33.1142 57.4464C32.9581 57.4814 32.8094 57.4642 32.6575 57.4375C32.5725 57.4223 32.5399 57.3671 32.5089 57.3078C32.4419 57.1819 32.4402 57.1683 32.36 57.192C32.2489 57.2234 32.155 57.1679 32.0523 57.1549C31.9395 57.1392 31.9046 57.0646 31.9592 56.9612C31.9979 56.8894 32.0362 56.7979 32.1273 56.7985C32.3036 56.7985 32.4275 56.6787 32.5796 56.6265C32.6367 56.6076 32.6811 56.5824 32.743 56.6024C32.8933 56.649 33.0467 56.6243 33.189 56.5732C33.2442 56.5546 33.2845 56.528 33.3436 56.5581C33.3943 56.5835 33.4518 56.6001 33.5073 56.6169C33.5897 56.6423 33.6525 56.6858 33.6791 56.7733C33.6924 56.817 33.7303 56.8518 33.7456 56.8953C33.7756 56.9784 33.8559 57.0672 33.8196 57.1426C33.7831 57.2162 33.6896 57.277 33.609 57.3145C33.4528 57.3811 33.289 57.4505 33.1142 57.4464ZM33.0168 56.8804C32.879 56.9349 32.7406 56.9854 32.6049 57.0416C32.5937 57.0469 32.5843 57.0835 32.5906 57.1025C32.5966 57.1195 32.6183 57.1346 32.6373 57.1441C32.6458 57.149 32.6612 57.1451 32.6705 57.14C32.825 57.0598 32.9994 57.0443 33.1643 57.0004C33.1738 56.9972 33.1824 56.9863 33.1914 56.9793C33.1773 56.9613 33.1684 56.9367 33.1496 56.9292C33.1114 56.9082 33.0665 56.898 33.0168 56.8804Z" fill="black" />
    <path d="M37.0003 52.9858C37.2035 52.947 37.3627 52.9531 37.5284 52.98C37.6822 53.0065 37.7913 53.0562 37.838 53.2102C37.8513 53.2539 37.8875 53.2909 37.9008 53.3346C37.9267 53.4163 37.9182 53.4923 37.8598 53.5646C37.7683 53.6744 37.6759 53.7765 37.5157 53.7785C37.4723 53.7799 37.4293 53.8167 37.3844 53.8223C37.3061 53.8299 37.2324 53.8745 37.161 53.8734C37.0359 53.8711 36.9089 53.8374 36.7834 53.8153C36.5867 53.7784 36.4969 53.6277 36.4254 53.4649C36.4142 53.4386 36.4195 53.3847 36.4393 53.3685C36.5399 53.2851 36.6192 53.1885 36.6758 53.0691C36.6885 53.0439 36.7317 53.0248 36.7627 53.019C36.8537 53.0019 36.9476 52.9923 37.0003 52.9858Z" fill="black" />
    <path d="M36.915 51.294C37.0086 51.2825 37.1016 51.2652 37.1942 51.2616C37.3381 51.2558 37.4697 51.2948 37.5906 51.3766C37.7333 51.4735 37.7707 51.6168 37.7625 51.7756C37.7568 51.9065 37.6363 52.0377 37.4973 52.0666C37.3367 52.0982 37.1726 52.1164 37.0094 52.1424C36.8872 52.1634 36.7779 52.1117 36.6734 52.0674C36.6274 52.0474 36.5978 51.984 36.5662 51.9366C36.52 51.8673 36.5257 51.8488 36.5876 51.8373C36.6923 51.8185 36.7955 51.8038 36.9003 51.787C36.9586 51.7778 37.0169 51.7687 37.073 51.7578C37.0828 51.7566 37.0911 51.7438 37.1002 51.7368C37.0851 51.7268 37.0668 51.7073 37.0532 51.709C36.8771 51.7267 36.7039 51.752 36.5278 51.7697C36.471 51.7747 36.411 51.7702 36.3557 51.7554C36.3292 51.7488 36.2915 51.7001 36.2971 51.6817C36.3215 51.6057 36.3166 51.5175 36.3911 51.463C36.4944 51.3852 36.598 51.3093 36.7365 51.3081C36.7938 51.307 36.8538 51.2956 36.9123 51.2884C36.9145 51.2901 36.9147 51.2921 36.915 51.294Z" fill="black" />
    <path d="M8.49257 58.69C8.4343 58.3934 8.52993 58.1726 8.77633 58.018C8.92529 57.9247 9.05968 57.8096 9.24189 57.7773C9.30776 57.7652 9.36712 57.7165 9.42598 57.6797C9.48678 57.6426 9.50696 57.5652 9.48227 57.4933C9.47889 57.4818 9.47916 57.468 9.47212 57.459C9.40601 57.3725 9.36065 57.2774 9.39847 57.1663C9.45497 56.9976 9.52632 56.8369 9.69089 56.7417C9.89233 56.6242 10.0892 56.4856 10.3455 56.5724C10.522 56.5586 10.6998 56.5545 10.8727 56.5273C11.0862 56.4912 11.2887 56.5116 11.4921 56.5872C11.6456 56.6433 11.805 56.6828 11.9587 56.7409C12.071 56.7843 12.1801 56.8182 12.2973 56.7722C12.3615 56.7466 12.4264 56.7109 12.4928 56.7028C12.5454 56.6963 12.6056 56.7343 12.6607 56.7314C12.767 56.7263 12.8714 56.7055 12.9746 56.6909C13.1909 56.6623 13.3881 56.7031 13.5782 56.8158C13.7362 56.9088 13.9217 56.9511 14.0789 57.0541C14.1283 57.0855 14.1812 57.1125 14.2304 57.1419C14.3392 57.2055 14.4119 57.2971 14.404 57.4263C14.3966 57.5436 14.4575 57.6032 14.5574 57.6264C14.7121 57.6606 14.8206 57.7696 14.9489 57.8465C15.028 57.894 15.0983 57.9504 15.1325 58.0508C15.1538 58.1113 15.2244 58.1539 15.265 58.21C15.325 58.2954 15.3908 58.38 15.3947 58.4919C15.3951 58.5274 15.4101 58.5689 15.3976 58.5961C15.3052 58.7949 15.2454 59.0172 15.0184 59.1201C14.9059 59.1714 14.7844 59.1824 14.6728 59.1606C14.4678 59.1208 14.2808 59.1458 14.0928 59.228C13.9295 59.3014 13.7501 59.3077 13.5741 59.278C13.4125 59.2526 13.2541 59.2208 13.0876 59.2195C12.9964 59.2189 12.906 59.1768 12.8146 59.1584C12.8044 59.1558 12.7746 59.187 12.7775 59.1946C12.8447 59.4191 12.7263 59.5835 12.5811 59.7237C12.466 59.8345 12.3501 59.9553 12.1786 59.9941C12.0901 60.0149 12.0068 60.0626 11.9204 60.1008C11.8772 60.12 11.8383 60.1583 11.7952 60.1616C11.4901 60.1932 11.2166 60.3531 10.9062 60.3578C10.7777 60.3598 10.6486 60.3895 10.5194 60.4014C10.4626 60.4064 10.4026 60.402 10.3458 60.3912C10.2666 60.3753 10.1764 60.3667 10.1136 60.3231C10.0311 60.2642 9.96695 60.1774 9.90157 60.0967C9.88309 60.0753 9.88368 60.0318 9.88571 60C9.8875 59.9663 9.91955 59.9209 9.90741 59.9027C9.79929 59.7483 9.8129 59.5691 9.79552 59.3957C9.7929 59.3743 9.7837 59.3478 9.76789 59.332C9.75427 59.3179 9.72042 59.3004 9.70919 59.3057C9.61151 59.3651 9.50678 59.3188 9.40656 59.3252C9.16537 59.345 8.9442 59.2539 8.74163 59.1368C8.58043 59.0501 8.49063 58.8836 8.49257 58.69ZM13.4798 58.7531C13.6086 58.7373 13.7488 58.7496 13.8613 58.6983C13.9831 58.6419 14.1087 58.6324 14.2314 58.5995C14.3888 58.5585 14.5428 58.506 14.6994 58.4591C14.707 58.4562 14.7192 58.4429 14.7182 58.4351C14.717 58.4254 14.7076 58.4127 14.699 58.4079C14.6392 58.3718 14.5727 58.3465 14.5179 58.3039C14.1978 58.0691 13.8371 58.0188 13.4537 58.0581C13.3715 58.0662 13.2891 58.0724 13.2098 58.0881C13.0413 58.1187 12.9879 57.9911 12.9212 57.8829C12.8694 57.8005 12.9454 57.7576 12.9799 57.7001C13.0524 57.5808 13.1537 57.519 13.2954 57.5114C13.4351 57.5041 13.573 57.4654 13.7118 57.5154C13.7306 57.523 13.7591 57.5135 13.7796 57.5031C13.7984 57.4949 13.8219 57.4762 13.8239 57.4602C13.8273 57.4401 13.8159 57.4119 13.8023 57.3978C13.7795 57.373 13.7525 57.3467 13.721 57.3328C13.4514 57.218 13.1608 57.1907 12.8737 57.1431C12.8394 57.1375 12.8001 57.1404 12.7701 57.1539C12.6053 57.2314 12.411 57.2454 12.2986 57.4269C12.2342 57.5315 12.093 57.5429 11.9847 57.4833C11.9635 57.4721 11.9457 57.4565 11.9262 57.4431C11.6684 57.2796 11.392 57.1577 11.0886 57.1063C11.0318 57.0955 10.9721 57.0772 10.9155 57.0842C10.7533 57.1022 10.5906 57.1321 10.4291 57.1559C10.3182 57.1715 10.2395 57.2403 10.1654 57.3145C10.116 57.364 10.1131 57.4531 10.1576 57.5088C10.1948 57.5536 10.2411 57.5913 10.2763 57.6362C10.288 57.6506 10.2891 57.6919 10.2783 57.7011C10.1295 57.8279 10.0269 58.0082 9.82926 58.0759C9.64111 58.1404 9.46921 58.2405 9.30946 58.3588C9.27307 58.3849 9.22959 58.4179 9.21438 58.4553C9.19917 58.4927 9.20391 58.5473 9.21673 58.5871C9.22545 58.6097 9.27244 58.6375 9.29781 58.6344C9.4856 58.6152 9.66965 58.6301 9.85462 58.6685C9.87485 58.6719 9.89874 58.6729 9.91753 58.6647C10.1035 58.5826 10.311 58.6103 10.502 58.5533C10.5977 58.5258 10.6947 58.6065 10.7547 58.7076C10.7824 58.7555 10.7822 58.8187 10.7894 58.877C10.7963 58.9333 10.7431 58.9517 10.7111 58.9813C10.6842 59.0043 10.6642 59.0344 10.6417 59.0608C10.5082 59.2153 10.4763 59.3909 10.5338 59.585C10.5438 59.6173 10.5627 59.6584 10.5878 59.6691C10.7468 59.7383 10.9026 59.8296 11.0893 59.7691C11.3314 59.692 11.5759 59.6185 11.8143 59.5281C11.9961 59.4603 12.121 59.3483 12.0503 59.1282C12.0438 59.1073 12.0444 59.0796 12.0517 59.059C12.0657 59.0277 12.0811 58.9922 12.1063 58.9714C12.1674 58.9205 12.3706 58.8817 12.4896 58.8828C12.5352 58.8831 12.5927 58.8839 12.6232 58.8585C12.7432 58.755 12.8907 58.7467 13.0226 58.7719C13.1847 58.8013 13.3298 58.7735 13.4798 58.7531Z" fill="black" />
    <path d="M9.96569 54.2896C9.68229 54.3205 9.44536 54.2944 9.21937 54.1802C9.13706 54.139 9.08573 54.0921 9.0745 54.0008C9.07019 53.9658 9.06004 53.9315 9.05207 53.899C9.03881 53.8395 9.00671 53.804 8.9424 53.7803C8.78017 53.7174 8.60838 53.6735 8.46112 53.5713C8.34209 53.4892 8.32409 53.4717 8.36705 53.354C8.40265 53.2569 8.45676 53.1655 8.45094 53.0537C8.44787 53.0127 8.48713 53.0098 8.52564 53.0169C8.54392 53.0206 8.57247 53.0112 8.58079 52.9983C8.65421 52.8867 8.75384 52.8271 8.89205 52.8397C8.96635 52.7674 9.06778 52.7707 9.15753 52.7597C9.2963 52.7446 9.43464 52.7098 9.57692 52.7554C9.61833 52.7701 9.67806 52.7726 9.71322 52.7525C9.88046 52.6629 10.0376 52.7165 10.1693 52.8049C10.301 52.8932 10.4253 52.9055 10.5678 52.8722C10.6236 52.8594 10.6846 52.8559 10.7419 52.8548C10.9962 52.8452 11.1974 52.9348 11.3119 53.1732C11.3223 53.1936 11.3274 53.2187 11.3434 53.2364C11.4417 53.3427 11.4305 53.4447 11.3424 53.5502C11.2798 53.8143 11.0694 53.9072 10.8406 53.9788C10.6746 54.0308 10.5107 54.0825 10.3571 54.1704C10.2296 54.2453 10.0929 54.3252 9.96569 54.2896ZM10.0319 53.6364C10.2511 53.6469 10.4527 53.5472 10.6599 53.4763C10.6809 53.4698 10.702 53.4159 10.6984 53.3868C10.6948 53.3576 10.6657 53.3139 10.6413 53.309C10.4729 53.2764 10.3127 53.2942 10.1858 53.4222C10.0871 53.5212 9.99148 53.4205 9.89492 53.4245C9.88321 53.4259 9.86135 53.3931 9.85482 53.3722C9.84151 53.3285 9.83773 53.2816 9.82614 53.2357C9.802 53.1361 9.79515 53.1448 9.68696 53.1187C9.46472 53.0671 9.24762 53.1056 9.02738 53.1347C8.9825 53.1402 8.93711 53.1576 8.89829 53.1802C8.76422 53.2657 8.76131 53.3548 8.88496 53.4422C8.93267 53.4758 8.99065 53.4963 9.03126 53.5366C9.12102 53.6222 9.22559 53.635 9.31865 53.5703C9.40804 53.508 9.47056 53.5654 9.54562 53.5799C9.63208 53.7191 9.75795 53.6958 9.88701 53.6661C9.93165 53.6586 9.978 53.649 10.0319 53.6364Z" fill="black" />
    <path d="M7.9148 51.1432C7.73772 51.1689 7.62408 51.179 7.51688 51.2415C7.45023 51.2793 7.35856 51.2748 7.27566 51.2771C7.24615 51.2787 7.21453 51.2471 7.18458 51.2291C7.14588 51.2043 7.16766 51.172 7.17554 51.1395C7.18589 51.0948 7.18406 51.0477 7.19441 51.003C7.21093 50.928 7.25811 50.8768 7.33373 50.8636C7.47131 50.8388 7.60355 50.8028 7.73535 50.7471C7.90498 50.6769 8.29625 50.7018 8.47628 50.7644C8.56716 50.7947 8.65094 50.8317 8.6836 50.9362C8.69351 50.9685 8.71319 50.9996 8.73433 51.0266C8.77467 51.0808 8.86798 51.1147 8.84389 51.1926C8.81244 51.2912 8.83044 51.4053 8.75172 51.49C8.71139 51.5324 8.66886 51.5732 8.63291 51.619C8.60551 51.6539 8.56346 51.6986 8.56948 51.7314C8.59955 51.8953 8.50052 52.0081 8.40277 52.099C8.32481 52.1737 8.20133 52.2165 8.09131 52.2399C7.93322 52.2751 7.76785 52.2994 7.60486 52.2465C7.3739 52.1723 7.1228 52.1598 6.91222 52.026C6.86061 51.9929 6.83027 52.036 6.79125 52.0408C6.73685 52.0495 6.68011 52.023 6.62185 52.0163C6.53166 52.0077 6.43788 52.0666 6.3488 52.0026C6.32036 51.868 6.2048 51.7658 6.19711 51.6228C6.19499 51.5895 6.18754 51.545 6.20638 51.521C6.30767 51.3784 6.34274 51.1965 6.48665 51.0782C6.60539 50.9808 6.75897 50.9895 6.85546 51.1137C6.924 51.2039 6.9606 51.2921 6.87013 51.394C6.83004 51.4384 6.80181 51.5148 6.84633 51.5547C6.92904 51.6314 7.00439 51.7286 7.12014 51.7518C7.19326 51.7665 7.27202 51.7627 7.34664 51.7575C7.38029 51.7573 7.41959 51.7387 7.43843 51.7147C7.55585 51.5582 7.72281 51.4824 7.89877 51.4154C7.99517 51.3779 8.07728 51.3047 8.16301 51.2448C8.17571 51.2354 8.18602 51.2065 8.18068 51.1953C8.17049 51.1768 8.14958 51.1518 8.12959 51.1503C8.03769 51.1439 7.94455 51.1435 7.9148 51.1432Z" fill="black" />
    <path d="M25.5525 30.2103L12.4118 35.3974L18.5261 36.0344L17.1957 38.2587L22.8334 39.9395L26.0951 41.8904L29.4816 45.6072L34.5757 46.9628L39.4844 51.59L40.8148 49.3657L44.2683 54.4514L43.2656 39.8384L45.7337 43.6099L45.2191 29.1681L48.7143 32.9499L47.9336 18.9529L50.6678 22.2795L51.8075 5.5655L35.8463 15.4682L42.0203 17.1073L30.4485 22.0247L33.5299 22.0558L20.0745 28.2626L25.5525 30.2103Z" fill="white" />
    <path d="M32.7963 22.6685C32.6645 22.541 32.5174 22.5931 32.3753 22.6C32.2633 22.6057 32.1309 22.5739 32.0824 22.4981C31.9261 22.2385 31.6648 22.1252 31.4194 21.9989C31.2353 21.9041 31.1651 21.7641 31.1345 21.6062C31.1055 21.4529 31.1127 21.2947 31.1121 21.1356C31.111 21.0574 31.1367 20.9836 31.134 20.9082C31.122 20.5358 31.1174 20.5294 31.4778 20.4265C31.7324 20.355 31.9634 20.2515 32.1852 20.1132C32.6653 19.8095 33.1688 19.5378 33.6567 19.2423C33.9909 19.0394 34.2938 18.7963 34.6422 18.6126C35.2881 18.2751 35.8934 17.8846 36.5597 17.5772C36.9174 17.4136 37.2329 17.1778 37.5796 16.9968C38.1021 16.7213 38.634 16.4658 39.1643 16.1984C39.4461 16.0576 39.7232 15.9105 40.0003 15.7633C40.024 15.7511 40.0448 15.7003 40.0371 15.6774C40.0231 15.6435 39.9822 15.6127 39.9492 15.5974C39.8909 15.575 39.8201 15.5453 39.7648 15.5541C39.4094 15.5972 39.0531 15.5327 38.6935 15.4958C38.4995 15.4766 38.3197 15.4471 38.169 15.5783C38.1198 15.6202 38.0109 15.6277 37.9305 15.6147C37.5679 15.5466 37.2374 15.3935 36.9325 15.1814C36.8995 15.1587 36.8634 15.1195 36.8589 15.0837C36.8391 14.9652 36.8319 14.8467 36.82 14.7291C36.8096 14.6234 36.9185 14.6232 36.9708 14.5758C37.2598 14.2989 37.544 14.0155 37.941 13.8635C38.3727 13.4692 38.9516 13.2703 39.4505 12.9701C39.7008 12.8187 39.9496 12.6626 40.1951 12.5047C40.4217 12.3581 40.6671 12.237 40.8937 12.083C41.1647 11.8954 41.4796 11.7626 41.771 11.5978C42.0101 11.4658 42.2493 11.3263 42.479 11.1815C42.6786 11.06 42.8641 10.9192 43.0606 10.7959C43.5564 10.4865 44.0303 10.1571 44.4619 9.77024C44.719 9.54144 45.0012 9.33445 45.2975 9.14664C45.9059 8.75798 46.4437 8.29553 47.0066 7.8549C47.5395 7.43757 48.0879 7.04399 48.6615 6.67224C49.3 6.26029 49.9746 5.89488 50.563 5.42457C50.8326 5.21035 51.1101 4.99698 51.3467 4.75274C51.6961 4.39241 52.1787 4.18619 52.5454 3.84685C52.5882 3.80871 52.6485 3.76213 52.7005 3.76621C52.9639 3.79577 53.1387 3.59353 53.3943 3.60754C53.4922 3.61209 53.5677 3.64812 53.5814 3.73352C53.6041 3.89056 53.6331 4.05122 53.6322 4.20574C53.6235 5.12369 53.6195 6.04067 53.4594 6.93806C53.4071 7.24024 53.3863 7.55315 53.3749 7.86412C53.3597 8.29101 53.3603 8.71959 53.2253 9.12193C53.1963 9.20867 53.202 9.3153 53.2046 9.41276C53.2187 9.94145 53.1588 10.4608 53.1256 10.9844C53.0943 11.4685 52.9794 11.9377 53.0632 12.44C53.0739 12.4941 53.0341 12.5488 53.0259 12.6068C52.9372 13.4308 52.847 14.2576 52.719 15.0774C52.5942 15.877 52.5734 16.6994 52.5905 17.5215C52.6053 18.2092 52.5397 18.884 52.463 19.5562C52.438 19.7818 52.4208 20.0155 52.2949 20.2201C52.2168 20.3413 52.2048 20.5079 52.1881 20.6607C52.1747 20.7859 52.1252 20.872 52.0113 20.9246C51.8894 20.9838 51.7644 21.0411 51.6425 21.1003C51.4239 20.9709 51.1765 20.9063 51.0344 20.6511C50.7502 20.1407 50.4803 19.6274 50.2436 19.1001C50.2202 19.046 50.1763 18.9986 50.1372 18.9503C50.1278 18.9375 50.101 18.9332 50.0805 18.9325C50.0631 18.9335 50.0393 18.9457 50.0377 18.9559C50.0328 19.5031 50.0106 20.0515 50.0325 20.6031C50.0718 21.6779 50.1316 22.7533 50.1897 23.8315C50.2309 24.5972 50.3083 25.3653 50.3179 26.1277C50.3277 26.8532 50.4038 27.58 50.39 28.303C50.3832 28.6498 50.411 29.0091 50.4515 29.3609C50.519 29.9424 50.4351 30.496 50.3939 31.0556C50.3663 31.4385 50.3214 31.8224 50.2496 32.2021C50.2041 32.4269 50.0829 32.6305 50.0957 32.8704C50.097 32.9044 50.0684 32.947 50.0398 32.9675C49.8591 33.0999 49.6239 33.1087 49.4074 33.1578C49.2999 33.1846 49.2072 33.1202 49.1048 33.0798C48.6089 32.8797 48.3478 32.4675 48.0661 32.0767C47.969 31.9397 47.9037 31.784 47.8352 31.6338C47.7511 31.4452 47.6527 31.2669 47.4958 31.1176C47.5197 31.076 47.5515 31.0352 47.4744 31.0019C47.4681 30.9983 47.4443 31.0252 47.4474 31.027C47.4678 31.0572 47.4928 31.0864 47.5148 31.1137C47.435 31.2451 47.3869 31.3725 47.4111 31.5489C47.476 32.0403 47.5062 32.5338 47.5458 33.0255C47.584 33.4978 47.6616 33.9744 47.7077 34.4476C47.8176 35.5887 48.0253 36.7345 48.0421 37.8775C48.0515 38.4071 48.0814 38.9375 48.1019 39.4698C48.1047 39.5305 48.0854 39.5859 48.0977 39.6446C48.2668 40.3916 48.0574 41.0761 47.9317 41.768C47.9089 41.8878 47.8543 42.0484 47.6819 42.1007C47.606 42.1235 47.5379 42.1692 47.4792 42.2204C47.2539 42.4084 47.0126 42.3915 46.7326 42.238C46.366 42.0384 46.0534 41.8033 45.8156 41.4525C45.5419 41.0478 45.3203 40.6324 45.1367 40.1946C45.1305 40.1763 45.1132 40.1627 45.1006 40.1481C45.0705 40.1714 45.0215 40.1912 45.0181 40.2188C45.0011 40.6853 44.9667 41.1528 45.098 41.6307C45.1443 41.805 45.1621 41.9851 45.1658 42.1607C45.1757 42.6168 45.3024 43.0661 45.3644 43.5189C45.4248 43.9672 45.591 44.4134 45.544 44.8664C45.5289 45.0164 45.5769 45.1806 45.6075 45.3385C45.7315 45.9672 45.764 46.595 45.8881 47.2238C45.9447 47.5185 45.9744 47.8162 45.9884 48.1122C46.0077 48.581 46.0538 49.0542 46.0557 49.5242C46.0528 50.2498 46.0926 50.9815 46.1592 51.7102C46.1918 52.0612 46.201 52.3802 45.9957 52.6573C45.9924 52.947 45.7205 53.0049 45.5165 53.0833C45.3124 53.1616 45.0633 53.1144 44.8463 52.9897C44.6214 52.8567 44.3997 52.7182 44.1859 52.5732C44.1168 52.5261 44.0572 52.4623 44.0071 52.3966C43.8693 52.214 43.7458 52.0212 43.608 51.8386C43.4827 51.6706 43.3337 51.5148 43.218 51.3449C43.11 51.1906 43.0163 51.026 42.9432 50.8547C42.7175 50.3226 42.5156 49.7857 42.29 49.2536C42.2262 49.1025 42.3041 49.0033 42.3427 48.8852C42.4375 48.5964 42.5893 48.5507 42.8074 48.7683C42.9847 48.9477 43.1461 49.1402 43.2615 49.369C43.5516 49.9418 43.8733 50.5033 44.1982 51.0666C44.3106 51.2641 44.4451 51.467 44.613 51.6263C44.7276 51.7327 44.7832 51.9271 44.99 51.9315C44.9861 51.7927 44.9885 51.6575 44.9798 51.5196C44.9516 50.9717 44.8886 50.4187 44.8967 49.8732C44.9063 49.0702 44.8449 48.2597 44.8008 47.4554C44.7481 46.5132 44.7017 45.5673 44.5733 44.6185C44.5023 44.0867 44.4629 43.5583 44.3336 43.0261C44.2443 42.6573 44.245 42.2775 44.1999 41.9045C44.1819 41.7465 44.1639 41.5885 44.1191 41.4335C44.0727 41.2739 44.0546 41.1306 44.0966 40.9702C44.1289 40.8485 44.0651 40.6974 44.0628 40.5631C44.0504 39.9949 44.1232 39.4386 44.1755 38.8817C44.1992 38.6295 44.3875 38.5347 44.5587 38.4116C44.5857 38.3938 44.6394 38.3878 44.6756 38.3975C45.0728 38.4929 45.4652 38.5819 45.6726 39.0001C45.9205 39.5007 46.2824 39.9561 46.4701 40.4812C46.5167 40.6113 46.6138 40.7336 46.6825 40.8617C46.8714 41.2102 46.9137 41.2604 46.9803 41.2027C47.1104 41.0929 47.1161 40.9374 47.1154 40.7783C47.1139 40.5042 47.1203 40.231 47.1346 39.9586C47.1958 38.709 47.0771 37.4521 46.9396 36.1916C46.8618 35.4824 46.7256 34.7728 46.7031 34.0621C46.6939 33.7504 46.5806 33.4306 46.5447 33.1145C46.4787 32.545 46.4994 31.9773 46.4918 31.4081C46.4846 30.78 46.4947 30.1508 46.508 29.5235C46.512 29.3708 46.5288 29.2106 46.5849 29.0693C46.6458 28.9197 46.5745 28.7015 46.7864 28.624C46.7607 28.4357 46.9944 28.4297 47.0458 28.2747C47.1021 28.104 47.2093 28.1287 47.3613 28.2936C47.5934 28.5451 47.7638 28.8239 47.904 29.126C48.1345 29.6351 48.3808 30.1385 48.6224 30.6428C48.7019 30.8104 48.7845 30.9797 48.8703 31.1434C48.8984 31.1965 48.9359 31.255 48.9862 31.2913C49.0334 31.3258 49.0995 31.3417 49.1563 31.3448C49.18 31.3473 49.2182 31.2954 49.22 31.2632C49.2302 31.1288 49.2122 30.9855 49.2382 30.8528C49.3671 30.1627 49.3161 29.4578 49.2588 28.7493C49.2309 28.412 49.1824 28.074 49.2049 27.7437C49.2473 27.0001 49.1398 26.2479 49.1411 25.503C49.1421 25.3485 49.1083 25.1888 49.0998 25.0288C49.0588 24.241 49.0241 23.4569 48.9831 22.6691C48.9776 22.533 48.969 22.3952 48.9524 22.2565C48.9388 22.1563 48.8607 22.0302 48.8974 21.9664C49.0234 21.7472 48.8544 21.5024 48.93 21.2689C48.9975 21.0641 49.0085 20.8193 48.9563 20.5752C48.9271 20.444 48.9737 20.3046 48.9808 20.1685C48.9865 20.013 49.0095 19.8564 48.9852 19.7021C48.9349 19.4184 48.968 19.1495 49.0264 18.8878C49.0913 18.6075 49.1734 18.3336 49.202 18.0436C49.2103 17.9708 49.255 17.9005 49.2869 17.8303C49.3301 17.7333 49.3775 17.7236 49.5366 17.7744C49.576 17.786 49.6121 17.8178 49.6531 17.8266C49.8029 17.8573 49.8854 17.7866 49.9212 17.6078C49.9554 17.4318 50.0614 17.3931 50.2153 17.5184C50.3283 17.613 50.4492 17.7157 50.5164 17.8392C50.6849 18.1502 50.8408 18.4687 50.9762 18.7939C51.1115 19.119 51.3545 19.3879 51.5231 19.6989C51.5294 19.7099 51.5655 19.727 51.5766 19.7223C51.6083 19.7036 51.6653 19.6773 51.6607 19.6562C51.6055 19.3808 51.6655 19.1162 51.6514 18.8423C51.6187 18.2513 51.6301 17.6635 51.6684 17.08C51.7218 16.3244 51.81 15.5739 51.832 14.815C51.8419 14.4847 51.918 14.163 51.9358 13.8335C51.9682 13.1729 52.0825 12.5298 52.137 11.8744C52.2105 10.9457 52.3344 10.0238 52.3227 9.08309C52.3164 8.56996 52.4298 8.08139 52.4597 7.57801C52.495 6.95594 52.6533 6.36024 52.6776 5.73552C52.6835 5.54324 52.7414 5.35504 52.782 5.16794C52.8047 5.07023 52.8131 4.97541 52.7411 4.88232C52.6556 4.9218 52.5514 4.94307 52.4895 4.99979C52.1655 5.32307 51.7397 5.53977 51.4377 5.89042C51.3026 6.04536 51.1062 6.154 50.9272 6.26891C50.2284 6.72744 49.5233 7.18236 48.8214 7.63909C48.365 7.93794 47.9448 8.27598 47.5198 8.60763C46.9616 9.04729 46.466 9.5599 45.8451 9.93397C45.7152 10.0144 45.615 10.1377 45.507 10.2454C45.4515 10.2984 45.4179 10.3788 45.3514 10.4144C45.0997 10.5392 44.9389 10.7606 44.7202 10.9155C44.4998 11.0731 44.3014 11.2654 44.0655 11.3919C43.752 11.5588 43.5341 11.8286 43.2191 11.9908C42.9246 12.1464 42.6254 12.2956 42.3465 12.4677C41.979 12.692 41.6131 12.921 41.2738 13.1764C40.8378 13.5054 40.3595 13.7695 39.8625 14.0154C39.6519 14.1196 39.446 14.2375 39.2402 14.3481C39.2259 14.3584 39.21 14.3861 39.2162 14.3971C39.2334 14.4254 39.2631 14.4684 39.2868 14.4709C39.5803 14.4845 39.8722 14.4862 40.1673 14.4971C40.3756 14.506 40.5871 14.5094 40.7952 14.5478C40.9213 14.5687 40.9832 14.7667 41.1714 14.7161C41.2852 14.6855 41.4207 14.7191 41.5439 14.7087C41.6891 14.6962 41.836 14.6809 41.9719 14.6483C42.0889 14.6196 42.1841 14.5414 42.301 14.5126C42.4575 14.4733 42.6263 14.4855 42.7805 14.574C42.8308 14.603 42.9014 14.6768 42.8949 14.7099C42.8576 14.8694 42.8692 15.0312 42.7106 15.1615C42.3934 15.4222 42.0167 15.597 41.6729 15.8166C41.2958 16.0576 40.842 16.2065 40.4978 16.4776C40.1997 16.7123 39.8204 16.797 39.5224 17.0097C39.4749 17.0414 39.4241 17.0787 39.3672 17.0903C38.8425 17.2096 38.4132 17.4833 37.9666 17.7361C37.7306 17.87 37.5118 18.0396 37.2132 18.0784C37.1548 18.0854 37.1041 18.1227 37.0502 18.1508C36.4327 18.4899 35.7963 18.8108 35.2022 19.1818C34.7063 19.4912 34.165 19.7412 33.7162 20.1071C33.5258 20.2635 33.2994 20.3881 33.1891 20.6237C33.1523 20.7023 33.0572 20.7584 32.9749 20.8071C32.742 20.9501 32.5013 21.0849 32.2684 21.228C32.2431 21.2429 32.2364 21.2982 32.2473 21.3303C32.2581 21.3623 32.2989 21.4079 32.3304 21.4113C32.4125 21.4215 32.4977 21.4262 32.5766 21.4125C32.7125 21.3873 32.8471 21.3133 32.9469 21.5109C32.9625 21.542 33.0682 21.5548 33.1251 21.5505C33.7646 21.4936 34.4027 21.4173 35.0097 21.2568C35.3543 21.1669 35.6693 21.2815 35.9971 21.3518C36.0271 21.3579 36.0647 21.4017 36.0755 21.4338C36.1252 21.5804 36.0784 21.7418 36.2023 21.8832C36.2069 21.8895 36.1369 21.9822 36.0911 21.9891C35.8052 22.0352 35.5426 22.1353 35.2878 22.251C35.1248 22.3234 34.9602 22.3912 34.8004 22.4655C34.7481 22.4909 34.6927 22.5218 34.6656 22.5689C34.476 22.8697 34.219 23.0912 33.8631 23.2078C33.5377 23.5192 33.1027 23.6863 32.7256 23.9273C31.897 24.4515 31.02 24.8925 30.0881 25.2614C29.1436 25.6378 28.2069 26.0297 27.2983 26.4674C26.4816 26.8618 25.646 27.2306 24.8934 27.7246C24.5558 27.9478 24.1948 28.1464 23.8714 28.3887C23.8111 28.4353 23.7618 28.4919 23.7094 28.5467C23.6983 28.5588 23.6886 28.5901 23.6996 28.6001C23.7184 28.6257 23.7498 28.6585 23.7797 28.6646C24.0571 28.7354 24.3195 28.6721 24.5909 28.6731C25.1086 28.6753 25.6265 28.6407 26.1458 28.6328C26.3304 28.6319 26.526 28.6483 26.7104 28.6989C26.953 28.7645 27.2682 29.1118 27.3283 29.3421C27.3515 29.4329 27.3858 29.4969 27.4916 29.4802C27.6338 29.4586 27.7729 29.4278 27.9151 29.3987C28.0952 29.362 28.2754 29.3253 28.4587 29.2903C28.5709 29.2699 28.6195 29.309 28.6064 29.3974C28.5932 29.4932 28.5721 29.5881 28.5668 29.6847C28.5473 30.039 28.3281 30.2601 28.0556 30.4431C27.7481 30.6503 27.4532 30.8721 27.1224 31.04C26.8073 31.2023 26.5 31.3874 26.1647 31.5048C25.5906 31.7028 25.126 32.067 24.5409 32.2402C24.3496 32.2964 24.2099 32.4376 24.0357 32.5294C23.6463 32.7265 23.2287 32.8704 22.8284 33.0427C22.4455 33.2065 22.0641 33.375 21.6827 33.5434C21.2095 33.755 20.7068 33.8943 20.2196 34.0721C20.1295 34.1052 20.0517 34.1676 19.9615 34.208C19.8365 34.2654 19.7099 34.3255 19.5739 34.3655C18.7786 34.5987 18.0146 34.8868 17.2645 35.2162C17.0667 35.3055 16.847 35.3602 16.6413 35.4339C16.4531 35.4993 16.2727 35.5802 16.0783 35.6345C15.8996 35.6832 15.7382 35.7529 15.6002 35.8619C15.5844 35.8749 15.5934 35.9539 15.6044 35.9565C15.7462 36.0011 15.8896 36.0429 16.0314 36.0801C16.1117 36.1005 16.2128 36.0995 16.274 36.1458C16.6056 36.3917 16.9825 36.4349 17.3593 36.5001C17.4208 36.5096 17.4854 36.5283 17.5469 36.5451C18.5551 36.8515 19.5512 36.8222 20.5428 36.7424C20.7844 36.7226 21.0446 36.7577 21.2569 36.6213C21.4074 36.5269 21.5847 36.7063 21.7443 36.6689C21.9814 36.6131 22.0735 36.7879 22.1752 36.9313C22.2018 36.9724 22.2107 37.0661 22.1805 37.0894C21.9933 37.2476 21.8672 37.4816 21.5641 37.5067C21.3367 37.5236 21.159 37.6726 20.9192 37.6676C20.8939 37.6678 20.8589 37.7215 20.8618 37.7528C20.8632 37.7868 20.8881 37.838 20.9196 37.8561C21.3867 38.1283 21.8107 38.4754 22.3561 38.5969C22.457 38.618 22.5481 38.6925 22.6472 38.7384C22.7464 38.7843 22.8485 38.8615 22.9416 38.8596C23.3077 38.8633 23.6379 39.0679 23.996 39.1002C24.056 39.1051 24.1204 39.1532 24.1804 39.1508C24.6035 39.1282 25.0096 39.3025 25.4229 39.3481C25.5648 39.3632 25.5959 39.4475 25.6586 39.5205C25.693 39.5624 25.7733 39.6049 25.6846 39.6573C25.4248 39.8107 25.1513 39.8934 24.8121 39.8646C24.159 39.8141 23.5142 39.6982 22.8697 39.5308C22.7893 39.5104 22.7074 39.4781 22.6238 39.4707C22.3651 39.4475 22.129 39.3561 21.8961 39.237C21.5688 39.071 21.2047 38.9983 20.8918 38.8C20.7849 38.7312 20.6623 38.6386 20.5488 38.625C20.2523 38.5949 20.1493 38.3954 20.0574 38.1912C19.992 38.0429 19.9677 37.8812 19.9292 37.7225C19.9046 37.6271 19.9052 37.5241 19.8584 37.4381C19.8443 37.4116 19.7037 37.4452 19.62 37.4451C19.0534 37.4406 18.4899 37.4527 17.9235 37.4261C17.1251 37.3881 16.3387 37.1982 15.5475 37.0166C15.1479 36.8017 14.7132 36.6478 14.3981 36.3006C14.3605 36.2568 14.2992 36.2105 14.2456 36.2018C14.1589 36.1852 14.091 36.1868 14.0538 36.0842C13.8598 35.5407 13.8169 35.5862 14.3185 35.3761C14.684 35.2208 15.0683 35.0909 15.4525 34.9758C16.3253 34.717 17.1465 34.3731 17.9646 34.0127C18.2906 33.8678 18.6322 33.754 18.9582 33.6092C19.4646 33.3834 20.0022 33.2272 20.5242 33.0325C20.7283 32.9542 20.9058 32.8273 21.1146 32.7554C21.6618 32.5604 22.1498 32.2576 22.7329 32.1313C22.9992 31.9374 23.3187 31.8256 23.6273 31.6892C23.8473 31.5905 24.0703 31.5156 24.3167 31.48C24.6863 31.4267 25.0358 31.3211 25.3165 31.0948C25.4037 31.0231 25.4706 30.9287 25.5374 30.8342C25.5867 30.7702 25.5274 30.6623 25.4438 30.6548C25.2135 30.6332 24.9801 30.6024 24.7497 30.6029C24.2163 30.599 23.7088 30.4698 23.2019 30.267C23.0617 30.2123 22.9135 30.1935 22.7717 30.149C22.5606 30.0793 22.3877 29.9652 22.2801 29.7593C22.2286 29.6596 22.1865 29.5726 22.2423 29.4829C22.4558 29.1404 22.5844 28.7639 22.6121 28.3516C22.6172 28.2991 22.6507 28.2409 22.6919 28.2055C23.0268 27.8922 23.2754 27.4961 23.7154 27.2912C23.9671 27.1738 24.1341 26.956 24.4109 26.8603C24.6513 26.777 24.8512 26.6113 25.0729 26.4877C25.2439 26.394 25.4133 26.3031 25.5499 26.1601C25.6515 26.0561 25.8162 25.9735 25.9709 25.9591C26.1841 25.9377 26.3504 25.8523 26.5261 25.765C27.1466 25.4646 27.753 25.1375 28.408 24.8864C28.9079 24.6938 29.3688 24.4234 29.8468 24.1887C29.9529 24.1352 30.0543 24.068 30.1697 24.0347C30.4638 23.9526 30.7281 23.8203 30.991 23.6834C31.5673 23.3797 32.142 23.0788 32.7137 22.7686C32.7612 22.7442 32.7821 22.6787 32.8123 22.6334C32.8629 22.6255 32.9213 22.6259 32.9624 22.6052C32.9798 22.5968 32.966 22.5408 32.9693 22.5058C32.9504 22.5097 32.9251 22.5099 32.9156 22.5192C32.8584 22.5823 32.8281 22.6277 32.7963 22.6685Z" fill="black" />
    <path d="M26.5752 47.6673C26.8144 47.251 27.0726 46.8456 27.2819 46.4159C27.3587 46.2532 27.5735 46.2143 27.5889 46.0201C27.6075 45.8277 27.8509 45.7682 27.8444 45.5393C27.8406 45.3784 27.9741 45.2262 28.0555 45.0773C28.1449 44.9072 28.25 44.7462 28.3426 44.5778C28.4256 44.4262 28.4991 44.2691 28.5821 44.1174C28.6747 43.9491 28.7735 43.7844 28.8692 43.6179C28.9266 43.518 28.9841 43.4182 29.0415 43.3183C29.0973 43.2211 29.1904 43.2193 29.3056 43.2227C29.4035 43.2273 29.4434 43.1432 29.3965 43.0646C29.2903 42.8854 29.1777 42.7099 29.0715 42.5307C29.0074 42.4237 28.9497 42.313 28.892 42.2023C28.7702 41.9846 28.7901 41.8262 28.9756 41.6855C29.0327 41.6445 29.1418 41.6075 29.2047 41.6363C29.4818 41.7513 29.7289 41.8748 29.888 42.1731C30.1737 42.7027 30.4277 43.2364 30.6675 43.7803C30.7764 44.0275 30.8934 44.2682 31.015 44.508C31.0587 44.5922 31.1052 44.7297 31.227 44.6926C31.3029 44.6698 31.3667 44.5588 31.383 44.4721C31.4252 44.2676 31.4502 44.0567 31.4562 43.8423C31.4623 43.6206 31.5297 43.4305 31.6429 43.2482C31.7242 43.114 31.8062 43.1242 31.9208 43.2233C32.0714 43.1142 32.1325 43.19 32.1505 43.3406C32.1744 43.5758 32.2266 43.8199 32.2015 44.0455C32.1798 44.2435 32.3054 44.3526 32.4152 44.4674C32.5313 44.5858 32.6823 44.6726 32.8766 44.6403C33.1752 44.5867 33.4523 44.7017 33.726 44.8516C34.05 45.0305 34.3502 45.2363 34.5948 45.5098C34.8221 45.7623 35.0669 45.9916 35.3482 46.1939C35.5101 46.3127 35.6086 46.469 35.6453 46.6526C35.653 46.6976 35.6355 46.7134 35.5756 46.6938C35.4795 46.6644 35.4272 46.7044 35.3669 46.7657C35.1383 46.9887 34.9266 47.0148 34.6608 46.8657C34.395 46.7166 34.1641 46.5211 33.9492 46.3127C33.7656 46.137 33.5994 45.9455 33.419 45.7716C33.3625 45.717 33.2727 45.6839 33.1924 45.6562C32.8884 45.559 32.5683 45.5116 32.2772 45.3701C32.1796 45.3214 32.1147 45.3616 32.0748 45.4309C31.9822 45.5992 31.8534 45.7578 31.8271 45.942C31.7926 46.1548 31.6344 46.2263 31.4811 46.2526C31.2947 46.2858 31.08 46.2879 30.906 46.0882C30.7807 45.9423 30.652 45.8093 30.5789 45.6307C30.5338 45.5199 30.4492 45.4195 30.3915 45.3088C30.2667 45.0673 30.145 44.8275 30.0345 44.5831C29.9753 44.4531 29.9509 44.3061 29.8854 44.1799C29.8371 44.082 29.8079 43.9507 29.6581 43.92C29.6181 44.0041 29.5798 44.0854 29.5461 44.1731C29.4964 44.296 29.4656 44.4296 29.4002 44.5434C28.8595 45.4915 28.314 46.4405 27.7669 47.385C27.7015 47.4988 27.6581 47.6326 27.5172 47.6956C27.4318 47.7351 27.4376 47.8123 27.423 47.8887C27.4099 47.9624 27.3967 48.0582 27.3444 48.0983C27.0399 48.3294 26.8833 48.6602 26.7093 48.9774C26.5322 49.3002 26.231 49.5184 26.0193 49.8139C25.9667 49.8907 25.8796 49.9403 25.8145 50.01C25.6747 50.1659 25.6449 50.3998 25.4327 50.5067C25.2317 50.609 25.2238 50.8703 25.0022 50.9644C24.9342 50.9955 24.9208 51.128 24.8871 51.2157C24.8663 51.2665 24.872 51.3584 24.8357 51.3708C24.6111 51.441 24.5625 51.6494 24.4889 51.8138C24.4025 52.0078 24.1008 52.0449 24.1371 52.3094C23.9236 52.3823 23.9112 52.6151 23.7731 52.7388C23.5589 52.9295 23.4169 53.1838 23.1775 53.3527C22.9873 53.487 22.8963 53.6673 22.9926 53.9146C23.0423 54.0466 22.9926 54.1767 23.0722 54.3222C23.1331 54.4347 23.0974 54.5914 23.0888 54.723C23.0713 55.0083 22.9608 55.266 22.9149 55.5423C22.8839 55.7128 22.663 55.7113 22.673 55.8832C22.3783 56.0682 22.1044 55.9551 21.9833 55.6123C21.9306 55.4639 21.9488 55.323 21.9889 55.2094C22.1623 54.7184 22.0581 54.2081 21.9665 53.6977C21.9207 53.4425 21.8291 53.1868 21.7517 52.9355C21.6635 52.6449 21.5753 52.3542 21.5013 52.0606C21.3486 51.4745 21.1169 50.902 20.7571 50.3703C20.743 50.3511 20.6957 50.3461 20.6642 50.3427C20.6563 50.3419 20.645 50.376 20.6465 50.3953C20.6494 50.4339 20.6523 50.4725 20.6632 50.5119C20.674 50.5514 20.6895 50.5898 20.7098 50.6273C21.0689 51.2768 21.2399 51.9621 21.362 52.6525C21.388 52.7893 21.4504 52.9211 21.4606 53.0488C21.4974 53.4945 21.3687 53.8931 21.1078 54.2378C21.0267 54.3426 20.7269 54.3253 20.6551 54.1954C20.5396 53.9887 20.3702 53.8101 20.4334 53.5327C20.4982 53.2598 20.4243 52.9515 20.3772 52.6549C20.2477 51.8754 19.8812 51.1516 19.5874 50.4104C19.505 50.2043 19.3578 50.0163 19.2374 49.818C19.1421 49.6635 19.179 49.5629 19.3247 49.4842C19.3912 49.4485 19.428 49.3627 19.4945 49.3344C19.5609 49.3061 19.6684 49.2867 19.7297 49.3183C19.972 49.4501 20.2523 49.5522 20.342 49.8474C20.3622 49.9144 20.4962 49.936 20.5486 49.8886C20.5914 49.8505 20.6311 49.8105 20.6739 49.7724C20.7723 49.6886 20.7642 49.4625 20.9376 49.503C21.1361 49.5507 21.3533 49.6534 21.4785 49.8361C21.6568 50.0937 21.8938 50.3222 21.9613 50.6342C21.9859 50.7517 22.0293 50.8726 22.095 50.9768C22.3811 51.4256 22.5629 51.9029 22.7367 52.3868C22.774 52.4894 22.8229 52.499 22.9069 52.4256C23.1926 52.1689 23.4908 51.9268 23.701 51.6046C23.7711 51.4972 23.8947 51.4206 23.9837 51.3241C24.4348 50.8376 24.8608 50.3368 25.2004 49.7678C25.3344 49.542 25.4227 49.2864 25.6778 49.1339C25.7997 49.0601 25.8403 48.8803 25.9168 48.7471C26.1274 48.3808 26.3379 48.0145 26.5469 47.651C26.5595 47.6582 26.5689 47.6636 26.5752 47.6673ZM20.5631 50.0963L20.5267 50.1086L20.5581 50.1341L20.5631 50.0963Z" fill="black" />
    <path d="M27.5032 57.3305C27.4288 57.3653 27.5272 57.551 27.4025 57.5422C27.2306 57.5282 27.1192 57.671 26.9254 57.615C26.7789 57.5714 26.6323 57.5425 26.5066 57.4554C26.4595 57.421 26.4267 57.3615 26.4033 57.3075C26.2195 56.9138 26.2329 56.5265 26.3519 56.1519C26.4501 55.8428 26.5513 55.5356 26.6274 55.2212C26.6452 55.1465 26.6583 55.0654 26.6982 55.0034C26.8368 54.7914 26.884 54.5491 26.9549 54.3093C27.0387 54.0178 27.0817 53.7028 27.2789 53.4544C27.2574 53.084 27.5746 52.838 27.5705 52.4738C27.7765 52.0644 27.852 51.5982 28.1115 51.2121C28.1848 51.1066 28.2109 50.9665 28.2527 50.8428C28.2703 50.7903 28.2723 50.7286 28.2979 50.6769C28.4703 50.3551 28.6458 50.0351 28.8213 49.7152C28.83 49.3214 29.0968 49.0465 29.2503 48.7213C29.3239 48.5642 29.4289 48.4252 29.5024 48.2681C29.5616 48.136 29.5767 47.9859 29.6422 47.8575C29.8099 47.5366 29.9854 47.2167 30.1735 46.9039C30.2852 46.7171 30.4987 46.6368 30.6856 46.53C30.7347 46.5029 30.7583 46.5128 30.7801 46.5622C30.8501 46.7317 30.9611 46.9025 30.8275 47.0694C30.7274 47.1927 30.7091 47.3483 30.6908 47.504C30.664 47.7544 30.6057 47.9941 30.453 48.2016C30.375 48.3082 30.319 48.4347 30.2614 48.5567C30.1959 48.6925 30.124 48.8321 30.0821 48.9779C30.0482 49.1024 29.9105 49.1746 29.9411 49.3251C29.7209 49.7301 29.4943 50.1315 29.2883 50.541C29.17 50.7758 29.0864 51.0304 28.984 51.2743C28.8846 51.5199 28.6877 51.7242 28.6906 52.0175C28.6904 52.0543 28.6634 52.0868 28.6474 52.1219C28.5309 52.3392 28.4081 52.5455 28.3781 52.8089C28.3515 53.0298 28.1437 53.2021 28.169 53.4566C27.9701 53.7225 27.9633 54.0693 27.8195 54.3632C27.6916 54.622 27.3628 56.0168 27.339 56.3058C27.3084 56.6648 27.3084 56.6648 27.4769 56.9832C27.5082 57.038 27.5441 57.0919 27.5833 57.1403C27.671 57.2498 27.5809 57.2755 27.5032 57.3305Z" fill="black" />
    <path d="M41.1935 49.1808C41.3371 48.9311 41.4759 48.6823 41.6257 48.4362C41.6959 48.3214 41.7719 48.2839 41.9322 48.3834C42.1351 48.5111 42.1554 48.5412 42.0881 48.7093C41.9407 49.0676 41.7509 49.4052 41.6979 49.8104C41.6682 50.0296 41.506 50.2243 41.4022 50.4268C41.3495 50.5257 41.3998 50.562 41.5038 50.5849C41.5117 50.5857 41.5271 50.661 41.5128 50.6786C41.4365 50.7603 41.3492 50.8393 41.262 50.911C40.7862 51.2873 40.6757 51.2903 40.1239 50.9398C39.8078 50.7397 39.5473 50.5087 39.3804 50.1728C39.2557 49.9166 39.0487 49.6942 38.9589 49.4137C38.9186 49.2872 38.8375 49.1224 38.6184 49.0814C38.508 49.0623 38.5791 48.7856 38.3422 48.8119C38.2544 48.7245 38.1396 48.6475 38.0803 48.5469C38.0084 48.4244 37.8633 48.4148 37.7959 48.3281C37.7004 48.203 37.574 48.219 37.4591 48.1714C37.0608 48.0052 36.6674 47.816 36.4187 47.4478C36.3436 47.3382 36.2509 47.2591 36.1441 47.1829C36.0906 47.1448 36.08 47.0833 36.1575 47.0577C36.1938 47.0454 36.2412 47.0505 36.2791 47.0354C36.4057 46.99 36.5261 46.9115 36.6587 46.8991C36.8593 46.8778 37.0067 47.0438 37.1798 47.1285C37.4268 47.252 37.6449 47.4549 37.9433 47.4455C38.1871 47.582 38.4421 47.6916 38.6492 47.8919C39.1686 48.3935 39.7102 48.8783 40.1138 49.4721C40.2296 49.642 40.3849 49.794 40.5244 49.9518C40.6059 50.0429 40.7117 50.0336 40.7707 49.9309C40.9143 49.6812 41.0563 49.4342 41.1998 49.1844C41.203 49.1862 41.1998 49.1844 41.1935 49.1808Z" fill="black" />
    <path d="M26.6253 41.9885C26.5437 41.9194 26.4588 41.8559 26.3819 41.7859C26.3003 41.7094 26.3183 41.598 26.4133 41.5565C26.4924 41.5208 26.6264 41.5425 26.6052 41.3974C26.6037 41.3854 26.6623 41.3563 26.6859 41.3662C26.9899 41.4708 27.3024 41.4658 27.6098 41.5207C27.6965 41.5373 27.7497 41.6269 27.7176 41.7045C27.7016 41.7396 27.6935 41.7756 27.6712 41.8071C27.4977 42.0507 26.9019 42.1918 26.6253 41.9885Z" fill="black" />
    <path d="M18.6708 51.9104C18.6278 51.9854 18.602 52.0665 18.5465 52.1122C18.5148 52.1382 18.4233 52.1299 18.3729 52.1084C18.3178 52.0878 18.2692 52.034 18.2284 51.9884C17.9276 51.6235 17.7107 51.2219 17.5333 50.8025C17.4617 50.6358 17.3531 50.5771 17.1842 50.5944C17.061 50.6048 16.9377 50.63 16.813 50.6358C16.6425 50.6412 16.4664 50.5326 16.4042 50.3787C16.3467 50.2312 16.2828 50.0948 16.4604 49.968C16.5808 49.8821 16.6684 49.7516 16.8 49.6611C17.0123 49.5173 17.2444 49.4994 17.5061 49.5464C17.6417 49.5727 17.7471 49.6296 17.8158 49.7503C18.0158 50.0867 18.2838 50.3922 18.3904 50.7746C18.4445 50.9645 18.5443 51.1621 18.6696 51.3301C18.834 51.5538 18.825 51.7369 18.6708 51.9104Z" fill="black" />
</svg>
    