<svg width="16" height="16" viewBox="0 0 16 16" fill="none" xmlns="http://www.w3.org/2000/svg">
    <path fill-rule="evenodd" clip-rule="evenodd" d="M15.139 11.5564C15.0616 11.372 14.984 11.1719 14.9066 11.0029C14.7826 10.7261 14.6587 10.4647 14.5502 10.2189L14.5347 10.2035C13.4656 7.89718 12.3189 5.56005 11.1103 3.25373L11.0638 3.16153C10.9398 2.93069 10.8159 2.68468 10.6919 2.43867C10.5371 2.16207 10.3821 1.86984 10.1342 1.59302C9.63833 0.978212 8.92561 0.639999 8.16632 0.639999C7.3915 0.639999 6.69431 0.978212 6.18294 1.56244C5.95054 1.83926 5.78001 2.13126 5.62522 2.40808C5.50126 2.6541 5.3773 2.90011 5.25334 3.13072L5.20677 3.22292C4.01373 5.52946 2.85173 7.86637 1.78242 10.1725L1.7669 10.2035C1.65846 10.4493 1.5345 10.7107 1.41054 10.9875C1.33315 11.1567 1.25553 11.3411 1.17814 11.5409C0.976787 12.11 0.914694 12.6482 0.992311 13.2017C1.16262 14.3547 1.93743 15.3234 3.00651 15.754C3.40944 15.923 3.82767 16 4.26165 16C4.38561 16 4.54062 15.9846 4.66458 15.9692C5.17595 15.9078 5.70262 15.7386 6.21398 15.4464C6.84931 15.0927 7.4536 14.5853 8.13527 13.8473C8.81695 14.5853 9.43698 15.0927 10.0566 15.4464C10.5679 15.7386 11.0948 15.9078 11.6062 15.9692C11.7302 15.9846 11.8849 16 12.0089 16C12.4429 16 12.8766 15.923 13.264 15.754C14.3486 15.3234 15.1079 14.3395 15.2785 13.2017C15.4024 12.6634 15.3403 12.1254 15.139 11.5564ZM8.15079 12.356C7.31411 11.3103 6.7717 10.3263 6.58587 9.49604C6.50848 9.14265 6.49295 8.83502 6.5393 8.5582C6.57034 8.31219 6.66326 8.09698 6.78722 7.91236C7.08171 7.49735 7.57756 7.23593 8.15079 7.23593C8.72426 7.23593 9.2354 7.48195 9.51437 7.91236C9.63833 8.09698 9.73125 8.31219 9.76229 8.5582C9.80864 8.83502 9.79334 9.15783 9.71572 9.49604C9.52989 10.3111 8.98748 11.2949 8.15079 12.356ZM14.3333 13.0786C14.2247 13.8781 13.6825 14.5699 12.9232 14.8775C12.5513 15.0314 12.1484 15.0773 11.7457 15.0313C11.3583 14.9851 10.9709 14.8621 10.5679 14.6315C10.0102 14.3239 9.45228 13.8473 8.80165 13.1403C9.82416 11.8948 10.444 10.7569 10.6766 9.74206C10.785 9.26543 10.8006 8.83502 10.754 8.43519C10.6919 8.05077 10.5524 7.69715 10.3355 7.38975C9.85521 6.69792 9.04957 6.29787 8.15079 6.29787C7.25224 6.29787 6.44638 6.7131 5.96606 7.38975C5.74919 7.69715 5.6097 8.05077 5.54783 8.43519C5.48574 8.83502 5.50126 9.28084 5.62522 9.74206C5.85762 10.7569 6.49295 11.91 7.49994 13.1554C6.86484 13.8627 6.29138 14.3395 5.73366 14.6469C5.33073 14.8775 4.94332 15.0005 4.55614 15.0465C4.13769 15.0927 3.73476 15.0313 3.3784 14.8929C2.61911 14.5853 2.07692 13.8935 1.96848 13.0938C1.92191 12.7096 1.95295 12.3252 2.10774 11.8948C2.15431 11.741 2.2317 11.5872 2.30932 11.4028C2.41775 11.1567 2.54171 10.8953 2.66568 10.6339L2.6812 10.6031C3.75028 8.31219 4.89698 5.97506 6.09002 3.69954L6.13659 3.60734C6.26055 3.37673 6.38452 3.13072 6.50848 2.90011C6.63244 2.6541 6.7717 2.42349 6.94223 2.22346C7.26754 1.85444 7.70152 1.65464 8.18184 1.65464C8.66216 1.65464 9.09591 1.85444 9.42145 2.22346C9.59176 2.42349 9.73125 2.6541 9.85521 2.90011C9.97917 3.13072 10.1031 3.37673 10.2271 3.60734L10.2737 3.69954C11.4512 5.99046 12.5979 8.32759 13.667 10.6185V10.6339C13.7909 10.8799 13.8994 11.1567 14.0233 11.4028C14.1007 11.5872 14.1783 11.741 14.2247 11.8948C14.3486 12.2944 14.3952 12.6788 14.3333 13.0786Z" fill="#666666" />
</svg>
    