<svg width="16" height="16" viewBox="0 0 16 16" fill="none" xmlns="http://www.w3.org/2000/svg">
    <path fill-rule="evenodd" clip-rule="evenodd" d="M15.139 11.5564C15.0616 11.372 14.984 11.1719 14.9066 11.0029C14.7827 10.7261 14.6587 10.4647 14.5503 10.2189L14.5348 10.2035C13.4657 7.89719 12.319 5.56006 11.1104 3.25374L11.0638 3.16154C10.9399 2.93071 10.8159 2.6847 10.692 2.43868C10.5372 2.16208 10.3822 1.86986 10.1342 1.59304C9.63839 0.978228 8.92567 0.640015 8.16638 0.640015C7.39156 0.640015 6.69437 0.978228 6.183 1.56245C5.9506 1.83928 5.78007 2.13128 5.62529 2.4081C5.50132 2.65411 5.37736 2.90013 5.2534 3.13074L5.20683 3.22293C4.01379 5.52948 2.85179 7.86639 1.78248 10.1725L1.76696 10.2035C1.65852 10.4493 1.53456 10.7107 1.4106 10.9875C1.33321 11.1568 1.25559 11.3412 1.1782 11.541C0.976849 12.11 0.914755 12.6482 0.992372 13.2017C1.16268 14.3547 1.93749 15.3234 3.00657 15.754C3.4095 15.923 3.82773 16 4.26171 16C4.38567 16 4.54068 15.9846 4.66464 15.9692C5.17601 15.9078 5.70268 15.7386 6.21404 15.4464C6.84937 15.0928 7.45366 14.5853 8.13533 13.8473C8.81701 14.5853 9.43704 15.0928 10.0566 15.4464C10.568 15.7386 11.0949 15.9078 11.6062 15.9692C11.7302 15.9846 11.885 16 12.009 16C12.4429 16 12.8767 15.923 13.2641 15.754C14.3487 15.3234 15.108 14.3395 15.2785 13.2017C15.4025 12.6634 15.3404 12.1254 15.139 11.5564ZM8.15086 12.356C7.31417 11.3104 6.77176 10.3263 6.58593 9.49606C6.50854 9.14266 6.49301 8.83504 6.53936 8.55822C6.57041 8.3122 6.66332 8.097 6.78728 7.91237C7.08177 7.49736 7.57762 7.23595 8.15086 7.23595C8.72432 7.23595 9.23546 7.48196 9.51443 7.91237C9.63839 8.097 9.73131 8.3122 9.76235 8.55822C9.8087 8.83504 9.7934 9.15785 9.71578 9.49606C9.52995 10.3111 8.98754 11.2949 8.15086 12.356ZM14.3334 13.0787C14.2247 13.8781 13.6825 14.5699 12.9233 14.8776C12.5514 15.0314 12.1484 15.0774 11.7457 15.0314C11.3583 14.9852 10.9709 14.8621 10.568 14.6315C10.0103 14.3239 9.45234 13.8473 8.80171 13.1403C9.82422 11.8948 10.444 10.7569 10.6767 9.74207C10.7851 9.26545 10.8006 8.83504 10.754 8.43521C10.6919 8.05078 10.5525 7.69717 10.3356 7.38976C9.85527 6.69793 9.04963 6.29788 8.15086 6.29788C7.25231 6.29788 6.44644 6.71311 5.96612 7.38976C5.74925 7.69717 5.60976 8.05078 5.54789 8.43521C5.4858 8.83504 5.50132 9.28085 5.62529 9.74207C5.85768 10.7569 6.49301 11.91 7.5 13.1555C6.8649 13.8627 6.29144 14.3395 5.73372 14.6469C5.33079 14.8776 4.94339 15.0006 4.5562 15.0465C4.13775 15.0928 3.73482 15.0314 3.37846 14.893C2.61917 14.5853 2.07698 13.8935 1.96854 13.0938C1.92197 12.7096 1.95302 12.3252 2.1078 11.8948C2.15437 11.741 2.23176 11.5872 2.30938 11.4028C2.41781 11.1568 2.54178 10.8953 2.66574 10.6339L2.68126 10.6031C3.75034 8.3122 4.89704 5.97507 6.09008 3.69956L6.13665 3.60736C6.26061 3.37675 6.38458 3.13074 6.50854 2.90013C6.6325 2.65411 6.77176 2.4235 6.94229 2.22348C7.2676 1.85446 7.70158 1.65465 8.1819 1.65465C8.66222 1.65465 9.09598 1.85446 9.42152 2.22348C9.59182 2.4235 9.73131 2.65411 9.85527 2.90013C9.97923 3.13074 10.1032 3.37675 10.2272 3.60736L10.2737 3.69956C11.4512 5.99048 12.5979 8.32761 13.667 10.6185V10.6339C13.791 10.8799 13.8994 11.1568 14.0234 11.4028C14.1008 11.5872 14.1784 11.741 14.2247 11.8948C14.3487 12.2944 14.3953 12.6788 14.3334 13.0787Z" fill="#FF5A5F" />
</svg>
    