<svg width="14" height="15" viewBox="0 0 14 15" fill="none" xmlns="http://www.w3.org/2000/svg">
    <path fill-rule="evenodd" clip-rule="evenodd" d="M9.28482 8.19096C8.95389 7.90947 8.61721 7.63443 8.24132 7.32181C8.41096 7.16964 8.61092 7.02024 8.77464 6.8386C9.54177 5.98805 9.7767 4.96379 9.58117 3.87467C9.42911 3.02708 9.01956 2.28798 8.26482 1.77419C7.57094 1.30203 6.81158 1.00636 5.98396 0.980753C4.65817 0.939487 3.33017 0.97541 2.00327 0.963067C1.58613 0.959199 1.25575 1.11781 0.971059 1.39599C0.837315 1.52678 0.722809 1.67729 0.599609 1.81877V14.6118C2.05044 14.6125 3.50146 14.619 4.9523 14.6101C5.44084 14.6072 5.92532 14.6133 6.41867 14.5302C7.01173 14.4303 7.56206 14.2695 8.095 13.998C9.45908 13.3031 10.1073 12.1722 10.1509 10.6794C10.1618 10.3008 10.1322 9.90624 10.032 9.54333C9.89379 9.04317 9.70344 8.54706 9.28482 8.19096ZM3.32129 3.76248C3.57416 3.39625 3.84387 3.28406 4.18979 3.29696C4.61285 3.3128 5.03702 3.29512 5.46045 3.30359C6.0918 3.31667 6.58571 3.7658 6.76367 4.37612C6.97732 5.10822 6.73832 5.66714 6.18948 6.12659C6.05111 6.24246 5.85354 6.34673 5.68003 6.35189C4.88977 6.37584 4.09841 6.36239 3.23176 6.36239C3.26413 5.42121 3.2941 4.55113 3.32129 3.76248ZM7.05095 11.4303C6.73444 11.957 6.25589 12.1449 5.70463 12.1679C4.91234 12.2014 4.11765 12.1766 3.25969 12.1766C3.25969 11.2984 3.25118 10.4742 3.26561 9.65036C3.26931 9.44808 3.33368 9.24268 3.39769 9.04777C3.43931 8.92103 3.5072 8.78894 3.66517 8.75284C3.89974 8.69941 4.13337 8.6038 4.36886 8.59938C4.89144 8.5898 5.41162 8.57856 5.93734 8.68081C6.71964 8.83297 7.27885 9.4269 7.28699 10.2272C7.29143 10.6437 7.28477 11.041 7.05095 11.4303ZM12.0205 11.3591C11.5542 11.3245 11.0473 11.5139 10.7193 11.9063C10.4402 12.2405 10.2637 12.6404 10.2689 13.0965C10.2789 13.9896 11.0412 14.7203 11.9674 14.7203C12.9305 14.7201 13.6556 14.0108 13.6713 13.0835C13.6893 12.0236 12.872 11.4223 12.0205 11.3591Z" fill="#666666" />
</svg>
    