<svg width="14" height="15" viewBox="0 0 14 15" fill="none" xmlns="http://www.w3.org/2000/svg">
    <path fill-rule="evenodd" clip-rule="evenodd" d="M9.28522 8.1907C8.95428 7.90922 8.61761 7.63417 8.24172 7.32155C8.41135 7.16939 8.61132 7.01998 8.77503 6.83834C9.54216 5.98779 9.77709 4.96353 9.58157 3.87442C9.42951 3.02682 9.01995 2.28772 8.26521 1.77393C7.57134 1.30177 6.81198 1.0061 5.98435 0.980493C4.65857 0.939228 3.33056 0.975151 2.00367 0.962808C1.58653 0.958939 1.25615 1.11755 0.971455 1.39573C0.837711 1.52652 0.723206 1.67703 0.600006 1.81851V14.6115C2.05084 14.6123 3.50186 14.6187 4.95269 14.6099C5.44124 14.6069 5.92571 14.613 6.41907 14.5299C7.01213 14.4301 7.56246 14.2692 8.0954 13.9977C9.45948 13.3028 10.1077 12.1719 10.1513 10.6792C10.1622 10.3006 10.1326 9.90598 10.0324 9.54307C9.89419 9.04291 9.70384 8.5468 9.28522 8.1907ZM3.32169 3.76222C3.57456 3.39599 3.84427 3.2838 4.19019 3.2967C4.61325 3.31254 5.03742 3.29486 5.46085 3.30333C6.0922 3.31641 6.58611 3.76554 6.76406 4.37586C6.97772 5.10796 6.73872 5.66688 6.18987 6.12633C6.0515 6.2422 5.85394 6.34647 5.68042 6.35163C4.89017 6.37558 4.09881 6.36213 3.23215 6.36213C3.26452 5.42095 3.29449 4.55087 3.32169 3.76222ZM7.05135 11.43C6.73484 11.9567 6.25628 12.1446 5.70503 12.1677C4.91274 12.2012 4.11804 12.1763 3.26009 12.1763C3.26009 11.2981 3.25158 10.4739 3.266 9.6501C3.2697 9.44783 3.33408 9.24242 3.39808 9.04751C3.43971 8.92077 3.50759 8.78868 3.66557 8.75258C3.90013 8.69915 4.13377 8.60354 4.36925 8.59912C4.89183 8.58954 5.41201 8.5783 5.93774 8.68055C6.72004 8.83271 7.27925 9.42664 7.28739 10.2269C7.29183 10.6434 7.28517 11.0408 7.05135 11.43ZM12.0209 11.3589C11.5546 11.3243 11.0477 11.5136 10.7197 11.906C10.4406 12.2402 10.2641 12.6401 10.2693 13.0963C10.2793 13.9894 11.0416 14.72 11.9678 14.72C12.9309 14.7198 13.656 14.0106 13.6717 13.0832C13.6897 12.0234 12.8724 11.4221 12.0209 11.3589Z" fill="#1437A5" />
</svg>
    