<svg width="16" height="16" viewBox="0 0 16 16" fill="none" xmlns="http://www.w3.org/2000/svg">
    <path d="M9.03728 5.2335L9.35608 6.1421L6.73107 6.89475L0.0905359 9.20017C-0.0993873 7.93897 0.00235727 6.60997 0.463599 5.32165C1.94229 1.15834 6.52079 -1.01825 10.6788 0.466712C12.7815 1.21258 14.3823 2.75857 15.2505 4.6368C14.9724 4.6368 14.5993 4.65714 14.2737 4.73851L11.4995 5.53185L6.78533 1.45668L6.29696 1.57874L9.03728 5.2335Z" fill="#333333"/>
    <path d="M14.5925 5.83698C14.9452 5.72171 15.3047 5.51151 15.5489 5.35556C16.1322 7.02359 16.1729 8.89505 15.5353 10.6784C14.0498 14.8417 9.47811 17.0182 5.31336 15.5333C2.57982 14.5637 0.707724 12.2515 0.158303 9.60701L7.0498 8L9.65446 7.25413L9.87152 8.19664L9.47811 12.7397L9.9597 12.5837L11.8115 6.63032L14.5925 5.83698Z" fill="#333333"/>
    </svg>
    