<svg width="16" height="16" viewBox="0 0 16 16" fill="none"
    xmlns="http://www.w3.org/2000/svg">
    <path d="M7.32373 12.9904L7.71079 12.1583L5.97119 3.55842C5.64501 1.88979 5.78418 1.02228 6.32781 0.526556V0.5H5.38842C5.10139 1.12408 5.01441 1.74816 5.34493 3.39909L7.32373 12.9904Z" fill="white"/>
    <path d="M6.52351 14.6502L6.91057 13.8269L4.73607 3.37695C4.35336 1.75258 4.44034 1.009 4.5969 0.5H3.76624C3.75757 1.3789 3.8688 2.25477 4.09677 3.10254L6.52351 14.6502Z" fill="white"/>
    <path d="M3.00516 0.5H2.02664V0.526556C2.42744 1.0242 2.56968 1.62335 2.86185 2.85406C2.8867 2.95873 2.91266 3.06808 2.93993 3.18221L5.54933 15.5H6.13645L3.52705 3.14237C3.30161 2.27293 3.12734 1.39057 3.00516 0.5Z" fill="white"/>
    <path d="M1.04811 0.5H0V0.526556C0.956782 0.911626 1.42647 1.65078 1.80484 3.38138L4.3838 15.4956H4.97092L2.37456 3.30614C1.92661 1.19047 1.45692 0.800974 1.04811 0.5Z" fill="white"/>
    <path d="M14.3822 0.5C13.1471 1.23473 12.4121 2.59354 10.8725 5.96179L10.9117 5.98392C12.6904 2.59354 13.7037 1.24358 16 0.539835V0.5H14.3822Z" fill="white"/>
    <path d="M10.7855 5.8954L10.8247 5.92195C10.9761 5.55919 11.1159 5.22351 11.2456 4.91218C12.3675 2.21888 12.7304 1.34782 13.2645 0.526556V0.5H12.0815V0.535409C12.2033 1.93848 11.7423 3.23089 10.7855 5.8954Z" fill="white"/>
    <path d="M8.10646 11.3262L8.49788 10.4897L7.17143 3.60268C6.80176 1.66406 7.24536 0.818678 8.74142 0.526556V0.5H7.35844C6.95833 0.7036 6.11027 1.3144 6.58431 3.59826L8.10646 11.3262Z" fill="white"/>
    <path d="M10.7465 5.86884L10.7073 5.84228C11.5771 2.33682 11.3075 0.995721 10.0028 0.526556V0.5H11.1553C11.9729 1.34538 11.6728 2.73075 10.7465 5.86884Z" fill="white"/>
</svg>
