<svg width="17" height="15" viewBox="0 0 17 15" fill="none" xmlns="http://www.w3.org/2000/svg">
    <path d="M7.96338 12.4183L8.35044 11.655L6.61084 3.76607C6.28466 2.23538 6.42383 1.43958 6.96745 0.984841V0.96048H6.02807C5.74103 1.53297 5.65405 2.10545 5.98458 3.61991L7.96338 12.4183Z" fill="#666666" />
    <path d="M7.16316 13.9409L7.55022 13.1857L5.37572 3.59961C4.99301 2.10951 5.07999 1.4274 5.23655 0.96048H4.40589C4.39722 1.76672 4.50845 2.57019 4.73641 3.34787L7.16316 13.9409Z" fill="#666666" />
    <path d="M3.64481 0.96048H2.66629V0.984841C3.06709 1.44135 3.20933 1.99096 3.5015 3.11994C3.52635 3.21595 3.55231 3.31627 3.57958 3.42096L6.18898 14.7205H6.7761L4.16669 3.38442C3.94126 2.58685 3.76699 1.77743 3.64481 0.96048Z" fill="#666666" />
    <path d="M1.68776 0.96048H0.639648V0.984841C1.59643 1.33808 2.06612 2.01613 2.44449 3.60367L5.02345 14.7164H5.61056L3.01421 3.53464C2.56626 1.59387 2.09657 1.23657 1.68776 0.96048Z" fill="#666666" />
    <path d="M15.0218 0.96048C13.7867 1.63447 13.0517 2.88095 11.5122 5.97076L11.5513 5.99106C13.3301 2.88095 14.3434 1.64259 16.6396 0.997022V0.96048H15.0218Z" fill="#666666" />
    <path d="M11.4252 5.90986L11.4643 5.93422C11.6157 5.60144 11.7556 5.29351 11.8853 5.00792C13.0072 2.53726 13.37 1.73822 13.9041 0.984841V0.96048H12.7212V0.992961C12.843 2.28004 12.382 3.46562 11.4252 5.90986Z" fill="#666666" />
    <path d="M8.74611 10.8917L9.13752 10.1243L7.81108 3.80668C7.44141 2.02831 7.88501 1.25281 9.38107 0.984841V0.96048H7.99808C7.59797 1.14725 6.74992 1.70756 7.22396 3.80262L8.74611 10.8917Z" fill="#666666" />
    <path d="M11.3861 5.8855L11.347 5.86114C12.2168 2.64546 11.9471 1.41522 10.6424 0.984841V0.96048H11.7949C12.6125 1.73598 12.3124 3.00682 11.3861 5.8855Z" fill="#666666" />
</svg>
    