<svg width="24" height="24" viewBox="0 0 24 24" fill="none" xmlns="http://www.w3.org/2000/svg">
<path fill-rule="evenodd" clip-rule="evenodd" d="M12.0218 13.6721V12.9495H10.5041V12.2268H9.78146V12.9495H8.21325V15.1175H11.2774V15.8402H8.21325V16.5629H9.74533V17.2855H10.5041V16.5629H12.0218V14.3948H8.96484V13.6721H12.0218ZM13.2142 5.78772L11.6748 5L10.1428 5.78049L8.60346 5L7.07138 5.78049L5.53208 5L4 5.78049V19.4536L5.53208 18.7815L7.07138 19.4536L8.60346 18.7815L10.1428 19.4536L11.6748 18.7815L13.2069 19.4536L14.739 18.7815L16.2855 19.4536V15.6306H15.5195V18.3551L15.0642 18.16L14.7462 18.0082L14.4283 18.1455L13.2142 18.6731L12.0001 18.1455L11.6748 18.0082L11.3569 18.1455L10.1428 18.6731L8.92867 18.1455L8.60346 18.0082L8.28548 18.1455L7.07138 18.6731L5.85728 18.1455L5.53208 18.0082L5.2141 18.1455L4.75881 18.3406V6.2141L5.53208 5.82385L6.71004 6.44536L7.07138 6.62603L7.43272 6.44536L8.61069 5.85276L9.78143 6.44536L10.1428 6.62603L10.5041 6.44536L11.6821 5.85276L12.8528 6.44536L13.2142 6.62603L13.5755 6.44536L13.2142 5.78772ZM10.2006 9.33607H6.16804V10.0949H10.2006V9.33607ZM9.9622 7.89071H7.4256V8.61339H9.95497L9.9622 7.89071ZM16.2854 9.2638V5.5131H15.5628V9.2638H11.7759V9.98648H15.5266V13.7372H16.2493V9.9937H20V9.27103L16.2854 9.2638Z" fill="#333333"/>
</svg>
