<svg width="16" height="16" viewBox="0 0 16 16" fill="none" xmlns="http://www.w3.org/2000/svg">
<path fill-rule="evenodd" clip-rule="evenodd" d="M12.2515 3.77453V-5.72205e-06H11.5278V3.77453H7.76484V4.5018H11.5206V8.27633H12.2442V4.5018H16V3.77453H12.2515ZM11.5278 14.8727L11.0719 14.6763L10.7607 14.5454L10.4423 14.6836L9.22656 15.2145L8.01082 14.6836L7.68518 14.5454L7.36677 14.6836L6.15104 15.2145L4.93531 14.6836L4.60966 14.5454L4.29125 14.6836L3.07552 15.2145L1.85978 14.6836L1.53414 14.5454L1.21573 14.6836L0.759834 14.8799V2.64726L1.53414 2.25453L2.71369 2.85089L3.07552 3.03271L3.43735 2.85089L4.60966 2.25453L5.78921 2.85089L6.15104 3.03271L6.51287 2.85089L7.69242 2.25453L7.77202 2.29817V1.45453H7.68518L6.15104 2.1818L4.60966 1.45453L3.07552 2.1818L1.53414 1.45453L0 2.1818V15.9999L1.53414 15.3236L3.07552 15.9999L4.60966 15.3236L6.15104 15.9999L7.68518 15.3236L9.21932 15.9999L10.7535 15.3236L12.3021 15.9999V10.909H11.535L11.5278 14.8727ZM8.82136 7.05452V6.32725H6.51291V5.59998H5.78926V6.32725H3.30713V9.45451H8.076V10.909H3.30713V11.6363H5.75307V12.3636H6.51291V11.6363H8.83583V8.72724H4.05973V7.05452H8.82136Z" fill="white"/>
</svg>
