<svg width="24" height="24" viewBox="0 0 24 24" fill="none"
    xmlns="http://www.w3.org/2000/svg">
    <path fill-rule="evenodd" clip-rule="evenodd" d="M8.60898 8.04968H14.9825C15.2025 8.04968 15.3808 7.87133 15.3808 7.65133C15.4225 6.91562 15.0212 6.22601 14.3611 5.89862C14.1739 5.79165 13.9728 5.71121 13.7636 5.65961C13.6015 4.70138 12.7716 4 11.7997 4C10.8279 4 9.99793 4.70138 9.83588 5.65961C9.6259 5.69801 9.42217 5.76502 9.2304 5.85878C8.54842 6.18638 8.13496 6.89653 8.18674 7.65133C8.18654 7.76126 8.23177 7.86637 8.31173 7.9418C8.39168 8.01724 8.49926 8.05627 8.60898 8.04968ZM9.56489 6.62361C9.76336 6.52404 9.98046 6.46705 10.2022 6.4563C10.4129 6.44364 10.5771 6.26895 10.5767 6.05796C10.5767 5.39796 11.1117 4.86292 11.7717 4.86292C12.4317 4.86292 12.9668 5.39796 12.9668 6.05796C12.9668 6.27796 13.1451 6.4563 13.3651 6.4563C13.5869 6.46705 13.804 6.52404 14.0024 6.62361C14.2749 6.73699 14.4804 6.9689 14.5601 7.25299H9.05501C9.12431 6.9785 9.31076 6.74835 9.56489 6.62361ZM11.7958 5.65961C11.6907 5.66111 11.5905 5.70406 11.5169 5.77912C11.4322 5.84794 11.3802 5.94905 11.3735 6.05796C11.3759 6.16285 11.4187 6.26277 11.493 6.3368C11.5717 6.41881 11.6823 6.46244 11.7958 6.4563C11.9551 6.45406 12.0978 6.35704 12.1585 6.20967C12.2192 6.06229 12.1862 5.89292 12.0746 5.77912C12.0016 5.70332 11.901 5.66023 11.7958 5.65961ZM18.5437 20H5V6.67936H7.2387V7.47605H5.79669V19.2033H17.7948V7.47605H16.1536V6.67936H18.5437V20ZM8.18661 17.5437C8.21211 17.5437 8.2384 17.5413 8.26469 17.5357L10.2564 17.1374C10.3321 17.1215 10.4038 17.084 10.4596 17.0283L15.6388 11.849C15.7934 11.6944 15.7934 11.4419 15.6388 11.2865L14.0447 9.69314C13.8893 9.53778 13.6368 9.53778 13.4814 9.69314L8.30293 14.8716C8.24716 14.9274 8.20812 14.9983 8.19378 15.0756L7.79544 17.0673C7.76915 17.1979 7.80978 17.3334 7.90459 17.4266C7.98027 17.5023 8.08225 17.5437 8.18661 17.5437ZM8.95251 15.3504L13.7637 10.5392L14.7938 11.5693L9.98263 16.3805L8.69597 16.6379L8.95251 15.3504Z" fill="#333333"/>
</svg>
