<svg width="14" height="16" viewBox="0 0 14 16" fill="none"
    xmlns="http://www.w3.org/2000/svg">
    <path fill-rule="evenodd" clip-rule="evenodd" d="M9.98259 4.04968H3.60909C3.49936 4.05627 3.39179 4.01723 3.31183 3.9418C3.23188 3.86637 3.18664 3.76125 3.18684 3.65133C3.13507 2.89653 3.54853 2.18638 4.2305 1.85878C4.42228 1.76502 4.626 1.698 4.83599 1.65961C4.99804 0.701377 5.82798 0 6.79982 0C7.77166 0 8.60161 0.701377 8.76366 1.65961C8.97294 1.71121 9.17404 1.79165 9.36117 1.89862C10.0213 2.22601 10.4226 2.91562 10.3809 3.65133C10.3809 3.87133 10.2026 4.04968 9.98259 4.04968ZM5.20245 2.4563C4.98066 2.46705 4.76357 2.52404 4.56509 2.62361C4.31096 2.74835 4.12451 2.9785 4.05521 3.25299H9.56033C9.48056 2.9689 9.27507 2.73699 9.00265 2.62361C8.80418 2.52404 8.58708 2.46705 8.3653 2.4563C8.1453 2.4563 7.96695 2.27796 7.96695 2.05796C7.96695 1.39796 7.43192 0.862924 6.77192 0.862924C6.11192 0.862924 5.57689 1.39796 5.57689 2.05796C5.57727 2.26895 5.41306 2.44364 5.20245 2.4563ZM6.51714 1.77912C6.59069 1.70406 6.69091 1.66111 6.79598 1.65961C6.90124 1.66023 7.00179 1.70332 7.07482 1.77912C7.18641 1.89292 7.21941 2.06229 7.15873 2.20967C7.09804 2.35704 6.95535 2.45406 6.79598 2.4563C6.68248 2.46244 6.57194 2.41881 6.49324 2.3368C6.4189 2.26277 6.37608 2.16285 6.37374 2.05796C6.38047 1.94905 6.43247 1.84794 6.51714 1.77912ZM0.00012207 16H13.5438V2.67937H11.1538V3.47605H12.7949V15.2033H0.79681V3.47605H2.23882V2.67937H0.00012207V16ZM7.16219 5.57681V8.7797H10.357V9.54412H7.15454V12.747H6.38931V9.54412H3.18683V8.7797H6.39696V5.57681H7.16219Z" fill="#666666"/>
</svg>
