<svg width="14" height="16" viewBox="0 0 14 16" fill="none" xmlns="http://www.w3.org/2000/svg">
    <path fill-rule="evenodd" clip-rule="evenodd" d="M3.60923 4.04967H9.98273C10.2027 4.04967 10.3811 3.87133 10.3811 3.65133C10.4227 2.91562 10.0215 2.22601 9.36132 1.89862C9.17418 1.79165 8.97308 1.71121 8.7638 1.65961C8.60175 0.701377 7.7718 0 6.79997 0C5.82813 0 4.99818 0.701377 4.83613 1.65961C4.62614 1.698 4.42242 1.76502 4.23065 1.85878C3.54867 2.18638 3.13521 2.89653 3.18699 3.65133C3.18679 3.76125 3.23202 3.86637 3.31198 3.9418C3.39193 4.01723 3.49951 4.05627 3.60923 4.04967ZM4.56512 2.62358C4.7636 2.52401 4.98069 2.46703 5.20247 2.45628C5.41309 2.44362 5.5773 2.26893 5.57692 2.05793C5.57692 1.39794 6.11195 0.862901 6.77195 0.862901C7.43195 0.862901 7.96698 1.39794 7.96698 2.05793C7.96698 2.27793 8.14533 2.45628 8.36533 2.45628C8.58711 2.46703 8.8042 2.52401 9.00268 2.62358C9.2751 2.73697 9.48059 2.96888 9.56036 3.25297H4.05524C4.12454 2.97848 4.31099 2.74833 4.56512 2.62358ZM6.79606 1.65963C6.69099 1.66112 6.59077 1.70408 6.51722 1.77913C6.43255 1.84795 6.38055 1.94907 6.37382 2.05797C6.37616 2.16286 6.41898 2.26278 6.49332 2.33681C6.57203 2.41882 6.68256 2.46245 6.79606 2.45632C6.95543 2.45408 7.09812 2.35706 7.15881 2.20968C7.21949 2.0623 7.18649 1.89294 7.0749 1.77913C7.00187 1.70333 6.90132 1.66024 6.79606 1.65963ZM13.5438 16H0.00012207V2.67937H2.23882V3.47606H0.79681V15.2033H12.7949V3.47606H11.1538V2.67937H13.5438V16ZM5.57694 7.56854C5.57694 6.90968 6.11311 6.37351 6.77198 6.37351C7.43084 6.37351 7.96701 6.90968 7.96701 7.56854C7.96701 8.2274 7.43084 8.76357 6.77198 8.76357C6.11311 8.76357 5.57694 8.2274 5.57694 7.56854ZM8.76373 7.56854C8.76373 6.47071 7.86984 5.57682 6.77201 5.57682C5.67417 5.57682 4.78029 6.47071 4.78029 7.56854C4.78029 8.66638 5.67417 9.56026 6.77201 9.56026C7.86984 9.56026 8.76373 8.66638 8.76373 7.56854ZM4.21586 12.5152C4.21984 12.5016 4.69387 11.1536 6.77243 11.1536L6.77402 11.1528C8.81275 11.1528 9.3059 12.4459 9.33139 12.5168C9.35529 12.5901 9.3545 12.6546 9.329 12.6896C9.30351 12.7247 9.24137 12.7462 9.16329 12.7462H4.38316C4.30509 12.7462 4.24294 12.7247 4.21745 12.6896C4.19196 12.6546 4.19116 12.5893 4.21586 12.5152ZM3.45904 12.2634C3.35228 12.5853 3.39211 12.9103 3.56977 13.1565C3.74744 13.4027 4.04301 13.5437 4.3816 13.5437H9.16173C9.50032 13.5437 9.79589 13.4027 9.97276 13.1565C10.1512 12.9103 10.1911 12.5853 10.0843 12.2634C10.0668 12.2124 9.90185 11.7472 9.40791 11.2827C8.95857 10.8605 8.13639 10.3577 6.77166 10.3577C5.40694 10.3577 4.58476 10.8605 4.13542 11.2827C3.64148 11.7472 3.47656 12.2124 3.45904 12.2634Z" fill="black" />
</svg>
    