<svg width="13" height="10" viewBox="0 0 13 10" fill="none"
    xmlns="http://www.w3.org/2000/svg">
    <path d="M0.129054 4.72577L5.42025 0.112697C5.50629 0.0375657 5.60953 0 5.72998 0C5.85043 0 5.95367 0.0375657 6.03971 0.112697C6.12574 0.187829 6.16876 0.277986 6.16876 0.383171C6.16876 0.488355 6.12574 0.578512 6.03971 0.653644L1.50563 4.61307H12.5526C12.6788 4.61307 12.7849 4.65064 12.8709 4.72577C12.957 4.8009 13 4.89356 13 5.00376C13 5.10894 12.957 5.1991 12.8709 5.27423C12.7849 5.34936 12.6788 5.38693 12.5526 5.38693H1.50563L6.03971 9.34636C6.12574 9.42149 6.16876 9.51165 6.16876 9.61683C6.16876 9.72201 6.12574 9.81217 6.03971 9.8873C5.99956 9.92737 5.95081 9.95743 5.89345 9.97746C5.84183 9.99249 5.78734 10 5.72998 10C5.67262 10 5.61527 9.99249 5.55791 9.97746C5.50629 9.95743 5.4604 9.92737 5.42025 9.8873L0.129054 5.27423C0.0430179 5.1991 0 5.10894 0 5.00376C0 4.89356 0.0430179 4.8009 0.129054 4.72577Z" fill="#333333"/>
</svg>
