<svg width="13" height="10" viewBox="0 0 13 10" fill="none"
    xmlns="http://www.w3.org/2000/svg">
    <path d="M12.8709 4.72577L7.57975 0.112697C7.49371 0.0375657 7.39047 0 7.27002 0C7.14957 0 7.04633 0.0375657 6.96029 0.112697C6.87426 0.187829 6.83124 0.277986 6.83124 0.383171C6.83124 0.488355 6.87426 0.578512 6.96029 0.653644L11.4944 4.61307H0.447386C0.3212 4.61307 0.215089 4.65064 0.129054 4.72577C0.0430179 4.8009 0 4.89356 0 5.00376C0 5.10894 0.0430179 5.1991 0.129054 5.27423C0.215089 5.34936 0.3212 5.38693 0.447386 5.38693H11.4944L6.96029 9.34636C6.87426 9.42149 6.83124 9.51165 6.83124 9.61683C6.83124 9.72201 6.87426 9.81217 6.96029 9.8873C7.00044 9.92737 7.04633 9.95743 7.09795 9.97746C7.15531 9.99249 7.21266 10 7.27002 10C7.32738 10 7.38187 9.99249 7.43349 9.97746C7.49084 9.95743 7.5396 9.92737 7.57975 9.8873L12.8709 5.27423C12.957 5.1991 13 5.10894 13 5.00376C13 4.89356 12.957 4.8009 12.8709 4.72577Z" fill="#333333"/>
</svg>
