<?xml version="1.0" encoding="utf-8"?>
<!-- Generator: Adobe Illustrator 23.0.3, SVG Export Plug-In . SVG Version: 6.00 Build 0)  -->
<svg version="1.1" baseProfile="tiny" id="Layer_1" xmlns="http://www.w3.org/2000/svg" xmlns:xlink="http://www.w3.org/1999/xlink"
	 x="0px" y="0px" viewBox="0 0 20 19" xml:space="preserve">
<path fill="#333333" d="M16.4,3c-1.7-1.7-4-2.6-6.4-2.6S5.4,1.3,3.7,3S1.1,7,1.1,9.4S2,14,3.7,15.7s4,2.6,6.4,2.6
	c1.4,0,2.8-0.3,4-0.9c1.2-0.6,2.3-1.5,3.1-2.5c0.2-0.2,0.1-0.5-0.1-0.6s-0.5-0.1-0.6,0.1c-1.5,2-3.9,3.1-6.4,3.1
	C5.6,17.5,2,13.8,2,9.4s3.6-8.1,8.1-8.1s8.1,3.6,8.1,8.1c0,1.6-0.9,2.7-2.3,2.7c-1.2,0-2.3-1-2.3-2.3V6.2c0-0.2-0.2-0.5-0.5-0.5
	c-0.2,0-0.4,0.2-0.4,0.5V7c-0.7-0.7-1.6-1.2-2.7-1.2c-2,0-3.6,1.6-3.6,3.6S8.1,13,10.1,13c1.3,0,2.4-0.7,3.1-1.7
	c0.5,1,1.6,1.7,2.8,1.7c0.9,0,1.7-0.4,2.2-1c0.6-0.7,0.9-1.6,0.9-2.6C19.1,7,18.1,4.7,16.4,3L16.4,3z M10.1,12.1
	c-1.5,0-2.7-1.2-2.7-2.7s1.2-2.7,2.7-2.7s2.7,1.2,2.7,2.7S11.5,12.1,10.1,12.1z"/>
</svg>
