<svg xmlns="http://www.w3.org/2000/svg" xmlns:xlink="http://www.w3.org/1999/xlink" viewBox="0 0 20 20" class="_Icon_6l72i_1 ulBWKIkVgrROnszsWOGq" data-icon-name="Report">
    <path d="M6.53 5.083h8a.5.5 0 0 0 .5-.5 2.31 2.31 0 0 0-1.28-2.2 2.92 2.92 0 0 0-.75-.3 2.5 2.5 0 0 0-4.93 0 2.93 2.93 0 0 0-.76.25A2.32 2.32 0 0 0 6 4.583a.5.5 0 0 0 .53.5zm1.2-1.79a2 2 0 0 1 .8-.21.5.5 0 0 0 .47-.5 1.5 1.5 0 0 1 3 0 .5.5 0 0 0 .5.5 2 2 0 0 1 .8.21c.342.142.6.434.7.79H7.09a1.21 1.21 0 0 1 .64-.79zm2.8-1.21a.5.5 0 0 0-.35.15.49.49 0 0 0-.18.35.51.51 0 0 0 .15.35.49.49 0 0 0 .38.15.5.5 0 0 0 0-1zm8.47 18H2V3.363h2.81v1H3v14.72h15.06V4.363H16v-1h3v16.72zm-13-4v-1h6v1H6zm0-3v-1h6v1H6zm0-3v-1h8v1H6z"></path>
</svg>