<svg viewBox="0 0 24 24" fill="none" xmlns="http://www.w3.org/2000/svg" class="_Icon_6l72i_1 accordion-icon" data-icon-name="Shower" data-testid="rental.amenities.amenities-picker.category-bathroomandlaundry.accordion.icon" width="24" height="24">
    <path fill-rule="evenodd" clip-rule="evenodd" d="M23.999 15C23.999 14.008 23.191 13.2 22.199 13.2H3.599V1.8C3.599 1.469 3.869 1.2 4.199 1.2H5.999C6.169 1.2 6.476 1.327 6.599 1.448L6.75 1.6C5.635 3.124 5.765 5.281 7.141 6.658C7.254 6.77 7.406 6.833 7.567 6.833C7.726 6.833 7.878 6.769 7.991 6.658L12.658 1.991C12.892 1.757 12.892 1.376 12.658 1.142C11.922 0.406 10.942 0 9.9 0C9.061 0 8.263 0.263 7.598 0.75L7.448 0.6C7.1 0.252 6.492 0 6 0H4.2C3.208 0 2.4 0.808 2.4 1.8V13.2H1.8C0.808 13.2 0 14.008 0 15C0 15.782 0.502 16.45 1.2 16.697V19.8C1.2 21.454 2.546 22.8 4.2 22.8H4.199C3.869 22.8 3.599 23.069 3.599 23.4C3.599 23.731 3.869 24 4.199 24H5.399C5.729 24 5.999 23.731 5.999 23.4C5.999 23.069 5.729 22.8 5.399 22.8H18.599C18.269 22.8 17.999 23.069 17.999 23.4C17.999 23.731 18.269 24 18.599 24H19.799C20.129 24 20.399 23.731 20.399 23.4C20.399 23.069 20.129 22.8 19.799 22.8H19.8C21.454 22.8 22.8 21.454 22.8 19.8V16.697C23.498 16.45 24 15.782 24 15H23.999ZM7.99 1.991C8.5 1.481 9.176 1.2 9.899 1.2C10.417 1.2 10.91 1.344 11.336 1.614L7.614 5.338C6.958 4.295 7.081 2.898 7.99 1.991ZM21.599 19.8C21.599 20.792 20.791 21.6 19.799 21.6H4.199C3.206 21.6 2.399 20.792 2.399 19.8V16.8H21.599V19.8ZM22.199 15.6H1.799C1.469 15.6 1.199 15.331 1.199 15C1.199 14.669 1.469 14.4 1.799 14.4H22.199C22.529 14.4 22.799 14.669 22.799 15C22.799 15.331 22.529 15.6 22.199 15.6ZM11.399 7.2C11.069 7.2 10.799 7.469 10.799 7.8C10.799 8.131 11.069 8.4 11.399 8.4C11.729 8.4 11.999 8.131 11.999 7.8C11.999 7.469 11.729 7.2 11.399 7.2ZM11.399 4.8C11.069 4.8 10.799 5.069 10.799 5.4C10.799 5.731 11.069 6 11.399 6C11.729 6 11.999 5.731 11.999 5.4C11.999 5.069 11.729 4.8 11.399 4.8ZM13.799 6C14.129 6 14.399 5.731 14.399 5.4C14.399 5.069 14.129 4.8 13.799 4.8C13.469 4.8 13.199 5.069 13.199 5.4C13.199 5.731 13.469 6 13.799 6ZM13.799 8.4C14.129 8.4 14.399 8.131 14.399 7.8C14.399 7.469 14.129 7.2 13.799 7.2C13.469 7.2 13.199 7.469 13.199 7.8C13.199 8.131 13.469 8.4 13.799 8.4ZM16.199 6C16.529 6 16.799 5.731 16.799 5.4C16.799 5.069 16.529 4.8 16.199 4.8C15.869 4.8 15.599 5.069 15.599 5.4C15.599 5.731 15.869 6 16.199 6ZM11.399 9.6C11.069 9.6 10.799 9.869 10.799 10.2C10.799 10.531 11.069 10.8 11.399 10.8C11.729 10.8 11.999 10.531 11.999 10.2C11.999 9.869 11.729 9.6 11.399 9.6ZM16.199 8.4C16.529 8.4 16.799 8.131 16.799 7.8C16.799 7.469 16.529 7.2 16.199 7.2C15.869 7.2 15.599 7.469 15.599 7.8C15.599 8.131 15.869 8.4 16.199 8.4ZM13.799 10.8C14.129 10.8 14.399 10.531 14.399 10.2C14.399 9.869 14.129 9.6 13.799 9.6C13.469 9.6 13.199 9.869 13.199 10.2C13.199 10.531 13.469 10.8 13.799 10.8Z" fill="currentColor" />
</svg>