<svg viewBox="0 0 50 50" fill="none" xmlns="http://www.w3.org/2000/svg" class="_Icon_6l72i_1 ulBWKIkVgrROnszsWOGq" data-icon-name="Shower">
    <path fill-rule="evenodd" clip-rule="evenodd" d="M49.9975 31.25C49.9975 29.1825 48.315 27.5 46.2475 27.5H7.4975V3.75C7.4975 3.06 8.06 2.5 8.7475 2.5H12.4975C12.8525 2.5 13.4925 2.765 13.7475 3.0175L14.0625 3.3325C11.74 6.5075 12.01 11.0025 14.8775 13.87C15.1125 14.105 15.43 14.235 15.765 14.235C16.095 14.235 16.4125 14.1025 16.6475 13.87L26.37 4.1475C26.8575 3.66 26.8575 2.8675 26.37 2.38C24.8375 0.845 22.795 0 20.625 0C18.8775 0 17.215 0.5475 15.83 1.5625L15.5175 1.25C14.7925 0.525 13.525 0 12.5 0H8.75C6.6825 0 5 1.6825 5 3.75V27.5H3.75C1.6825 27.5 0 29.1825 0 31.25C0 32.88 1.045 34.27 2.5 34.785V41.25C2.5 44.695 5.305 47.5 8.75 47.5H8.7475C8.06 47.5 7.4975 48.06 7.4975 48.75C7.4975 49.44 8.06 50 8.7475 50H11.2475C11.935 50 12.4975 49.44 12.4975 48.75C12.4975 48.06 11.935 47.5 11.2475 47.5H38.7475C38.06 47.5 37.4975 48.06 37.4975 48.75C37.4975 49.44 38.06 50 38.7475 50H41.2475C41.935 50 42.4975 49.44 42.4975 48.75C42.4975 48.06 41.935 47.5 41.2475 47.5H41.25C44.695 47.5 47.5 44.695 47.5 41.25V34.785C48.955 34.27 50 32.88 50 31.25H49.9975ZM16.6449 4.1475C17.7074 3.085 19.1174 2.5 20.6224 2.5C21.7024 2.5 22.7299 2.8 23.6174 3.3625L15.8624 11.12C14.4949 8.9475 14.7524 6.0375 16.6449 4.1475ZM44.9975 41.25C44.9975 43.3175 43.315 45 41.2475 45H8.74754C6.68004 45 4.99754 43.3175 4.99754 41.25V35H44.9975V41.25ZM46.2475 32.5H3.74754C3.06004 32.5 2.49754 31.94 2.49754 31.25C2.49754 30.56 3.06004 30 3.74754 30H46.2475C46.935 30 47.4975 30.56 47.4975 31.25C47.4975 31.94 46.935 32.5 46.2475 32.5ZM23.7475 15C23.06 15 22.4975 15.56 22.4975 16.25C22.4975 16.94 23.06 17.5 23.7475 17.5C24.435 17.5 24.9975 16.94 24.9975 16.25C24.9975 15.56 24.435 15 23.7475 15ZM23.7475 10C23.06 10 22.4975 10.56 22.4975 11.25C22.4975 11.94 23.06 12.5 23.7475 12.5C24.435 12.5 24.9975 11.94 24.9975 11.25C24.9975 10.56 24.435 10 23.7475 10ZM28.7475 12.5C29.435 12.5 29.9975 11.94 29.9975 11.25C29.9975 10.56 29.435 10 28.7475 10C28.06 10 27.4975 10.56 27.4975 11.25C27.4975 11.94 28.06 12.5 28.7475 12.5ZM28.7475 17.5C29.435 17.5 29.9975 16.94 29.9975 16.25C29.9975 15.56 29.435 15 28.7475 15C28.06 15 27.4975 15.56 27.4975 16.25C27.4975 16.94 28.06 17.5 28.7475 17.5ZM33.7475 12.5C34.435 12.5 34.9975 11.94 34.9975 11.25C34.9975 10.56 34.435 10 33.7475 10C33.06 10 32.4975 10.56 32.4975 11.25C32.4975 11.94 33.06 12.5 33.7475 12.5ZM23.7475 20C23.06 20 22.4975 20.56 22.4975 21.25C22.4975 21.94 23.06 22.5 23.7475 22.5C24.435 22.5 24.9975 21.94 24.9975 21.25C24.9975 20.56 24.435 20 23.7475 20ZM33.7475 17.5C34.435 17.5 34.9975 16.94 34.9975 16.25C34.9975 15.56 34.435 15 33.7475 15C33.06 15 32.4975 15.56 32.4975 16.25C32.4975 16.94 33.06 17.5 33.7475 17.5ZM28.7475 22.5C29.435 22.5 29.9975 21.94 29.9975 21.25C29.9975 20.56 29.435 20 28.7475 20C28.06 20 27.4975 20.56 27.4975 21.25C27.4975 21.94 28.06 22.5 28.7475 22.5Z" fill="currentColor"></path>
</svg>