<svg viewBox="0 0 50 50" fill="none" xmlns="http://www.w3.org/2000/svg" class="_Icon_6l72i_1 ulBWKIkVgrROnszsWOGq" data-icon-name="BedDouble">
    <path fill-rule="evenodd" clip-rule="evenodd" d="M49.145 28.485L43.225 10.7275C42.7275 9.2375 41.305 8.0125 39.755 7.6275C39.7 7.39 39.64 7.1625 39.57 6.9525C39.0025 5.2525 38.03 5 37.5 5H27.5C27.1825 5 26.705 5.0925 26.25 5.5325C25.795 5.0925 25.3175 5 25 5H15C14.47 5 13.4975 5.255 12.93 6.9525C12.86 7.1625 12.7975 7.3875 12.745 7.6275C11.1925 8.0125 9.77 9.235 9.275 10.7275L3.355 28.485C2.875 29.9225 2.5 32.2375 2.5 33.7525V38.7525C2.5 40.82 4.1825 42.5025 6.25 42.5025H46.25C48.3175 42.5025 50 40.82 50 38.7525V33.7525C50 32.2375 49.625 29.9225 49.145 28.485ZM37.1075 7.50251H27.8925C27.7175 7.89501 27.5 8.78751 27.5 10.0025C27.5 11.2175 27.7175 12.11 27.8925 12.5025H37.1075C37.2825 12.11 37.5 11.2175 37.5 10.0025C37.5 8.78751 37.2825 7.89501 37.1075 7.50251ZM15.3925 7.50251H24.6075C24.7825 7.89501 25 8.78751 25 10.0025C25 11.2175 24.7825 12.11 24.6075 12.5025H15.3925C15.2175 12.11 15 11.2175 15 10.0025C15 8.78751 15.2175 7.89501 15.3925 7.50251ZM12.5073 10.4475C12.1073 10.7275 11.7798 11.115 11.6448 11.52H11.6473L9.65226 17.5025H42.8498L40.8548 11.52C40.7198 11.115 40.3923 10.73 39.9923 10.4475C39.9573 11.415 39.8098 12.3275 39.5698 13.05C39.0023 14.7475 38.0298 15.0025 37.4998 15.0025H27.4998C27.1823 15.0025 26.7048 14.91 26.2498 14.47C25.7948 14.91 25.3173 15.0025 24.9998 15.0025H14.9998C14.4698 15.0025 13.4973 14.75 12.9298 13.05C12.6873 12.3275 12.5423 11.4175 12.5073 10.4475ZM8.82029 20.0025H43.6828L46.7728 29.275C46.8528 29.5125 46.9278 29.785 47.0003 30.0775C46.7578 30.0275 46.5078 30.0025 46.2503 30.0025H6.25029C5.99279 30.0025 5.74279 30.0275 5.50029 30.0775C5.57279 29.785 5.64779 29.5125 5.72779 29.275L8.82029 20.0025ZM46.25 40.0025C46.94 40.0025 47.5 39.4425 47.5 38.7525V33.7525C47.5 33.0625 46.94 32.5025 46.25 32.5025H6.25C5.56 32.5025 5 33.0625 5 33.7525V38.7525C5 39.4425 5.56 40.0025 6.25 40.0025H46.25Z" fill="currentColor"></path>
    <path d="M8.75 45.0025C9.44 45.0025 10 44.4425 10 43.7525C10 43.0625 9.44 42.5025 8.75 42.5025L6.25 42.5025C5.56 42.5025 5 43.0625 5 43.7525C5 44.4425 5.56 45.0025 6.25 45.0025H8.75Z" fill="currentColor"></path>
    <path d="M46.25 45.0025C46.94 45.0025 47.5 44.4425 47.5 43.7525C47.5 43.0625 46.94 42.5025 46.25 42.5025L43.75 42.5025C43.06 42.5025 42.5 43.0625 42.5 43.7525C42.5 44.4425 43.06 45.0025 43.75 45.0025H46.25Z" fill="currentColor"></path>
</svg>