<svg width="24" height="24" viewBox="0 0 24 24" fill="none" xmlns="http://www.w3.org/2000/svg">
<path fill-rule="evenodd" clip-rule="evenodd" d="M14.2403 11.6421H9.71989V9.92967H14.2403C14.4386 9.92967 14.6002 9.76929 14.6002 9.57205C14.6002 9.37431 14.4386 9.21393 14.2403 9.21393H12.1601V8.35772C12.1601 8.16048 11.9984 8.0001 11.8002 8.0001C11.602 8.0001 11.4403 8.16048 11.4403 8.35772V9.21393H9.35999C9.16178 9.21393 9.0001 9.37431 9.0001 9.57205V12.0002C9.0001 12.1974 9.16178 12.3578 9.35999 12.3578H13.8805V14.0702H9.35999C9.16178 14.0702 9.0001 14.2306 9.0001 14.4284C9.0001 14.6256 9.16178 14.786 9.35999 14.786H11.4403V15.6422C11.4403 15.8399 11.602 16.0003 11.8002 16.0003C11.9984 16.0003 12.1601 15.8399 12.1601 15.6422V14.786H14.2403C14.4386 14.786 14.6002 14.6256 14.6002 14.4284V12.0002C14.6002 11.8025 14.4386 11.6421 14.2403 11.6421ZM17.7963 18.9528L16.7755 18.4424C16.6627 18.3864 16.5307 18.3864 16.4171 18.4424L14.9971 19.1528L13.577 18.4424C13.5186 18.4144 13.4586 18.4 13.397 18.4C13.3354 18.4 13.2738 18.4144 13.217 18.4424L11.797 19.1528L10.377 18.4424C10.2634 18.3864 10.1314 18.3864 10.0185 18.4424L8.59771 19.1528L7.17688 18.4424C7.06407 18.3864 6.93207 18.3864 6.81847 18.4424L5.79844 18.9528V5.44684L6.99847 4.84682L8.41851 5.55724C8.53211 5.61324 8.66411 5.61324 8.77692 5.55724L10.1978 4.84682L11.6186 5.55724C11.7314 5.61324 11.8634 5.61324 11.977 5.55724L13.397 4.84682L14.8171 5.55724C14.9307 5.61324 15.0627 5.61324 15.1755 5.55724L16.5963 4.84682L17.7963 5.44684V18.9528ZM18.3771 4.84202L16.7771 4.042C16.6635 3.986 16.5315 3.986 16.4187 4.042L14.9979 4.75242L13.577 4.042C13.4642 3.986 13.3322 3.986 13.2186 4.042L11.7986 4.75242L10.3785 4.042C10.2649 3.986 10.1329 3.986 10.0201 4.042L8.59929 4.75242L7.17845 4.042C7.06565 3.986 6.93365 3.986 6.82005 4.042L5.22001 4.84202C5.0856 4.90922 5 5.04843 5 5.19963V19.6C5 19.7384 5.072 19.8672 5.1896 19.94C5.30801 20.0128 5.45441 20.0192 5.57841 19.9576L6.99925 19.2472L8.42009 19.9576C8.53289 20.0136 8.66489 20.0136 8.77849 19.9576L10.1985 19.2472L11.6186 19.9576C11.7322 20.0136 11.8642 20.0136 11.977 19.9576L13.3978 19.2472L14.8186 19.9576C14.9314 20.0136 15.0635 20.0136 15.1771 19.9576L16.5971 19.2472L18.0171 19.9576C18.0755 19.9864 18.1363 20 18.1971 20C18.2707 20 18.3443 19.98 18.4083 19.94C18.5251 19.8672 18.5971 19.7384 18.5971 19.6V5.19963C18.5971 5.04843 18.5115 4.91002 18.3771 4.84202Z" fill="#333333"/>
</svg>
