<svg width="14" height="16" viewBox="0 0 14 16" fill="none" xmlns="http://www.w3.org/2000/svg">
    <path fill-rule="evenodd" clip-rule="evenodd" d="M9.48172 7.48319C9.63772 7.32799 9.63772 7.07359 9.48172 6.91839C9.32652 6.76239 9.07212 6.76239 8.91612 6.91839L5.59932 10.2344L4.68252 9.31839C4.52732 9.16239 4.27292 9.16239 4.11772 9.31839C3.96172 9.4736 3.96172 9.72799 4.11772 9.8832L5.31772 11.0832C5.39532 11.1608 5.49772 11.2 5.59932 11.2C5.70172 11.2 5.80412 11.1624 5.88172 11.0832L9.48172 7.48319ZM6.8 1.6C6.696 1.6 6.5928 1.6432 6.5184 1.7184C6.4424 1.792 6.4 1.896 6.4 2C6.4 2.1048 6.444 2.2072 6.5184 2.2824C6.592 2.3584 6.6952 2.4 6.8 2.4C6.9048 2.4 7.008 2.3576 7.0824 2.2824C7.1584 2.208 7.2 2.1048 7.2 2C7.2 1.896 7.1576 1.7928 7.0824 1.7184C7.0088 1.6424 6.9048 1.6 6.8 1.6ZM4.55919 2.568C4.86959 2.4056 5.19999 2.4 5.19999 2.4C5.42159 2.4 5.59999 2.2216 5.59999 2C5.59999 1.3384 6.13839 0.8 6.79999 0.8C7.46239 0.8 7.99999 1.3384 7.99999 2C7.99999 2.2216 8.17679 2.4 8.39839 2.4C8.40159 2.4 8.73119 2.4056 9.04159 2.568C9.30639 2.7064 9.47519 2.9152 9.55279 3.2H4.04799C4.12559 2.9144 4.29439 2.7064 4.55919 2.568ZM3.6 4H9.9992C10.2208 4 10.3992 3.8216 10.3992 3.6C10.3992 3.5936 10.3992 3.5864 10.3984 3.5784C10.3928 2.7856 10.0312 2.1688 9.3776 1.8424C9.1584 1.7328 8.9408 1.672 8.7664 1.6392C8.5968 0.708 7.7784 0 6.7992 0C5.8208 0 5.0024 0.708 4.832 1.6392C4.6592 1.672 4.4408 1.7328 4.2216 1.8424C3.5632 2.1712 3.2 2.7968 3.2 3.6C3.2 3.8216 3.3792 4 3.6 4ZM12.4 2.4H11.6C11.3792 2.4 11.2 2.5792 11.2 2.8C11.2 3.0216 11.3792 3.2 11.6 3.2H12.4C12.6216 3.2 12.8 3.3792 12.8 3.6V14.8C12.8 15.0216 12.6216 15.2 12.4 15.2H1.2C0.9792 15.2 0.8 15.0216 0.8 14.8V3.6C0.8 3.3792 0.9792 3.2 1.2 3.2H2C2.2216 3.2 2.4 3.0216 2.4 2.8C2.4 2.5792 2.2216 2.4 2 2.4H1.2C0.5384 2.4 0 2.9384 0 3.6V14.8C0 15.4624 0.5384 16 1.2 16H12.4C13.0624 16 13.6 15.4624 13.6 14.8V3.6C13.6 2.9384 13.0624 2.4 12.4 2.4Z" fill="#666666" />
</svg>
    