<svg width="18" height="18" viewBox="0 0 18 18" fill="none"
    xmlns="http://www.w3.org/2000/svg">
    <path d="M17.569 0.508L17.491 0.43C17.237 0.176 16.898 0.036 16.537 0.036C16.175 0.036 15.836 0.176 15.582 0.43L10.799 5.213L10.668 5.081C10.492 4.906 10.207 4.906 10.031 5.081L8.999 6.114C8.551 5.675 7.917 5.423 7.257 5.423C6.694 5.423 6.153 5.605 5.733 5.936C5.705 5.959 2.899 8.159 0.307 9.023C0.123 9.084 -0.001 9.256 -0.001 9.449C-0.001 11.733 0.888 13.88 2.503 15.494C4.118 17.109 6.265 17.998 8.548 17.998C8.742 17.998 8.914 17.874 8.975 17.69C9.839 15.098 12.038 12.293 12.061 12.264C12.808 11.318 12.727 9.859 11.884 8.998L12.916 7.966C13.091 7.79 13.091 7.505 12.916 7.33L12.784 7.198L17.567 2.416C18.094 1.889 18.094 1.033 17.567 0.507L17.569 0.508ZM7.257 6.323C7.689 6.323 8.097 6.484 8.379 6.765L8.681 7.068L11.234 9.62C11.77 10.157 11.826 11.113 11.356 11.709C11.343 11.726 11.286 11.798 11.197 11.916L6.086 6.8C6.203 6.712 6.273 6.656 6.29 6.644C6.552 6.437 6.895 6.323 7.256 6.323L7.257 6.323ZM8.233 17.094C7.563 17.066 6.914 16.952 6.298 16.762C7.168 15.079 8.852 13.386 8.869 13.369C9.044 13.193 9.044 12.908 8.869 12.732C8.693 12.557 8.408 12.557 8.232 12.732C8.157 12.808 6.374 14.602 5.45 16.444C4.724 16.121 4.057 15.688 3.471 15.166L6.169 12.469C6.344 12.293 6.344 12.008 6.169 11.832C5.993 11.657 5.708 11.657 5.532 11.832L2.835 14.53C2.313 13.943 1.88 13.277 1.557 12.551C3.399 11.628 5.193 9.844 5.269 9.769C5.444 9.593 5.444 9.308 5.269 9.132C5.093 8.957 4.808 8.957 4.632 9.132C4.615 9.149 2.925 10.831 1.239 11.703C1.049 11.087 0.935 10.438 0.907 9.768C2.622 9.138 4.33 8.049 5.35 7.337L10.663 12.656C9.951 13.676 8.863 15.383 8.234 17.096L8.233 17.094ZM11.25 8.364L9.636 6.75L10.35 6.036L11.964 7.65L11.25 8.364ZM16.933 1.781L12.15 6.564L11.436 5.85L16.219 1.067C16.303 0.983 16.416 0.937 16.538 0.937C16.659 0.937 16.772 0.984 16.856 1.067L16.934 1.145C17.109 1.32 17.109 1.606 16.934 1.781H16.933Z" fill="white"/>
</svg>