<svg width="9" height="9" viewBox="0 0 9 9" fill="none" xmlns="http://www.w3.org/2000/svg">
    <path d="M1.61709 6.10923C1.67331 6.16567 1.71639 6.23381 1.74326 6.30881C1.77013 6.3838 1.78013 6.4638 1.77255 6.5431C1.73448 6.91013 1.6623 7.2728 1.55696 7.62644C2.31259 7.45148 2.77409 7.2489 2.98371 7.14273C3.10261 7.08251 3.23954 7.06824 3.3683 7.10265C3.73741 7.20105 4.11784 7.25058 4.49984 7.24998C6.66434 7.24998 8.2915 5.72952 8.2915 3.99998C8.2915 2.27098 6.66434 0.74998 4.49984 0.74998C2.33534 0.74998 0.708171 2.27098 0.708171 3.99998C0.708171 4.79515 1.04238 5.5329 1.61709 6.10923ZM1.35005 8.22444C1.22171 8.24988 1.09295 8.27317 0.963837 8.29431C0.855504 8.31165 0.773171 8.19898 0.815962 8.09823C0.864058 7.9848 0.908141 7.86972 0.948129 7.75319L0.949754 7.74777C1.08409 7.35777 1.1935 6.90927 1.23359 6.49165C0.568962 5.8254 0.166504 4.95331 0.166504 3.99998C0.166504 1.9059 2.10675 0.208313 4.49984 0.208313C6.89292 0.208313 8.83317 1.9059 8.83317 3.99998C8.83317 6.09406 6.89292 7.79165 4.49984 7.79165C4.07065 7.79222 3.64324 7.7365 3.22855 7.6259C2.94688 7.76835 2.34075 8.02781 1.35005 8.22444Z" fill="#333333" />
</svg>
    