<svg width="24" height="24" viewBox="0 0 24 24" fill="none"
    xmlns="http://www.w3.org/2000/svg">
    <path d="M19.3333 8.26667H4.66667C4.27552 8.26667 4 7.98311 4 7.63333C4 7.28355 4.27552 7 4.66667 7H19.3333C19.7245 7 20 7.28355 20 7.63333C20 7.98311 19.7245 8.26667 19.3333 8.26667Z" fill="#333333"/>
    <path d="M16.3333 12.6333C16.7245 12.6333 17 12.3498 17 12C17 11.6502 16.7245 11.3667 16.3333 11.3667H4.66667C4.27552 11.3667 4 11.6502 4 12C4 12.3498 4.27552 12.6333 4.66667 12.6333H16.3333Z" fill="#333333"/>
    <path d="M14.3333 17C14.7245 17 15 16.7164 15 16.3667C15 16.0169 14.7245 15.7333 14.3333 15.7333H4.66667C4.27552 15.7333 4 16.0169 4 16.3667C4 16.7164 4.27552 17 4.66667 17H14.3333Z" fill="#333333"/>
</svg>
