<svg width="20" height="24" viewBox="0 0 20 24" fill="none" xmlns="http://www.w3.org/2000/svg">
    <path d="M4.59766 18.9624C4.10547 18.9624 3.68359 18.7866 3.33203 18.4351C2.98047 18.0835 2.80469 17.6577 2.80469 17.1577C2.80469 16.6655 2.98047 16.2437 3.33203 15.8921C3.68359 15.5405 4.10547 15.3647 4.59766 15.3647C5.09766 15.3647 5.52344 15.5405 5.875 15.8921C6.22656 16.2437 6.40234 16.6655 6.40234 17.1577C6.40234 17.6577 6.22656 18.0835 5.875 18.4351C5.52344 18.7866 5.09766 18.9624 4.59766 18.9624ZM4.59766 16.5601C4.43359 16.5601 4.29297 16.6187 4.17578 16.7358C4.05859 16.853 4 16.9937 4 17.1577C4 17.3218 4.05859 17.4624 4.17578 17.5796C4.29297 17.6968 4.43359 17.7554 4.59766 17.7554C4.76172 17.7554 4.90234 17.6968 5.01953 17.5796C5.13672 17.4624 5.19531 17.3218 5.19531 17.1577C5.19531 16.9937 5.13672 16.853 5.01953 16.7358C4.90234 16.6187 4.76172 16.5601 4.59766 16.5601ZM15.4023 18.9624C14.9023 18.9624 14.4766 18.7866 14.125 18.4351C13.7734 18.0835 13.5977 17.6577 13.5977 17.1577C13.5977 16.6655 13.7734 16.2437 14.125 15.8921C14.4766 15.5405 14.9023 15.3647 15.4023 15.3647C15.8945 15.3647 16.3164 15.5405 16.668 15.8921C17.0195 16.2437 17.1953 16.6655 17.1953 17.1577C17.1953 17.6577 17.0195 18.0835 16.668 18.4351C16.3164 18.7866 15.8945 18.9624 15.4023 18.9624ZM15.4023 16.5601C15.2383 16.5601 15.0977 16.6187 14.9805 16.7358C14.8633 16.853 14.8047 16.9937 14.8047 17.1577C14.8047 17.3218 14.8633 17.4624 14.9805 17.5796C15.0977 17.6968 15.2383 17.7554 15.4023 17.7554C15.5664 17.7554 15.707 17.6968 15.8242 17.5796C15.9414 17.4624 16 17.3218 16 17.1577C16 16.9937 15.9414 16.853 15.8242 16.7358C15.707 16.6187 15.5664 16.5601 15.4023 16.5601ZM14.1953 5.75537H5.80469C5.63281 5.75537 5.48828 5.69678 5.37109 5.57959C5.25391 5.4624 5.19531 5.32178 5.19531 5.15771C5.19531 4.99365 5.25391 4.85303 5.37109 4.73584C5.48828 4.61865 5.63281 4.56006 5.80469 4.56006H14.1953C14.3672 4.56006 14.5117 4.61865 14.6289 4.73584C14.7461 4.85303 14.8047 4.99365 14.8047 5.15771C14.8047 5.32178 14.7461 5.4624 14.6289 5.57959C14.5117 5.69678 14.3672 5.75537 14.1953 5.75537ZM16.5977 6.9624H3.40234C3.23828 6.9624 3.09766 7.021 2.98047 7.13818C2.86328 7.25537 2.80469 7.396 2.80469 7.56006V13.5601C2.80469 13.7241 2.86328 13.8647 2.98047 13.9819C3.09766 14.0991 3.23828 14.1577 3.40234 14.1577H9.40234H15.4023H16.5977C16.7617 14.1577 16.9023 14.0991 17.0195 13.9819C17.1367 13.8647 17.1953 13.7241 17.1953 13.5601V7.56006C17.1953 7.396 17.1367 7.25537 17.0195 7.13818C16.9023 7.021 16.7617 6.9624 16.5977 6.9624ZM4 8.15771H16V12.9624H15.5781L12.1328 10.6655C11.9922 10.5718 11.8398 10.5405 11.6758 10.5718C11.5195 10.603 11.3945 10.689 11.3008 10.8296C11.207 10.9624 11.1758 11.1108 11.207 11.2749C11.2461 11.439 11.332 11.5679 11.4648 11.6616L13.4219 12.9624H9.57812L6.13281 10.6655C5.99219 10.5718 5.83984 10.5405 5.67578 10.5718C5.51953 10.603 5.39453 10.689 5.30078 10.8296C5.20703 10.9624 5.17578 11.1108 5.20703 11.2749C5.24609 11.439 5.33203 11.5679 5.46484 11.6616L7.42188 12.9624H4V8.15771ZM16.7383 1.8999C16.332 1.74365 15.8828 1.60693 15.3906 1.48975C14.9062 1.37256 14.3828 1.2749 13.8203 1.19678C13.2578 1.11865 12.6562 1.06006 12.0156 1.021C11.3828 0.981934 10.7109 0.962402 10 0.962402C9.28906 0.962402 8.61328 0.981934 7.97266 1.021C7.33984 1.06006 6.74219 1.11865 6.17969 1.19678C5.61719 1.2749 5.08984 1.37256 4.59766 1.48975C4.11328 1.60693 3.66797 1.74365 3.26172 1.8999C2.66797 2.12646 2.18359 2.37646 1.80859 2.6499C1.44141 2.92334 1.15234 3.20459 0.941406 3.49365C0.730469 3.78271 0.585938 4.07178 0.507812 4.36084C0.4375 4.6499 0.402344 4.91553 0.402344 5.15771V18.3647C0.402344 18.7241 0.460938 19.0679 0.578125 19.396C0.703125 19.7163 0.871094 20.0093 1.08203 20.2749C1.30078 20.5327 1.55469 20.7515 1.84375 20.9312C2.14062 21.1108 2.46094 21.2319 2.80469 21.2944V22.5601C2.80469 22.8882 2.92188 23.1694 3.15625 23.4038C3.39062 23.6382 3.67188 23.7554 4 23.7554H5.19531C5.53125 23.7554 5.81641 23.6382 6.05078 23.4038C6.28516 23.1694 6.40234 22.8882 6.40234 22.5601V21.3647H13.5977V22.5601C13.5977 22.8882 13.7148 23.1694 13.9492 23.4038C14.1836 23.6382 14.4688 23.7554 14.8047 23.7554H16C16.3281 23.7554 16.6094 23.6382 16.8438 23.4038C17.0781 23.1694 17.1953 22.8882 17.1953 22.5601V21.2944C17.5391 21.2319 17.8555 21.1108 18.1445 20.9312C18.4414 20.7515 18.6953 20.5327 18.9062 20.2749C19.125 20.0093 19.293 19.7163 19.4102 19.396C19.5352 19.0679 19.5977 18.7241 19.5977 18.3647V5.15771C19.5977 4.91553 19.5586 4.6499 19.4805 4.36084C19.4102 4.07178 19.2695 3.78271 19.0586 3.49365C18.8477 3.20459 18.5547 2.92334 18.1797 2.6499C17.8125 2.37646 17.332 2.12646 16.7383 1.8999ZM5.19531 22.5601H4V21.3647H5.19531V22.5601ZM14.8047 22.5601V21.3647H16V22.5601H14.8047ZM18.4023 18.3647C18.4023 18.8569 18.2266 19.2788 17.875 19.6304C17.5234 19.9819 17.0977 20.1577 16.5977 20.1577H3.40234C2.90234 20.1577 2.47656 19.9819 2.125 19.6304C1.77344 19.2788 1.59766 18.8569 1.59766 18.3647V5.15771C1.59766 4.7124 1.77344 4.31006 2.125 3.95068C2.47656 3.59131 2.99609 3.28271 3.68359 3.0249C4.05859 2.88428 4.47266 2.75928 4.92578 2.6499C5.37891 2.54053 5.87109 2.45068 6.40234 2.38037C6.93359 2.31006 7.5 2.25537 8.10156 2.21631C8.70312 2.17725 9.33594 2.15771 10 2.15771C10.6641 2.15771 11.2969 2.17725 11.8984 2.21631C12.5 2.25537 13.0664 2.31006 13.5977 2.38037C14.1289 2.45068 14.6211 2.54053 15.0742 2.6499C15.5273 2.75928 15.9414 2.88428 16.3164 3.0249C17.0039 3.28271 17.5234 3.59131 17.875 3.95068C18.2266 4.31006 18.4023 4.7124 18.4023 5.15771V18.3647Z" fill="black" />
</svg>
    