<svg width="24" height="24" viewBox="0 0 24 24" fill="none"
    xmlns="http://www.w3.org/2000/svg">
    <path d="M20.4961 3.9962H17.9961V3.4981C17.9961 3.36137 17.9473 3.24417 17.8496 3.1465C17.752 3.04883 17.6348 3 17.498 3C17.3613 3 17.2441 3.04883 17.1465 3.1465C17.0488 3.24417 17 3.36137 17 3.4981V3.9962H7V3.4981C7 3.36137 6.95117 3.24417 6.85352 3.1465C6.75586 3.04883 6.63867 3 6.50195 3C6.36523 3 6.24805 3.04883 6.15039 3.1465C6.05273 3.24417 6.00391 3.36137 6.00391 3.4981V3.9962H3.50391C3.08724 3.9962 2.73242 4.1427 2.43945 4.4357C2.14648 4.7287 2 5.08356 2 5.50027V19.4959C2 19.9126 2.14648 20.2675 2.43945 20.5605C2.73242 20.8535 3.08724 21 3.50391 21H20.4961C20.9128 21 21.2676 20.8535 21.5605 20.5605C21.8535 20.2675 22 19.9126 22 19.4959V5.50027C22 5.08356 21.8535 4.7287 21.5605 4.4357C21.2676 4.1427 20.9128 3.9962 20.4961 3.9962ZM3.50391 5.00217H6.00391V6.49647C6.00391 6.63321 6.05273 6.75041 6.15039 6.84807C6.24805 6.94574 6.36523 6.99457 6.50195 6.99457C6.63867 6.99457 6.75586 6.94574 6.85352 6.84807C6.95117 6.75041 7 6.63321 7 6.49647V5.00217H17V6.49647C17 6.63321 17.0488 6.75041 17.1465 6.84807C17.2441 6.94574 17.3613 6.99457 17.498 6.99457C17.6348 6.99457 17.752 6.94574 17.8496 6.84807C17.9473 6.75041 17.9961 6.63321 17.9961 6.49647V5.00217H20.4961C20.6393 5.00217 20.7598 5.051 20.8574 5.14867C20.9551 5.24634 21.0039 5.36354 21.0039 5.50027V8.00054H2.99609V5.50027C2.99609 5.36354 3.04492 5.24634 3.14258 5.14867C3.24023 5.051 3.36068 5.00217 3.50391 5.00217ZM20.4961 20.0038H3.50391C3.36068 20.0038 3.24023 19.955 3.14258 19.8573C3.04492 19.7596 2.99609 19.6392 2.99609 19.4959V8.99674H21.0039V19.4959C21.0039 19.6392 20.9551 19.7596 20.8574 19.8573C20.7598 19.955 20.6393 20.0038 20.4961 20.0038Z" fill="#CCCCCC"/>
    <path d="M18.2487 11H13.7498C13.3359 11 13 11.336 13 11.75C13 12.164 13.3359 12.5 13.7498 12.5H16.4386L13.2204 15.719C12.928 16.0115 12.928 16.487 13.2204 16.7795C13.3674 16.9265 13.5594 16.9985 13.7513 16.9985C13.9433 16.9985 14.1352 16.925 14.2822 16.7795L17.5004 13.5605V16.25C17.5004 16.664 17.8363 17 18.2502 17C18.6641 17 19 16.664 19 16.25V11.75C19 11.336 18.6641 11 18.2502 11H18.2487Z" fill="#CCCCCC"/>
</svg>
