<svg width="16" height="16" viewBox="0 0 16 16" fill="none" xmlns="http://www.w3.org/2000/svg">
    <path fill-rule="evenodd" clip-rule="evenodd" d="M8.30933 11.5331L5.48404 14.3573C4.52081 15.3206 2.87604 15.2422 1.81644 14.1826C0.755869 13.123 0.677512 11.4782 1.64171 10.515L4.98909 7.16763C5.95233 6.2044 7.59709 6.28275 8.65669 7.34236C8.8552 7.53994 9.16172 7.55454 9.34032 7.37492C9.52081 7.19443 9.50626 6.88888 9.30775 6.6913C7.85497 5.23575 5.59619 5.12814 4.2729 6.45144L0.925519 9.79881C-0.396856 11.1212 -0.289248 13.38 1.16538 14.8337C1.89175 15.561 2.82016 15.9525 3.73198 15.9959C4.64381 16.0394 5.53808 15.7347 6.20023 15.0735L9.02552 12.2493C9.20413 12.0696 9.18948 11.7622 8.99295 11.5656C8.79542 11.3681 8.48793 11.3534 8.30933 11.5331ZM14.8329 1.16607C13.3801 -0.289481 11.1213 -0.397089 9.79805 0.926207L6.97377 3.7515C6.79416 3.9301 6.8088 4.23759 7.00634 4.43512C7.20286 4.63164 7.51035 4.64629 7.68997 4.46769L10.5142 1.6424C11.4775 0.679167 13.1222 0.757524 14.1818 1.81713C15.2414 2.87576 15.3198 4.52149 14.3566 5.48473L11.0092 8.8321C10.046 9.79534 8.40119 9.71698 7.34159 8.65738C7.14313 8.46076 6.83758 8.44621 6.65796 8.62481C6.47747 8.8053 6.49203 9.11086 6.69053 9.30844C7.4169 10.0357 8.34531 10.4273 9.25713 10.4707C10.169 10.5141 11.0632 10.2094 11.7254 9.5483L15.0728 6.20092C16.3961 4.87859 16.2866 2.61973 14.8329 1.16607Z" fill="#666666" />
</svg>
    