<svg width="9" height="8" viewBox="0 0 9 8" fill="none" xmlns="http://www.w3.org/2000/svg">
    <path d="M8.75846 2.3225L7.22934 0.823253C7.17953 0.774418 7.11976 0.75 7.05003 0.75C6.9803 0.75 6.92053 0.774418 6.87072 0.823253C6.82091 0.872089 6.79601 0.930691 6.79601 0.999061C6.79601 1.06743 6.82091 1.12603 6.87072 1.17487L7.9665 2.24925L0.67455 2.24925C0.604818 2.24925 0.545048 2.27367 0.49524 2.3225C0.445431 2.37134 0.420527 2.42994 0.420527 2.49831C0.420527 2.56993 0.445431 2.63017 0.49524 2.679C0.545048 2.72784 0.604818 2.75225 0.67455 2.75225L7.9665 2.75225L6.87072 3.82175C6.82091 3.87059 6.79601 3.93082 6.79601 4.00244C6.79601 4.07081 6.82091 4.12941 6.87072 4.17825C6.89396 4.20104 6.92053 4.21895 6.95041 4.23197C6.98362 4.24499 7.01682 4.2515 7.05003 4.2515C7.08323 4.2515 7.11478 4.24499 7.14466 4.23197C7.17787 4.21895 7.20609 4.20104 7.22934 4.17825L8.75846 2.679C8.80827 2.63017 8.83317 2.57156 8.83317 2.50319C8.83317 2.43157 8.80827 2.37134 8.75846 2.3225ZM8.32512 5.25263L1.03317 5.25263L2.12896 4.17825C2.17876 4.12941 2.20367 4.07081 2.20367 4.00244C2.20367 3.93082 2.17876 3.87059 2.12896 3.82175C2.07915 3.77292 2.01938 3.7485 1.94965 3.7485C1.87991 3.7485 1.82014 3.77292 1.77034 3.82175L0.241217 5.32588C0.191408 5.37472 0.166504 5.43332 0.166504 5.50169C0.166504 5.57006 0.191408 5.62866 0.241217 5.6775L1.77034 7.17675C1.79358 7.20279 1.82014 7.22233 1.85003 7.23535C1.88323 7.24512 1.91644 7.25 1.94965 7.25C1.98285 7.25 2.0144 7.24512 2.04428 7.23535C2.07749 7.22233 2.10571 7.20279 2.12896 7.17675C2.17876 7.12791 2.20367 7.06931 2.20367 7.00094C2.20367 6.93257 2.17876 6.87397 2.12896 6.82513L1.03317 5.75075L8.32512 5.75075C8.39486 5.75075 8.45463 5.72633 8.50443 5.6775C8.55424 5.62866 8.57915 5.57006 8.57915 5.50169C8.57915 5.43332 8.55424 5.37472 8.50443 5.32588C8.45463 5.27705 8.39486 5.25263 8.32512 5.25263Z" fill="#333333" />
</svg>
    