<svg width="17" height="16" viewBox="0 0 17 16" fill="none" xmlns="http://www.w3.org/2000/svg">
    <path d="M5.86719 7.71411L8.26562 5.31567C8.34375 5.23755 8.4375 5.19849 8.54688 5.19849C8.65625 5.19849 8.75 5.23755 8.82812 5.31567C8.90625 5.3938 8.94531 5.48755 8.94531 5.59692C8.94531 5.7063 8.90625 5.80005 8.82812 5.87817L7.10937 7.59692L14.1484 7.59692C14.2578 7.59692 14.3516 7.63599 14.4297 7.71411C14.5078 7.79224 14.5469 7.88599 14.5469 7.99536C14.5469 8.10474 14.5078 8.19849 14.4297 8.27661C14.3516 8.35474 14.2578 8.3938 14.1484 8.3938L7.10937 8.3938L8.82812 10.1125C8.90625 10.1907 8.94531 10.287 8.94531 10.4016C8.94531 10.511 8.90625 10.6047 8.82812 10.6829C8.79167 10.7193 8.75 10.748 8.70312 10.7688C8.65104 10.7896 8.59896 10.8 8.54687 10.8C8.49479 10.8 8.44531 10.7896 8.39844 10.7688C8.34635 10.748 8.30208 10.7193 8.26562 10.6829L5.86719 8.27661C5.78906 8.19849 5.75 8.10474 5.75 7.99536C5.75 7.88599 5.78906 7.79224 5.86719 7.71411Z" fill="#11A960" />
    <path d="M3.75 15C3.19772 15 2.75 14.5523 2.75 14L2.75 2C2.75 1.44772 3.19772 1 3.75 1H9.75C10.3023 1 10.75 1.44772 10.75 2V4H9.75V2H3.75L3.75 14H9.75V12H10.75V14C10.75 14.5523 10.3023 15 9.75 15H3.75Z" fill="#11A960" />
</svg>
    