<svg width="17" height="16" viewBox="0 0 17 16" fill="none" xmlns="http://www.w3.org/2000/svg">
    <path d="M4.84491 13.3333C4.42412 13.3333 4.08301 12.9922 4.08301 12.5714V3.42858C4.08301 3.00779 4.42412 2.66668 4.84491 2.66668H9.41634C9.83713 2.66668 10.1782 3.00779 10.1782 3.42858V4.95239H9.41634V3.42858H4.84491V12.5714H9.41634V11.0476H10.1782V12.5714C10.1782 12.9922 9.83713 13.3333 9.41634 13.3333H4.84491Z" fill="#be3449" />
    <path d="M11.1544 10.0441L12.9818 8.21672C13.0413 8.15719 13.0711 8.08577 13.0711 8.00243C13.0711 7.9191 13.0413 7.84767 12.9818 7.78815L11.1544 5.95481C11.1266 5.92704 11.0929 5.90521 11.0532 5.88934C11.0175 5.87346 10.9798 5.86553 10.9401 5.86553C10.9005 5.86553 10.8608 5.87346 10.8211 5.88934C10.7854 5.90521 10.7536 5.92704 10.7259 5.95481C10.6663 6.01434 10.6366 6.08577 10.6366 6.1691C10.6366 6.2564 10.6663 6.32981 10.7259 6.38934L12.0354 7.69886H6.67228C6.58895 7.69886 6.51752 7.72862 6.45799 7.78815C6.39847 7.84767 6.36871 7.9191 6.36871 8.00243C6.36871 8.08577 6.39847 8.15719 6.45799 8.21672C6.51752 8.27624 6.58895 8.306 6.67228 8.306H12.0354L10.7259 9.61553C10.6663 9.67505 10.6366 9.74648 10.6366 9.82981C10.6366 9.91315 10.6663 9.98458 10.7259 10.0441C10.7854 10.1036 10.8568 10.1334 10.9401 10.1334C11.0235 10.1334 11.0949 10.1036 11.1544 10.0441Z" fill="#be3449" />
</svg>
    