<svg viewBox="0 0 50 50" fill="none" xmlns="http://www.w3.org/2000/svg" class="_Icon_6l72i_1 ulBWKIkVgrROnszsWOGq" data-icon-name="BedSingle">
    <path fill-rule="evenodd" clip-rule="evenodd" d="M39.2947 10.7275L44.28 28.485C44.6842 29.9225 45 32.2375 45 33.7525V38.7525C45 40.82 43.5832 42.5025 41.8421 42.5025H8.15789C6.41684 42.5025 5 40.82 5 38.7525V33.7525C5 32.2375 5.31579 29.9225 5.72 28.485L10.7053 10.7275C11.1221 9.235 12.32 8.0125 13.6274 7.6275C13.6716 7.3875 13.7242 7.1625 13.7832 6.9525C14.2611 5.255 15.08 5 15.5263 5H23.9474C24.2147 5 24.6168 5.0925 25 5.5325C25.3832 5.0925 25.7853 5 26.0526 5H34.4737C34.92 5 35.7389 5.2525 36.2168 6.9525C36.2758 7.1625 36.3263 7.39 36.3726 7.6275C37.6779 8.0125 38.8758 9.2375 39.2947 10.7275ZM16.265 7.50251H33.6109C33.9403 7.89501 34.3497 8.78751 34.3497 10.0025C34.3497 11.2175 33.9403 12.11 33.6109 12.5025H16.265C15.9356 12.11 15.5262 11.2175 15.5262 10.0025C15.5262 8.78751 15.9356 7.89501 16.265 7.50251ZM13.4272 10.4475C13.0904 10.7275 12.8146 11.115 12.7009 11.52H12.703L11.023 17.5025H38.9788L37.2988 11.52C37.1851 11.115 36.9093 10.73 36.5725 10.4475C36.543 11.415 36.4188 12.3275 36.2167 13.05C35.7388 14.7475 34.9199 15.0025 34.4736 15.0025H26.0525C25.7851 15.0025 25.383 14.91 24.9999 14.47C24.6167 14.91 24.2146 15.0025 23.9472 15.0025H15.5262C15.0799 15.0025 14.2609 14.75 13.783 13.05C13.5788 12.3275 13.4567 11.4175 13.4272 10.4475ZM10.3224 20.0025H39.6803L42.2824 29.275C42.3498 29.5125 42.413 29.785 42.474 30.0775C42.2698 30.0275 42.0593 30.0025 41.8424 30.0025H8.15822C7.94138 30.0025 7.73085 30.0275 7.52664 30.0775C7.58769 29.785 7.65085 29.5125 7.71822 29.275L10.3224 20.0025ZM41.8424 40.0025C42.4234 40.0025 42.895 39.4425 42.895 38.7525V33.7525C42.895 33.0625 42.4234 32.5025 41.8424 32.5025H8.15816C7.57711 32.5025 7.10553 33.0625 7.10553 33.7525V38.7525C7.10553 39.4425 7.57711 40.0025 8.15816 40.0025H41.8424Z" fill="#333333"></path>
    <path d="M11.3161 43.7525C11.3161 44.4425 10.8445 45.0025 10.2634 45.0025H8.15816C7.57711 45.0025 7.10553 44.4425 7.10553 43.7525C7.10553 43.0625 7.57684 42.5025 8.15789 42.5025L10.2634 42.5025C10.8445 42.5025 11.3161 43.0625 11.3161 43.7525Z" fill="#333333"></path>
    <path d="M42.8947 43.7525C42.8947 44.4425 42.4231 45.0025 41.842 45.0025H39.7368C39.1557 45.0025 38.6841 44.4425 38.6841 43.7525C38.6841 43.0625 39.1557 42.5025 39.7368 42.5025L41.8421 42.5025C42.4232 42.5025 42.8947 43.0625 42.8947 43.7525Z" fill="#333333"></path>
</svg>