<svg width="5" height="9" viewBox="0 0 5 9" fill="none" xmlns="http://www.w3.org/2000/svg">
    <path fill-rule="evenodd" clip-rule="evenodd" d="M3.45819 8.13032C3.85839 7.87333 4.5 7.47854 4.5 6.95985V2.35992C4.5 2.22382 4.37665 2.11349 4.22449 2.11349C4.07233 2.11349 3.94898 2.22382 3.94898 2.35992V6.95985C3.94898 7.30364 3.40819 7.55572 3.13683 7.72997C2.85733 7.90945 2.46921 8.00715 2.06633 8.00715C1.66345 8.00715 1.27533 7.90945 0.99582 7.72997C0.724466 7.55572 0.55102 7.30364 0.55102 6.95985V2.19564C0.55102 1.72977 0.701233 1.42574 0.892336 1.244C1.0831 1.0626 1.33569 0.982087 1.59291 0.993987C2.10194 1.01754 2.66327 1.41375 2.66327 2.19564V5.4813C2.66327 6.04784 2.32507 6.24599 2.10459 6.25147C1.98626 6.25441 1.8597 6.21034 1.75659 6.09847C1.65181 5.9848 1.56122 5.78819 1.56122 5.4813V2.35992C1.56122 2.22382 1.43787 2.11349 1.28571 2.11349C1.13355 2.11349 1.0102 2.22382 1.0102 2.35992V5.4813C1.0102 5.87261 1.12625 6.18939 1.33142 6.41198C1.53826 6.63638 1.82497 6.75146 2.11989 6.74413C2.72595 6.72907 3.21429 6.22902 3.21429 5.4813V2.19564C3.21429 1.17041 2.44398 0.539853 1.62137 0.501796C1.21278 0.482893 0.799556 0.612872 0.490955 0.906344C0.182696 1.19949 0 1.63473 0 2.19564V6.95985C0 7.47854 0.274259 7.87333 0.674461 8.13032C1.06651 8.38208 1.5738 8.5 2.06633 8.5C2.55886 8.5 3.06614 8.38208 3.45819 8.13032Z" fill="#333333" />
</svg>
    