<svg width="24" height="24" viewBox="0 0 24 24" fill="none" xmlns="http://www.w3.org/2000/svg">
    <path fill-rule="evenodd" clip-rule="evenodd" d="M13.5643 12.4995L18.7797 17.7155C19.0733 18.0091 19.0733 18.4853 18.7765 18.7836C18.6338 18.9234 18.4436 19 18.2472 19C18.0501 19 17.8593 18.9236 17.7147 18.7804L12.5 13.5646L7.28209 18.7836C7.13936 18.9234 6.94916 19 6.75278 19C6.55569 19 6.36487 18.9236 6.21951 18.7797C5.9267 18.4853 5.9267 18.0091 6.2203 17.7155L11.4351 12.5001L6.22109 7.28496C5.92657 6.99192 5.92657 6.51512 6.22109 6.21907C6.51479 5.92684 6.99101 5.92684 7.28399 6.21986L12.4993 11.4358L17.7149 6.21907C18.0085 5.92698 18.4841 5.92698 18.7792 6.22064C19.0722 6.51512 19.0722 6.99192 18.7784 7.28416L13.5643 12.4995Z" fill="#333333" />
</svg>
    