<svg width="24" height="24" viewBox="0 0 24 24" fill="none" xmlns="http://www.w3.org/2000/svg">
<path fill-rule="evenodd" clip-rule="evenodd" d="M12 16.1429H13.8V15.2143H12V16.1429ZM14.7 16.1429H17.4V15.2143H14.7V16.1429ZM18.3 16.1429H19.2V15.2143H18.3V16.1429ZM20.1 6.85714H3.9V6.39286C3.9 6.13657 4.1016 5.92857 4.35 5.92857H19.65C19.8984 5.92857 20.1 6.13657 20.1 6.39286V6.85714ZM3.9 10.5714H20.1V7.78571H3.9V10.5714ZM20.1 16.6071C20.1 16.8634 19.8984 17.0714 19.65 17.0714H4.35C4.1016 17.0714 3.9 16.8634 3.9 16.6071V11.5H20.1V16.6071ZM19.65 5H4.35C3.6057 5 3 5.62493 3 6.39286V16.6071C3 17.3751 3.6057 18 4.35 18H19.65C20.3943 18 21 17.3751 21 16.6071V6.39286C21 5.62493 20.3943 5 19.65 5Z" fill="#333333"/>
</svg>
