<svg viewBox="0 0 50 50" fill="none" xmlns="http://www.w3.org/2000/svg" class="_Icon_6l72i_1 ulBWKIkVgrROnszsWOGq" data-icon-name="Utensils">
    <path fill-rule="evenodd" clip-rule="evenodd" d="M21.2506 0C21.9406 0 22.5006 0.56 22.5006 1.25L22.5056 1.255C22.5056 4.23124 23.1001 6.80533 23.5775 8.87238L23.5781 8.875L23.5795 8.88072C24.2238 11.673 24.7323 13.8761 23.4231 15.5225C22.4456 16.75 20.6681 17.355 17.5806 17.48C17.8629 24.4434 18.8712 30.4361 19.7058 35.3958L19.7081 35.41C20.8231 42.025 21.5581 46.395 19.6781 48.62C18.9006 49.54 17.7481 50.0075 16.2531 50.0075C14.7581 50.0075 13.6056 49.54 12.8281 48.62C10.9481 46.3975 11.6831 42.0325 12.7981 35.4225C13.6356 30.455 14.6456 24.455 14.9256 17.48C11.8456 17.35 10.0681 16.7425 9.09314 15.5175C7.78064 13.8675 8.28814 11.6575 8.93314 8.8625L8.93592 8.85043C9.41045 6.78749 10.0006 4.22171 10.0006 1.255C10.0006 0.565 10.5606 0.005 11.2506 0.005C11.9406 0.005 12.5006 0.565 12.5006 1.255C12.5006 4.51 11.8731 7.235 11.3681 9.4225L11.3669 9.42787C10.875 11.5628 10.4861 13.2506 11.0481 13.9575C11.5131 14.5425 12.8381 14.885 14.9906 14.9775C14.9981 14.5725 15.0006 14.165 15.0006 13.7525V3.7525C15.0006 3.0625 15.5606 2.5025 16.2506 2.5025C16.9406 2.5025 17.5006 3.0625 17.5006 3.7525V13.7525C17.5006 14.1625 17.5056 14.5725 17.5106 14.9775C19.6706 14.8875 20.9981 14.5475 21.4631 13.9625C22.0206 13.2575 21.6331 11.57 21.1381 9.435C20.6306 7.2425 20.0006 4.515 20.0006 1.25C20.0006 0.56 20.5606 0 21.2506 0ZM16.2502 47.5C17.2277 47.5 17.5827 47.2125 17.7652 46.9975L17.7677 47.0025C18.8977 45.6625 18.1302 41.1025 17.2402 35.8225L17.2276 35.7472C16.9111 33.8635 16.571 31.8385 16.2527 29.665C15.9302 31.87 15.5852 33.9275 15.2627 35.8325C14.3727 41.1075 13.6052 45.6625 14.7352 47C14.9177 47.215 15.2727 47.5 16.2502 47.5ZM40.0004 13.75C40.0029 22.3275 41.2229 29.5775 42.2054 35.405C43.3204 42.02 44.0554 46.39 42.1754 48.615C41.3979 49.535 40.2454 50.0025 38.7504 50.0025C37.2554 50.0025 36.1029 49.535 35.3254 48.615C33.4454 46.3925 34.1804 42.0275 35.2954 35.4175C35.8154 32.34 36.4004 28.8625 36.8379 25.0025H31.2504C30.8804 25.0025 30.5279 24.8375 30.2904 24.5525C30.0529 24.2675 29.9529 23.8925 30.0204 23.5275C30.1254 22.9575 32.6179 9.465 37.6654 0.629999C37.9454 0.137499 38.5229 -0.102501 39.0704 0.0424994C39.6179 0.187499 40.0004 0.682499 40.0004 1.25V13.75ZM32.778 22.5C33.398 19.5725 34.983 12.7825 37.5005 6.7075V13.75C37.5005 16.84 37.343 19.7575 37.093 22.5H32.778ZM38.7502 47.5C39.7277 47.5 40.0827 47.2125 40.2652 46.9975L40.2677 47.0025C41.3977 45.6625 40.6302 41.1025 39.7402 35.8225C39.4202 33.92 39.0752 31.8675 38.7527 29.665C38.4302 31.87 38.0852 33.9275 37.7627 35.8325C36.8727 41.1075 36.1052 45.6625 37.2352 47C37.4177 47.215 37.7727 47.5 38.7502 47.5Z" fill="currentColor"></path>
    <mask id="mask0" maskUnits="userSpaceOnUse" x="8" y="0" width="36" height="51">
        <path fill-rule="evenodd" clip-rule="evenodd" d="M21.2506 0C21.9406 0 22.5006 0.56 22.5006 1.25L22.5056 1.255C22.5056 4.23124 23.1001 6.80533 23.5775 8.87238L23.5781 8.875L23.5795 8.88072C24.2238 11.673 24.7323 13.8761 23.4231 15.5225C22.4456 16.75 20.6681 17.355 17.5806 17.48C17.8629 24.4434 18.8712 30.4361 19.7058 35.3958L19.7081 35.41C20.8231 42.025 21.5581 46.395 19.6781 48.62C18.9006 49.54 17.7481 50.0075 16.2531 50.0075C14.7581 50.0075 13.6056 49.54 12.8281 48.62C10.9481 46.3975 11.6831 42.0325 12.7981 35.4225C13.6356 30.455 14.6456 24.455 14.9256 17.48C11.8456 17.35 10.0681 16.7425 9.09314 15.5175C7.78064 13.8675 8.28814 11.6575 8.93314 8.8625L8.93592 8.85043C9.41045 6.78749 10.0006 4.22171 10.0006 1.255C10.0006 0.565 10.5606 0.005 11.2506 0.005C11.9406 0.005 12.5006 0.565 12.5006 1.255C12.5006 4.51 11.8731 7.235 11.3681 9.4225L11.3669 9.42787C10.875 11.5628 10.4861 13.2506 11.0481 13.9575C11.5131 14.5425 12.8381 14.885 14.9906 14.9775C14.9981 14.5725 15.0006 14.165 15.0006 13.7525V3.7525C15.0006 3.0625 15.5606 2.5025 16.2506 2.5025C16.9406 2.5025 17.5006 3.0625 17.5006 3.7525V13.7525C17.5006 14.1625 17.5056 14.5725 17.5106 14.9775C19.6706 14.8875 20.9981 14.5475 21.4631 13.9625C22.0206 13.2575 21.6331 11.57 21.1381 9.435C20.6306 7.2425 20.0006 4.515 20.0006 1.25C20.0006 0.56 20.5606 0 21.2506 0ZM16.2502 47.5C17.2277 47.5 17.5827 47.2125 17.7652 46.9975L17.7677 47.0025C18.8977 45.6625 18.1302 41.1025 17.2402 35.8225L17.2276 35.7472C16.9111 33.8635 16.571 31.8385 16.2527 29.665C15.9302 31.87 15.5852 33.9275 15.2627 35.8325C14.3727 41.1075 13.6052 45.6625 14.7352 47C14.9177 47.215 15.2727 47.5 16.2502 47.5ZM40.0004 13.75C40.0029 22.3275 41.2229 29.5775 42.2054 35.405C43.3204 42.02 44.0554 46.39 42.1754 48.615C41.3979 49.535 40.2454 50.0025 38.7504 50.0025C37.2554 50.0025 36.1029 49.535 35.3254 48.615C33.4454 46.3925 34.1804 42.0275 35.2954 35.4175C35.8154 32.34 36.4004 28.8625 36.8379 25.0025H31.2504C30.8804 25.0025 30.5279 24.8375 30.2904 24.5525C30.0529 24.2675 29.9529 23.8925 30.0204 23.5275C30.1254 22.9575 32.6179 9.465 37.6654 0.629999C37.9454 0.137499 38.5229 -0.102501 39.0704 0.0424994C39.6179 0.187499 40.0004 0.682499 40.0004 1.25V13.75ZM32.778 22.5C33.398 19.5725 34.983 12.7825 37.5005 6.7075V13.75C37.5005 16.84 37.343 19.7575 37.093 22.5H32.778ZM38.7502 47.5C39.7277 47.5 40.0827 47.2125 40.2652 46.9975L40.2677 47.0025C41.3977 45.6625 40.6302 41.1025 39.7402 35.8225C39.4202 33.92 39.0752 31.8675 38.7527 29.665C38.4302 31.87 38.0852 33.9275 37.7627 35.8325C36.8727 41.1075 36.1052 45.6625 37.2352 47C37.4177 47.215 37.7727 47.5 38.7502 47.5Z" fill="white"></path>
    </mask>
    <g mask="url(#mask0)"></g>
</svg>