<svg width="25" height="22" viewBox="0 0 25 22" fill="none" xmlns="http://www.w3.org/2000/svg">
    <path d="M23.9719 12.2302L13.3789 0.560699C13.2148 0.373799 13.0234 0.233625 12.8047 0.140175C12.5938 0.0467249 12.3672 0 12.1251 0C11.8829 0 11.6524 0.0467249 11.4337 0.140175C11.2228 0.233625 11.0353 0.373799 10.8712 0.560699L0.278176 12.2302C0.168808 12.3548 0.11803 12.4989 0.125842 12.6625C0.133654 12.826 0.200056 12.9623 0.325048 13.0713C0.379732 13.1258 0.442228 13.1686 0.512536 13.1998C0.582844 13.2232 0.653152 13.2348 0.72346 13.2348C0.809391 13.2348 0.891417 13.2193 0.969537 13.1881C1.04766 13.1492 1.11406 13.0986 1.16874 13.0363L3.72326 10.2211V19.8114C3.72326 20.302 3.89903 20.7225 4.25057 21.0729C4.60211 21.4234 5.02787 21.5986 5.52783 21.5986H18.7223C19.2223 21.5986 19.648 21.4234 19.9995 21.0729C20.3511 20.7225 20.5269 20.302 20.5269 19.8114V10.2211L23.0814 13.0363C23.1907 13.1531 23.3275 13.2193 23.4915 13.2348C23.6556 13.2426 23.8001 13.1881 23.9251 13.0713C24.0501 12.9623 24.1165 12.826 24.1243 12.6625C24.1321 12.4989 24.0813 12.3548 23.9719 12.2302ZM14.5272 20.4071H9.72287V15.0221C9.72287 14.8585 9.78146 14.7184 9.89864 14.6015C10.0158 14.4847 10.1564 14.4263 10.3205 14.4263H13.9296C14.0937 14.4263 14.2343 14.4847 14.3515 14.6015C14.4687 14.7184 14.5272 14.8585 14.5272 15.0221V20.4071ZM19.3199 19.8114C19.3199 19.9749 19.2613 20.1151 19.1441 20.2319C19.027 20.3487 18.8863 20.4071 18.7223 20.4071H15.7225V15.0221C15.7225 14.5315 15.5467 14.1109 15.1952 13.7605C14.8436 13.4101 14.4218 13.2348 13.9296 13.2348H10.3205C9.82834 13.2348 9.40649 13.4101 9.05495 13.7605C8.70341 14.1109 8.52764 14.5315 8.52764 15.0221V20.4071H5.52783C5.36378 20.4071 5.22317 20.3487 5.10599 20.2319C4.98881 20.1151 4.93022 19.9749 4.93022 19.8114V8.9011L11.7618 1.35502C11.8165 1.30051 11.8712 1.26157 11.9259 1.23821C11.9884 1.20706 12.0548 1.19149 12.1251 1.19149C12.1954 1.19149 12.2579 1.20706 12.3125 1.23821C12.375 1.26157 12.4336 1.30051 12.4883 1.35502L19.3199 8.9011V19.8114Z" fill="#666666"/>
    </svg>
    