<svg width="14" height="16" viewBox="0 0 14 16" fill="none"
    xmlns="http://www.w3.org/2000/svg">
    <path fill-rule="evenodd" clip-rule="evenodd" d="M3.60911 4.04967H9.98261C10.2026 4.04967 10.381 3.87133 10.381 3.65133C10.4226 2.91562 10.0214 2.22601 9.36119 1.89862C9.17406 1.79165 8.97296 1.71121 8.76368 1.65961C8.60163 0.701377 7.77168 0 6.79984 0C5.828 0 4.99806 0.701377 4.83601 1.65961C4.62602 1.698 4.4223 1.76502 4.23053 1.85878C3.54855 2.18638 3.13509 2.89653 3.18686 3.65133C3.18667 3.76125 3.2319 3.86637 3.31186 3.9418C3.39181 4.01723 3.49938 4.05627 3.60911 4.04967ZM4.565 2.62358C4.76347 2.52401 4.98056 2.46703 5.20235 2.45628C5.41297 2.44362 5.57718 2.26893 5.5768 2.05793C5.5768 1.39794 6.11183 0.862901 6.77183 0.862901C7.43183 0.862901 7.96686 1.39794 7.96686 2.05793C7.96686 2.27793 8.1452 2.45628 8.3652 2.45628C8.58699 2.46703 8.80408 2.52401 9.00255 2.62358C9.27498 2.73697 9.48047 2.96888 9.56024 3.25297H4.05512C4.12442 2.97848 4.31087 2.74833 4.565 2.62358ZM6.79594 1.65963C6.69087 1.66112 6.59065 1.70408 6.5171 1.77913C6.43243 1.84795 6.38043 1.94907 6.3737 2.05797C6.37604 2.16286 6.41886 2.26278 6.4932 2.33681C6.5719 2.41882 6.68244 2.46245 6.79594 2.45632C6.95531 2.45408 7.098 2.35706 7.15869 2.20968C7.21937 2.0623 7.18637 1.89294 7.07478 1.77913C7.00175 1.70333 6.9012 1.66024 6.79594 1.65963ZM13.5437 16H0V2.67937H2.23869V3.47606H0.796688V15.2033H12.7948V3.47606H11.1536V2.67937H13.5437V16ZM5.57682 7.56854C5.57682 6.90968 6.11299 6.37351 6.77185 6.37351C7.43072 6.37351 7.96689 6.90968 7.96689 7.56854C7.96689 8.2274 7.43072 8.76357 6.77185 8.76357C6.11299 8.76357 5.57682 8.2274 5.57682 7.56854ZM8.7636 7.56854C8.7636 6.47071 7.86972 5.57682 6.77188 5.57682C5.67405 5.57682 4.78016 6.47071 4.78016 7.56854C4.78016 8.66638 5.67405 9.56026 6.77188 9.56026C7.86972 9.56026 8.7636 8.66638 8.7636 7.56854ZM4.21573 12.5152C4.21972 12.5016 4.69375 11.1536 6.77231 11.1536L6.7739 11.1528C8.81263 11.1528 9.30578 12.4459 9.33127 12.5168C9.35517 12.5901 9.35437 12.6546 9.32888 12.6896C9.30339 12.7247 9.24124 12.7462 9.16317 12.7462H4.38304C4.30496 12.7462 4.24282 12.7247 4.21733 12.6896C4.19183 12.6546 4.19104 12.5893 4.21573 12.5152ZM3.45891 12.2634C3.35216 12.5853 3.39199 12.9103 3.56965 13.1565C3.74731 13.4027 4.04289 13.5437 4.38148 13.5437H9.16161C9.5002 13.5437 9.79577 13.4027 9.97264 13.1565C10.1511 12.9103 10.1909 12.5853 10.0842 12.2634C10.0666 12.2124 9.90173 11.7472 9.40778 11.2827C8.95845 10.8605 8.13627 10.3577 6.77154 10.3577C5.40682 10.3577 4.58463 10.8605 4.1353 11.2827C3.64135 11.7472 3.47644 12.2124 3.45891 12.2634Z" fill="#666666"/>
</svg>
