<svg xmlns="http://www.w3.org/2000/svg" xmlns:xlink="http://www.w3.org/1999/xlink" viewBox="0 0 20 20" class="_Icon_6l72i_1 button-svg" data-icon-name="Edit">
    <path d="M18.42 4.377l-.897.897-2.797-2.797.896-.897c.374-.373.87-.579 1.4-.579a1.96 1.96 0 0 1 1.396.58c.373.373.579.87.579 1.397 0 .528-.206 1.024-.579 1.398h.002zM5.732 17.065l-4.395 1.598 1.598-4.394L14.018 3.186l2.796 2.797L5.732 17.065zM19.128.872A2.957 2.957 0 0 0 17.022 0c-.796 0-1.544.31-2.106.872L2.149 13.64a.473.473 0 0 0-.116.183L.031 19.329A.497.497 0 0 0 .5 20c.056 0 .115-.01.17-.03l5.507-2.003a.502.502 0 0 0 .184-.116L19.128 5.085c.564-.563.872-1.311.872-2.107 0-.796-.308-1.544-.872-2.107v.001z"></path>
</svg>