<svg width="24" height="24" viewBox="0 0 24 24" fill="none" xmlns="http://www.w3.org/2000/svg">
    <path d="M15 11C13.8976 11 13 10.1024 13 9C13 7.8976 13.8976 7 15 7C16.1024 7 17 7.8976 17 9C17 10.1024 16.1024 11 15 11ZM15 7.8C14.3384 7.8 13.8 8.3384 13.8 9C13.8 9.6616 14.3384 10.2 15 10.2C15.6616 10.2 16.2 9.6616 16.2 9C16.2 8.3384 15.6616 7.8 15 7.8Z" fill="#333333"/>
    <path d="M19.65 3H4.35C3.6057 3 3 3.6057 3 4.35V19.65C3 20.3943 3.6057 21 4.35 21H19.65C20.3943 21 21 20.3943 21 19.65V4.35C21 3.6057 20.3943 3 19.65 3ZM3.9 19.65V15.3237L7.6773 11.1684C7.7538 11.0847 7.8537 11.0379 7.9599 11.0361C8.0661 11.0343 8.1678 11.0793 8.2461 11.1612L16.7961 20.1H4.3491C4.1007 20.1 3.8991 19.8984 3.8991 19.65H3.9ZM20.1 19.65C20.1 19.8984 19.8984 20.1 19.65 20.1H18.0426L8.8977 10.5393C8.6448 10.2747 8.3082 10.1325 7.95 10.137C7.5918 10.1415 7.2588 10.2927 7.0122 10.5636L3.9009 13.9863V4.35C3.9009 4.1016 4.1025 3.9 4.3509 3.9H19.6509C19.8993 3.9 20.1009 4.1016 20.1009 4.35V19.65H20.1Z" fill="#333333"/>
    </svg>
    