<svg width="25" height="22" viewBox="0 0 25 22" fill="none"
    xmlns="http://www.w3.org/2000/svg">
    <path d="M22.8203 1.18068H19.8203V0.590342C19.8203 0.428287 19.7617 0.289383 19.6445 0.17363C19.5273 0.0578766 19.3867 0 19.2227 0C19.0586 0 18.918 0.0578766 18.8008 0.17363C18.6836 0.289383 18.625 0.428287 18.625 0.590342V1.18068H6.625V0.590342C6.625 0.428287 6.56641 0.289383 6.44922 0.17363C6.33203 0.0578766 6.19141 0 6.02734 0C5.86328 0 5.72266 0.0578766 5.60547 0.17363C5.48828 0.289383 5.42969 0.428287 5.42969 0.590342V1.18068H2.42969C1.92969 1.18068 1.50391 1.35431 1.15234 1.70157C0.800781 2.04883 0.625 2.4694 0.625 2.96328V19.5507C0.625 20.0446 0.800781 20.4652 1.15234 20.8124C1.50391 21.1597 1.92969 21.3333 2.42969 21.3333H22.8203C23.3203 21.3333 23.7461 21.1597 24.0977 20.8124C24.4492 20.4652 24.625 20.0446 24.625 19.5507V2.96328C24.625 2.4694 24.4492 2.04883 24.0977 1.70157C23.7461 1.35431 23.3203 1.18068 22.8203 1.18068ZM2.42969 2.37294H5.42969V4.14397C5.42969 4.30602 5.48828 4.44493 5.60547 4.56068C5.72266 4.67643 5.86328 4.73431 6.02734 4.73431C6.19141 4.73431 6.33203 4.67643 6.44922 4.56068C6.56641 4.44493 6.625 4.30602 6.625 4.14397V2.37294H18.625V4.14397C18.625 4.30602 18.6836 4.44493 18.8008 4.56068C18.918 4.67643 19.0586 4.73431 19.2227 4.73431C19.3867 4.73431 19.5273 4.67643 19.6445 4.56068C19.7617 4.44493 19.8203 4.30602 19.8203 4.14397V2.37294H22.8203C22.9922 2.37294 23.1367 2.43082 23.2539 2.54657C23.3711 2.66233 23.4297 2.80123 23.4297 2.96328V5.92657H1.82031V2.96328C1.82031 2.80123 1.87891 2.66233 1.99609 2.54657C2.11328 2.43082 2.25781 2.37294 2.42969 2.37294ZM22.8203 20.1526H2.42969C2.25781 20.1526 2.11328 20.0948 1.99609 19.979C1.87891 19.8633 1.82031 19.7205 1.82031 19.5507V7.10725H23.4297V19.5507C23.4297 19.7205 23.3711 19.8633 23.2539 19.979C23.1367 20.0948 22.9922 20.1526 22.8203 20.1526ZM12.0273 17.7797H8.42969C8.25781 17.7797 8.11328 17.7218 7.99609 17.6061C7.87891 17.4903 7.82031 17.3514 7.82031 17.1894C7.82031 17.0196 7.87891 16.8768 7.99609 16.7611C8.11328 16.6453 8.25781 16.5874 8.42969 16.5874H11.4297V14.2261H9.625C9.46094 14.2261 9.32031 14.1682 9.20312 14.0524C9.08594 13.9367 9.02734 13.7939 9.02734 13.6242C9.02734 13.4621 9.08594 13.3232 9.20312 13.2074C9.32031 13.0917 9.46094 13.0338 9.625 13.0338H11.4297V10.6609H8.42969C8.25781 10.6609 8.11328 10.603 7.99609 10.4872C7.87891 10.3715 7.82031 10.2326 7.82031 10.0705C7.82031 9.90848 7.87891 9.76958 7.99609 9.65382C8.11328 9.53807 8.25781 9.48019 8.42969 9.48019H12.0273C12.1914 9.48019 12.332 9.53807 12.4492 9.65382C12.5664 9.76958 12.625 9.90848 12.625 10.0705V17.1894C12.625 17.3514 12.5664 17.4903 12.4492 17.6061C12.332 17.7218 12.1914 17.7797 12.0273 17.7797ZM16.8203 17.7797C16.6562 17.7797 16.5156 17.7218 16.3984 17.6061C16.2812 17.4903 16.2227 17.3514 16.2227 17.1894V10.0705C16.2227 9.90848 16.2812 9.76958 16.3984 9.65382C16.5156 9.53807 16.6562 9.48019 16.8203 9.48019C16.9922 9.48019 17.1367 9.53807 17.2539 9.65382C17.3711 9.76958 17.4297 9.90848 17.4297 10.0705V17.1894C17.4297 17.3514 17.3711 17.4903 17.2539 17.6061C17.1367 17.7218 16.9922 17.7797 16.8203 17.7797Z" fill="#333333"/>
</svg>
    