<svg width="25" height="24" viewBox="0 0 25 24" fill="none" xmlns="http://www.w3.org/2000/svg">
    <path fill-rule="evenodd" clip-rule="evenodd" d="M17.4826 21.6428L12.7161 16.5599L22.357 3.74625L17.4826 21.6416V21.6428ZM8.77541 14.1117L20.0735 4.72603L11.4406 16.2022C11.4406 16.2022 11.4406 16.2035 11.4394 16.2035L8.77541 19.7442V14.1117ZM19.7316 3.37434L8.06268 13.0698L2.67704 11.131L19.7316 3.37434ZM24.1752 0.349423C24.0036 0.182237 23.7576 0.138173 23.5428 0.235374L0.742648 10.6035C0.512246 10.7084 0.365845 10.956 0.375445 11.2255C0.385045 11.4951 0.548246 11.731 0.785848 11.8152L7.5755 14.2608V21.569C7.5755 21.8437 7.7351 22.0887 7.9751 22.1794C8.0411 22.2053 8.1083 22.217 8.1755 22.217C8.3543 22.217 8.5247 22.1315 8.64111 21.9785L11.9579 17.5695L17.3544 23.3264C17.4672 23.4482 17.6184 23.5117 17.7744 23.5117C17.8248 23.5117 17.8752 23.5052 17.9244 23.4923C18.1284 23.4352 18.2904 23.2655 18.3504 23.0464L24.3504 1.01428C24.4164 0.774514 24.3468 0.515312 24.174 0.348127L24.1752 0.349423Z" fill="#333333" />
</svg>
    