<svg viewBox="0 0 24 24" fill="none" xmlns="http://www.w3.org/2000/svg" class="_Icon_6l72i_1 accordion-icon" data-icon-name="PingPong" data-testid="rental.amenities.amenities-picker.category-entertainment.accordion.icon" width="24" height="24">
    <path fill-rule="evenodd" clip-rule="evenodd" d="M20.639 17.75L20.639 17.75L20.608 17.725L20.605 17.723C18.275 15.922 16.263 14.367 17.438 11.65C18.036 10.268 18.145 8.962 17.774 7.656C17.38 6.268 16.427 4.836 14.863 3.282C13.83 2.255 12.69 1.447 11.476 0.881C10.222 0.296 8.952 0 7.702 0C5.674 0 3.806 0.797 2.3 2.304C1.409 3.197 0.766 4.216 0.389 5.33C0.032 6.385 -0.079 7.506 0.058 8.663C0.314 10.852 1.459 13.06 3.278 14.881C5.396 17.002 7.262 17.988 9.154 17.988C9.966 17.988 10.783 17.806 11.652 17.431C12.193 17.197 12.71 17.08 13.189 17.08C15.004 17.08 16.327 18.792 17.728 20.605L17.739 20.62C18.351 21.411 18.983 22.228 19.679 22.924C19.796 23.041 19.95 23.099 20.104 23.099C20.257 23.099 20.411 23.04 20.528 22.924L22.928 20.524C23.162 20.29 23.162 19.909 22.928 19.675H22.925C22.236 18.985 21.425 18.358 20.639 17.75ZM3.148 3.152C4.423 1.876 5.998 1.2 7.7 1.2C9.84 1.2 12.142 2.269 14.016 4.133C15.256 5.365 15.996 6.422 16.398 7.354L7.35 16.402C6.346 15.978 5.29 15.198 4.126 14.033C1.273 11.177 -0.25 6.553 3.148 3.151V3.152ZM18.676 19.873L18.676 19.873L18.675 19.872L18.673 19.868C17.157 17.907 15.59 15.881 13.187 15.881C12.543 15.881 11.867 16.032 11.174 16.331C10.459 16.639 9.797 16.789 9.151 16.789C8.996 16.789 8.841 16.78 8.685 16.763L16.769 8.68C16.885 9.622 16.658 10.428 16.335 11.174C15.637 12.787 15.743 14.244 16.657 15.626C17.42 16.781 18.663 17.741 19.865 18.671L19.873 18.677L19.874 18.678C20.475 19.142 21.091 19.618 21.639 20.113L20.112 21.64C19.617 21.09 19.141 20.474 18.676 19.873ZM3 24C1.346 24 0 22.654 0 21C0 19.346 1.346 18 3 18C4.654 18 6 19.346 6 21C6 22.654 4.654 24 3 24ZM1.2 21C1.2 20.008 2.008 19.2 3 19.2C3.992 19.2 4.8 20.008 4.8 21C4.8 21.992 3.992 22.8 3 22.8C2.008 22.8 1.2 21.992 1.2 21Z" fill="currentColor" />
</svg>