<svg width="24" height="24" viewBox="0 0 24 24" fill="none" xmlns="http://www.w3.org/2000/svg">
    <path fill-rule="evenodd" clip-rule="evenodd" d="M22.6194 5.96126L13.4072 0.361822C13.0219 0.128145 12.5229 0 12 0C11.4771 0 10.9768 0.128145 10.5928 0.361822L1.38063 5.96126C0.593684 6.43992 0 7.49021 0 8.40858V19.7155C0 20.7545 0.850105 21.6 1.89474 21.6H22.1053C23.1499 21.6 24 20.7545 24 19.7155V8.40858C24 7.49021 23.4063 6.43992 22.6194 5.96126ZM2.03881 7.03291L11.251 1.43347C11.4367 1.3204 11.7083 1.25507 12.0001 1.25507C12.2906 1.25507 12.5622 1.3204 12.7491 1.43347L21.9613 7.03291C22.1571 7.15226 22.3453 7.3671 22.4868 7.60957L12.7011 14.0985C12.3348 14.341 11.6666 14.341 11.3003 14.0985L1.5146 7.60957C1.65481 7.36584 1.84428 7.15101 2.04007 7.03291H2.03881ZM22.1053 20.3437H1.89481C1.54618 20.3437 1.26323 20.0623 1.26323 19.7155V8.95385L10.5992 15.1438C10.9921 15.4038 11.4948 15.5345 12.0001 15.5345C12.5041 15.5345 13.0081 15.4038 13.4009 15.1438L22.7369 8.95385V19.7155C22.7369 20.0623 22.454 20.3437 22.1053 20.3437Z" fill="#333333" />
</svg>
    