<svg width="16" height="11" viewBox="0 0 16 11" fill="none"
    xmlns="http://www.w3.org/2000/svg">
    <path d="M14.7368 0H1.26316C0.566737 0 0 0.580627 0 1.29412V9.05882C0 9.77231 0.566737 10.3529 1.26316 10.3529H14.7368C15.4333 10.3529 16 9.77231 16 9.05882V1.29412C16 0.580627 15.4333 0 14.7368 0ZM14.7368 0.862745C14.7621 0.862745 14.7857 0.865333 14.8101 0.869647L8.46737 5.20149C8.22316 5.368 7.77768 5.368 7.53347 5.20149L1.19074 0.869647C1.21432 0.865333 1.23874 0.862745 1.264 0.862745H14.7377H14.7368ZM14.7368 9.4902H1.26316C1.03074 9.4902 0.842105 9.29694 0.842105 9.05882V1.66855L7.06611 5.91929C7.328 6.09788 7.664 6.18761 8 6.18761C8.336 6.18761 8.672 6.09788 8.9339 5.91929L15.1579 1.66855V9.05882C15.1579 9.29694 14.9693 9.4902 14.7368 9.4902Z" fill="#333333"/>
</svg>
