<?xml version="1.0" encoding="utf-8"?>
<!-- Generator: Adobe Illustrator 23.0.3, SVG Export Plug-In . SVG Version: 6.00 Build 0)  -->
<svg version="1.1" baseProfile="tiny" id="Layer_1" xmlns="http://www.w3.org/2000/svg" xmlns:xlink="http://www.w3.org/1999/xlink"
	 x="0px" y="0px" viewBox="0 0 20 19" xml:space="preserve">
<path fill-rule="evenodd" fill="#A4091C" d="M10.06,17.46c4.47,0,8.1-3.63,8.1-8.1c0-4.47-3.63-8.1-8.1-8.1
	c-4.47,0-8.1,3.63-8.1,8.1C1.96,13.84,5.58,17.46,10.06,17.46z M10.06,18.36c-4.97,0-9-4.03-9-9c0-4.97,4.03-9,9-9
	c4.97,0,9,4.03,9,9C19.06,14.33,15.03,18.36,10.06,18.36z M9.39,5.16l0.13,5.94h1.24l0.12-5.94H9.39z M10.15,14.18
	c0.57,0,0.94-0.38,0.94-0.94c0-0.57-0.38-0.95-0.94-0.95c-0.57,0-0.95,0.38-0.95,0.95C9.2,13.81,9.58,14.18,10.15,14.18z"/>
</svg>
