<?xml version="1.0" encoding="utf-8"?>
<!-- Generator: Adobe Illustrator 23.0.3, SVG Export Plug-In . SVG Version: 6.00 Build 0)  -->
<svg version="1.1" baseProfile="tiny" id="Layer_1" xmlns="http://www.w3.org/2000/svg" xmlns:xlink="http://www.w3.org/1999/xlink"
	 x="0px" y="0px" viewBox="0 0 20 19" xml:space="preserve">
<path fill-rule="evenodd" fill="#FFFFFF" d="M10.1,17.5c4.5,0,8.1-3.6,8.1-8.1s-3.6-8.1-8.1-8.1S2,4.9,2,9.4
	C2,13.8,5.6,17.5,10.1,17.5z M10.1,18.4c-5,0-9-4-9-9s4-9,9-9s9,4,9,9C19.1,14.3,15,18.4,10.1,18.4z M9.4,5.2l0.1,5.9h1.2l0.1-5.9
	C10.9,5.2,9.4,5.2,9.4,5.2z M10.1,14.2c0.6,0,0.9-0.4,0.9-0.9c0-0.6-0.4-0.9-0.9-0.9c-0.6,0-0.9,0.4-0.9,0.9S9.6,14.2,10.1,14.2z"/>
</svg>
