<svg width="16" height="16" viewBox="0 0 16 16" fill="none"
    xmlns="http://www.w3.org/2000/svg">
    <path d="M9.95143 5.19535C10.0697 5.19535 10.1711 5.15312 10.2555 5.06864C10.34 4.98416 10.3823 4.87997 10.3823 4.75607V1.30095C10.3823 0.940514 10.2555 0.63358 10.0021 0.380148C9.74868 0.126716 9.44175 0 9.08131 0H1.30095C0.940514 0 0.63358 0.126716 0.380148 0.380148C0.126716 0.63358 0 0.940514 0 1.30095V11.6832C0 12.0042 0.101373 12.3196 0.304118 12.6294C0.512496 12.9391 0.763112 13.1559 1.05597 13.2798L5.52482 15.1975C5.59803 15.2313 5.67406 15.2566 5.7529 15.2735C5.83175 15.2904 5.90778 15.2988 5.98099 15.2988C6.07673 15.2988 6.16684 15.2848 6.25132 15.2566C6.3358 15.2341 6.41746 15.1975 6.4963 15.1468C6.63147 15.0567 6.73566 14.9356 6.80887 14.7835C6.88208 14.6315 6.91869 14.4625 6.91869 14.2767V12.9757H9.08131C9.44175 12.9757 9.74868 12.849 10.0021 12.5956C10.2555 12.3421 10.3823 12.038 10.3823 11.6832V8.21964C10.3823 8.10137 10.34 8 10.2555 7.91552C10.1711 7.83105 10.0697 7.78881 9.95143 7.78881C9.82753 7.78881 9.72334 7.83105 9.63886 7.91552C9.55438 8 9.51214 8.10137 9.51214 8.21964V11.6832C9.51214 11.8015 9.4699 11.9029 9.38543 11.9873C9.30095 12.0718 9.19958 12.114 9.08131 12.114H6.91869V3.8944C6.91869 3.57339 6.81732 3.25801 6.61457 2.94826C6.41183 2.63851 6.16121 2.41887 5.86272 2.28933L2.54277 0.870116H9.08131C9.19958 0.870116 9.30095 0.912355 9.38543 0.996832C9.4699 1.08131 9.51214 1.18268 9.51214 1.30095V4.75607C9.51214 4.87997 9.55438 4.98416 9.63886 5.06864C9.72334 5.15312 9.82753 5.19535 9.95143 5.19535ZM5.52482 3.08342C5.65998 3.14537 5.78106 3.25801 5.88807 3.42133C6.0007 3.58465 6.05702 3.74234 6.05702 3.8944V14.2767C6.05702 14.3217 6.05139 14.3583 6.04013 14.3865C6.03449 14.409 6.02605 14.4231 6.01478 14.4287C6.00915 14.4287 5.99226 14.4287 5.9641 14.4287C5.93594 14.4287 5.90215 14.4203 5.86272 14.4034L1.39388 12.4857C1.25871 12.4294 1.13481 12.3196 1.02218 12.1563C0.915171 11.993 0.861668 11.8353 0.861668 11.6832V1.30095C0.861668 1.26716 0.864484 1.23337 0.870116 1.19958C0.88138 1.16579 0.895459 1.13481 0.912355 1.10665L5.52482 3.08342ZM15.8733 6.18374L13.2798 3.59029C13.1954 3.50581 13.094 3.46357 12.9757 3.46357C12.8574 3.46357 12.7561 3.50581 12.6716 3.59029C12.5871 3.67476 12.5449 3.77614 12.5449 3.8944C12.5449 4.01267 12.5871 4.11404 12.6716 4.19852L14.5301 6.05702H9.08131C8.96304 6.05702 8.86167 6.09926 8.77719 6.18374C8.69271 6.26822 8.65048 6.36959 8.65048 6.48786C8.65048 6.60612 8.69271 6.7075 8.77719 6.79197C8.86167 6.87645 8.96304 6.91869 9.08131 6.91869H14.5301L12.6716 8.77719C12.5871 8.86167 12.5449 8.96586 12.5449 9.08976C12.5449 9.20802 12.5871 9.3094 12.6716 9.39388C12.711 9.4333 12.7561 9.46427 12.8068 9.4868C12.8631 9.50933 12.9194 9.52059 12.9757 9.52059C13.032 9.52059 13.0855 9.50933 13.1362 9.4868C13.1925 9.46427 13.2404 9.4333 13.2798 9.39388L15.8733 6.79197C15.9578 6.7075 16 6.60612 16 6.48786C16 6.36959 15.9578 6.26822 15.8733 6.18374Z" fill="#333333"/>
</svg>
