<svg width="16" height="16" viewBox="0 0 16 16" fill="none"
    xmlns="http://www.w3.org/2000/svg">
    <path d="M8 0C3.58933 0 0 3.58933 0 8C0 12.4107 3.58933 16 8 16C12.4107 16 16 12.4107 16 8C16 3.58933 12.4107 0 8 0ZM8 1.77778C9.712 1.77778 11.264 2.47289 12.3911 3.59644L2.54044 10.9831C2.05333 10.0978 1.77778 9.08089 1.77778 8C1.77778 4.56889 4.56889 1.77778 8 1.77778ZM8 14.2222C6.288 14.2222 4.736 13.5271 3.60889 12.4036L13.4596 5.01689C13.9449 5.90222 14.2222 6.91911 14.2222 8C14.2222 11.4311 11.4311 14.2222 8 14.2222Z" fill="#666666"/>
</svg>
