<svg width="12" height="11" viewBox="0 0 12 11" fill="none"
    xmlns="http://www.w3.org/2000/svg">
    <path d="M5.717 0.166748C2.77656 0.166748 0.383667 2.55964 0.383667 5.50008C0.383667 8.44053 2.77656 10.8334 5.717 10.8334C8.65744 10.8334 11.0503 8.44053 11.0503 5.50008C11.0503 2.55964 8.65744 0.166748 5.717 0.166748ZM5.717 1.35193C6.85833 1.35193 7.893 1.81534 8.64441 2.56438L2.0773 7.48882C1.75256 6.8986 1.56885 6.22067 1.56885 5.50008C1.56885 3.21267 3.42959 1.35193 5.717 1.35193ZM5.717 9.64823C4.57567 9.64823 3.541 9.18482 2.78959 8.43578L9.3567 3.51134C9.68026 4.10156 9.86515 4.77949 9.86515 5.50008C9.86515 7.78749 8.00441 9.64823 5.717 9.64823Z" fill="white"/>
</svg>
