<svg width="24" height="24" viewBox="0 0 24 24" fill="none" xmlns="http://www.w3.org/2000/svg">
    <path d="M19 21.5C17.622 21.5 16.5 20.378 16.5 19C16.5 17.622 17.622 16.5 19 16.5C20.378 16.5 21.5 17.622 21.5 19C21.5 20.378 20.378 21.5 19 21.5ZM19 17.5C18.173 17.5 17.5 18.173 17.5 19C17.5 19.827 18.173 20.5 19 20.5C19.827 20.5 20.5 19.827 20.5 19C20.5 18.173 19.827 17.5 19 17.5Z" fill="#333333" />
    <path d="M12 21.5C10.622 21.5 9.5 20.378 9.5 19C9.5 17.622 10.622 16.5 12 16.5C13.378 16.5 14.5 17.622 14.5 19C14.5 20.378 13.378 21.5 12 21.5ZM12 17.5C11.173 17.5 10.5 18.173 10.5 19C10.5 19.827 11.173 20.5 12 20.5C12.827 20.5 13.5 19.827 13.5 19C13.5 18.173 12.827 17.5 12 17.5Z" fill="#333333" />
    <path d="M5 21.5C3.622 21.5 2.5 20.378 2.5 19C2.5 17.622 3.622 16.5 5 16.5C6.378 16.5 7.5 17.622 7.5 19C7.5 20.378 6.378 21.5 5 21.5ZM5 17.5C4.173 17.5 3.5 18.173 3.5 19C3.5 19.827 4.173 20.5 5 20.5C5.827 20.5 6.5 19.827 6.5 19C6.5 18.173 5.827 17.5 5 17.5Z" fill="#333333" />
    <path d="M19 14.5C17.622 14.5 16.5 13.378 16.5 12C16.5 10.622 17.622 9.5 19 9.5C20.378 9.5 21.5 10.622 21.5 12C21.5 13.378 20.378 14.5 19 14.5ZM19 10.5C18.173 10.5 17.5 11.173 17.5 12C17.5 12.827 18.173 13.5 19 13.5C19.827 13.5 20.5 12.827 20.5 12C20.5 11.173 19.827 10.5 19 10.5Z" fill="#333333" />
    <path d="M12 14.5C10.622 14.5 9.5 13.378 9.5 12C9.5 10.622 10.622 9.5 12 9.5C13.378 9.5 14.5 10.622 14.5 12C14.5 13.378 13.378 14.5 12 14.5ZM12 10.5C11.173 10.5 10.5 11.173 10.5 12C10.5 12.827 11.173 13.5 12 13.5C12.827 13.5 13.5 12.827 13.5 12C13.5 11.173 12.827 10.5 12 10.5Z" fill="#333333" />
    <path d="M5 14.5C3.622 14.5 2.5 13.378 2.5 12C2.5 10.622 3.622 9.5 5 9.5C6.378 9.5 7.5 10.622 7.5 12C7.5 13.378 6.378 14.5 5 14.5ZM5 10.5C4.173 10.5 3.5 11.173 3.5 12C3.5 12.827 4.173 13.5 5 13.5C5.827 13.5 6.5 12.827 6.5 12C6.5 11.173 5.827 10.5 5 10.5Z" fill="#333333" />
    <path d="M19 7.5C17.622 7.5 16.5 6.378 16.5 5C16.5 3.622 17.622 2.5 19 2.5C20.378 2.5 21.5 3.622 21.5 5C21.5 6.378 20.378 7.5 19 7.5ZM19 3.5C18.173 3.5 17.5 4.173 17.5 5C17.5 5.827 18.173 6.5 19 6.5C19.827 6.5 20.5 5.827 20.5 5C20.5 4.173 19.827 3.5 19 3.5Z" fill="#333333" />
    <path d="M12 7.5C10.622 7.5 9.5 6.378 9.5 5C9.5 3.622 10.622 2.5 12 2.5C13.378 2.5 14.5 3.622 14.5 5C14.5 6.378 13.378 7.5 12 7.5ZM12 3.5C11.173 3.5 10.5 4.173 10.5 5C10.5 5.827 11.173 6.5 12 6.5C12.827 6.5 13.5 5.827 13.5 5C13.5 4.173 12.827 3.5 12 3.5Z" fill="#333333" />
    <path d="M5 7.5C3.622 7.5 2.5 6.378 2.5 5C2.5 3.622 3.622 2.5 5 2.5C6.378 2.5 7.5 3.622 7.5 5C7.5 6.378 6.378 7.5 5 7.5ZM5 3.5C4.173 3.5 3.5 4.173 3.5 5C3.5 5.827 4.173 6.5 5 6.5C5.827 6.5 6.5 5.827 6.5 5C6.5 4.173 5.827 3.5 5 3.5Z" fill="#333333" />
</svg>
    