<svg viewBox="0 0 24 24" fill="none" xmlns="http://www.w3.org/2000/svg" class="_Icon_6l72i_1 accordion-icon" data-icon-name="Temperature" data-testid="rental.amenities.amenities-picker.category-heatingandcooling.accordion.icon">
    <g clip-path="url(#a)" fill="#333333">
        <path d="M6.6 19.2c-.742 0-1.416-.337-2.069-.664C3.98 18.26 3.458 18 3 18c-.774 0-1.69.74-1.976 1.025a.6.6 0 0 1-.849-.85C.315 18.035 1.591 16.8 3 16.8c.742 0 1.416.337 2.069.663C5.62 17.74 6.142 18 6.6 18a.6.6 0 0 1 0 1.2ZM22.2 19.2a.6.6 0 0 1-.424-.175C21.488 18.739 20.574 18 19.8 18c-.458 0-.98.26-1.531.536-.652.327-1.327.664-2.069.664a.6.6 0 0 1 0-1.2c.458 0 .98-.26 1.531-.537.652-.326 1.327-.663 2.069-.663 1.408 0 2.683 1.235 2.825 1.375a.6.6 0 0 1-.425 1.024ZM17.4 24c-.781 0-1.34-.372-1.832-.701-.402-.268-.75-.5-1.168-.5-.419 0-.766.232-1.168.5-.493.329-1.05.7-1.832.7-.781 0-1.343-.372-1.838-.702-.402-.268-.75-.498-1.162-.498-.413 0-.76.23-1.162.498-.494.328-1.056.703-1.838.703-1.408 0-2.683-1.235-2.825-1.375a.6.6 0 0 1 .847-.85C3.71 22.061 4.625 22.8 5.4 22.8c.42 0 .769-.233 1.173-.502.492-.327 1.052-.7 1.827-.7.775 0 1.334.373 1.826.7.405.269.754.502 1.174.502.419 0 .765-.232 1.167-.5.494-.328 1.052-.7 1.833-.7.781 0 1.34.372 1.832.7.402.268.749.5 1.168.5.774 0 1.69-.74 1.976-1.025a.6.6 0 0 1 .849.85c-.14.14-1.416 1.375-2.825 1.375h.001ZM16.2 9.6a.6.6 0 0 0 0-1.2h-3V6h3a.6.6 0 0 0 0-1.2h-3v-3c0-.992-.808-1.8-1.8-1.8S9.6.808 9.6 1.8V15a3.013 3.013 0 0 0-1.2 2.4c0 1.654 1.346 3 3 3s3-1.346 3-3c0-.947-.452-1.837-1.2-2.4v-1.8h3a.6.6 0 0 0 0-1.2h-3V9.6h3Zm-4.8 9.6c-.992 0-1.8-.808-1.8-1.8 0-.638.342-1.234.894-1.555l.022-.013a.6.6 0 0 0 .284-.51V1.8a.6.6 0 0 1 1.2 0v13.517a.593.593 0 0 0 .3.523 1.802 1.802 0 0 1-.9 3.36Z"></path>
    </g>
    <defs>
        <clipPath id="a">
            <path fill="#fff" d="M0 0h24v24H0z"></path>
        </clipPath>
    </defs>
</svg>