<svg viewBox="0 0 24 24" fill="none" xmlns="http://www.w3.org/2000/svg" class="_Icon_6l72i_1 accordion-icon" data-icon-name="FirstAid" data-testid="rental.amenities.amenities-picker.category-homesafety.accordion.icon">
    <path fill="#333333" d="M13.8 19.2h-3.6a.6.6 0 0 1-.6-.6v-1.8H7.8a.6.6 0 0 1-.6-.6v-3.6a.6.6 0 0 1 .6-.6h1.8v-1.8a.6.6 0 0 1 .6-.6h3.6a.6.6 0 0 1 .6.6V12h1.8a.6.6 0 0 1 .6.6v3.6a.6.6 0 0 1-.6.6h-1.8v1.8a.6.6 0 0 1-.6.6Zm-3-1.2h2.4v-1.8a.6.6 0 0 1 .6-.6h1.8v-2.4h-1.8a.6.6 0 0 1-.6-.6v-1.8h-2.4v1.8a.6.6 0 0 1-.6.6H8.4v2.4h1.8a.6.6 0 0 1 .6.6V18Z"></path>
    <path fill="#333333" d="M22.2 6h-5.4V4.2c0-.993-.808-1.8-1.8-1.8H9c-.992 0-1.8.808-1.8 1.8V6H1.8C.808 6 0 6.808 0 7.8V21c0 .992.808 1.8 1.8 1.8h20.4c.992 0 1.8-.808 1.8-1.8V7.8c0-.992-.808-1.8-1.8-1.8ZM8.4 4.2a.6.6 0 0 1 .6-.6h6a.6.6 0 0 1 .6.6V6H8.4V4.2ZM22.8 21a.6.6 0 0 1-.6.6H1.8a.6.6 0 0 1-.6-.6V7.8a.6.6 0 0 1 .6-.6h20.4a.6.6 0 0 1 .6.6V21Z"></path>
</svg>