<svg width="20" height="18" viewBox="0 0 20 18" fill="none" xmlns="http://www.w3.org/2000/svg">
    <path d="M19.8724 10.1925L11.0449 0.46728C10.9081 0.31152 10.7486 0.1947 10.5664 0.11682C10.3906 0.03894 10.2018 0 10 0C9.79819 0 9.60614 0.03894 9.42387 0.11682C9.2481 0.1947 9.09186 0.31152 8.95515 0.46728L0.127596 10.1925C0.036456 10.2964 -0.00585899 10.4164 0.000650999 10.5527C0.00716099 10.689 0.0624959 10.8026 0.166656 10.8935C0.212226 10.9389 0.264306 10.9746 0.322896 11.0005C0.381486 11.02 0.440075 11.0297 0.498665 11.0297C0.570275 11.0297 0.63863 11.0168 0.70373 10.9908C0.76883 10.9584 0.824165 10.9162 0.869735 10.8643L2.9985 8.51812V16.5105C2.9985 16.9194 3.14498 17.2699 3.43793 17.5619C3.73088 17.854 4.08567 18 4.50231 18H15.4977C15.9143 18 16.2691 17.854 16.5621 17.5619C16.855 17.2699 17.0015 16.9194 17.0015 16.5105V8.51812L19.1303 10.8643C19.2214 10.9616 19.3353 11.0168 19.472 11.0297C19.6087 11.0362 19.7292 10.9908 19.8333 10.8935C19.9375 10.8026 19.9928 10.689 19.9993 10.5527C20.0059 10.4164 19.9635 10.2964 19.8724 10.1925ZM12.0018 17.007H7.99818V12.5192C7.99818 12.3829 8.047 12.2661 8.14465 12.1687C8.2423 12.0714 8.35948 12.0227 8.49619 12.0227H11.5038C11.6405 12.0227 11.7577 12.0714 11.8553 12.1687C11.953 12.2661 12.0018 12.3829 12.0018 12.5192V17.007ZM15.9957 16.5105C15.9957 16.6468 15.9469 16.7637 15.8492 16.861C15.7516 16.9584 15.6344 17.007 15.4977 17.007H12.9979V12.5192C12.9979 12.1103 12.8514 11.7599 12.5584 11.4678C12.2655 11.1758 11.9139 11.0297 11.5038 11.0297H8.49619C8.08606 11.0297 7.73452 11.1758 7.44157 11.4678C7.14862 11.7599 7.00215 12.1103 7.00215 12.5192V17.007H4.50231C4.3656 17.007 4.24842 16.9584 4.15077 16.861C4.05312 16.7637 4.0043 16.6468 4.0043 16.5105V7.41806L9.69728 1.12926C9.74286 1.08383 9.78842 1.05138 9.83399 1.03191C9.88608 1.00595 9.94141 0.992969 10 0.992969C10.0586 0.992969 10.1107 1.00595 10.1562 1.03191C10.2083 1.05138 10.2571 1.08383 10.3027 1.12926L15.9957 7.41806V16.5105Z" fill="#666666"/>
    </svg>
    