<svg width="18" height="18" viewBox="0 0 18 18" fill="none" xmlns="http://www.w3.org/2000/svg">
<path fill-rule="evenodd" clip-rule="evenodd" d="M9 0.899999C4.52625 0.899999 0.900001 4.52625 0.900001 9C0.9 13.4737 4.52625 17.1 9 17.1C13.4737 17.1 17.1 13.4738 17.1 9C17.1 4.52625 13.4738 0.9 9 0.899999ZM9 -7.86805e-07C13.9706 -3.52259e-07 18 4.02938 18 9C18 13.9706 13.9706 18 9 18C4.02937 18 -1.22135e-06 13.9706 -7.86805e-07 9C-3.52259e-07 4.02937 4.02938 -1.22135e-06 9 -7.86805e-07ZM9.66075 13.2037L9.53138 7.26075L8.28863 7.26075L8.16562 13.2041L9.66075 13.2037ZM8.904 4.17862C8.33775 4.17862 7.96275 4.55362 7.96275 5.1135C7.96275 5.68575 8.33775 6.06112 8.904 6.06112C9.47587 6.06112 9.85763 5.68612 9.85763 5.1135C9.85763 4.55362 9.47587 4.17862 8.904 4.17862Z" fill="#666666"/>
</svg>
