<svg viewBox="0 0 24 24" fill="none" xmlns="http://www.w3.org/2000/svg" class="_Icon_6l72i_1 accordion-icon" data-icon-name="Wifi" data-testid="rental.amenities.amenities-picker.category-internetandoffice.accordion.icon">
    <path fill="#333333" d="M12.6 19.2c-.992 0-1.8-.808-1.8-1.8s.808-1.8 1.8-1.8 1.8.808 1.8 1.8-.808 1.8-1.8 1.8Zm0-2.4a.6.6 0 1 0 0 1.2.6.6 0 0 0 0-1.2ZM8.464 15.562a.6.6 0 0 1-.516-.906 5.403 5.403 0 0 1 9.302 0 .6.6 0 1 1-1.033.61 4.222 4.222 0 0 0-3.62-2.066c-1.479 0-2.865.792-3.619 2.066a.6.6 0 0 1-.517.296h.003Z"></path>
    <path fill="#333333" d="M19.328 12.97a.602.602 0 0 1-.48-.24A7.741 7.741 0 0 0 12.6 9.6a7.738 7.738 0 0 0-6.247 3.13.6.6 0 1 1-.96-.72 9.093 9.093 0 0 1 3.113-2.627 8.903 8.903 0 0 1 4.094-.984 8.9 8.9 0 0 1 4.094.984 9.067 9.067 0 0 1 3.113 2.627.6.6 0 0 1-.479.96Z"></path>
    <path fill="#333333" d="M21.892 10.405a.6.6 0 0 1-.465-.22A11.365 11.365 0 0 0 12.6 6c-3.433 0-6.65 1.525-8.827 4.186a.6.6 0 1 1-.929-.761A12.562 12.562 0 0 1 12.6 4.799c3.794 0 7.35 1.686 9.756 4.626a.601.601 0 0 1-.463.98h-.001Z"></path>
</svg>