<svg viewBox="0 0 50 50" fill="none" xmlns="http://www.w3.org/2000/svg" class="_Icon_6l72i_1 ulBWKIkVgrROnszsWOGq" data-icon-name="Kitchen">
    <path fill-rule="evenodd" clip-rule="evenodd" d="M19.6048 2.5H9.34672C8.76607 2.5 8.37898 2.87825 8.37898 3.44563C8.37898 4.013 8.76607 4.39125 9.34672 4.39125H19.6048C20.1854 4.39125 20.5725 4.013 20.5725 3.44563C20.5725 2.87825 20.1854 2.5 19.6048 2.5ZM45.4432 5.14775H4.60452C3.54001 5.14775 2.57227 5.99881 2.57227 7.13356V44.9586C2.57227 46.0934 3.44323 46.9444 4.60452 46.9444H5.66904V51.4834C5.66904 52.0508 6.05614 52.4291 6.63678 52.4291H43.411C43.9916 52.4291 44.3787 52.0508 44.3787 51.4834V46.9444H45.4432C46.5078 46.9444 47.4755 46.0934 47.4755 44.9586V7.13356C47.4755 6.09337 46.6045 5.14775 45.4432 5.14775ZM42.4429 50.5378H7.60421V46.9444H42.4429V50.5378ZM43.4113 45.0532H45.4436L45.5403 11.4835H4.50808V44.9586C4.50808 45.0532 4.60485 45.0532 4.60485 45.0532H6.63711H43.4113ZM45.6371 9.59219H4.50808L4.60485 7.13356H45.5403C45.5403 7.13356 45.6371 7.13356 45.6371 7.22813V9.59219ZM40.3432 22.5H9.55884C8.48041 22.5 7.50002 23.1377 7.50002 23.9879V38.5121C7.50002 39.2915 8.38237 40 9.55884 40H40.4412C41.5196 40 42.5 39.3624 42.5 38.5121V23.9879C42.402 23.1377 41.5196 22.5 40.3432 22.5ZM9.46083 38.583C9.46083 38.583 9.36279 38.583 9.36279 38.5121V23.9879C9.36279 23.9879 9.36279 23.917 9.46083 23.917H40.3432C40.3432 23.917 40.4412 23.917 40.4412 23.9879V38.5121L9.46083 38.583ZM14.4753 14.9291C12.7334 14.9291 11.3785 16.253 11.3785 17.9551C11.3785 19.5627 12.7334 20.9811 14.4753 20.9811C16.2172 20.9811 17.5721 19.6572 17.5721 17.9551C17.5721 16.253 16.2172 14.9291 14.4753 14.9291ZM32.4757 17.9551C32.4757 16.253 33.8305 14.9291 35.5725 14.9291C37.3144 14.9291 38.6692 16.253 38.6692 17.9551C38.6692 19.6572 37.3144 20.9811 35.5725 20.9811C33.9273 20.9811 32.5725 19.5627 32.4757 17.9551ZM30.4431 2.5H40.7012C41.2819 2.5 41.669 2.87825 41.669 3.44563C41.669 4.013 41.2819 4.39125 40.7012 4.39125H30.4431C29.9593 4.39125 29.4754 4.013 29.4754 3.44563C29.4754 2.87825 29.8625 2.5 30.4431 2.5Z" fill="currentColor"></path>
</svg>