<svg viewBox="0 0 24 24" fill="none" xmlns="http://www.w3.org/2000/svg" class="_Icon_6l72i_1 accordion-icon" data-icon-name="Utensils" data-testid="rental.amenities.amenities-picker.category-kitchenanddining.accordion.icon" width="24" height="24">
    <path fill-rule="evenodd" clip-rule="evenodd" d="M10.2 0C10.531 0 10.8 0.269 10.8 0.6L10.803 0.602C10.803 2.031 11.088 3.267 11.317 4.259L11.317 4.26L11.318 4.263C11.627 5.603 11.872 6.661 11.243 7.451C10.774 8.04 9.921 8.33 8.439 8.39C8.574 11.733 9.058 14.609 9.459 16.99L9.46 16.997C9.995 20.172 10.348 22.27 9.445 23.338C9.072 23.779 8.519 24.004 7.801 24.004C7.084 24.004 6.531 23.779 6.157 23.338C5.255 22.271 5.608 20.176 6.143 17.003C6.545 14.618 7.03 11.738 7.164 8.39C5.686 8.328 4.833 8.036 4.365 7.448C3.735 6.656 3.978 5.596 4.288 4.254L4.289 4.248C4.517 3.258 4.8 2.026 4.8 0.602C4.8 0.271 5.069 0.002 5.4 0.002C5.731 0.002 6 0.271 6 0.602C6 2.165 5.699 3.473 5.457 4.523L5.456 4.525C5.22 5.55 5.033 6.36 5.303 6.7C5.526 6.98 6.162 7.145 7.195 7.189C7.199 6.995 7.2 6.799 7.2 6.601V1.801C7.2 1.47 7.469 1.201 7.8 1.201C8.131 1.201 8.4 1.47 8.4 1.801V6.601C8.4 6.798 8.403 6.995 8.405 7.189C9.442 7.146 10.079 6.983 10.302 6.702C10.57 6.364 10.384 5.554 10.146 4.529C9.903 3.476 9.6 2.167 9.6 0.6C9.6 0.269 9.869 0 10.2 0ZM7.8 22.8C8.269 22.8 8.44 22.662 8.527 22.559L8.528 22.561C9.071 21.918 8.702 19.729 8.275 17.195L8.269 17.159C8.117 16.254 7.954 15.282 7.801 14.239C7.646 15.298 7.481 16.285 7.326 17.2C6.899 19.732 6.53 21.918 7.073 22.56C7.16 22.663 7.331 22.8 7.8 22.8ZM19.2 6.6C19.201 10.717 19.787 14.197 20.259 16.994C20.794 20.17 21.147 22.267 20.244 23.335C19.871 23.777 19.318 24.001 18.6 24.001C17.883 24.001 17.329 23.777 16.956 23.335C16.054 22.268 16.407 20.173 16.942 17C17.191 15.523 17.472 13.854 17.682 12.001H15C14.823 12.001 14.653 11.922 14.539 11.785C14.425 11.648 14.377 11.468 14.41 11.293C14.46 11.02 15.657 4.543 18.079 0.302C18.214 0.066 18.491 -0.049 18.754 0.02C19.017 0.09 19.2 0.328 19.2 0.6V6.6ZM15.733 10.8C16.031 9.395 16.792 6.136 18 3.22V6.6C18 8.083 17.925 9.484 17.805 10.8H15.733ZM18.6 22.8C19.069 22.8 19.24 22.662 19.327 22.559L19.328 22.561C19.871 21.918 19.502 19.729 19.075 17.195C18.922 16.282 18.756 15.296 18.601 14.239C18.446 15.298 18.281 16.285 18.126 17.2C17.699 19.732 17.33 21.918 17.873 22.56C17.96 22.663 18.131 22.8 18.6 22.8Z" fill="currentColor" />
    <mask id="mask0" maskUnits="userSpaceOnUse" x="8" y="0" width="36" height="51">
        <path fill-rule="evenodd" clip-rule="evenodd" d="M10.2 0C10.531 0 10.8 0.269 10.8 0.6L10.803 0.602C10.803 2.031 11.088 3.267 11.317 4.259L11.317 4.26L11.318 4.263C11.627 5.603 11.872 6.661 11.243 7.451C10.774 8.04 9.921 8.33 8.439 8.39C8.574 11.733 9.058 14.609 9.459 16.99L9.46 16.997C9.995 20.172 10.348 22.27 9.445 23.338C9.072 23.779 8.519 24.004 7.801 24.004C7.084 24.004 6.531 23.779 6.157 23.338C5.255 22.271 5.608 20.176 6.143 17.003C6.545 14.618 7.03 11.738 7.164 8.39C5.686 8.328 4.833 8.036 4.365 7.448C3.735 6.656 3.978 5.596 4.288 4.254L4.289 4.248C4.517 3.258 4.8 2.026 4.8 0.602C4.8 0.271 5.069 0.002 5.4 0.002C5.731 0.002 6 0.271 6 0.602C6 2.165 5.699 3.473 5.457 4.523L5.456 4.525C5.22 5.55 5.033 6.36 5.303 6.7C5.526 6.98 6.162 7.145 7.195 7.189C7.199 6.995 7.2 6.799 7.2 6.601V1.801C7.2 1.47 7.469 1.201 7.8 1.201C8.131 1.201 8.4 1.47 8.4 1.801V6.601C8.4 6.798 8.403 6.995 8.405 7.189C9.442 7.146 10.079 6.983 10.302 6.702C10.57 6.364 10.384 5.554 10.146 4.529C9.903 3.476 9.6 2.167 9.6 0.6C9.6 0.269 9.869 0 10.2 0ZM7.8 22.8C8.269 22.8 8.44 22.662 8.527 22.559L8.528 22.561C9.071 21.918 8.702 19.729 8.275 17.195L8.269 17.159C8.117 16.254 7.954 15.282 7.801 14.239C7.646 15.298 7.481 16.285 7.326 17.2C6.899 19.732 6.53 21.918 7.073 22.56C7.16 22.663 7.331 22.8 7.8 22.8ZM19.2 6.6C19.201 10.717 19.787 14.197 20.259 16.994C20.794 20.17 21.147 22.267 20.244 23.335C19.871 23.777 19.318 24.001 18.6 24.001C17.883 24.001 17.329 23.777 16.956 23.335C16.054 22.268 16.407 20.173 16.942 17C17.191 15.523 17.472 13.854 17.682 12.001H15C14.823 12.001 14.653 11.922 14.539 11.785C14.425 11.648 14.377 11.468 14.41 11.293C14.46 11.02 15.657 4.543 18.079 0.302C18.214 0.066 18.491 -0.049 18.754 0.02C19.017 0.09 19.2 0.328 19.2 0.6V6.6ZM15.733 10.8C16.031 9.395 16.792 6.136 18 3.22V6.6C18 8.083 17.925 9.484 17.805 10.8H15.733ZM18.6 22.8C19.069 22.8 19.24 22.662 19.327 22.559L19.328 22.561C19.871 21.918 19.502 19.729 19.075 17.195C18.922 16.282 18.756 15.296 18.601 14.239C18.446 15.298 18.281 16.285 18.126 17.2C17.699 19.732 17.33 21.918 17.873 22.56C17.96 22.663 18.131 22.8 18.6 22.8Z" fill="white" />
    </mask>
    <g mask="url(#mask0)" />
</svg>