<svg viewBox="0 0 50 50" fill="none" xmlns="http://www.w3.org/2000/svg" class="_Icon_6l72i_1 ulBWKIkVgrROnszsWOGq" data-icon-name="Sofa">
    <path fill-rule="evenodd" clip-rule="evenodd" d="M44.9825 17.6225C44.79 11.3425 42.9575 7.325 39.2525 5.03C35.8475 2.9225 31.275 2.5 25 2.5C18.725 2.5 14.1525 2.9225 10.7475 5.03C7.0425 7.3225 5.21 11.34 5.0175 17.6225C2.16 18.1975 0 20.725 0 23.75C0 26.7675 2.15 29.2925 5 29.875V41.25C5 43.3175 6.6825 45 8.75 45C8.06 45 7.5 45.56 7.5 46.25C7.5 46.94 8.06 47.5 8.75 47.5H11.25C11.94 47.5 12.5 46.94 12.5 46.25C12.5 45.56 11.94 45 11.25 45H38.75C38.06 45 37.5 45.56 37.5 46.25C37.5 46.94 38.06 47.5 38.75 47.5H41.25C41.94 47.5 42.5 46.94 42.5 46.25C42.5 45.56 41.94 45 41.25 45C43.3175 45 45 43.3175 45 41.25V29.875C47.85 29.295 50 26.77 50 23.75C50 20.725 47.84 18.1975 44.9825 17.6225ZM12.0648 7.1575C14.9648 5.3625 19.1648 5 24.9998 5C30.8348 5 35.0348 5.36 37.9348 7.1575C40.8498 8.9625 42.3073 12.305 42.4798 17.63C39.6398 18.2175 37.4973 20.7375 37.4973 23.75V27.5H12.4973V23.75C12.4973 20.7375 10.3548 18.2175 7.51479 17.63C7.68979 12.305 9.14729 8.9625 12.0598 7.1575H12.0648ZM37.5 33.75V30H12.5V33.75C12.5 34.44 13.06 35 13.75 35H36.25C36.94 35 37.5 34.44 37.5 33.75ZM43.75 27.5C43.06 27.5 42.5 28.06 42.5 28.75V41.25C42.5 41.94 41.94 42.5 41.25 42.5H8.75C8.06 42.5 7.5 41.94 7.5 41.25V28.75C7.5 28.06 6.94 27.5 6.25 27.5C4.1825 27.5 2.5 25.8175 2.5 23.75C2.5 21.6825 4.1825 20 6.25 20C8.3175 20 10 21.6825 10 23.75V33.75C10 35.8175 11.6825 37.5 13.75 37.5H36.25C38.3175 37.5 40 35.8175 40 33.75V23.75C40 21.6825 41.6825 20 43.75 20C45.8175 20 47.5 21.6825 47.5 23.75C47.5 25.8175 45.8175 27.5 43.75 27.5ZM37.5 15H38.75C39.44 15 40 15.56 40 16.25C40 16.94 39.44 17.5 38.75 17.5H37.5C34.7425 17.5 32.5 19.7425 32.5 22.5V23.75C32.5 24.44 31.94 25 31.25 25C30.56 25 30 24.44 30 23.75V22.5C30 19.7425 27.7575 17.5 25 17.5C22.2425 17.5 20 19.7425 20 22.5V23.75C20 24.44 19.44 25 18.75 25C18.06 25 17.5 24.44 17.5 23.75V22.5C17.5 19.7425 15.2575 17.5 12.5 17.5H11.25C10.56 17.5 10 16.94 10 16.25C10 15.56 10.56 15 11.25 15H12.5C15.2575 15 17.5 12.7575 17.5 10V8.75C17.5 8.06 18.06 7.5 18.75 7.5C19.44 7.5 20 8.06 20 8.75V10C20 12.7575 22.2425 15 25 15C27.7575 15 30 12.7575 30 10V8.75C30 8.06 30.56 7.5 31.25 7.5C31.94 7.5 32.5 8.06 32.5 8.75V10C32.5 12.7575 34.7425 15 37.5 15ZM18.7496 18.36C18.1946 17.525 17.4771 16.8075 16.6396 16.25C17.4746 15.695 18.1921 14.9775 18.7496 14.14C19.3046 14.975 20.0221 15.6925 20.8596 16.25C20.0246 16.805 19.3046 17.5225 18.7496 18.36ZM29.1396 16.25C29.9771 16.8075 30.6946 17.525 31.2496 18.36C31.8046 17.5225 32.5246 16.805 33.3596 16.25C32.5221 15.6925 31.8046 14.975 31.2496 14.14C30.6946 14.9775 29.9746 15.695 29.1396 16.25Z" fill="currentColor"></path>
</svg>