<svg viewBox="0 0 24 24" fill="none" xmlns="http://www.w3.org/2000/svg" class="_Icon_6l72i_1 accordion-icon" data-icon-name="Landscape" data-testid="rental.amenities.amenities-picker.category-locationfeatures.accordion.icon">
    <g clip-path="url(#a)" fill="#333333">
        <path d="m23.856 15.81-2.819-3.29a1.68 1.68 0 0 0-1.235-.594c-.469-.01-.927.188-1.258.542l-2.44 2.614a4.207 4.207 0 0 0-3.503-1.882c-.924 0-1.8.294-2.534.85a4.248 4.248 0 0 0-1.103 1.251l-2.332-2.768a1.647 1.647 0 0 0-1.23-.599 1.64 1.64 0 0 0-1.248.565L.151 17.003a.6.6 0 1 0 .898.797l4.003-4.504a.436.436 0 0 1 .334-.162.44.44 0 0 1 .328.172l8.828 10.482a.6.6 0 0 0 .918-.773l-2.428-2.883 3.307-3.542a.559.559 0 0 0 .12-.13l2.962-3.172a.477.477 0 0 1 .356-.162c.13.002.255.064.35.176l2.818 3.29a.6.6 0 1 0 .911-.782Zm-14.048.492A3.02 3.02 0 0 1 12.6 14.4a3.02 3.02 0 0 1 2.65 1.595l-2.997 3.211-2.445-2.904Z"></path>
        <path d="M12.6 12a.6.6 0 0 1-.6-.6v-1.2a.6.6 0 0 1 1.2 0v1.2a.6.6 0 0 1-.6.6ZM15.6 13.2a.6.6 0 0 1-.425-1.024l1.2-1.2a.6.6 0 0 1 .849.849l-1.2 1.2a.598.598 0 0 1-.425.175h.001ZM9.6 13.2a.603.603 0 0 1-.425-.175l-1.2-1.2a.6.6 0 0 1 .849-.849l1.2 1.2a.6.6 0 0 1-.425 1.025L9.6 13.2ZM17.392 2.405a.593.593 0 0 1-.592-.601.9.9 0 0 0-.098-.358c-.068-.121-.18-.246-.502-.246a.6.6 0 0 1 0-1.2c.749 0 1.226.346 1.5.776C18.232.404 18.994 0 19.8 0a.6.6 0 0 1 0 1.2c-.774 0-1.69.74-1.976 1.025a.614.614 0 0 1-.432.18ZM10.8 2.4c-.068 0-.136.004-.203.008A3.606 3.606 0 0 0 7.2 0C6.04 0 4.955.569 4.284 1.49A2.996 2.996 0 0 0 3 1.2c-1.654 0-3 1.346-3 3s1.346 3 3 3h7.8c1.324 0 2.4-1.076 2.4-2.4 0-1.324-1.076-2.4-2.4-2.4Zm0 3.6H3c-.992 0-1.8-.808-1.8-1.8S2.008 2.4 3 2.4c.516 0 1.008.222 1.35.61a.6.6 0 1 0 .9-.795l-.006-.006A2.413 2.413 0 0 1 7.2 1.2c1.324 0 2.4 1.076 2.4 2.4a.6.6 0 0 0 1.2 0c.661 0 1.2.539 1.2 1.2 0 .661-.539 1.2-1.2 1.2ZM20.992 4.805a.593.593 0 0 1-.592-.601.9.9 0 0 0-.098-.358c-.068-.121-.18-.246-.502-.246a.6.6 0 0 1 0-1.2c.749 0 1.226.345 1.5.776.532-.372 1.294-.776 2.1-.776a.6.6 0 0 1 0 1.2c-.774 0-1.69.74-1.976 1.025a.614.614 0 0 1-.432.18ZM17.392 8.405a.593.593 0 0 1-.592-.601.9.9 0 0 0-.098-.358c-.068-.121-.18-.246-.502-.246a.6.6 0 0 1 0-1.2c.749 0 1.226.346 1.5.776.532-.372 1.294-.776 2.1-.776a.6.6 0 0 1 0 1.2c-.774 0-1.69.74-1.976 1.025a.614.614 0 0 1-.432.18Z"></path>
    </g>
    <defs>
        <clipPath id="a">
            <path fill="#fff" d="M0 0h24v24H0z"></path>
        </clipPath>
    </defs>
</svg>