<svg width="12" height="16" viewBox="0 0 12 16" fill="none"
    xmlns="http://www.w3.org/2000/svg">
    <path fill-rule="evenodd" clip-rule="evenodd" d="M6.32958 14.4194C7.02088 13.6113 7.71213 12.751 8.35584 11.877C8.92644 11.1023 9.43205 10.3533 9.85503 9.64546C10.7258 8.18814 11.2 6.97631 11.2 6.15385C11.2 3.19253 8.86728 0.8 6 0.8C3.13272 0.8 0.8 3.19253 0.8 6.15385C0.8 6.97631 1.27417 8.18814 2.14497 9.64546C2.56795 10.3533 3.07356 11.1023 3.64415 11.877C4.28786 12.751 4.97912 13.6113 5.67042 14.4194C5.78436 14.5526 5.89443 14.6799 6 14.8006C6.10557 14.6799 6.21564 14.5526 6.32958 14.4194ZM6 16C6 16 0 9.55252 0 6.15385C0 2.75517 2.68629 0 6 0C9.31371 0 12 2.75517 12 6.15385C12 9.55252 6 16 6 16Z" fill="#333333"/>
</svg>
