<svg width="17" height="16" viewBox="0 0 17 16" fill="none" xmlns="http://www.w3.org/2000/svg">
    <path fill-rule="evenodd" clip-rule="evenodd" d="M14.8059 6.09334C14.7125 6.1868 14.4747 6.28489 14.3433 6.28489H13.4179C13.0385 6.28489 12.5694 6.47921 12.301 6.74755L9.71658 9.33202C9.44823 9.60037 9.25391 10.0695 9.25391 10.4489V11.3742C9.25391 11.5056 9.15582 11.7434 9.06236 11.8369L8.79217 12.1071H8.79124V12.108L3.89343 7.21022L4.16456 6.9391C4.25801 6.84564 4.49583 6.74755 4.62722 6.74755H5.55256C5.93195 6.74755 6.40109 6.55323 6.66944 6.28489L9.25391 3.70042C9.52226 3.43207 9.71658 2.96293 9.71658 2.58354V1.6582C9.71658 1.5268 9.81466 1.28899 9.90812 1.19553L10.1792 0.924409L15.0771 5.82222L14.8059 6.09334ZM2.99327 13.0084L5.33715 9.96125L6.0404 10.6645L2.99327 13.0084ZM15.7314 5.16799L10.8335 0.270183C10.6596 0.0971451 10.4264 -1.52588e-05 10.1793 -1.52588e-05C9.93227 -1.52588e-05 9.69908 0.0971451 9.52512 0.270183L9.254 0.541307C8.98565 0.809654 8.79133 1.2788 8.79133 1.65819V2.58353C8.79133 2.71492 8.69324 2.95273 8.59978 3.04619L6.01532 5.63066C5.92186 5.72412 5.68405 5.8222 5.55265 5.8222H4.62731C4.24792 5.8222 3.77878 6.01652 3.51043 6.28487L3.23931 6.556C2.87843 6.91688 2.87843 7.50354 3.23931 7.86442L4.67635 9.30147L0.0959369 15.256C-0.0456396 15.4402 -0.0289836 15.7011 0.135726 15.8658C0.225484 15.9546 0.343927 16 0.463296 16C0.562307 16 0.661318 15.9685 0.745523 15.9037L6.70007 11.3233L8.13712 12.7604C8.31108 12.9343 8.54426 13.0306 8.79133 13.0306C9.03839 13.0306 9.27158 12.9343 9.44554 12.7604L9.71667 12.4893C9.98501 12.2209 10.1793 11.7518 10.1793 11.3724V10.447C10.1793 10.3156 10.2774 10.0778 10.3709 9.98437L12.9553 7.3999C13.0488 7.30644 13.2866 7.20836 13.418 7.20836H14.3433C14.7227 7.20836 15.1919 7.01404 15.4602 6.74569L15.7314 6.47457C15.9053 6.3006 16.0016 6.06742 16.0016 5.82035C16.0016 5.57329 15.9053 5.3401 15.7314 5.16614V5.16799Z" fill="#666666"/>
    </svg>
    