<svg width="16" height="16" viewBox="0 0 16 16" fill="none" xmlns="http://www.w3.org/2000/svg">
    <path d="M8.39844 0H5.20312C5.08854 0 4.99219 0.0390625 4.91406 0.117188C4.83594 0.195312 4.79688 0.291667 4.79688 0.40625V4.875C4.56771 4.95312 4.3776 5.09635 4.22656 5.30469C4.07552 5.50781 4 5.73958 4 6C4 6.33333 4.11719 6.61719 4.35156 6.85156C4.58594 7.08594 4.86979 7.20312 5.20312 7.20312C5.53125 7.20312 5.8125 7.08594 6.04688 6.85156C6.28125 6.61719 6.39844 6.33333 6.39844 6C6.39844 5.73958 6.32292 5.50781 6.17188 5.30469C6.02083 5.09635 5.83073 4.95312 5.60156 4.875V2.40625H8.39844C8.50781 2.40625 8.60156 2.36719 8.67969 2.28906C8.75781 2.21094 8.79688 2.11458 8.79688 2V0.40625C8.79688 0.291667 8.75781 0.195312 8.67969 0.117188C8.60156 0.0390625 8.50781 0 8.39844 0ZM5.20312 6.40625C5.08854 6.40625 4.99219 6.36719 4.91406 6.28906C4.83594 6.21094 4.79688 6.11458 4.79688 6C4.79688 5.89062 4.83594 5.79688 4.91406 5.71875C4.99219 5.64062 5.08854 5.60156 5.20312 5.60156C5.3125 5.60156 5.40625 5.64062 5.48438 5.71875C5.5625 5.79688 5.60156 5.89062 5.60156 6C5.60156 6.11458 5.5625 6.21094 5.48438 6.28906C5.40625 6.36719 5.3125 6.40625 5.20312 6.40625ZM8 1.60156H5.60156V0.804688H8V1.60156ZM15.2734 5.5625C15.1276 5.19271 14.9609 4.86719 14.7734 4.58594C14.5911 4.29948 14.388 4.0599 14.1641 3.86719C13.9141 3.64844 13.638 3.48438 13.3359 3.375C13.0391 3.26042 12.7214 3.20312 12.3828 3.20312H6.79688C6.6875 3.20312 6.59375 3.24219 6.51562 3.32031C6.4375 3.39844 6.39844 3.49219 6.39844 3.60156C6.39844 3.71094 6.4375 3.80469 6.51562 3.88281C6.59375 3.96094 6.6875 4 6.79688 4H12.3828C12.9401 4 13.3984 4.19271 13.7578 4.57812C14.1172 4.96354 14.401 5.46354 14.6094 6.07812C14.8177 6.6875 14.9635 7.3724 15.0469 8.13281C15.1354 8.89323 15.1849 9.65104 15.1953 10.4062H2.39844V4H3.60156C3.71094 4 3.80469 3.96094 3.88281 3.88281C3.96094 3.80469 4 3.71094 4 3.60156C4 3.49219 3.96094 3.39844 3.88281 3.32031C3.80469 3.24219 3.71094 3.20312 3.60156 3.20312H2.39844V2.80469C2.39844 2.69531 2.35938 2.60156 2.28125 2.52344C2.20312 2.44531 2.10938 2.40625 2 2.40625H0.398438C0.289062 2.40625 0.195312 2.44531 0.117188 2.52344C0.0390625 2.60156 0 2.69531 0 2.80469V11.6016C0 11.7109 0.0390625 11.8047 0.117188 11.8828C0.195312 11.9609 0.289062 12 0.398438 12H2C2.10938 12 2.20312 11.9609 2.28125 11.8828C2.35938 11.8047 2.39844 11.7109 2.39844 11.6016V11.2031H6.39844V15.6016C6.39844 15.7109 6.4375 15.8047 6.51562 15.8828C6.59375 15.9609 6.6875 16 6.79688 16H9.20312C9.3125 16 9.40625 15.9609 9.48438 15.8828C9.5625 15.8047 9.60156 15.7109 9.60156 15.6016V11.2031H15.6016C15.7109 11.2031 15.8047 11.1641 15.8828 11.0859C15.9609 11.0078 16 10.9141 16 10.8047C16 10.2474 15.9844 9.71875 15.9531 9.21875C15.9219 8.71875 15.875 8.25 15.8125 7.8125C15.7552 7.375 15.6797 6.96875 15.5859 6.59375C15.4974 6.21875 15.3932 5.875 15.2734 5.5625ZM1.60156 11.2031H0.796875V3.20312H1.60156V11.2031ZM8.79688 15.2031H7.20312V11.2031H8.79688V15.2031Z" fill="#333333" />
</svg>
    