<svg width="24" height="24" viewBox="0 0 24 24" fill="none"
    xmlns="http://www.w3.org/2000/svg">
    <path fill-rule="evenodd" clip-rule="evenodd" d="M2.42105 2.5H17.5789C18.3623 2.5 18.9999 3.173 18.9999 4V8.54327C18.9999 8.54327 18.9999 8.96154 18.5499 8.96154C18.0366 8.96154 18.0366 8.54327 18.0366 8.54327L18.0525 4.434L11.0506 9.361C10.756 9.568 10.378 9.672 9.99996 9.672C9.62196 9.672 9.24396 9.568 8.94933 9.361L1.94736 4.434V13C1.94736 13.276 2.15957 13.5 2.42105 13.5H8.19997C8.19997 13.5 8.64996 13.5 8.64996 14.0385C8.64996 14.5 8.19997 14.5 8.19997 14.5H2.42105C1.63758 14.5 1 13.827 1 13V4C1 3.173 1.63758 2.5 2.42105 2.5ZM17.6613 3.508C17.6338 3.503 17.6073 3.5 17.5789 3.5H2.42199C2.39357 3.5 2.3661 3.503 2.33957 3.508L9.47512 8.529C9.74985 8.722 10.251 8.722 10.5257 8.529L17.6613 3.508Z" fill="#333333"/>
    <path fill-rule="evenodd" clip-rule="evenodd" d="M16.4999 17.9175L19.7529 19.6512L19.1682 16.2236L21.4954 13.9485L17.9473 13.3707L16.4999 10.5415L15.0526 13.3707L11.5045 13.9485L13.8317 16.2236L13.247 19.6512L16.4999 17.9175ZM20.6817 20.9343C20.7937 20.856 20.8507 20.7218 20.8283 20.5884L20.1364 16.5324L22.894 13.8367C22.99 13.7442 23.024 13.6066 22.9828 13.4802C22.9416 13.3539 22.8319 13.2614 22.6982 13.2395L18.5461 12.5633L16.8228 9.19482C16.7621 9.07553 16.6364 9 16.4999 9C16.3634 9 16.2385 9.07553 16.1771 9.19482L14.4538 12.5633L10.3016 13.2395C10.168 13.2614 10.0582 13.3546 10.0171 13.4802C9.97591 13.6059 10.0106 13.7442 10.1059 13.8367L12.8634 16.5324L12.1715 20.5884C12.1484 20.7218 12.2055 20.856 12.3181 20.9343C12.4308 21.0127 12.5789 21.0218 12.7002 20.9569L16.4999 18.9317L20.2997 20.9569C20.3538 20.9858 20.4131 21 20.4723 21C20.5459 21 20.6196 20.9774 20.6817 20.9343Z" fill="#333333"/>
</svg>
