<svg width="24" height="25" viewBox="0 0 24 25" fill="none" xmlns="http://www.w3.org/2000/svg">
    <path d="M18.4024 18.7554H6.40239C5.98833 18.7554 5.59771 18.6772 5.23052 18.521C4.87114 18.3647 4.55474 18.1538 4.2813 17.8882C4.00786 17.6147 3.79302 17.2944 3.63677 16.9272C3.48052 16.5601 3.40239 16.1694 3.40239 15.7554V3.75537C3.40239 3.34131 3.48052 2.95459 3.63677 2.59521C3.79302 2.22803 4.00786 1.91162 4.2813 1.646C4.55474 1.37256 4.87114 1.15771 5.23052 1.00146C5.59771 0.837402 5.98833 0.755371 6.40239 0.755371H18.4024C18.8165 0.755371 19.2032 0.837402 19.5625 1.00146C19.9297 1.15771 20.25 1.37256 20.5235 1.646C20.7969 1.91162 21.0118 2.22803 21.168 2.59521C21.3243 2.95459 21.4024 3.34131 21.4024 3.75537V15.7554C21.4024 16.1694 21.3243 16.5601 21.168 16.9272C21.0118 17.2944 20.7969 17.6147 20.5235 17.8882C20.25 18.1538 19.9297 18.3647 19.5625 18.521C19.2032 18.6772 18.8165 18.7554 18.4024 18.7554ZM6.40239 1.9624C5.90239 1.9624 5.47661 2.13818 5.12505 2.48975C4.77349 2.84131 4.59771 3.26318 4.59771 3.75537V15.7554C4.59771 16.2554 4.77349 16.6812 5.12505 17.0327C5.47661 17.3843 5.90239 17.5601 6.40239 17.5601H18.4024C18.8946 17.5601 19.3165 17.3843 19.668 17.0327C20.0196 16.6812 20.1954 16.2554 20.1954 15.7554V3.75537C20.1954 3.26318 20.0196 2.84131 19.668 2.48975C19.3165 2.13818 18.8946 1.9624 18.4024 1.9624H6.40239ZM23.7344 23.8882L21.3321 19.0952C21.2618 18.9468 21.1485 18.8452 20.9922 18.7905C20.836 18.7358 20.6836 18.7476 20.5352 18.8257C20.3868 18.896 20.2852 19.0132 20.2305 19.1772C20.1758 19.3335 20.1875 19.4858 20.2657 19.6343L20.4297 19.9624H4.37505L4.53911 19.6343C4.60942 19.4858 4.61724 19.3335 4.56255 19.1772C4.51567 19.0132 4.41802 18.896 4.26958 18.8257C4.12114 18.7476 3.9688 18.7358 3.81255 18.7905C3.6563 18.8452 3.53911 18.9468 3.46099 19.0952L1.05864 23.8882C0.98833 24.0366 0.976611 24.189 1.02349 24.3452C1.07817 24.5093 1.17974 24.6265 1.32817 24.6968C1.37505 24.7202 1.41802 24.7358 1.45708 24.7437C1.50396 24.7515 1.55083 24.7554 1.59771 24.7554C1.70708 24.7554 1.80864 24.728 1.90239 24.6733C2.00396 24.6187 2.08208 24.5366 2.13677 24.4272L2.57036 23.5601H22.2344L22.668 24.4272C22.7149 24.5366 22.7852 24.6187 22.879 24.6733C22.9805 24.728 23.086 24.7554 23.1954 24.7554C23.2422 24.7554 23.2891 24.7515 23.336 24.7437C23.3829 24.7358 23.4258 24.7202 23.4649 24.6968C23.6133 24.6265 23.7149 24.5093 23.7696 24.3452C23.8243 24.189 23.8125 24.0366 23.7344 23.8882ZM3.16802 22.3647L3.76567 21.1577H21.0274L21.625 22.3647H3.16802ZM7.59771 16.3647C7.10552 16.3647 6.68364 16.189 6.33208 15.8374C5.98052 15.4858 5.80474 15.0601 5.80474 14.5601C5.80474 14.0601 5.98052 13.6343 6.33208 13.2827C6.68364 12.9312 7.10552 12.7554 7.59771 12.7554C8.09771 12.7554 8.52349 12.9312 8.87505 13.2827C9.22661 13.6343 9.40239 14.0601 9.40239 14.5601C9.40239 15.0601 9.22661 15.4858 8.87505 15.8374C8.52349 16.189 8.09771 16.3647 7.59771 16.3647ZM7.59771 13.9624C7.43364 13.9624 7.29302 14.021 7.17583 14.1382C7.05864 14.2554 7.00005 14.396 7.00005 14.5601C7.00005 14.7241 7.05864 14.8647 7.17583 14.9819C7.29302 15.0991 7.43364 15.1577 7.59771 15.1577C7.76177 15.1577 7.90239 15.0991 8.01958 14.9819C8.13677 14.8647 8.19536 14.7241 8.19536 14.5601C8.19536 14.396 8.13677 14.2554 8.01958 14.1382C7.90239 14.021 7.76177 13.9624 7.59771 13.9624ZM17.1954 16.3647C16.7032 16.3647 16.2813 16.189 15.9297 15.8374C15.5782 15.4858 15.4024 15.0601 15.4024 14.5601C15.4024 14.0601 15.5782 13.6343 15.9297 13.2827C16.2813 12.9312 16.7032 12.7554 17.1954 12.7554C17.6954 12.7554 18.1211 12.9312 18.4727 13.2827C18.8243 13.6343 19 14.0601 19 14.5601C19 15.0601 18.8243 15.4858 18.4727 15.8374C18.1211 16.189 17.6954 16.3647 17.1954 16.3647ZM17.1954 13.9624C17.0313 13.9624 16.8907 14.021 16.7735 14.1382C16.6563 14.2554 16.5977 14.396 16.5977 14.5601C16.5977 14.7241 16.6563 14.8647 16.7735 14.9819C16.8907 15.0991 17.0313 15.1577 17.1954 15.1577C17.3672 15.1577 17.5118 15.0991 17.629 14.9819C17.7461 14.8647 17.8047 14.7241 17.8047 14.5601C17.8047 14.396 17.7461 14.2554 17.629 14.1382C17.5118 14.021 17.3672 13.9624 17.1954 13.9624ZM16 4.36475H8.80474C8.63286 4.36475 8.48833 4.30615 8.37114 4.18896C8.25396 4.07178 8.19536 3.92725 8.19536 3.75537C8.19536 3.59131 8.25396 3.45068 8.37114 3.3335C8.48833 3.21631 8.63286 3.15771 8.80474 3.15771H16C16.1641 3.15771 16.3047 3.21631 16.4219 3.3335C16.5391 3.45068 16.5977 3.59131 16.5977 3.75537C16.5977 3.92725 16.5391 4.07178 16.4219 4.18896C16.3047 4.30615 16.1641 4.36475 16 4.36475ZM18.4024 5.56006H6.40239C6.23833 5.56006 6.09771 5.61865 5.98052 5.73584C5.86333 5.85303 5.80474 5.99365 5.80474 6.15771V10.9624C5.80474 11.1265 5.86333 11.2671 5.98052 11.3843C6.09771 11.5015 6.23833 11.5601 6.40239 11.5601H18.4024C18.5665 11.5601 18.7071 11.5015 18.8243 11.3843C18.9415 11.2671 19 11.1265 19 10.9624V6.15771C19 5.99365 18.9415 5.85303 18.8243 5.73584C18.7071 5.61865 18.5665 5.56006 18.4024 5.56006ZM7.00005 6.75537H11.8047V10.3647H7.00005V6.75537ZM17.8047 10.3647H13V6.75537H17.8047V10.3647Z" fill="black" />
</svg>
    