<svg width="10" height="19" viewBox="0 0 10 19" fill="none"
    xmlns="http://www.w3.org/2000/svg">
    <path d="M8.63233 19H1.35879C0.98579 19 0.666075 18.8608 0.399645 18.5825C0.133215 18.3042 0 17.9702 0 17.5806V1.42871C0 1.03288 0.133215 0.695801 0.399645 0.41748C0.666075 0.13916 0.98579 0 1.35879 0H8.63233C9.01125 0 9.33393 0.13916 9.60036 0.41748C9.86679 0.695801 10 1.03288 10 1.42871V17.5806C10 17.9702 9.86679 18.3042 9.60036 18.5825C9.33393 18.8608 9.01125 19 8.63233 19ZM1.35879 0.955566C1.23446 0.955566 1.12789 1.00195 1.03908 1.09473C0.950266 1.1875 0.905861 1.29883 0.905861 1.42871V17.5806C0.905861 17.7104 0.950266 17.8218 1.03908 17.9146C1.12789 18.0073 1.23446 18.0537 1.35879 18.0537H8.63233C8.76258 18.0537 8.87211 18.0073 8.96092 17.9146C9.04973 17.8218 9.09414 17.7104 9.09414 17.5806V1.42871C9.09414 1.29883 9.04973 1.1875 8.96092 1.09473C8.87211 1.00195 8.76258 0.955566 8.63233 0.955566H1.35879ZM5.90586 2.85742H4.08526C3.96092 2.85742 3.85435 2.81104 3.76554 2.71826C3.67673 2.62549 3.63233 2.51107 3.63233 2.375C3.63233 2.24512 3.67673 2.13379 3.76554 2.04102C3.85435 1.94824 3.96092 1.90186 4.08526 1.90186H5.90586C6.0302 1.90186 6.13677 1.94824 6.22558 2.04102C6.31439 2.13379 6.35879 2.24512 6.35879 2.375C6.35879 2.51107 6.31439 2.62549 6.22558 2.71826C6.13677 2.81104 6.0302 2.85742 5.90586 2.85742ZM2.72647 2.375C2.72647 2.51107 2.68206 2.62549 2.59325 2.71826C2.50444 2.81104 2.39787 2.85742 2.27353 2.85742C2.14328 2.85742 2.03375 2.81104 1.94494 2.71826C1.85613 2.62549 1.81172 2.51107 1.81172 2.375C1.81172 2.24512 1.85613 2.13379 1.94494 2.04102C2.03375 1.94824 2.14328 1.90186 2.27353 1.90186C2.39787 1.90186 2.50444 1.94824 2.59325 2.04102C2.68206 2.13379 2.72647 2.24512 2.72647 2.375ZM5 17.1074C4.62108 17.1074 4.2984 16.9683 4.03197 16.6899C3.76554 16.4116 3.63233 16.0745 3.63233 15.6787C3.63233 15.2829 3.76554 14.9458 4.03197 14.6675C4.2984 14.3892 4.62108 14.25 5 14.25C5.373 14.25 5.69272 14.3892 5.95915 14.6675C6.22558 14.9458 6.35879 15.2829 6.35879 15.6787C6.35879 16.0745 6.22558 16.4116 5.95915 16.6899C5.69272 16.9683 5.373 17.1074 5 17.1074ZM5 15.2056C4.87567 15.2056 4.76909 15.252 4.68028 15.3447C4.59147 15.4375 4.54707 15.5488 4.54707 15.6787C4.54707 15.8086 4.59147 15.9199 4.68028 16.0127C4.76909 16.1055 4.87567 16.1519 5 16.1519C5.12433 16.1519 5.23091 16.1055 5.31972 16.0127C5.40853 15.9199 5.45293 15.8086 5.45293 15.6787C5.45293 15.5488 5.40853 15.4375 5.31972 15.3447C5.23091 15.252 5.12433 15.2056 5 15.2056Z" fill="#333333"/>
</svg>
