<svg width="12" height="17" viewBox="0 0 12 17" fill="none" xmlns="http://www.w3.org/2000/svg">
    <path fill-rule="evenodd" clip-rule="evenodd" d="M5.9983 15.208C2.3535 15.208 0.7983 14.1312 0.7983 11.608C0.7983 9.21439 2.3551 7.49519 3.4919 6.2392C4.0439 5.6296 4.4831 5.1432 4.6799 4.6816C5.0191 4.76 5.4463 4.808 5.9983 4.808C6.5503 4.808 6.9783 4.76 7.3167 4.6816C7.5135 5.1432 7.9535 5.6296 8.5047 6.2392C9.6423 7.49519 11.1983 9.21439 11.1983 11.608C11.1983 14.1312 9.6431 15.208 5.9983 15.208ZM3.42062 1.2096V1.2088C3.69502 1.0104 4.06782 0.8032 4.40222 0.8H4.41102C4.71262 0.8 5.05822 0.9752 5.42382 1.1608C5.85742 1.3808 6.30462 1.608 6.79822 1.608C7.44622 1.608 7.64862 1.2 7.75742 0.9816C7.84382 0.8072 7.84622 0.8 7.99822 0.8C8.29262 0.8 8.51582 0.9744 8.65902 1.1336C7.55502 2.1168 7.28862 3.332 7.22542 3.8832C6.93742 3.9616 6.55022 4.0088 5.99822 4.0088C5.44622 4.0088 5.05982 3.9616 4.77182 3.8832C4.71022 3.3456 4.45422 2.1784 3.42062 1.2096ZM10.9863 8.1184L10.9847 8.1168C10.4127 7.1544 9.68388 6.3488 9.09828 5.7024C8.66708 5.2256 8.22468 4.736 8.06548 4.396C8.33028 4.2416 8.51108 4.0616 8.68148 3.8912C8.83748 3.7352 8.83748 3.4816 8.68148 3.3256C8.54548 3.1888 8.33428 3.172 8.17988 3.2744C8.35748 2.7432 8.71508 2.072 9.43908 1.5288C9.59428 1.4136 9.64388 1.204 9.55828 1.0312C9.53668 0.9888 9.03508 0 7.99908 0C7.35108 0 7.14868 0.408 7.04148 0.6264C6.95428 0.8008 6.95108 0.808 6.79908 0.808C6.49668 0.808 6.15188 0.6328 5.78628 0.4472C5.35268 0.2272 4.90468 0 4.41188 0H4.39508C3.45988 0.0096 2.61108 0.832 2.51668 0.9256C2.43428 1.008 2.39348 1.1208 2.40068 1.2368C2.40948 1.3528 2.46708 1.4592 2.56068 1.5288C3.14868 1.9704 3.56868 2.5464 3.80868 3.2416C3.81268 3.2528 3.81508 3.2632 3.81908 3.2744C3.66468 3.1728 3.45348 3.1912 3.31748 3.3264C3.16228 3.4824 3.16228 3.736 3.31748 3.892C3.48788 4.0624 3.66788 4.2424 3.93348 4.3976C3.77668 4.7368 3.33188 5.2264 2.89988 5.704C2.31508 6.3512 1.58548 7.156 1.01348 8.1184C0.331878 9.2648 -0.00012207 10.4072 -0.00012207 11.6096C-0.00012207 13.2464 0.603878 14.4384 1.79508 15.1528C2.76868 15.7376 4.10548 16.0096 5.99988 16.0096C7.89508 16.0096 9.23188 15.7376 10.2055 15.1528C11.3959 14.4384 11.9999 13.2464 11.9999 11.6096C11.9999 10.4072 11.6687 9.2648 10.9863 8.1184ZM7.5983 9.608C7.8191 9.608 7.9983 9.4288 7.9983 9.208C7.9983 8.9872 7.8191 8.808 7.5983 8.808H6.3983V8.408C6.3983 8.1872 6.2191 8.008 5.9983 8.008C5.7783 8.008 5.5983 8.1872 5.5983 8.408V8.808H4.3983C4.1783 8.808 3.9983 8.9872 3.9983 9.208V10.808C3.9983 11.0288 4.1783 11.208 4.3983 11.208H7.1983V12.008H4.3983C4.1783 12.008 3.9983 12.1872 3.9983 12.408C3.9983 12.6288 4.1783 12.808 4.3983 12.808H5.5983V13.208C5.5983 13.4288 5.7783 13.608 5.9983 13.608C6.2191 13.608 6.3983 13.4288 6.3983 13.208V12.808H7.5983C7.8191 12.808 7.9983 12.6288 7.9983 12.408V10.808C7.9983 10.5872 7.8191 10.408 7.5983 10.408H4.7983V9.608H7.5983Z" fill="#666666" />
</svg>
    