<svg width="16" height="13" viewBox="0 0 16 13" fill="none" xmlns="http://www.w3.org/2000/svg">
    <path d="M15.5725 12.5957H0.419322C0.304214 12.5957 0.20555 12.5547 0.12333 12.4727C0.04111 12.3907 0 12.2896 0 12.1693V3.77216C0 3.65736 0.04111 3.55895 0.12333 3.47695C0.20555 3.39495 0.304214 3.35395 0.419322 3.35395H15.5725C15.693 3.35395 15.7944 3.39495 15.8767 3.47695C15.9589 3.55895 16 3.65736 16 3.77216V12.1693C16 12.2896 15.9589 12.3907 15.8767 12.4727C15.7944 12.5547 15.693 12.5957 15.5725 12.5957ZM0.838643 11.7511H15.1531V4.19858H0.838643V11.7511ZM9.68551 7.55253H6.73381V6.71609H9.68551C9.80062 6.71609 9.89928 6.67509 9.9815 6.59309C10.0637 6.51108 10.1048 6.41268 10.1048 6.29787C10.1048 6.1776 10.0637 6.07646 9.9815 5.99446C9.89928 5.91246 9.80062 5.87145 9.68551 5.87145H8.41932V5.45324C8.41932 5.33843 8.37821 5.24003 8.29599 5.15802C8.21377 5.07602 8.11511 5.03502 8 5.03502C7.88489 5.03502 7.78623 5.07602 7.70401 5.15802C7.62179 5.24003 7.58068 5.33843 7.58068 5.45324V5.87145H6.31449C6.19938 5.87145 6.10072 5.91246 6.0185 5.99446C5.93628 6.07646 5.89517 6.1776 5.89517 6.29787V7.97074C5.89517 8.09102 5.93628 8.19215 6.0185 8.27416C6.10072 8.35616 6.19938 8.39716 6.31449 8.39716H9.25796V9.2336H6.31449C6.19938 9.2336 6.10072 9.2746 6.0185 9.3566C5.93628 9.43861 5.89517 9.53701 5.89517 9.65182C5.89517 9.76662 5.93628 9.86503 6.0185 9.94703C6.10072 10.029 6.19938 10.07 6.31449 10.07H7.58068V10.4965C7.58068 10.6113 7.62179 10.7097 7.70401 10.7917C7.78623 10.8737 7.88489 10.9147 8 10.9147C8.11511 10.9147 8.21377 10.8737 8.29599 10.7917C8.37821 10.7097 8.41932 10.6113 8.41932 10.4965V10.07H9.68551C9.80062 10.07 9.89928 10.029 9.9815 9.94703C10.0637 9.86503 10.1048 9.76662 10.1048 9.65182V7.97074C10.1048 7.85594 10.0637 7.75754 9.9815 7.67553C9.89928 7.59353 9.80062 7.55253 9.68551 7.55253ZM14.7338 2.51751H1.26619C1.1456 2.51751 1.04419 2.47651 0.961973 2.3945C0.879753 2.3125 0.838643 2.2141 0.838643 2.09929C0.838643 1.97902 0.879753 1.87788 0.961973 1.79588C1.04419 1.71387 1.1456 1.67287 1.26619 1.67287H14.7338C14.8489 1.67287 14.9476 1.71387 15.0298 1.79588C15.112 1.87788 15.1531 1.97902 15.1531 2.09929C15.1531 2.2141 15.112 2.3125 15.0298 2.3945C14.9476 2.47651 14.8489 2.51751 14.7338 2.51751ZM13.8952 0.836436H2.10483C1.98972 0.836436 1.89106 0.795434 1.80884 0.713431C1.72662 0.631427 1.68551 0.533023 1.68551 0.418218C1.68551 0.303413 1.72662 0.205009 1.80884 0.123005C1.89106 0.0410018 1.98972 0 2.10483 0H13.8952C14.0103 0 14.1089 0.0410018 14.1912 0.123005C14.2734 0.205009 14.3145 0.303413 14.3145 0.418218C14.3145 0.533023 14.2734 0.631427 14.1912 0.713431C14.1089 0.795434 14.0103 0.836436 13.8952 0.836436Z" fill="#666666" />
</svg>
    