<svg width="16" height="16" viewBox="0 0 16 16" fill="none" xmlns="http://www.w3.org/2000/svg">
    <path d="M13.5146 2.34297L13.5163 2.34457C15.1182 3.85641 16 5.86501 16 8.0008C16 10.1374 15.1182 12.146 13.5163 13.6578C11.9145 15.1681 9.78526 16 7.52033 16C4.39725 16 1.5345 14.3874 0.0513949 11.7908C-0.0605373 11.5964 0.0166281 11.3541 0.223533 11.2493C0.428742 11.1437 0.686526 11.2165 0.796762 11.4109C2.13232 13.749 4.70761 15.2001 7.51948 15.2001C11.728 15.2001 15.1512 11.9708 15.1512 8.0008C15.1512 4.0316 11.728 0.80152 7.51948 0.80152C5.11803 0.80152 2.88616 1.86301 1.45479 3.62924L2.71827 3.22288C2.93959 3.15168 3.18041 3.26367 3.25588 3.47165C3.33135 3.68043 3.21263 3.90761 2.99131 3.9788L0.572049 4.75712C0.49658 4.78032 0.413479 4.78592 0.332074 4.76592C0.142976 4.72033 0.0123882 4.56114 0.0123882 4.37716V1.9998C0.0123882 1.77902 0.201486 1.59984 0.436374 1.59984C0.669566 1.59984 0.86036 1.77902 0.86036 1.9998V3.0453C2.45285 1.13989 4.89501 0 7.51863 0C9.78357 0 11.9128 0.832717 13.5146 2.34297Z" fill="#666666" />
    <path d="M5.11192 7.56951H10.5878C10.8279 7.56951 11.0238 7.76194 11.0238 7.9992V10.9126C11.0238 11.1493 10.8279 11.3417 10.5878 11.3417H8.06785V12.369C8.06785 12.6063 7.872 12.7987 7.63189 12.7987C7.39177 12.7987 7.19592 12.6063 7.19592 12.369V11.3417H4.67596C4.43585 11.3417 4.24 11.1493 4.24 10.9126C4.24 10.6754 4.43585 10.4829 4.67596 10.4829H10.1518V8.4283H4.67596C4.43585 8.4283 4.24 8.23586 4.24 7.9992V5.08578C4.24 4.84853 4.43585 4.65609 4.67596 4.65609H7.19592V3.62877C7.19592 3.39212 7.39177 3.19968 7.63189 3.19968C7.872 3.19968 8.06785 3.39212 8.06785 3.62877V4.65609H10.5878C10.8279 4.65609 11.0238 4.84853 11.0238 5.08578C11.0238 5.32244 10.8279 5.51488 10.5878 5.51488H5.11192V7.56951Z" fill="#666666" />
</svg>
    