<svg viewBox="0 0 12.001 12.001" fill="none"
    xmlns="http://www.w3.org/2000/svg" class="_Icon_6l72i_1" data-icon-name="Moon" width="42" height="42">
    <path fill-rule="evenodd" clip-rule="evenodd" d="M6.311 11.99C4.69 11.99 3.161 11.359 2.016 10.207C0.868 9.063 0.233 7.537 0.233 5.913C0.233 4.29 0.868 2.763 2.016 1.616C2.613 1.019 3.312 0.56 4.093 0.253C4.209 0.21 4.34 0.243 4.421 0.336C4.503 0.431 4.514 0.566 4.453 0.673C3.897 1.647 3.668 2.795 3.813 3.912C3.957 5.063 4.471 6.109 5.292 6.931C6.277 7.915 7.58 8.456 8.969 8.456C9.876 8.456 10.766 8.221 11.55 7.771C11.657 7.709 11.793 7.722 11.887 7.803C11.981 7.885 12.013 8.016 11.97 8.134C11.665 8.913 11.205 9.617 10.607 10.207C9.461 11.359 7.937 11.99 6.311 11.99ZM3.579 1.153C3.161 1.392 2.778 1.686 2.43 2.03C1.395 3.067 0.826 4.446 0.826 5.913C0.826 7.381 1.395 8.756 2.43 9.795C3.467 10.835 4.844 11.402 6.311 11.402C7.779 11.402 9.156 10.835 10.192 9.795C10.541 9.45 10.835 9.066 11.074 8.651C10.405 8.905 9.691 9.041 8.969 9.041C7.423 9.041 5.97 8.442 4.878 7.349C3.959 6.432 3.391 5.27 3.228 3.989C3.108 3.025 3.233 2.049 3.579 1.153V1.153Z" fill="#999999"/>
</svg>