<svg width="16" height="15" viewBox="0 0 16 15" fill="none" xmlns="http://www.w3.org/2000/svg">
    <path fill-rule="evenodd" clip-rule="evenodd" d="M11.4051 13.2459L8.22744 10.1083L14.6547 2.19864L11.4051 13.2451V13.2459ZM5.6003 8.59709L13.1324 2.80345L7.37711 9.8875C7.37711 9.8875 7.37711 9.8883 7.37631 9.8883L5.6003 12.0739V8.59709ZM12.9044 1.96907L5.12511 7.95391L1.53468 6.7571L12.9044 1.96907ZM15.8668 0.101836C15.7524 -0.00136481 15.5884 -0.028565 15.4452 0.0314354L0.245099 6.43148C0.0914975 6.49628 -0.00610325 6.64908 0.0002968 6.81549C0.00669685 6.98189 0.115498 7.12749 0.273899 7.17949L4.80033 8.6891V13.2003C4.80033 13.3699 4.90673 13.5211 5.06673 13.5771C5.11073 13.5931 5.15553 13.6003 5.20033 13.6003C5.31954 13.6003 5.43314 13.5475 5.51074 13.4531L7.72195 10.7315L11.3196 14.2851C11.3948 14.3603 11.4956 14.3995 11.5996 14.3995C11.6332 14.3995 11.6668 14.3955 11.6996 14.3875C11.8356 14.3523 11.9436 14.2475 11.9836 14.1123L15.9836 0.512239C16.0276 0.364238 15.9812 0.204237 15.866 0.101036L15.8668 0.101836Z" fill="#333333"/>
    </svg>
    