<svg viewBox="0 0 24 24" fill="none" xmlns="http://www.w3.org/2000/svg" class="_Icon_6l72i_1 accordion-icon" data-icon-name="Parking2" data-testid="rental.amenities.amenities-picker.category-parkingandfacilities.accordion.icon">
    <path fill="#333333" d="M6.6 19.2c-.992 0-1.8-.808-1.8-1.8s.808-1.8 1.8-1.8 1.8.808 1.8 1.8-.808 1.8-1.8 1.8Zm0-2.4a.6.6 0 1 0 0 1.2.6.6 0 0 0 0-1.2ZM17.4 19.2c-.992 0-1.8-.808-1.8-1.8s.808-1.8 1.8-1.8 1.8.808 1.8 1.8-.808 1.8-1.8 1.8Zm0-2.4a.6.6 0 1 0 0 1.2.6.6 0 0 0 0-1.2Z"></path>
    <path fill="#333333" d="M20.837 14.702a2.991 2.991 0 0 0-.487-.415c-.156-.953-.664-3.856-1.214-4.955-.58-1.159-2.52-1.68-4.046-1.911a.6.6 0 0 0-.181 1.185c2.013.306 2.948.853 3.153 1.263.345.69.728 2.515.964 3.82-.058-.018-.115-.034-.174-.05-1.522-.403-3.64-.437-6.252-.44a.6.6 0 0 0 0 1.2c2.524.003 4.565.033 5.946.4 1.318.348 1.854.928 1.854 2v3a.6.6 0 0 1-.6.6H4.2a.6.6 0 0 1-.6-.6v-3c0-.369.064-.672.193-.928a.6.6 0 1 0-1.07-.542c-.215.422-.323.916-.323 1.47v3c0 .783.502 1.45 1.2 1.698V22.8c0 .661.539 1.2 1.2 1.2H6c.661 0 1.2-.539 1.2-1.2v-1.2h9.6v1.2c0 .661.539 1.2 1.2 1.2h1.2c.661 0 1.2-.539 1.2-1.2v-1.303a1.802 1.802 0 0 0 1.2-1.697v-3c0-.853-.257-1.559-.763-2.098ZM6 22.8H4.8v-1.2H6v1.2Zm12 0v-1.2h1.2v1.2H18ZM5.4 12a.6.6 0 0 1-.6-.6v-6a.6.6 0 0 1 .6-.6h1.8c1.324 0 2.4 1.076 2.4 2.4 0 1.323-1.076 2.4-2.4 2.4H6v1.8a.6.6 0 0 1-.6.6ZM6 8.4h1.2c.661 0 1.2-.539 1.2-1.2 0-.661-.539-1.2-1.2-1.2H6v2.4Z"></path>
    <path fill="#333333" d="M6.6 14.4C2.96 14.4 0 11.44 0 7.8c0-3.64 2.96-6.6 6.6-6.6 3.64 0 6.6 2.96 6.6 6.6 0 3.64-2.96 6.6-6.6 6.6Zm0-12a5.407 5.407 0 0 0-5.4 5.4c0 2.977 2.423 5.4 5.4 5.4 2.977 0 5.4-2.423 5.4-5.4 0-2.977-2.423-5.4-5.4-5.4Z"></path>
</svg>