<svg width="20" height="16" viewBox="0 0 20 16" fill="none"
    xmlns="http://www.w3.org/2000/svg">
    <path d="M18.4961 16H7.5C7.08333 16 6.72852 15.8438 6.43555 15.5312C6.14258 15.2188 5.99609 14.8403 5.99609 14.3958C5.99609 14.3681 6.03516 14.1007 6.11328 13.5938C6.19792 13.0799 6.4681 12.5243 6.92383 11.9271C7.18425 11.5799 7.49349 11.2708 7.85156 11C8.20964 10.7292 8.61003 10.4965 9.05273 10.3021C9.31966 10.184 9.60286 10.0833 9.90234 10C10.2018 9.90972 10.5143 9.83681 10.8398 9.78125C11.1719 9.71875 11.5169 9.67361 11.875 9.64583C12.2396 9.61111 12.6139 9.59375 12.998 9.59375C13.3887 9.59375 13.763 9.61111 14.1211 9.64583C14.4792 9.67361 14.821 9.71875 15.1465 9.78125C15.4785 9.83681 15.7943 9.90972 16.0938 10C16.3932 10.0833 16.6764 10.184 16.9434 10.3021C17.3926 10.4965 17.793 10.7292 18.1445 11C18.5026 11.2708 18.8118 11.5799 19.0723 11.9271C19.5345 12.5243 19.8047 13.0799 19.8828 13.5938C19.9609 14.1007 20 14.3681 20 14.3958C20 14.8403 19.8535 15.2188 19.5605 15.5312C19.2676 15.8438 18.9128 16 18.4961 16ZM7.00195 14.3958C7.00195 14.5417 7.05078 14.6667 7.14844 14.7708C7.24609 14.875 7.36328 14.9271 7.5 14.9271H18.4961C18.6393 14.9271 18.7565 14.875 18.8477 14.7708C18.9453 14.6667 18.9974 14.5417 19.0039 14.3958C19.0039 14.3819 18.9681 14.184 18.8965 13.8021C18.8249 13.4132 18.6133 12.9965 18.2617 12.5521C18.0143 12.2396 17.7181 11.9688 17.373 11.7396C17.028 11.5035 16.6341 11.3056 16.1914 11.1458C15.7487 10.9861 15.2604 10.8681 14.7266 10.7917C14.1927 10.7083 13.6165 10.6667 12.998 10.6667C12.3796 10.6667 11.8034 10.7083 11.2695 10.7917C10.7357 10.8681 10.2474 10.9861 9.80469 11.1458C9.36849 11.3056 8.97461 11.5035 8.62305 11.7396C8.278 11.9688 7.98503 12.2396 7.74414 12.5521C7.38607 12.9965 7.17122 13.4132 7.09961 13.8021C7.03451 14.184 7.00195 14.3819 7.00195 14.3958ZM12.998 8.53125C12.4512 8.53125 11.9336 8.42014 11.4453 8.19792C10.957 7.96875 10.5306 7.66319 10.166 7.28125C9.80794 6.89236 9.52474 6.44097 9.31641 5.92708C9.10807 5.40625 9.00391 4.85069 9.00391 4.26042C9.00391 3.67708 9.10807 3.125 9.31641 2.60417C9.52474 2.08333 9.80794 1.63194 10.166 1.25C10.5306 0.861111 10.957 0.555556 11.4453 0.333333C11.9336 0.111111 12.4512 0 12.998 0C13.5514 0 14.069 0.111111 14.5508 0.333333C15.0391 0.555556 15.4622 0.861111 15.8203 1.25C16.1849 1.63194 16.4714 2.08333 16.6797 2.60417C16.8945 3.125 17.002 3.67708 17.002 4.26042C17.002 4.85069 16.8945 5.40625 16.6797 5.92708C16.4714 6.44097 16.1849 6.89236 15.8203 7.28125C15.4622 7.66319 15.0391 7.96875 14.5508 8.19792C14.069 8.42014 13.5514 8.53125 12.998 8.53125ZM12.998 1.0625C12.5879 1.0625 12.2005 1.14583 11.8359 1.3125C11.4714 1.47917 11.1523 1.70833 10.8789 2C10.6055 2.29167 10.3906 2.63194 10.2344 3.02083C10.0781 3.40972 10 3.82292 10 4.26042C10 4.70486 10.0781 5.12153 10.2344 5.51042C10.3906 5.89931 10.6055 6.23958 10.8789 6.53125C11.1523 6.81597 11.4714 7.04167 11.8359 7.20833C12.2005 7.375 12.5879 7.45833 12.998 7.45833C13.4147 7.45833 13.8053 7.375 14.1699 7.20833C14.5345 7.04167 14.8503 6.81597 15.1172 6.53125C15.3906 6.23958 15.6055 5.89931 15.7617 5.51042C15.918 5.12153 15.9961 4.70486 15.9961 4.26042C15.9961 3.82292 15.918 3.40972 15.7617 3.02083C15.6055 2.63194 15.3906 2.29167 15.1172 2C14.8503 1.70833 14.5345 1.47917 14.1699 1.3125C13.8053 1.14583 13.4147 1.0625 12.998 1.0625ZM4.50195 16H1.50391C1.08724 16 0.732422 15.8438 0.439453 15.5312C0.146484 15.2188 0 14.8403 0 14.3958C0 14.375 0.0292969 14.1667 0.0878906 13.7708C0.146484 13.375 0.338542 12.9444 0.664062 12.4792C0.852865 12.2083 1.07422 11.9688 1.32812 11.7604C1.58854 11.5451 1.87826 11.3611 2.19727 11.2083C2.57487 11.0278 2.99805 10.8924 3.4668 10.8021C3.94206 10.7118 4.45312 10.6667 5 10.6667C5.09115 10.6667 5.17904 10.6667 5.26367 10.6667C5.35482 10.6667 5.44271 10.6701 5.52734 10.6771C5.66406 10.684 5.778 10.7431 5.86914 10.8542C5.96029 10.9653 6.0026 11.0938 5.99609 11.2396C5.98958 11.3854 5.93425 11.5069 5.83008 11.6042C5.73242 11.7014 5.61198 11.7465 5.46875 11.7396C5.39714 11.7396 5.31901 11.7396 5.23438 11.7396C5.15625 11.7326 5.07812 11.7292 5 11.7292C4.02344 11.7292 3.26497 11.8646 2.72461 12.1354C2.19076 12.3993 1.79362 12.6944 1.5332 13.0208C1.2793 13.3403 1.1263 13.6424 1.07422 13.9271C1.02865 14.2118 1.0026 14.3681 0.996094 14.3958C1.0026 14.5417 1.05143 14.6667 1.14258 14.7708C1.24023 14.875 1.36068 14.9271 1.50391 14.9271H4.50195C4.63867 14.9271 4.75586 14.9792 4.85352 15.0833C4.95117 15.1875 5 15.3125 5 15.4583C5 15.6111 4.95117 15.7396 4.85352 15.8438C4.75586 15.9479 4.63867 16 4.50195 16ZM5 9.59375C4.58333 9.59375 4.19271 9.51042 3.82812 9.34375C3.47005 9.17708 3.1543 8.94792 2.88086 8.65625C2.60742 8.36458 2.39258 8.02778 2.23633 7.64583C2.08008 7.25694 2.00195 6.84028 2.00195 6.39583C2.00195 5.95139 2.08008 5.53819 2.23633 5.15625C2.39258 4.76736 2.60742 4.42708 2.88086 4.13542C3.1543 3.84375 3.47005 3.61458 3.82812 3.44792C4.19271 3.28125 4.58333 3.19792 5 3.19792C5.41667 3.19792 5.80404 3.28125 6.16211 3.44792C6.52669 3.61458 6.8457 3.84375 7.11914 4.13542C7.39258 4.42708 7.60742 4.76736 7.76367 5.15625C7.91992 5.53819 7.99805 5.95139 7.99805 6.39583C7.99805 6.84028 7.91992 7.25694 7.76367 7.64583C7.60742 8.02778 7.39258 8.36458 7.11914 8.65625C6.8457 8.94792 6.52669 9.17708 6.16211 9.34375C5.80404 9.51042 5.41667 9.59375 5 9.59375ZM5 4.26042C4.72656 4.26042 4.46615 4.31597 4.21875 4.42708C3.97786 4.53819 3.76628 4.69097 3.58398 4.88542C3.40169 5.07986 3.25846 5.30903 3.1543 5.57292C3.05013 5.82986 2.99805 6.10417 2.99805 6.39583C2.99805 6.6875 3.05013 6.96528 3.1543 7.22917C3.25846 7.48611 3.40169 7.71181 3.58398 7.90625C3.76628 8.10069 3.97786 8.25347 4.21875 8.36458C4.46615 8.47569 4.72656 8.53125 5 8.53125C5.27344 8.53125 5.5306 8.47569 5.77148 8.36458C6.01888 8.25347 6.23372 8.10069 6.41602 7.90625C6.59831 7.71181 6.74154 7.48611 6.8457 7.22917C6.94987 6.96528 7.00195 6.6875 7.00195 6.39583C7.00195 6.10417 6.94987 5.82986 6.8457 5.57292C6.74154 5.30903 6.59831 5.07986 6.41602 4.88542C6.23372 4.69097 6.01888 4.53819 5.77148 4.42708C5.5306 4.31597 5.27344 4.26042 5 4.26042Z" fill="#333333"/>
</svg>
