<svg width="14" height="12" viewBox="0 0 14 12" fill="none" xmlns="http://www.w3.org/2000/svg">
<path d="M12.6641 11.3333H5.33334C5.05557 11.3333 4.81902 11.2292 4.62371 11.0208C4.4284 10.8125 4.33074 10.5602 4.33074 10.2639C4.33074 10.2454 4.35678 10.0671 4.40886 9.72916C4.46529 9.38657 4.64541 9.0162 4.94923 8.61805C5.12284 8.38657 5.329 8.18055 5.56772 8C5.80643 7.81944 6.07336 7.66435 6.3685 7.53472C6.54645 7.45602 6.73525 7.38889 6.93491 7.33333C7.13456 7.27315 7.34289 7.22453 7.55991 7.1875C7.78126 7.14583 8.0113 7.11574 8.25001 7.09722C8.49307 7.07407 8.74263 7.0625 8.99871 7.0625C9.25913 7.0625 9.50869 7.07407 9.74741 7.09722C9.98612 7.11574 10.214 7.14583 10.431 7.1875C10.6524 7.22453 10.8629 7.27315 11.0625 7.33333C11.2622 7.38889 11.451 7.45602 11.6289 7.53472C11.9284 7.66435 12.1953 7.81944 12.4297 8C12.6684 8.18055 12.8746 8.38657 13.0482 8.61805C13.3563 9.0162 13.5365 9.38657 13.5886 9.72916C13.6406 10.0671 13.6667 10.2454 13.6667 10.2639C13.6667 10.5602 13.569 10.8125 13.3737 11.0208C13.1784 11.2292 12.9419 11.3333 12.6641 11.3333ZM5.00131 10.2639C5.00131 10.3611 5.03386 10.4444 5.09897 10.5139C5.16407 10.5833 5.2422 10.6181 5.33334 10.6181H12.6641C12.7596 10.6181 12.8377 10.5833 12.8984 10.5139C12.9636 10.4444 12.9983 10.3611 13.0026 10.2639C13.0026 10.2546 12.9787 10.1227 12.931 9.86805C12.8833 9.60879 12.7422 9.33102 12.5078 9.03472C12.3429 8.82639 12.1454 8.64583 11.9154 8.49305C11.6853 8.33564 11.4228 8.2037 11.1276 8.09722C10.8325 7.99074 10.507 7.91203 10.1511 7.86111C9.79515 7.80555 9.41103 7.77777 8.99871 7.77777C8.58638 7.77777 8.20227 7.80555 7.84636 7.86111C7.49046 7.91203 7.16494 7.99074 6.8698 8.09722C6.579 8.2037 6.31642 8.33564 6.08204 8.49305C5.85201 8.64583 5.65669 8.82639 5.4961 9.03472C5.25739 9.33102 5.11416 9.60879 5.06642 9.86805C5.02301 10.1227 5.00131 10.2546 5.00131 10.2639ZM8.99871 6.35416C8.63413 6.35416 8.28907 6.28009 7.96355 6.13194C7.63803 5.97916 7.35374 5.77546 7.11069 5.52083C6.87197 5.26157 6.68317 4.96065 6.54428 4.61805C6.40539 4.27083 6.33595 3.90046 6.33595 3.50694C6.33595 3.11805 6.40539 2.75 6.54428 2.40278C6.68317 2.05555 6.87197 1.75463 7.11069 1.5C7.35374 1.24074 7.63803 1.03703 7.96355 0.888886C8.28907 0.740738 8.63413 0.666664 8.99871 0.666664C9.36763 0.666664 9.71268 0.740738 10.0339 0.888886C10.3594 1.03703 10.6415 1.24074 10.8802 1.5C11.1233 1.75463 11.3142 2.05555 11.4531 2.40278C11.5964 2.75 11.668 3.11805 11.668 3.50694C11.668 3.90046 11.5964 4.27083 11.4531 4.61805C11.3142 4.96065 11.1233 5.26157 10.8802 5.52083C10.6415 5.77546 10.3594 5.97916 10.0339 6.13194C9.71268 6.28009 9.36763 6.35416 8.99871 6.35416ZM8.99871 1.375C8.72527 1.375 8.46702 1.43055 8.22397 1.54166C7.98091 1.65278 7.76824 1.80555 7.58595 2C7.40366 2.19444 7.26043 2.42129 7.15626 2.68055C7.05209 2.93981 7.00001 3.21528 7.00001 3.50694C7.00001 3.80324 7.05209 4.08102 7.15626 4.34027C7.26043 4.59953 7.40366 4.82639 7.58595 5.02083C7.76824 5.21065 7.98091 5.36111 8.22397 5.47222C8.46702 5.58333 8.72527 5.63889 8.99871 5.63889C9.27649 5.63889 9.5369 5.58333 9.77996 5.47222C10.023 5.36111 10.2335 5.21065 10.4115 5.02083C10.5938 4.82639 10.737 4.59953 10.8412 4.34027C10.9453 4.08102 10.9974 3.80324 10.9974 3.50694C10.9974 3.21528 10.9453 2.93981 10.8412 2.68055C10.737 2.42129 10.5938 2.19444 10.4115 2C10.2335 1.80555 10.023 1.65278 9.77996 1.54166C9.5369 1.43055 9.27649 1.375 8.99871 1.375ZM3.33465 11.3333H1.33595C1.05817 11.3333 0.821625 11.2292 0.626312 11.0208C0.431 10.8125 0.333344 10.5602 0.333344 10.2639C0.333344 10.25 0.352875 10.1111 0.391937 9.84722C0.431 9.58333 0.559038 9.29629 0.776052 8.98611C0.90192 8.80555 1.04949 8.64583 1.21876 8.50694C1.39237 8.36342 1.58551 8.24074 1.79819 8.13889C2.04992 8.01852 2.33204 7.92824 2.64454 7.86805C2.96138 7.80787 3.30209 7.77777 3.66668 7.77777C3.72744 7.77777 3.78603 7.77777 3.84246 7.77777C3.90322 7.77777 3.96182 7.78009 4.01824 7.78472C4.10939 7.78935 4.18534 7.8287 4.2461 7.90277C4.30687 7.97685 4.33508 8.0625 4.33074 8.15972C4.3264 8.25694 4.28951 8.33796 4.22006 8.40277C4.15496 8.46759 4.07466 8.49768 3.97918 8.49305C3.93143 8.49305 3.87935 8.49305 3.82293 8.49305C3.77084 8.48842 3.71876 8.48611 3.66668 8.48611C3.01564 8.48611 2.50999 8.57639 2.14975 8.75694C1.79385 8.93287 1.52909 9.12963 1.35548 9.34722C1.18621 9.56018 1.08421 9.76157 1.04949 9.95139C1.01911 10.1412 1.00175 10.2454 0.997406 10.2639C1.00175 10.3611 1.0343 10.4444 1.09506 10.5139C1.16017 10.5833 1.24046 10.6181 1.33595 10.6181H3.33465C3.42579 10.6181 3.50392 10.6528 3.56902 10.7222C3.63412 10.7917 3.66668 10.875 3.66668 10.9722C3.66668 11.0741 3.63412 11.1597 3.56902 11.2292C3.50392 11.2986 3.42579 11.3333 3.33465 11.3333ZM3.66668 7.0625C3.3889 7.0625 3.12848 7.00694 2.88543 6.89583C2.64671 6.78472 2.43621 6.63194 2.25392 6.4375C2.07162 6.24305 1.9284 6.01852 1.82423 5.76389C1.72006 5.50463 1.66798 5.22685 1.66798 4.93055C1.66798 4.63426 1.72006 4.35879 1.82423 4.10416C1.9284 3.8449 2.07162 3.61805 2.25392 3.42361C2.43621 3.22916 2.64671 3.07639 2.88543 2.96528C3.12848 2.85416 3.3889 2.79861 3.66668 2.79861C3.94445 2.79861 4.2027 2.85416 4.44142 2.96528C4.68447 3.07639 4.89715 3.22916 5.07944 3.42361C5.26173 3.61805 5.40496 3.8449 5.50913 4.10416C5.61329 4.35879 5.66538 4.63426 5.66538 4.93055C5.66538 5.22685 5.61329 5.50463 5.50913 5.76389C5.40496 6.01852 5.26173 6.24305 5.07944 6.4375C4.89715 6.63194 4.68447 6.78472 4.44142 6.89583C4.2027 7.00694 3.94445 7.0625 3.66668 7.0625ZM3.66668 3.50694C3.48439 3.50694 3.31077 3.54398 3.14584 3.61805C2.98525 3.69213 2.84419 3.79398 2.72267 3.92361C2.60114 4.05324 2.50565 4.20602 2.43621 4.38194C2.36676 4.55324 2.33204 4.73611 2.33204 4.93055C2.33204 5.125 2.36676 5.31018 2.43621 5.48611C2.50565 5.6574 2.60114 5.80787 2.72267 5.9375C2.84419 6.06713 2.98525 6.16898 3.14584 6.24305C3.31077 6.31713 3.48439 6.35416 3.66668 6.35416C3.84897 6.35416 4.02041 6.31713 4.181 6.24305C4.34593 6.16898 4.48916 6.06713 4.61069 5.9375C4.73222 5.80787 4.8277 5.6574 4.89715 5.48611C4.96659 5.31018 5.00131 5.125 5.00131 4.93055C5.00131 4.73611 4.96659 4.55324 4.89715 4.38194C4.8277 4.20602 4.73222 4.05324 4.61069 3.92361C4.48916 3.79398 4.34593 3.69213 4.181 3.61805C4.02041 3.54398 3.84897 3.50694 3.66668 3.50694Z" fill="#999999"/>
</svg>
