<svg width="24" height="24" viewBox="0 0 24 24" fill="none" xmlns="http://www.w3.org/2000/svg">
    <path d="M16.7986 19.9992C15.3808 19.9992 13.8725 19.5976 12.3154 18.8057C10.88 18.0753 9.46222 17.0297 8.21495 15.7818C6.96768 14.5339 5.92295 13.1155 5.19283 11.6804C4.40188 10.1237 4 8.61657 4 7.19984C4 6.28149 4.8566 5.39433 5.22406 5.05595C5.75323 4.56877 6.58581 4 7.19103 4C7.49204 4 7.84429 4.19679 8.30141 4.61917C8.64165 4.93435 9.02512 5.36153 9.40859 5.85431C9.63995 6.15189 10.7936 7.67102 10.7936 8.39978C10.7936 8.99735 10.1171 9.41333 9.40138 9.85251C9.12439 10.0221 8.83859 10.1981 8.63204 10.3637C8.41109 10.5405 8.37186 10.6341 8.36546 10.6549C9.12519 12.5476 11.4476 14.8683 13.3409 15.6266C13.3578 15.621 13.4514 15.5842 13.6315 15.3602C13.7973 15.1538 13.9734 14.8675 14.1431 14.5915C14.5834 13.8763 14.9989 13.2003 15.5969 13.2003C16.3262 13.2003 17.8465 14.3531 18.1443 14.5843C18.6374 14.9675 19.0649 15.3506 19.3804 15.6906C19.8031 16.1466 20 16.4994 20 16.8002C20 17.4049 19.4308 18.2393 18.9441 18.7705C18.6046 19.14 17.7168 20 16.7978 20L16.7986 19.9992ZM7.18703 4.79996C6.97248 4.80396 6.39528 5.06635 5.76764 5.64392C5.17202 6.19269 4.80136 6.78866 4.80136 7.19984C4.80136 12.5828 11.4172 19.1992 16.7986 19.1992C17.2092 19.1992 17.8057 18.8273 18.3548 18.2289C18.9337 17.5985 19.1962 17.0194 19.2002 16.8042C19.1746 16.6522 18.7535 16.061 17.6015 15.1746C16.6112 14.4131 15.8083 14.0043 15.6017 13.9995C15.5873 14.0035 15.4976 14.0379 15.3159 14.2683C15.1582 14.4691 14.9893 14.7435 14.8252 15.009C14.3769 15.7378 13.9534 16.4266 13.3377 16.4266C13.2385 16.4266 13.1408 16.4074 13.0471 16.3698C10.9457 15.5298 8.46072 13.0467 7.62013 10.9469C7.51926 10.6949 7.50325 10.2997 7.9996 9.85011C8.26378 9.61092 8.62884 9.38693 8.98269 9.16934C9.24847 9.00615 9.52387 8.83736 9.72401 8.67897C9.95457 8.49738 9.98899 8.40778 9.993 8.39338C9.98739 8.18699 9.57911 7.38463 8.81697 6.39508C7.92995 5.24394 7.33834 4.82396 7.18623 4.79756L7.18703 4.79996Z" fill="#333333"/>
    </svg>
    