<svg width="18" height="18" viewBox="0 0 18 18" fill="none" xmlns="http://www.w3.org/2000/svg">
    <path d="M16.65 0H1.35C0.6057 0 0 0.6057 0 1.35V16.65C0 17.3943 0.6057 18 1.35 18H16.65C17.3943 18 18 17.3943 18 16.65V1.35C18 0.6057 17.3943 0 16.65 0ZM0.9 16.65V12.3237L4.6773 8.1684C4.7538 8.0847 4.8537 8.0379 4.9599 8.0361C5.0661 8.0343 5.1678 8.0793 5.2461 8.1612L13.7961 17.1H1.3491C1.1007 17.1 0.8991 16.8984 0.8991 16.65H0.9ZM17.1 16.65C17.1 16.8984 16.8984 17.1 16.65 17.1H15.0426L5.8977 7.5393C5.6448 7.2747 5.3082 7.1325 4.95 7.137C4.5918 7.1415 4.2588 7.2927 4.0122 7.5636L0.9009 10.9863V1.35C0.9009 1.1016 1.1025 0.9 1.3509 0.9H16.6509C16.8993 0.9 17.1009 1.1016 17.1009 1.35V16.65H17.1Z" fill="#666666"/>
    </svg>
    