<svg width="23" height="25" viewBox="0 0 23 25" fill="none" xmlns="http://www.w3.org/2000/svg">
    <path d="M16.1953 24.7554C16.1719 24.7554 16.1484 24.7554 16.125 24.7554C16.1016 24.7554 16.0781 24.7515 16.0547 24.7437L11.4023 23.5835L6.75 24.7437C6.65625 24.7671 6.5625 24.7671 6.46875 24.7437C6.38281 24.728 6.30469 24.6929 6.23438 24.6382C6.15625 24.5757 6.09766 24.5015 6.05859 24.4155C6.01953 24.3374 6 24.2515 6 24.1577V21.7554C6 21.6538 6.02344 21.5601 6.07031 21.4741C6.125 21.3804 6.19531 21.3062 6.28125 21.2515L8.90625 19.646L8.49609 15.5444L0.902344 19.8804C0.808594 19.9351 0.707031 19.9624 0.597656 19.9624C0.488281 19.9624 0.390625 19.9351 0.304688 19.8804C0.210938 19.8257 0.136719 19.7515 0.0820312 19.6577C0.0273438 19.564 0 19.4663 0 19.3647V16.9624C0 16.8765 0.015625 16.7944 0.046875 16.7163C0.0859375 16.6304 0.140625 16.5601 0.210938 16.5054L8.40234 9.48584C8.40234 8.74365 8.41797 8.05225 8.44922 7.41162C8.48828 6.76318 8.53906 6.16553 8.60156 5.61865C8.67188 5.06396 8.75391 4.56006 8.84766 4.10693C8.94922 3.65381 9.0625 3.24756 9.1875 2.88818C9.49219 2.00537 9.85156 1.43115 10.2656 1.16553C10.6875 0.89209 11.0664 0.755371 11.4023 0.755371C11.7383 0.755371 12.1133 0.89209 12.5273 1.16553C12.9414 1.43115 13.3047 2.00537 13.6172 2.88818C13.7422 3.24756 13.8516 3.65381 13.9453 4.10693C14.0469 4.56006 14.1289 5.06396 14.1914 5.61865C14.2539 6.16553 14.3008 6.76318 14.332 7.41162C14.3711 8.05225 14.3945 8.74365 14.4023 9.48584L22.5938 16.5054C22.6562 16.5601 22.707 16.6304 22.7461 16.7163C22.7852 16.7944 22.8047 16.8765 22.8047 16.9624V19.3647C22.8047 19.4663 22.7773 19.564 22.7227 19.6577C22.668 19.7515 22.5938 19.8257 22.5 19.8804C22.4062 19.9351 22.3047 19.9624 22.1953 19.9624C22.0938 19.9624 21.9961 19.9351 21.9023 19.8804L14.3086 15.5444L13.8984 19.646L16.5117 21.2515C16.6055 21.3062 16.6758 21.3804 16.7227 21.4741C16.7773 21.5601 16.8047 21.6538 16.8047 21.7554V24.1577C16.8047 24.2515 16.7812 24.3374 16.7344 24.4155C16.6953 24.5015 16.6406 24.5757 16.5703 24.6382C16.5156 24.6772 16.457 24.7046 16.3945 24.7202C16.332 24.7437 16.2656 24.7554 16.1953 24.7554ZM11.4023 22.3647C11.4258 22.3647 11.4492 22.3647 11.4727 22.3647C11.4961 22.3647 11.5195 22.3687 11.543 22.3765L15.5977 23.396V22.0952L12.9492 20.4663C12.8477 20.4116 12.7695 20.3335 12.7148 20.2319C12.668 20.1226 12.6523 20.0132 12.668 19.9038L13.207 14.5015C13.2148 14.3999 13.2461 14.3062 13.3008 14.2202C13.3633 14.1343 13.4375 14.0679 13.5234 14.021C13.6172 13.9819 13.7148 13.9624 13.8164 13.9624C13.918 13.9624 14.0117 13.9897 14.0977 14.0444L21.5977 18.3218V17.2319L13.4062 10.2124C13.3438 10.1577 13.293 10.0913 13.2539 10.0132C13.2148 9.93506 13.1953 9.84912 13.1953 9.75537C13.1953 8.31787 13.1406 7.10303 13.0312 6.11084C12.9219 5.11865 12.7812 4.31787 12.6094 3.7085C12.4375 3.09131 12.2422 2.646 12.0234 2.37256C11.8125 2.09912 11.6055 1.9624 11.4023 1.9624C11.1914 1.9624 10.9805 2.09912 10.7695 2.37256C10.5586 2.646 10.3633 3.09131 10.1836 3.7085C10.0117 4.31787 9.87109 5.11865 9.76172 6.11084C9.65234 7.10303 9.59766 8.31787 9.59766 9.75537C9.59766 9.84912 9.57812 9.93506 9.53906 10.0132C9.50781 10.0913 9.45703 10.1577 9.38672 10.2124L1.19531 17.2319V18.3218L8.70703 14.0444C8.79297 13.9897 8.88672 13.9624 8.98828 13.9624C9.08984 13.9624 9.18359 13.9819 9.26953 14.021C9.36328 14.0679 9.4375 14.1343 9.49219 14.2202C9.55469 14.3062 9.58984 14.3999 9.59766 14.5015L10.1367 19.9038C10.1445 20.0132 10.1211 20.1226 10.0664 20.2319C10.0195 20.3335 9.94922 20.4116 9.85547 20.4663L7.19531 22.0952V23.396L11.25 22.3765C11.2734 22.3687 11.2969 22.3647 11.3203 22.3647C11.3516 22.3647 11.3789 22.3647 11.4023 22.3647Z" fill="black" />
</svg>
    