<svg viewBox="0 0 50 50" fill="none" xmlns="http://www.w3.org/2000/svg" class="_Icon_6l72i_1 ulBWKIkVgrROnszsWOGq" data-icon-name="PingPong">
    <path fill-rule="evenodd" clip-rule="evenodd" d="M42.9982 36.9782L42.9982 36.9782L42.9327 36.9275L42.9272 36.9232C38.072 33.17 33.8811 29.9304 36.3302 24.27C37.5752 21.3925 37.8027 18.67 37.0302 15.95C36.2077 13.0575 34.2227 10.075 30.9652 6.8375C28.8127 4.6975 26.4377 3.015 23.9077 1.835C21.2952 0.6175 18.6502 0 16.0452 0C11.8202 0 7.93019 1.66 4.79269 4.8C2.93519 6.66 1.59519 8.7825 0.810189 11.105C0.0676895 13.3025 -0.16481 15.6375 0.12019 18.0475C0.65519 22.6075 3.04019 27.2075 6.83019 31.0025C11.2427 35.42 15.1302 37.475 19.0702 37.475C20.7627 37.475 22.4652 37.095 24.2752 36.315C25.4027 35.8275 26.4802 35.5825 27.4777 35.5825C31.2577 35.5825 34.0152 39.15 36.9327 42.9275L36.9557 42.9573C38.2311 44.6055 39.5489 46.3087 40.9977 47.7575C41.2427 48.0025 41.5627 48.1225 41.8827 48.1225C42.2027 48.1225 42.5227 48 42.7677 47.7575L47.7677 42.7575C48.2552 42.27 48.2552 41.4775 47.7677 40.99H47.7602C46.3244 39.5517 44.6353 38.2449 42.9982 36.9782ZM6.5573 6.5675C9.2148 3.9075 12.4948 2.5 16.0423 2.5C20.4998 2.5 25.2948 4.7275 29.1998 8.61C31.7823 11.1775 33.3248 13.38 34.1623 15.32L15.3123 34.17C13.2198 33.2875 11.0198 31.6625 8.5948 29.235C2.6523 23.285 -0.520196 13.6525 6.5573 6.565V6.5675ZM38.9093 41.4027L38.9092 41.4026L38.9072 41.4L38.9011 41.3921C35.743 37.307 32.479 33.085 27.4722 33.085C26.1322 33.085 24.7222 33.4 23.2797 34.0225C21.7897 34.665 20.4097 34.9775 19.0647 34.9775C18.7422 34.9775 18.4197 34.9575 18.0947 34.9225L34.9347 18.0825C35.1772 20.045 34.7047 21.725 34.0322 23.28C32.5772 26.64 32.7972 29.675 34.7022 32.555C36.2912 34.9597 38.8807 36.9611 41.3855 38.8971L41.4022 38.91L41.4051 38.9122C42.6567 39.879 43.9406 40.8708 45.0822 41.9025L41.8997 45.0825C40.8679 43.9383 39.8761 42.6543 38.9093 41.4027ZM6.25 50C2.805 50 0 47.195 0 43.75C0 40.305 2.805 37.5 6.25 37.5C9.695 37.5 12.5 40.305 12.5 43.75C12.5 47.195 9.695 50 6.25 50ZM2.5 43.75C2.5 41.6825 4.1825 40 6.25 40C8.3175 40 10 41.6825 10 43.75C10 45.8175 8.3175 47.5 6.25 47.5C4.1825 47.5 2.5 45.8175 2.5 43.75Z" fill="currentColor"></path>
</svg>