<svg width="14" height="14" viewBox="0 0 14 14" fill="none" xmlns="http://www.w3.org/2000/svg">
    <path d="M7 0C6.64855 0 6.36364 0.28491 6.36364 0.636364V6.36364H0.636364C0.28491 6.36364 0 6.64855 0 7C0 7.35145 0.28491 7.63636 0.636364 7.63636H6.36364V13.3636C6.36364 13.7151 6.64855 14 7 14C7.35145 14 7.63636 13.7151 7.63636 13.3636V7.63636H13.3636C13.7151 7.63636 14 7.35145 14 7C14 6.64855 13.7151 6.36364 13.3636 6.36364H7.63636V0.636364C7.63636 0.28491 7.35145 0 7 0Z" fill="black" />
</svg>
    