<svg viewBox="0 0 24 24" fill="none" xmlns="http://www.w3.org/2000/svg" class="_Icon_6l72i_1 accordion-icon" data-icon-name="Document" data-testid="rental.amenities.amenities-picker.category-policies.accordion.icon">
    <path fill="#333333" d="M19.8 24H4.2c-.992 0-1.8-.807-1.8-1.8V3c0-.992.808-1.8 1.8-1.8h15.6c.992 0 1.8.808 1.8 1.8v19.2c0 .993-.808 1.8-1.8 1.8ZM4.2 2.4a.6.6 0 0 0-.6.6v19.2a.6.6 0 0 0 .6.6h15.6a.6.6 0 0 0 .6-.6V3a.6.6 0 0 0-.6-.6H4.2Z"></path>
    <path fill="#333333" d="M15 6H6.6a.6.6 0 0 1 0-1.2H15A.6.6 0 0 1 15 6ZM17.4 8.4H6.6a.6.6 0 0 1 0-1.2h10.8a.6.6 0 0 1 0 1.2ZM17.4 10.8H6.6a.6.6 0 0 1 0-1.2h10.8a.6.6 0 0 1 0 1.2ZM12.6 13.2h-6a.6.6 0 0 1 0-1.2h6a.6.6 0 0 1 0 1.2ZM17.4 18H6.6a.6.6 0 0 1 0-1.2h10.8a.6.6 0 0 1 0 1.2ZM15 20.4H6.6a.6.6 0 0 1 0-1.2H15a.6.6 0 0 1 0 1.2Z"></path>
</svg>