<svg viewBox="0 0 24 24" fill="none" xmlns="http://www.w3.org/2000/svg" class="_Icon_6l72i_1 accordion-icon" data-icon-name="Swim" data-testid="rental.amenities.amenities-picker.category-poolandspafacilities.accordion.icon">
    <path fill="#333333" d="M15.6 10.8a2.402 2.402 0 0 1-2.4-2.4c0-1.324 1.076-2.4 2.4-2.4C16.924 6 18 7.076 18 8.4c0 1.324-1.076 2.4-2.4 2.4Zm0-3.6c-.661 0-1.2.539-1.2 1.2 0 .661.539 1.2 1.2 1.2.661 0 1.2-.539 1.2-1.2 0-.661-.539-1.2-1.2-1.2ZM6.6 10.8a.6.6 0 0 1-.334-1.1l3.6-2.4a.6.6 0 0 1 .813.14l1.8 2.4a.6.6 0 1 1-.96.72l-1.46-1.946-3.127 2.085a.596.596 0 0 1-.332.101ZM21 15.6a.602.602 0 0 1-.48-.239c-.017-.021-1.67-2.16-4.321-2.16-1.373 0-2.628.557-3.957 1.148-1.384.615-2.816 1.251-4.443 1.251-3.263 0-5.2-2.532-5.28-2.64a.6.6 0 1 1 .96-.72c.015.02 1.669 2.16 4.32 2.16 1.373 0 2.628-.558 3.956-1.148C13.14 12.636 14.572 12 16.2 12c3.263 0 5.2 2.532 5.28 2.64a.6.6 0 0 1-.48.96H21Z"></path>
    <path fill="#333333" d="M21 19.2a.602.602 0 0 1-.48-.239c-.017-.022-1.67-2.161-4.321-2.161-1.373 0-2.628.558-3.957 1.148-1.384.616-2.816 1.252-4.443 1.252-3.263 0-5.2-2.532-5.28-2.64a.6.6 0 1 1 .96-.72c.015.02 1.669 2.16 4.32 2.16 1.373 0 2.628-.558 3.956-1.149 1.385-.615 2.817-1.251 4.444-1.251 3.263 0 5.2 2.532 5.28 2.64a.6.6 0 0 1-.48.96H21Z"></path>
</svg>