<svg viewBox="0 0 24 24" fill="none" xmlns="http://www.w3.org/2000/svg" class="_Icon_6l72i_1 accordion-icon" data-icon-name="MedalFirst" data-testid="rental.amenities.amenities-picker.category-popular.accordion.icon">
    <path fill="#333333" d="m17.754 5.735-1.757-1.276-.67-2.065h-2.171l-1.757-1.276-1.757 1.276h-2.17L6.8 4.459 5.044 5.735l.67 2.065-.67 2.065L6.8 11.141l.399 1.225V23.4a.6.6 0 0 0 .932.5L11.4 21.72l3.267 2.178a.597.597 0 0 0 .616.03.598.598 0 0 0 .317-.53V12.367l.398-1.225 1.757-1.276-.67-2.065.67-2.065ZM11.732 20.5a.6.6 0 0 0-.666 0L8.4 22.279v-9.073h1.243l1.757 1.275 1.757-1.275h1.243v9.073l-2.668-1.778h.001Zm4.612-11.094-1.367.992-.52 1.6H14.4v.006h-1.633l-1.367.992-1.367-.992H8.345l-.522-1.607-1.367-.993.522-1.606-.522-1.607 1.367-.993.522-1.606h1.688L11.4 2.6l1.367.993h1.688l.522 1.606 1.367.993-.522 1.607.522 1.606v.002Z"></path>
    <path fill="#333333" d="M11.4 10.8a.6.6 0 0 1-.6-.6V6h-.6a.6.6 0 0 1 0-1.2h1.2a.6.6 0 0 1 .6.6v4.8a.6.6 0 0 1-.6.6Z"></path>
</svg>