<svg width="16" height="15" viewBox="0 0 16 15" fill="none"
    xmlns="http://www.w3.org/2000/svg">
    <path fill-rule="evenodd" clip-rule="evenodd" d="M5.94999 3C5.71836 4.14112 4.70948 5 3.5 5C2.29052 5 1.28164 4.14112 1.05001 3H0.5C0.223858 3 0 2.77614 0 2.5C0 2.22386 0.223858 2 0.5 2H1.05001C1.28164 0.85888 2.29052 0 3.5 0C4.70948 0 5.71836 0.85888 5.94999 2H15.5C15.7761 2 16 2.22386 16 2.5C16 2.77614 15.7761 3 15.5 3H5.94999ZM5 2.5C5 3.32843 4.32843 4 3.5 4C2.67157 4 2 3.32843 2 2.5C2 1.67157 2.67157 1 3.5 1C4.32843 1 5 1.67157 5 2.5Z" fill="#333333"/>
    <path fill-rule="evenodd" clip-rule="evenodd" d="M14.95 8C14.7184 9.14112 13.7095 10 12.5 10C11.2905 10 10.2816 9.14112 10.05 8H0.5C0.223858 8 0 7.77614 0 7.5C0 7.22386 0.223858 7 0.5 7H10.05C10.2816 5.85888 11.2905 5 12.5 5C13.7297 5 14.752 5.88783 14.961 7.05746C14.9575 7.03823 14.9539 7.01907 14.95 7H15.5C15.7761 7 16 7.22386 16 7.5C16 7.77614 15.7761 8 15.5 8H14.95ZM14 7.5C14 8.32843 13.3284 9 12.5 9C11.6716 9 11 8.32843 11 7.5C11 6.67157 11.6716 6 12.5 6C13.3284 6 14 6.67157 14 7.5Z" fill="#333333"/>
    <path fill-rule="evenodd" clip-rule="evenodd" d="M5.94999 12C5.71836 10.8589 4.70948 10 3.5 10C2.29052 10 1.28164 10.8589 1.05001 12H0.5C0.223858 12 0 12.2239 0 12.5C0 12.7761 0.223858 13 0.5 13H1.05001C1.28164 14.1411 2.29052 15 3.5 15C4.70948 15 5.71836 14.1411 5.94999 13H15.5C15.7761 13 16 12.7761 16 12.5C16 12.2239 15.7761 12 15.5 12H5.94999ZM5 12.5C5 13.3284 4.32843 14 3.5 14C2.67157 14 2 13.3284 2 12.5C2 11.6716 2.67157 11 3.5 11C4.32843 11 5 11.6716 5 12.5Z" fill="#333333"/>
</svg>
