<svg width="14" height="16" viewBox="0 0 14 16" fill="none" xmlns="http://www.w3.org/2000/svg">
<path d="M6.51691 1.77912C6.59046 1.70406 6.69068 1.66111 6.79575 1.65961C6.90101 1.66023 7.00156 1.70332 7.0746 1.77912C7.18618 1.89292 7.21919 2.06229 7.1585 2.20967C7.09781 2.35704 6.95512 2.45406 6.79575 2.4563C6.68226 2.46244 6.57172 2.41881 6.49301 2.3368C6.41867 2.26277 6.37585 2.16285 6.37351 2.05796C6.38024 1.94905 6.43224 1.84794 6.51691 1.77912Z" fill="#333333"/>
<path fill-rule="evenodd" clip-rule="evenodd" d="M9.98249 4.04968H3.60898C3.49926 4.05627 3.39168 4.01724 3.31173 3.9418C3.23177 3.86637 3.18654 3.76126 3.18674 3.65133C3.13496 2.89653 3.54842 2.18638 4.2304 1.85878C4.42217 1.76502 4.6259 1.69801 4.83588 1.65961C4.99793 0.701377 5.82788 0 6.79972 0C7.77156 0 8.60151 0.701377 8.76355 1.65961C8.97284 1.71121 9.17393 1.79165 9.36107 1.89862C10.0212 2.22601 10.4225 2.91562 10.3808 3.65133C10.3808 3.87133 10.2025 4.04968 9.98249 4.04968ZM5.20224 2.4563C4.98046 2.46705 4.76336 2.52404 4.56489 2.62361C4.31076 2.74835 4.12431 2.9785 4.05501 3.25299H9.56013C9.48036 2.9689 9.27487 2.73699 9.00245 2.62361C8.80398 2.52404 8.58689 2.46705 8.3651 2.4563C8.1451 2.4563 7.96675 2.27796 7.96675 2.05796C7.96675 1.39796 7.43172 0.862924 6.77172 0.862924C6.11172 0.862924 5.57669 1.39796 5.57669 2.05796C5.57707 2.26895 5.41286 2.44364 5.20224 2.4563Z" fill="#333333"/>
<path d="M0 16H13.5437V2.67936H11.1536V3.47605H12.7948V15.2033H0.796689V3.47605H2.2387V2.67936H0V16Z" fill="#333333"/>
<path d="M7.96689 12.8133H3.18676V12.0166H7.96689V12.8133Z" fill="#333333"/>
<path d="M3.18676 10.4232H7.96689V9.6265H3.18676V10.4232Z" fill="#333333"/>
<path d="M9.56027 8.03312H3.18676V7.23643H9.56027V8.03312Z" fill="#333333"/>
</svg>
