<?xml version="1.0" encoding="utf-8"?>
<!-- Generator: Adobe Illustrator 23.0.3, SVG Export Plug-In . SVG Version: 6.00 Build 0)  -->
<svg version="1.1" baseProfile="tiny" id="Layer_1" xmlns="http://www.w3.org/2000/svg" xmlns:xlink="http://www.w3.org/1999/xlink"
	 x="0px" y="0px" viewBox="0 0 18 9" xml:space="preserve">
<path fill-rule="evenodd" fill="#333333" d="M9.1,6.8c1.3,0,2.3-1,2.3-2.3c0-1.3-1-2.3-2.3-2.3c-1.3,0-2.3,1-2.3,2.3
	C6.8,5.8,7.8,6.8,9.1,6.8z M9.1,3.8c0,0.4-0.3,0.8-0.8,0.8c-0.4,0-0.8-0.3-0.8-0.8S7.9,3,8.3,3C8.7,3,9.1,3.4,9.1,3.8z"/>
<path fill-rule="evenodd" fill="#333333" d="M1.1,4.6c0,1.9,3.9,4.2,8,4.2c4.1,0,8-2.3,8-4.2c0-1.8-4.1-4.2-8-4.2
	C5.1,0.4,1.1,2.7,1.1,4.6z M16.3,4.6c0,1.3-3.5,3.4-7.2,3.4C5.3,8,1.8,5.9,1.8,4.6c0-1.3,3.7-3.4,7.2-3.4
	C12.6,1.1,16.3,3.3,16.3,4.6z"/>
</svg>
