<svg width="18" height="18" viewBox="0 0 18 18" fill="none" xmlns="http://www.w3.org/2000/svg">
<path fill-rule="evenodd" clip-rule="evenodd" d="M17.0526 9C17.0526 13.4474 13.4473 17.0526 8.99993 17.0526C4.55258 17.0526 0.947296 13.4474 0.947296 9C0.947296 4.55266 4.55258 0.947373 8.99993 0.947373C13.4473 0.947373 17.0526 4.55266 17.0526 9ZM0 9C0 13.9706 4.02944 18 9 18C13.9706 18 18 13.9706 18 9C18 4.02944 13.9706 0 9 0C4.02944 0 0 4.02944 0 9ZM9.80754 13.0182C9.80754 12.6276 9.49254 12.3126 9.10194 12.3126C8.72394 12.3126 8.40894 12.6276 8.40894 13.0182C8.40894 13.3962 8.72394 13.7112 9.10194 13.7112C9.49254 13.7112 9.80754 13.3962 9.80754 13.0182ZM6.93457 6.54177L7.96777 6.80637C7.96777 5.87397 8.53477 5.11797 9.42937 5.11797C10.324 5.11797 10.8028 5.76057 10.8028 6.59217C10.8028 7.43771 10.3723 7.85273 9.89388 8.31389C9.29583 8.89043 8.62297 9.53907 8.62297 11.1912H9.66877C9.66877 9.93391 10.2603 9.35872 10.8442 8.79102C11.413 8.23792 11.9746 7.69193 11.9746 6.52917C11.9746 5.28177 11.2312 4.12257 9.45457 4.12257C8.01817 4.12257 6.93457 5.08017 6.93457 6.54177Z" fill="#333333"/>
</svg>
