<svg width="14" height="14" viewBox="0 0 14 14" fill="none"
    xmlns="http://www.w3.org/2000/svg">
    <path d="M1.05273 0H4.89673V0.00534309C4.91617 0.00178103 4.93626 0 4.95698 0C5.05268 0 5.13472 0.0379816 5.20307 0.113945C5.27143 0.189908 5.30561 0.281063 5.30561 0.387412C5.30561 0.49376 5.27143 0.584916 5.20307 0.660879C5.13472 0.736842 5.05268 0.774824 4.95698 0.774824C4.93626 0.774824 4.91617 0.773043 4.89673 0.769481V0.774824H1.05273C0.952474 0.774824 0.868164 0.812805 0.799805 0.888768C0.731445 0.964731 0.697266 1.05589 0.697266 1.16224V3.10689V3.88931V12.8302C0.697266 12.9416 0.731445 13.0353 0.799805 13.1112C0.868164 13.1872 0.952474 13.2252 1.05273 13.2252H12.9473C13.0475 13.2252 13.1318 13.1872 13.2002 13.1112C13.2686 13.0353 13.3027 12.9416 13.3027 12.8302V8.94086H14V12.8302C14 13.1543 13.8975 13.4303 13.6924 13.6582C13.4873 13.8861 13.2389 14 12.9473 14H1.05273C0.761068 14 0.512695 13.8861 0.307617 13.6582C0.102539 13.4303 0 13.1543 0 12.8302V1.16224C0 0.84319 0.102539 0.569723 0.307617 0.341834C0.512695 0.113945 0.761068 0 1.05273 0Z" fill="#333333"/>
    <path d="M13.3027 0H8.75C8.6543 0 8.57227 0.0379816 8.50391 0.113945C8.43555 0.189908 8.40137 0.281063 8.40137 0.387412C8.40137 0.498824 8.43555 0.592512 8.50391 0.668475C8.57227 0.744438 8.6543 0.78242 8.75 0.78242H12.4551L7.32129 6.65437C7.25293 6.73033 7.21875 6.82149 7.21875 6.92783C7.21875 7.03418 7.25293 7.12534 7.32129 7.2013C7.35775 7.24182 7.39648 7.2722 7.4375 7.29246C7.48307 7.30765 7.52865 7.31525 7.57422 7.31525C7.61523 7.31525 7.65625 7.30765 7.69727 7.29246C7.74284 7.2722 7.78385 7.24182 7.82031 7.2013L12.9541 1.32935V5.44655C12.9541 5.5529 12.9883 5.64406 13.0566 5.72002C13.125 5.79598 13.207 5.83397 13.3027 5.83397C13.3984 5.83397 13.4805 5.79598 13.5488 5.72002C13.6172 5.64406 13.6514 5.5529 13.6514 5.44655V0.387412C13.6514 0.281063 13.6172 0.189908 13.5488 0.113945C13.4805 0.0379816 13.3984 0 13.3027 0Z" fill="#333333"/>
</svg>
