<svg width="24" height="24" viewBox="0 0 24 24" fill="none"
    xmlns="http://www.w3.org/2000/svg">
    <path fill-rule="evenodd" clip-rule="evenodd" d="M17.495 13.9846H17.4942C17.299 13.8798 17.0566 13.9554 16.9534 14.1536C15.9799 16.0256 14.0815 17.1875 11.9992 17.1875C8.96806 17.1875 6.49133 14.7281 6.40173 11.6714L7.31611 12.6001C7.3945 12.6806 7.4969 12.7187 7.5993 12.7187C7.7017 12.7187 7.80409 12.6789 7.88249 12.6001C8.03849 12.4425 8.03849 12.1841 7.88249 12.0257L6.28254 10.4007C6.12654 10.2431 5.87295 10.2431 5.71695 10.4007L4.117 12.0257C3.961 12.1841 3.961 12.4425 4.117 12.6001C4.27299 12.7586 4.52659 12.7586 4.68258 12.6001L5.60176 11.6666C5.64255 13.3403 6.30414 14.9092 7.4745 16.0971C8.68327 17.324 10.2904 18 12 18C14.3791 18 16.5486 16.6724 17.6614 14.5347C17.7646 14.3364 17.6902 14.0902 17.495 13.9846ZM19.883 10.4007H19.8822C19.7262 10.2414 19.4726 10.2414 19.3166 10.4007L18.3974 11.3334C18.3566 9.6605 17.6951 8.09156 16.5247 6.90369C15.3159 5.676 13.7088 5 11.9992 5C9.62009 5 7.45055 6.32844 6.33778 8.46613C6.23459 8.66438 6.30898 8.91056 6.50418 9.01619C6.69937 9.121 6.94177 9.04544 7.04496 8.84719C8.01854 6.97519 9.91688 5.8125 11.9992 5.8125C15.0303 5.8125 17.5071 8.27275 17.5967 11.3286L16.6823 10.4007C16.5263 10.2414 16.2727 10.2414 16.1167 10.4007C15.9607 10.5583 15.9607 10.8167 16.1167 10.9751L17.7167 12.6001C17.7951 12.6789 17.8975 12.7179 17.9999 12.7179C18.1023 12.7179 18.2046 12.6789 18.283 12.6001L19.883 10.9751C20.039 10.8167 20.039 10.5583 19.883 10.4007Z" fill="#333333"/>
</svg>
