<svg width="13" height="13" viewBox="0 0 13 13" fill="none" xmlns="http://www.w3.org/2000/svg">
<path fill-rule="evenodd" clip-rule="evenodd" d="M12.2862 9.19335C11.8301 8.14648 11.177 7.20591 10.345 6.39839C9.51311 5.59087 8.5441 4.95694 7.46557 4.51418C6.34844 4.05537 5.16199 3.8229 3.93929 3.8229H1.345L4.6113 0.65324C4.76493 0.50336 4.76493 0.260952 4.6113 0.111837C4.45768 -0.0372789 4.20794 -0.0372789 4.05431 0.111837L0.115219 3.93531C-0.0384062 4.08443 -0.0384062 4.32683 0.115219 4.47595L4.05431 8.29942C4.13152 8.37436 4.23236 8.41107 4.3332 8.41107C4.43404 8.41107 4.53488 8.3736 4.61209 8.29942C4.76571 8.15031 4.76571 7.9079 4.61209 7.75878L1.34579 4.58836H3.94008C8.50155 4.58836 12.2122 8.19007 12.2122 12.6177C12.2122 12.8287 12.3887 13 12.6061 13C12.8235 13 13 12.8287 13 12.6177C13 11.4308 12.7605 10.2792 12.2878 9.19488L12.2862 9.19335Z" fill="#333333"/>
</svg>
