<svg width="23" height="25" viewBox="0 0 23 25" fill="none" xmlns="http://www.w3.org/2000/svg">
    <path d="M0.597705 24.7554C0.58208 24.7554 0.562549 24.7554 0.539111 24.7554C0.515674 24.7554 0.496143 24.7515 0.480518 24.7437C0.316455 24.7124 0.187549 24.6265 0.0937988 24.4858C0.00786133 24.3452 -0.0194824 24.1968 0.0117676 24.0405L4.81646 1.23584C4.84771 1.07178 4.93364 0.946777 5.07427 0.86084C5.21489 0.76709 5.36333 0.73584 5.51958 0.76709C5.68364 0.806152 5.80864 0.895996 5.89458 1.03662C5.98833 1.16943 6.01958 1.31787 5.98833 1.48193L1.18364 24.2866C1.15239 24.4272 1.08208 24.5405 0.972705 24.6265C0.86333 24.7124 0.73833 24.7554 0.597705 24.7554ZM22.1954 24.7554C22.0626 24.7554 21.9376 24.7124 21.8204 24.6265C21.711 24.5405 21.6407 24.4272 21.6094 24.2866L16.8165 1.48193C16.7774 1.31787 16.8008 1.16943 16.8868 1.03662C16.9805 0.895996 17.1094 0.806152 17.2735 0.76709C17.4376 0.73584 17.5899 0.76709 17.7305 0.86084C17.8711 0.946777 17.9571 1.07178 17.9883 1.23584L22.7813 24.0405C22.8204 24.1968 22.793 24.3452 22.6993 24.4858C22.6133 24.6265 22.4883 24.7124 22.3243 24.7437C22.3008 24.7515 22.2774 24.7554 22.254 24.7554C22.2383 24.7554 22.2188 24.7554 22.1954 24.7554ZM11.4024 4.36475C11.2383 4.36475 11.0977 4.30615 10.9805 4.18896C10.8633 4.07178 10.8047 3.92725 10.8047 3.75537V1.36475C10.8047 1.19287 10.8633 1.04834 10.9805 0.931152C11.0977 0.813965 11.2383 0.755371 11.4024 0.755371C11.5665 0.755371 11.7071 0.813965 11.8243 0.931152C11.9415 1.04834 12 1.19287 12 1.36475V3.75537C12 3.92725 11.9415 4.07178 11.8243 4.18896C11.7071 4.30615 11.5665 4.36475 11.4024 4.36475ZM11.4024 12.7554C11.2383 12.7554 11.0977 12.6968 10.9805 12.5796C10.8633 12.4624 10.8047 12.3218 10.8047 12.1577V7.36475C10.8047 7.19287 10.8633 7.04834 10.9805 6.93115C11.0977 6.81396 11.2383 6.75537 11.4024 6.75537C11.5665 6.75537 11.7071 6.81396 11.8243 6.93115C11.9415 7.04834 12 7.19287 12 7.36475V12.1577C12 12.3218 11.9415 12.4624 11.8243 12.5796C11.7071 12.6968 11.5665 12.7554 11.4024 12.7554ZM11.4024 24.7554C11.2383 24.7554 11.0977 24.6968 10.9805 24.5796C10.8633 24.4624 10.8047 24.3218 10.8047 24.1577V16.9624C10.8047 16.7983 10.8633 16.6577 10.9805 16.5405C11.0977 16.4233 11.2383 16.3647 11.4024 16.3647C11.5665 16.3647 11.7071 16.4233 11.8243 16.5405C11.9415 16.6577 12 16.7983 12 16.9624V24.1577C12 24.3218 11.9415 24.4624 11.8243 24.5796C11.7071 24.6968 11.5665 24.7554 11.4024 24.7554Z" fill="black"/>
    </svg>
    