<svg width="16" height="16" viewBox="0 0 16 16" fill="none" xmlns="http://www.w3.org/2000/svg">
    <path fill-rule="evenodd" clip-rule="evenodd" d="M15.8887 15.3296L10.8841 10.1424C12.0117 9.0216 12.6314 7.556 12.6314 6C12.6314 4.3976 11.9746 2.8904 10.7814 1.7576C9.5881 0.6248 8.00244 0 6.31572 0C4.629 0 3.04249 0.624 1.85008 1.7576C0.657677 2.8912 0 4.3976 0 6C0 7.6024 0.656835 9.1096 1.85008 10.2424C3.04333 11.3752 4.629 12 6.31572 12C7.76918 12 9.14684 11.5368 10.2635 10.684L15.268 15.8704C15.3514 15.9568 15.4642 16 15.5788 16C15.6807 16 15.7826 15.9656 15.8634 15.8952C16.0352 15.7456 16.0461 15.4928 15.8895 15.3304L15.8887 15.3296ZM0.841452 6.00001C0.841452 3.13281 3.297 0.800006 6.31507 0.800006C9.33314 0.800006 11.7887 3.13281 11.7887 6.00001C11.7887 8.86721 9.33314 11.2 6.31507 11.2C3.297 11.2 0.841452 8.86721 0.841452 6.00001Z" fill="#CCCCCC" />
</svg>