<svg viewBox="0 0 24 24" fill="none" xmlns="http://www.w3.org/2000/svg" class="_Icon_6l72i_1 accordion-icon" data-icon-name="Platter" data-testid="rental.amenities.amenities-picker.category-services.accordion.icon">
    <path fill="#333333" d="M22.2 20.4H.6a.6.6 0 0 1 0-1.2h21.6a.6.6 0 0 1 0 1.2ZM21.6 17.369a10.129 10.129 0 0 0-2.988-7.181A10.125 10.125 0 0 0 12 7.218V6h.6a.6.6 0 0 0 0-1.2h-2.4a.6.6 0 0 0 0 1.2h.6v1.218a10.125 10.125 0 0 0-6.612 2.97A10.135 10.135 0 0 0 1.2 17.4a.6.6 0 0 0 .6.6h19.201a.6.6 0 0 0 .6-.6l-.001-.031Zm-19.18-.57c.309-4.683 4.218-8.4 8.98-8.4 4.762 0 8.67 3.717 8.98 8.4H2.42Z"></path>
    <path fill="#333333" d="M5.551 13.8a.6.6 0 0 1-.487-.95A7.805 7.805 0 0 1 10.1 9.708a.6.6 0 0 1 .2 1.183 6.56 6.56 0 0 0-4.262 2.66.6.6 0 0 1-.487.25Z"></path>
</svg>