<svg width="24" height="25" viewBox="0 0 24 25" fill="none" xmlns="http://www.w3.org/2000/svg">
    <path d="M6.59766 9.15771C6.51953 9.15771 6.44141 9.14209 6.36328 9.11084C6.29297 9.07959 6.23047 9.03662 6.17578 8.98193C6.12109 8.92725 6.07812 8.86475 6.04688 8.79443C6.01562 8.71631 6 8.63818 6 8.56006C6 8.48193 6.01562 8.40771 6.04688 8.3374C6.07812 8.25928 6.12109 8.19287 6.17578 8.13818C6.23047 8.0835 6.29297 8.04053 6.36328 8.00928C6.44141 7.97803 6.51953 7.9624 6.59766 7.9624C6.67578 7.9624 6.75 7.97803 6.82031 8.00928C6.89844 8.04053 6.96484 8.0835 7.01953 8.13818C7.08203 8.19287 7.125 8.25928 7.14844 8.3374C7.17969 8.40771 7.19531 8.48193 7.19531 8.56006C7.19531 8.63818 7.17969 8.71631 7.14844 8.79443C7.125 8.86475 7.08203 8.92725 7.01953 8.98193C6.96484 9.03662 6.89844 9.07959 6.82031 9.11084C6.75 9.14209 6.67578 9.15771 6.59766 9.15771ZM10.1953 9.15771H9C8.83594 9.15771 8.69531 9.09912 8.57812 8.98193C8.46094 8.86475 8.40234 8.72412 8.40234 8.56006C8.40234 8.396 8.46094 8.25537 8.57812 8.13818C8.69531 8.021 8.83594 7.9624 9 7.9624H10.1953C10.3672 7.9624 10.5117 8.021 10.6289 8.13818C10.7461 8.25537 10.8047 8.396 10.8047 8.56006C10.8047 8.72412 10.7461 8.86475 10.6289 8.98193C10.5117 9.09912 10.3672 9.15771 10.1953 9.15771ZM13.8047 9.15771H12.5977C12.4336 9.15771 12.293 9.09912 12.1758 8.98193C12.0586 8.86475 12 8.72412 12 8.56006C12 8.396 12.0586 8.25537 12.1758 8.13818C12.293 8.021 12.4336 7.9624 12.5977 7.9624H13.8047C13.9688 7.9624 14.1094 8.021 14.2266 8.13818C14.3438 8.25537 14.4023 8.396 14.4023 8.56006C14.4023 8.72412 14.3438 8.86475 14.2266 8.98193C14.1094 9.09912 13.9688 9.15771 13.8047 9.15771ZM16.1953 9.15771C16.1172 9.15771 16.0391 9.14209 15.9609 9.11084C15.8906 9.07959 15.8281 9.03662 15.7734 8.98193C15.7188 8.92725 15.6758 8.86475 15.6445 8.79443C15.6133 8.71631 15.5977 8.63818 15.5977 8.56006C15.5977 8.48193 15.6133 8.40771 15.6445 8.3374C15.6758 8.25928 15.7188 8.19287 15.7734 8.13818C15.8281 8.0835 15.8906 8.04053 15.9609 8.00928C16.0391 7.97803 16.1172 7.9624 16.1953 7.9624C16.2812 7.9624 16.3594 7.97803 16.4297 8.00928C16.5 8.04053 16.5664 8.0835 16.6289 8.13818C16.6836 8.19287 16.7266 8.25928 16.7578 8.3374C16.7891 8.40771 16.8047 8.48193 16.8047 8.56006C16.8047 8.63818 16.7891 8.71631 16.7578 8.79443C16.7266 8.86475 16.6836 8.92725 16.6289 8.98193C16.5664 9.03662 16.5 9.07959 16.4297 9.11084C16.3594 9.14209 16.2812 9.15771 16.1953 9.15771ZM19.4062 24.7671C19.0469 24.7671 18.7148 24.7007 18.4102 24.5679C18.1055 24.4351 17.8242 24.2358 17.5664 23.9702C17.332 23.728 17.1523 23.4546 17.0273 23.1499C16.9023 22.8374 16.832 22.521 16.8164 22.2007C16.8008 21.8726 16.8398 21.5483 16.9336 21.228C17.0352 20.9077 17.1914 20.6147 17.4023 20.3491C17.6836 19.9976 18.0742 19.7319 18.5742 19.5522C19.082 19.3647 19.6758 19.3804 20.3555 19.5991C20.3242 19.2632 20.2578 18.939 20.1562 18.6265C20.0547 18.3062 19.8984 18.0562 19.6875 17.8765C19.5078 17.728 19.2891 17.6343 19.0312 17.5952C18.7734 17.5562 18.4648 17.5679 18.1055 17.6304C17.5586 17.7241 17.0547 17.9546 16.5938 18.3218C16.1328 18.6812 15.6562 19.0952 15.1641 19.564C14.8203 19.8921 14.4609 20.2241 14.0859 20.5601C13.7109 20.8882 13.3008 21.189 12.8555 21.4624C12.4102 21.728 11.918 21.9468 11.3789 22.1187C10.8477 22.2827 10.2539 22.3647 9.59766 22.3647C8.87109 22.3647 8.29297 22.2124 7.86328 21.9077C7.44141 21.5952 7.07812 21.2866 6.77344 20.9819C6.49219 20.7007 6.21094 20.4624 5.92969 20.2671C5.64844 20.064 5.27344 19.9624 4.80469 19.9624C4.48438 19.9624 4.13672 20.0483 3.76172 20.2202C3.38672 20.3921 3.01953 20.5991 2.66016 20.8413C2.30859 21.0835 1.98438 21.3296 1.6875 21.5796C1.39844 21.8296 1.17578 22.0327 1.01953 22.189C0.902344 22.3062 0.761719 22.3647 0.597656 22.3647C0.433594 22.3647 0.292969 22.3062 0.175781 22.189C0.0585938 22.0718 0 21.9312 0 21.7671C0 21.5952 0.0585938 21.4507 0.175781 21.3335C0.191406 21.3257 0.335938 21.1929 0.609375 20.9351C0.890625 20.6694 1.24609 20.3843 1.67578 20.0796C2.26953 19.6421 2.82812 19.314 3.35156 19.0952C3.88281 18.8687 4.36719 18.7554 4.80469 18.7554C5.52344 18.7554 6.09375 18.9116 6.51562 19.2241C6.94531 19.5288 7.31641 19.8335 7.62891 20.1382C7.91016 20.4194 8.1875 20.6616 8.46094 20.8647C8.74219 21.0601 9.12109 21.1577 9.59766 21.1577C10.1367 21.1577 10.625 21.0874 11.0625 20.9468C11.5078 20.8062 11.918 20.6187 12.293 20.3843C12.6758 20.1499 13.0312 19.8882 13.3594 19.5991C13.6953 19.3022 14.0234 19.0015 14.3438 18.6968C14.6016 18.4546 14.8633 18.2124 15.1289 17.9702C15.3945 17.728 15.6719 17.5054 15.9609 17.3022C16.25 17.0991 16.5547 16.9233 16.875 16.7749C17.1953 16.6187 17.5352 16.5093 17.8945 16.4468C18.4336 16.353 18.9141 16.3491 19.3359 16.4351C19.7656 16.5132 20.1367 16.6851 20.4492 16.9507C20.707 17.1616 20.9102 17.4116 21.0586 17.7007C21.2148 17.9897 21.332 18.2944 21.4102 18.6147C21.4883 18.9351 21.5391 19.2632 21.5625 19.5991C21.5859 19.9351 21.5977 20.2554 21.5977 20.5601C21.5977 20.6694 21.5703 20.771 21.5156 20.8647C21.4609 20.9585 21.3867 21.0327 21.293 21.0874C21.1992 21.1343 21.0977 21.1577 20.9883 21.1577C20.8867 21.1577 20.7891 21.1304 20.6953 21.0757C20.1875 20.771 19.7266 20.6226 19.3125 20.6304C18.9062 20.6304 18.582 20.7866 18.3398 21.0991C18.1367 21.3569 18.0273 21.689 18.0117 22.0952C18.0039 22.4937 18.1445 22.8452 18.4336 23.1499C18.5742 23.2983 18.7266 23.4077 18.8906 23.478C19.0547 23.5483 19.2383 23.5796 19.4414 23.5718C19.7695 23.564 20.1094 23.4741 20.4609 23.3022C20.8203 23.1304 21.1602 22.9272 21.4805 22.6929C21.8086 22.4507 22.1016 22.2085 22.3594 21.9663C22.6172 21.7163 22.8125 21.5171 22.9453 21.3687C23.0547 21.2437 23.1914 21.1772 23.3555 21.1694C23.5273 21.1538 23.6758 21.2007 23.8008 21.3101C23.9258 21.4194 23.9922 21.5562 24 21.7202C24.0078 21.8843 23.957 22.0288 23.8477 22.1538C23.8398 22.1694 23.7109 22.3062 23.4609 22.564C23.2109 22.8218 22.8906 23.1069 22.5 23.4194C21.9453 23.8569 21.4141 24.189 20.9062 24.4155C20.3984 24.6421 19.918 24.7593 19.4648 24.7671C19.457 24.7671 19.4453 24.7671 19.4297 24.7671C19.4219 24.7671 19.4141 24.7671 19.4062 24.7671ZM9 24.7671C8.96875 24.7671 8.9375 24.7632 8.90625 24.7554C8.875 24.7554 8.84375 24.7515 8.8125 24.7437C8.58594 24.6655 8.375 24.5796 8.17969 24.4858C7.99219 24.3921 7.80859 24.2983 7.62891 24.2046C7.30859 24.0327 6.98438 23.8804 6.65625 23.7476C6.33594 23.6226 5.91797 23.5601 5.40234 23.5601C5.01172 23.5601 4.62109 23.6929 4.23047 23.9585C3.83984 24.2319 3.57031 24.439 3.42188 24.5796C3.30469 24.6968 3.16406 24.7554 3 24.7554C2.83594 24.7554 2.69531 24.6968 2.57812 24.5796C2.46094 24.4624 2.40234 24.3218 2.40234 24.1577C2.40234 23.9937 2.46094 23.853 2.57812 23.7358C2.60938 23.6968 2.70703 23.6069 2.87109 23.4663C3.04297 23.3179 3.25781 23.1616 3.51562 22.9976C3.77344 22.8335 4.0625 22.689 4.38281 22.564C4.71094 22.4312 5.05078 22.3647 5.40234 22.3647C6.07422 22.3647 6.62109 22.4507 7.04297 22.6226C7.47266 22.7866 7.85938 22.9624 8.20312 23.1499C8.36719 23.2358 8.52734 23.3179 8.68359 23.396C8.83984 23.4741 9.00781 23.5444 9.1875 23.6069C9.34375 23.6538 9.45703 23.7515 9.52734 23.8999C9.60547 24.0483 9.62109 24.2007 9.57422 24.3569C9.52734 24.4819 9.44922 24.5796 9.33984 24.6499C9.23828 24.728 9.125 24.7671 9 24.7671ZM21.1289 11.5718C21.1133 11.5718 21.0547 11.5601 20.9531 11.5366C20.8516 11.5132 20.7148 11.4858 20.543 11.4546L21.5859 7.51709C21.625 7.36084 21.6055 7.2124 21.5273 7.07178C21.4492 6.93115 21.3359 6.8374 21.1875 6.79053L17.5898 5.59521C17.5586 5.57959 17.5273 5.57178 17.4961 5.57178C17.4648 5.56396 17.4336 5.56006 17.4023 5.56006H16.3477C16.1836 5.47412 15.8984 5.32568 15.4922 5.11475C15.0938 4.896 14.668 4.646 14.2148 4.36475C13.2148 3.74756 12.5977 3.29834 12.3633 3.01709C12.1289 2.73584 12.0078 2.57959 12 2.54834V1.36475C12 1.19287 11.9414 1.04834 11.8242 0.931152C11.707 0.813965 11.5664 0.755371 11.4023 0.755371C11.2383 0.755371 11.0977 0.813965 10.9805 0.931152C10.8633 1.04834 10.8047 1.19287 10.8047 1.36475V2.54834C10.7891 2.57959 10.6641 2.73584 10.4297 3.01709C10.1953 3.29834 9.58203 3.74756 8.58984 4.36475C8.13672 4.646 7.70703 4.896 7.30078 5.11475C6.90234 5.32568 6.62109 5.47412 6.45703 5.56006H5.40234C5.37109 5.56006 5.33984 5.56396 5.30859 5.57178C5.27734 5.57178 5.24609 5.57959 5.21484 5.59521L1.60547 6.79053C1.45703 6.8374 1.34375 6.93115 1.26562 7.07178C1.19531 7.2124 1.17969 7.36084 1.21875 7.51709L2.26172 11.4546C2.08984 11.4858 1.95312 11.5132 1.85156 11.5366C1.75 11.5601 1.6875 11.5718 1.66406 11.5718C1.53125 11.603 1.41797 11.6733 1.32422 11.7827C1.23828 11.8921 1.19531 12.0171 1.19531 12.1577C1.19531 12.6343 1.21484 13.1226 1.25391 13.6226C1.30078 14.1147 1.36719 14.6187 1.45312 15.1343C1.53906 15.6499 1.64453 16.1772 1.76953 16.7163C1.90234 17.2476 2.05469 17.7866 2.22656 18.3335C2.26562 18.4663 2.33984 18.5718 2.44922 18.6499C2.55859 18.7202 2.67578 18.7554 2.80078 18.7554C2.83203 18.7554 2.85938 18.7554 2.88281 18.7554C2.91406 18.7476 2.94531 18.7397 2.97656 18.7319C3.13281 18.6851 3.25 18.5874 3.32812 18.439C3.40625 18.2905 3.42188 18.1382 3.375 17.9819C3.22656 17.5054 3.09375 17.0366 2.97656 16.5757C2.86719 16.1147 2.76953 15.6616 2.68359 15.2163C2.60547 14.771 2.54297 14.3335 2.49609 13.9038C2.44922 13.4741 2.41797 13.0562 2.40234 12.6499C2.73828 12.5796 3.21094 12.4897 3.82031 12.3804C4.42969 12.2632 5.11328 12.1499 5.87109 12.0405C6.63672 11.9233 7.44531 11.8218 8.29688 11.7358C9.14844 11.6421 9.98438 11.5874 10.8047 11.5718V19.3647C10.8047 19.5288 10.8633 19.6694 10.9805 19.7866C11.0977 19.9038 11.2383 19.9624 11.4023 19.9624C11.5664 19.9624 11.707 19.9038 11.8242 19.7866C11.9414 19.6694 12 19.5288 12 19.3647V11.5718C12.8125 11.5874 13.6445 11.6421 14.4961 11.7358C15.3477 11.8218 16.1562 11.9233 16.9219 12.0405C17.6875 12.1499 18.375 12.2632 18.9844 12.3804C19.5938 12.4897 20.0625 12.5796 20.3906 12.6499C20.375 13.1187 20.3359 13.6069 20.2734 14.1147C20.2188 14.6147 20.1367 15.1226 20.0273 15.6382C19.9961 15.8022 20.0234 15.9546 20.1094 16.0952C20.2031 16.228 20.332 16.314 20.4961 16.353C20.6602 16.3843 20.8086 16.353 20.9414 16.2593C21.082 16.1655 21.168 16.0405 21.1992 15.8843C21.2695 15.5562 21.3281 15.2319 21.375 14.9116C21.4219 14.5913 21.4609 14.2788 21.4922 13.9741C21.5312 13.6616 21.5586 13.3569 21.5742 13.0601C21.5898 12.7554 21.5977 12.4546 21.5977 12.1577C21.5977 12.0171 21.5547 11.8921 21.4688 11.7827C21.3828 11.6733 21.2695 11.603 21.1289 11.5718ZM13.4766 5.31396C13.5469 5.36084 13.6133 5.40381 13.6758 5.44287C13.7461 5.48193 13.8125 5.521 13.875 5.56006H12V4.28271C12.1953 4.43896 12.418 4.60693 12.668 4.78662C12.918 4.9585 13.1875 5.13428 13.4766 5.31396ZM9.31641 5.31396C9.61328 5.13428 9.88281 4.9585 10.125 4.78662C10.375 4.60693 10.6016 4.43896 10.8047 4.28271V5.56006H8.92969C8.99219 5.521 9.05469 5.48193 9.11719 5.44287C9.1875 5.40381 9.25391 5.36084 9.31641 5.31396ZM2.51953 7.75146L5.49609 6.75537H17.2969L20.2734 7.75146L19.3594 11.2202C18.875 11.1343 18.3164 11.0405 17.6836 10.939C17.0508 10.8374 16.3828 10.7437 15.6797 10.6577C14.9844 10.5718 14.2695 10.5015 13.5352 10.4468C12.8086 10.3921 12.0977 10.3647 11.4023 10.3647C10.707 10.3647 9.99219 10.3921 9.25781 10.4468C8.53125 10.5015 7.81641 10.5718 7.11328 10.6577C6.41016 10.7437 5.74219 10.8374 5.10938 10.939C4.48438 11.0405 3.92578 11.1343 3.43359 11.2202L2.51953 7.75146Z" fill="black" />
</svg>
    