<svg width="14" height="16" viewBox="0 0 14 16" fill="none" xmlns="http://www.w3.org/2000/svg">
    <path fill-rule="evenodd" clip-rule="evenodd" d="M9.24047 7.64208H4.72001V5.92967H9.24047C9.43869 5.92967 9.60036 5.76929 9.60036 5.57205C9.60036 5.37431 9.43869 5.21393 9.24047 5.21393H7.16019V4.35772C7.16019 4.16048 6.99851 4.0001 6.80029 4.0001C6.60208 4.0001 6.4404 4.16048 6.4404 4.35772V5.21393H4.36012C4.1619 5.21393 4.00022 5.37431 4.00022 5.57205V8.0002C4.00022 8.19744 4.1619 8.35782 4.36012 8.35782H8.88057V10.0702H4.36012C4.1619 10.0702 4.00022 10.2306 4.00022 10.4284C4.00022 10.6256 4.1619 10.786 4.36012 10.786H6.4404V11.6422C6.4404 11.8399 6.60208 12.0003 6.80029 12.0003C6.99851 12.0003 7.16019 11.8399 7.16019 11.6422V10.786H9.24047C9.43869 10.786 9.60036 10.6256 9.60036 10.4284V8.0002C9.60036 7.80246 9.43869 7.64208 9.24047 7.64208ZM12.7965 14.9528L11.7756 14.4424C11.6628 14.3864 11.5308 14.3864 11.4172 14.4424L9.9972 15.1528L8.57716 14.4424C8.51876 14.4144 8.45876 14.4 8.39715 14.4C8.33555 14.4 8.27395 14.4144 8.21715 14.4424L6.79711 15.1528L5.37708 14.4424C5.26348 14.3864 5.13147 14.3864 5.01867 14.4424L3.59783 15.1528L2.177 14.4424C2.0642 14.3864 1.93219 14.3864 1.81859 14.4424L0.798565 14.9528V1.44684L1.99859 0.846822L3.41863 1.55724C3.53223 1.61324 3.66424 1.61324 3.77704 1.55724L5.19788 0.846822L6.61871 1.55724C6.73151 1.61324 6.86352 1.61324 6.97712 1.55724L8.39715 0.846822L9.81719 1.55724C9.93079 1.61324 10.0628 1.61324 10.1756 1.55724L11.5964 0.846822L12.7965 1.44684V14.9528ZM13.3773 0.842021L11.7772 0.042001C11.6636 -0.0140004 11.5316 -0.0140004 11.4188 0.042001L9.99797 0.752419L8.57714 0.042001C8.46433 -0.0140004 8.33233 -0.0140004 8.21873 0.042001L6.79869 0.752419L5.37866 0.042001C5.26505 -0.0140004 5.13305 -0.0140004 5.02025 0.042001L3.59941 0.752419L2.17858 0.042001C2.06577 -0.0140004 1.93377 -0.0140004 1.82017 0.042001L0.220128 0.842021C0.0857242 0.909223 0.00012207 1.04843 0.00012207 1.19963V15.6C0.00012207 15.7384 0.0721239 15.8672 0.189727 15.94C0.30813 16.0128 0.454533 16.0192 0.578537 15.9576L1.99937 15.2472L3.42021 15.9576C3.53301 16.0136 3.66501 16.0136 3.77862 15.9576L5.19865 15.2472L6.61869 15.9576C6.73229 16.0136 6.86429 16.0136 6.9771 15.9576L8.39793 15.2472L9.81877 15.9576C9.93157 16.0136 10.0636 16.0136 10.1772 15.9576L11.5972 15.2472L13.0172 15.9576C13.0756 15.9864 13.1365 16 13.1973 16C13.2709 16 13.3445 15.98 13.4085 15.94C13.5253 15.8672 13.5973 15.7384 13.5973 15.6V1.19963C13.5973 1.04843 13.5117 0.910023 13.3773 0.842021Z" fill="#333333" />
</svg>
    