<svg width="16" height="14" viewBox="0 0 16 14" fill="none" xmlns="http://www.w3.org/2000/svg">
    <path fill-rule="evenodd" clip-rule="evenodd" d="M14.6489 5.72813L8.08305 12.5678C8.00083 12.6525 7.89264 12.6976 7.77666 12.6976C7.65895 12.6976 7.55076 12.6516 7.4694 12.5678L3.9329 8.88337C3.85154 8.79863 3.80827 8.68595 3.80827 8.56514C3.80827 8.44524 3.85241 8.33166 3.9329 8.24601L10.4987 1.40725C10.7523 1.14311 11.3123 0.90151 11.6706 0.90151H14.6999C14.9379 0.90151 15.1327 1.10345 15.1327 1.35226V4.5075H15.1344C15.1344 4.88162 14.9025 5.46309 14.6489 5.72813ZM14.7017 0.000901498V0H11.6724C11.0769 0 10.3092 0.331751 9.88859 0.769879L3.32278 7.60955C3.07784 7.86377 2.94369 8.20273 2.94369 8.56513C2.94369 8.92844 3.07784 9.2674 3.32278 9.52252L5.57486 11.8673L4.62625 12.4371C4.52758 12.4975 4.4116 12.5119 4.29822 12.4812C4.18657 12.4506 4.09309 12.3767 4.0351 12.273L0.923571 6.65666C0.80413 6.4412 0.875102 6.16535 1.0811 6.04184L7.99397 1.88413C8.19997 1.76063 8.27094 1.48477 8.15236 1.26931C8.03206 1.05295 7.76721 0.979027 7.56122 1.10343L0.648337 5.26024C0.349734 5.44144 0.13422 5.73263 0.0450723 6.08241C-0.0449414 6.43129 0.000930939 6.79639 0.173169 7.10741L3.28557 12.7237C3.45953 13.0348 3.7391 13.2583 4.07492 13.3521C4.18657 13.3836 4.30168 13.3999 4.41333 13.3999C4.63923 13.3999 4.85907 13.3377 5.05901 13.2187L6.20841 12.5281L6.85928 13.206C7.10422 13.4603 7.42879 13.6 7.7776 13.6C8.12553 13.6 8.4501 13.4594 8.69504 13.206L15.2608 6.36728C15.6824 5.92825 16 5.13043 16 4.50839V1.35315C16 0.60761 15.4175 0.000901498 14.7017 0.000901498ZM12.9707 3.60599C12.7318 3.60599 12.5379 3.40495 12.5379 3.15524C12.5379 2.90642 12.7318 2.70449 12.9707 2.70449C13.2087 2.70449 13.4034 2.90642 13.4034 3.15524C13.4034 3.40495 13.2087 3.60599 12.9707 3.60599ZM12.9706 1.80298C12.254 1.80298 11.6724 2.40969 11.6724 3.15523C11.6724 3.90167 12.254 4.50747 12.9706 4.50747C13.6864 4.50747 14.2689 3.90167 14.2689 3.15523C14.2689 2.40969 13.6864 1.80298 12.9706 1.80298Z" fill="#666666" />
</svg>
    