<svg width="24" height="24" viewBox="0 0 24 24" fill="none" xmlns="http://www.w3.org/2000/svg">
    <path fill-rule="evenodd" clip-rule="evenodd" d="M19.6 15.8H7.60003C7.37923 15.8 7.20003 15.9792 7.20003 16.2C7.20003 16.4208 7.37923 16.6 7.60003 16.6H19.6C19.8208 16.6 20 16.4208 20 16.2C20 15.9792 19.8208 15.8 19.6 15.8ZM19.6 11.8H7.60003C7.37923 11.8 7.20003 11.9792 7.20003 12.2C7.20003 12.4208 7.37923 12.6 7.60003 12.6H19.6C19.8208 12.6 20 12.4208 20 12.2C20 11.9792 19.8208 11.8 19.6 11.8ZM7.60003 8.6H19.6C19.8208 8.6 20 8.4208 20 8.2C20 7.9792 19.8208 7.8 19.6 7.8H7.60003C7.37923 7.8 7.20003 7.9792 7.20003 8.2C7.20003 8.4208 7.37923 8.6 7.60003 8.6ZM5.2 7C4.5384 7 4 7.5384 4 8.2C4 8.8616 4.5384 9.4 5.2 9.4C5.8616 9.4 6.4 8.8616 6.4 8.2C6.4 7.5384 5.8616 7 5.2 7ZM5.19997 8.6C4.97917 8.6 4.79997 8.4208 4.79997 8.2C4.79997 7.9792 4.97917 7.8 5.19997 7.8C5.42077 7.8 5.59997 7.9792 5.59997 8.2C5.59997 8.4208 5.42077 8.6 5.19997 8.6ZM5.2 11C4.5384 11 4 11.5384 4 12.2C4 12.8616 4.5384 13.4 5.2 13.4C5.8616 13.4 6.4 12.8616 6.4 12.2C6.4 11.5384 5.8616 11 5.2 11ZM5.19997 12.6C4.97917 12.6 4.79997 12.4208 4.79997 12.2C4.79997 11.9792 4.97917 11.8 5.19997 11.8C5.42077 11.8 5.59997 11.9792 5.59997 12.2C5.59997 12.4208 5.42077 12.6 5.19997 12.6ZM5.2 15C4.5384 15 4 15.5384 4 16.2C4 16.8616 4.5384 17.4 5.2 17.4C5.8616 17.4 6.4 16.8616 6.4 16.2C6.4 15.5384 5.8616 15 5.2 15ZM5.19997 16.6C4.97917 16.6 4.79997 16.4208 4.79997 16.2C4.79997 15.9792 4.97917 15.8 5.19997 15.8C5.42077 15.8 5.59997 15.9792 5.59997 16.2C5.59997 16.4208 5.42077 16.6 5.19997 16.6Z" fill="#333333" />
</svg>
    