<svg viewBox="0 0 50 50" fill="none" xmlns="http://www.w3.org/2000/svg" class="_Icon_6l72i_1 ulBWKIkVgrROnszsWOGq" data-icon-name="Tooth">
    <path fill-rule="evenodd" clip-rule="evenodd" d="M22.5 22.5H7.5C3.365 22.5 0 19.135 0 15C0 10.865 3.365 7.5 7.5 7.5H8.75C9.44 7.5 10 8.06 10 8.75C10 9.44 9.44 10 8.75 10C8.06 10 7.5 10.56 7.5 11.25C7.5 11.94 8.06 12.5 8.75 12.5H22.5C25.2575 12.5 27.5 14.7425 27.5 17.5C27.5 20.2575 25.2575 22.5 22.5 22.5ZM2.5 33.75C2.5 34.44 3.06 35 3.75 35C4.44 35 5 34.44 5 33.75V26.25C5 25.56 4.44 25 3.75 25C3.06 25 2.5 25.56 2.5 26.25V33.75ZM7.5 33.75C7.5 34.44 8.06 35 8.75 35C9.44 35 10 34.44 10 33.75V26.25C10 25.56 9.44 25 8.75 25C8.06 25 7.5 25.56 7.5 26.25V33.75ZM13.75 35C13.06 35 12.5 34.44 12.5 33.75V26.25C12.5 25.56 13.06 25 13.75 25C14.44 25 15 25.56 15 26.25V33.75C15 34.44 14.44 35 13.75 35ZM17.5 33.75C17.5 34.44 18.06 35 18.75 35C19.44 35 20 34.44 20 33.75V26.25C20 25.56 19.44 25 18.75 25C18.06 25 17.5 25.56 17.5 26.25V33.75ZM48.75 45H3.75C1.6825 45 0 43.3175 0 41.25C0 39.1825 1.6825 37.5 3.75 37.5H48.75C49.44 37.5 50 38.06 50 38.75C50 39.44 49.44 40 48.75 40H3.75C3.06 40 2.5 40.56 2.5 41.25C2.5 41.94 3.06 42.5 3.75 42.5H48.75C49.44 42.5 50 43.06 50 43.75C50 44.44 49.44 45 48.75 45ZM22.5 33.75C22.5 34.44 23.06 35 23.75 35C24.44 35 25 34.44 25 33.75V26.25C25 25.56 24.44 25 23.75 25C23.06 25 22.5 25.56 22.5 26.25V33.75ZM2.5 15C2.5 13.1325 3.53 11.5 5.05 10.6425C5.0175 10.84 5 11.0425 5 11.25C5 13.3175 6.6825 15 8.75 15H22.5C23.8775 15 25 16.1225 25 17.5C25 18.8775 23.8775 20 22.5 20H7.5C4.7425 20 2.5 17.7575 2.5 15Z" fill="currentColor"></path>
</svg>