<svg width="10" height="13" viewBox="0 0 10 13" fill="none" xmlns="http://www.w3.org/2000/svg">
    <path fill-rule="evenodd" clip-rule="evenodd" d="M8.3002 1.7H6.2002V1.4C6.2002 0.9038 5.7964 0.5 5.3002 0.5H4.1002C3.604 0.5 3.2002 0.9038 3.2002 1.4V1.7H1.1002C0.603995 1.7 0.200195 2.1038 0.200195 2.6V3.2C0.200195 3.5912 0.450995 3.9248 0.800195 4.0484V11.6C0.800195 12.0962 1.204 12.5 1.7002 12.5H7.7002C8.1964 12.5 8.6002 12.0962 8.6002 11.6V4.0484C8.9494 3.9248 9.2002 3.5912 9.2002 3.2V2.6C9.2002 2.1038 8.7964 1.7 8.3002 1.7ZM3.8002 1.4C3.8002 1.2344 3.9346 1.1 4.1002 1.1H5.3002C5.4658 1.1 5.6002 1.2344 5.6002 1.4V1.7H3.8002V1.4ZM8.0002 11.6C8.0002 11.7656 7.8658 11.9 7.70019 11.9H1.7002C1.5346 11.9 1.4002 11.7656 1.4002 11.6V4.1H8.0002V11.6ZM8.6002 3.2C8.6002 3.3656 8.4658 3.5 8.3002 3.5H1.1002C0.934595 3.5 0.800195 3.3656 0.800195 3.2V2.6C0.800195 2.4344 0.934595 2.3 1.1002 2.3H8.3002C8.4658 2.3 8.6002 2.4344 8.6002 2.6V3.2ZM6.50019 11.3C6.66579 11.3 6.80019 11.1656 6.80019 11V5C6.80019 4.8344 6.66579 4.7 6.50019 4.7C6.33459 4.7 6.20019 4.8344 6.20019 5V11C6.20019 11.1656 6.33459 11.3 6.50019 11.3ZM4.7002 11.3C4.8658 11.3 5.0002 11.1656 5.0002 11V5C5.0002 4.8344 4.8658 4.7 4.7002 4.7C4.5346 4.7 4.4002 4.8344 4.4002 5V11C4.4002 11.1656 4.5346 11.3 4.7002 11.3ZM2.9002 11.3C3.0658 11.3 3.2002 11.1656 3.2002 11V5C3.2002 4.8344 3.0658 4.7 2.9002 4.7C2.7346 4.7 2.6002 4.8344 2.6002 5V11C2.6002 11.1656 2.7346 11.3 2.9002 11.3Z" fill="black" />
</svg>
    