<svg width="16" height="16" viewBox="0 0 16 16" fill="none" xmlns="http://www.w3.org/2000/svg">
    <path d="M13.6896 2.33513C12.2073 0.821648 10.1582 0 8.0655 0C3.61863 0 0.043625 3.58918 0.0871875 7.95673C0.0871875 9.34052 0.479562 10.6811 1.13356 11.8919L0 16L4.22894 14.9189C5.40606 15.5676 6.71394 15.8703 8.02194 15.8703C12.4253 15.8703 16.0002 12.2811 16.0002 7.91358C16.0002 5.79462 15.1719 3.80541 13.6896 2.33513H13.6896ZM8.0655 14.5298C6.88838 14.5298 5.71125 14.2271 4.7085 13.6217L4.44694 13.492L1.91831 14.1406L2.57225 11.6758L2.39788 11.4163C0.479563 8.34604 1.39512 4.28107 4.53412 2.37834C7.67312 0.475668 11.7277 1.3838 13.646 4.4973C15.5642 7.61081 14.6487 11.6324 11.5098 13.5352C10.5069 14.1838 9.28625 14.5297 8.0655 14.5297V14.5298ZM11.9021 9.72984L11.4225 9.51361C11.4225 9.51361 10.725 9.2109 10.289 8.99467C10.2454 8.99467 10.2018 8.9514 10.1582 8.9514C10.0274 8.9514 9.94019 8.99467 9.853 9.03794C9.853 9.03794 9.80944 9.08115 9.19906 9.77305C9.15544 9.85953 9.06825 9.9028 8.98106 9.9028H8.93744C8.89387 9.9028 8.80669 9.85952 8.76306 9.81632L8.54506 9.72984C8.0655 9.51361 7.62956 9.25411 7.28075 8.90819C7.19356 8.82171 7.06275 8.73523 6.97556 8.64875C6.67037 8.34604 6.36519 8.00006 6.14725 7.61087L6.10362 7.52439C6.06006 7.48112 6.06006 7.43791 6.01644 7.35144C6.01644 7.26496 6.01644 7.17848 6.06006 7.13521C6.06006 7.13521 6.23444 6.91898 6.36519 6.78929C6.45244 6.70275 6.496 6.57306 6.58319 6.48658C6.67037 6.35683 6.714 6.18387 6.67037 6.05412C6.62681 5.83789 6.10363 4.67032 5.97288 4.41089C5.88562 4.28114 5.7985 4.23793 5.66769 4.19466H5.18813C5.10087 4.19466 5.01375 4.23793 4.9265 4.23793L4.88287 4.28114C4.79569 4.32441 4.7085 4.41089 4.62131 4.45409C4.53413 4.54064 4.4905 4.62705 4.40331 4.71359C4.09812 5.10278 3.92375 5.57845 3.92375 6.05412C3.92375 6.40004 4.01094 6.74602 4.14175 7.04873L4.18538 7.17848C4.57775 8.00006 5.10087 8.73523 5.7985 9.38386L5.97288 9.55682C6.10363 9.68657 6.23444 9.77305 6.32163 9.90273C7.23719 10.6812 8.2835 11.2433 9.46062 11.546C9.59144 11.5892 9.76581 11.5892 9.89662 11.6325H10.3326C10.5506 11.6325 10.8121 11.546 10.9866 11.4595C11.1173 11.3731 11.2045 11.3731 11.2917 11.2866L11.3789 11.2C11.4661 11.1136 11.5533 11.0704 11.6405 10.9839C11.7277 10.8974 11.8149 10.8109 11.8585 10.7244C11.9457 10.5514 11.9893 10.3352 12.0329 10.119V9.81632C12.0329 9.81632 11.9893 9.77305 11.9021 9.72984Z" fill="#333333"/>
    </svg>
    