<svg viewBox="0 0 50 50" fill="none" xmlns="http://www.w3.org/2000/svg" class="_Icon_6l72i_1 ulBWKIkVgrROnszsWOGq" data-icon-name="Writing">
    <path fill-rule="evenodd" clip-rule="evenodd" d="M46.25 17.5H45V16.25C45 14.1825 43.3175 12.5 41.25 12.5H40V3.75C40 1.6825 38.3175 0 36.25 0H11.25C9.1825 0 7.5 1.6825 7.5 3.75V12.5H6.25C4.1825 12.5 2.5 14.1825 2.5 16.25V46.25C2.5 48.3175 4.1825 50 6.25 50H41.25C43.3175 50 45 48.3175 45 46.25V27.5H46.25C48.3175 27.5 50 25.8175 50 23.75V21.25C50 19.1825 48.3175 17.5 46.25 17.5ZM10 3.75C10 3.06 10.56 2.5 11.25 2.5H36.25C36.94 2.5 37.5 3.06 37.5 3.75V17.5H10V3.75ZM10 20H37.5V21.25C37.5 21.94 36.94 22.5 36.25 22.5H31.25C30.56 22.5 30 23.06 30 23.75C30 24.44 30.56 25 31.25 25C31.94 25 32.5 25.56 32.5 26.25C32.5 26.94 31.94 27.5 31.25 27.5H16.25C15.56 27.5 15 26.94 15 26.25C15 25.56 15.56 25 16.25 25C16.94 25 17.5 24.44 17.5 23.75C17.5 23.06 16.94 22.5 16.25 22.5H11.25C10.56 22.5 10 21.94 10 21.25V20ZM42.5 46.25C42.5 46.94 41.94 47.5 41.25 47.5H6.25C5.56 47.5 5 46.94 5 46.25V16.25C5 15.56 5.56 15 6.25 15H7.5V21.25C7.5 23.3175 9.1825 25 11.25 25H12.715C12.5775 25.39 12.5 25.8125 12.5 26.25C12.5 28.3175 14.1825 30 16.25 30H31.25C33.3175 30 35 28.3175 35 26.25C35 25.8125 34.925 25.39 34.785 25H36.25C38.3175 25 40 23.3175 40 21.25V15H41.25C41.94 15 42.5 15.56 42.5 16.25V46.25ZM47.5 23.75C47.5 24.44 46.94 25 46.25 25H45V20H46.25C46.94 20 47.5 20.56 47.5 21.25V23.75ZM8.75 32.5C8.06 32.5 7.5 33.06 7.5 33.75C7.5 34.44 8.06 35 8.75 35C9.44 35 10 34.44 10 33.75C10 33.06 9.44 32.5 8.75 32.5ZM13.75 35C14.44 35 15 34.44 15 33.75C15 33.06 14.44 32.5 13.75 32.5C13.06 32.5 12.5 33.06 12.5 33.75C12.5 34.44 13.06 35 13.75 35ZM18.75 35C19.44 35 20 34.44 20 33.75C20 33.06 19.44 32.5 18.75 32.5C18.06 32.5 17.5 33.06 17.5 33.75C17.5 34.44 18.06 35 18.75 35ZM28.75 35C29.44 35 30 34.44 30 33.75C30 33.06 29.44 32.5 28.75 32.5C28.06 32.5 27.5 33.06 27.5 33.75C27.5 34.44 28.06 35 28.75 35ZM33.75 35C34.44 35 35 34.44 35 33.75C35 33.06 34.44 32.5 33.75 32.5C33.06 32.5 32.5 33.06 32.5 33.75C32.5 34.44 33.06 35 33.75 35ZM38.75 32.5C38.06 32.5 37.5 33.06 37.5 33.75C37.5 34.44 38.06 35 38.75 35C39.44 35 40 34.44 40 33.75C40 33.06 39.44 32.5 38.75 32.5ZM11.25 37.5C10.56 37.5 10 38.06 10 38.75C10 39.44 10.56 40 11.25 40C11.94 40 12.5 39.44 12.5 38.75C12.5 38.06 11.94 37.5 11.25 37.5ZM16.25 40C16.94 40 17.5 39.44 17.5 38.75C17.5 38.06 16.94 37.5 16.25 37.5C15.56 37.5 15 38.06 15 38.75C15 39.44 15.56 40 16.25 40ZM26.25 40C26.94 40 27.5 39.44 27.5 38.75C27.5 38.06 26.94 37.5 26.25 37.5C25.56 37.5 25 38.06 25 38.75C25 39.44 25.56 40 26.25 40ZM31.25 40C31.94 40 32.5 39.44 32.5 38.75C32.5 38.06 31.94 37.5 31.25 37.5C30.56 37.5 30 38.06 30 38.75C30 39.44 30.56 40 31.25 40ZM36.25 37.5C35.56 37.5 35 38.06 35 38.75C35 39.44 35.56 40 36.25 40C36.94 40 37.5 39.44 37.5 38.75C37.5 38.06 36.94 37.5 36.25 37.5ZM33.75 42.5H13.75C13.06 42.5 12.5 43.06 12.5 43.75C12.5 44.44 13.06 45 13.75 45H33.75C34.44 45 35 44.44 35 43.75C35 43.06 34.44 42.5 33.75 42.5ZM23.75 35C24.44 35 25 34.44 25 33.75C25 33.06 24.44 32.5 23.75 32.5C23.06 32.5 22.5 33.06 22.5 33.75C22.5 34.44 23.06 35 23.75 35ZM21.25 40C21.94 40 22.5 39.44 22.5 38.75C22.5 38.06 21.94 37.5 21.25 37.5C20.56 37.5 20 38.06 20 38.75C20 39.44 20.56 40 21.25 40ZM13.75 7.5H21.25C21.94 7.5 22.5 6.94 22.5 6.25C22.5 5.56 21.94 5 21.25 5H13.75C13.06 5 12.5 5.56 12.5 6.25C12.5 6.94 13.06 7.5 13.75 7.5ZM33.75 10H13.75C13.06 10 12.5 10.56 12.5 11.25C12.5 11.94 13.06 12.5 13.75 12.5H33.75C34.44 12.5 35 11.94 35 11.25C35 10.56 34.44 10 33.75 10Z" fill="currentColor"></path>
</svg>