<?xml version="1.0" encoding="utf-8"?>
<!-- Generator: Adobe Illustrator 23.0.3, SVG Export Plug-In . SVG Version: 6.00 Build 0)  -->
<svg version="1.1" baseProfile="tiny" id="Layer_1" xmlns="http://www.w3.org/2000/svg" xmlns:xlink="http://www.w3.org/1999/xlink"
	 x="0px" y="0px" viewBox="0 0 24 24" xml:space="preserve">
<path fill="#FFFFFF" d="M21.3,18.8c-0.3,0.8-0.8,1.5-1.2,2.2c-0.7,0.9-1.2,1.6-1.6,1.9c-0.6,0.6-1.3,0.9-2,0.9
	c-0.5,0-1.2-0.1-1.9-0.5c-0.7-0.3-1.4-0.5-2-0.5c-0.7,0-1.3,0.1-2.1,0.5c-0.7,0.3-1.3,0.5-1.8,0.5c-0.7,0-1.4-0.3-2.1-0.9
	c-0.4-0.4-1-1.1-1.7-2c-0.7-1-1.3-2.2-1.8-3.5c-0.5-1.4-0.7-2.8-0.7-4.2c0-1.5,0.3-2.9,1-4c0.5-0.9,1.2-1.6,2.1-2.1s1.8-0.8,2.8-0.8
	c0.6,0,1.3,0.2,2.2,0.5c0.9,0.3,1.5,0.5,1.7,0.5c0.2,0,0.8-0.2,1.9-0.6c1-0.4,1.9-0.5,2.6-0.5c1.9,0.2,3.4,0.9,4.4,2.3
	c-1.7,1-2.6,2.5-2.6,4.4c0,1.5,0.5,2.7,1.6,3.7c0.5,0.4,1,0.8,1.6,1C21.6,18.1,21.5,18.4,21.3,18.8z M16.9,1.3
	c0,1.2-0.4,2.2-1.3,3.2c-1,1.2-2.2,1.9-3.6,1.8c0-0.1,0-0.3,0-0.4c0-1.1,0.5-2.3,1.3-3.3c0.4-0.5,1-0.9,1.6-1.2
	c0.7-0.3,1.3-0.5,1.9-0.5C16.9,1,16.9,1.2,16.9,1.3L16.9,1.3z"/>
</svg>
