<?xml version="1.0" encoding="utf-8"?>
<!-- Generator: Adobe Illustrator 23.0.3, SVG Export Plug-In . SVG Version: 6.00 Build 0)  -->
<svg version="1.1" baseProfile="tiny" id="Layer_1" xmlns="http://www.w3.org/2000/svg" xmlns:xlink="http://www.w3.org/1999/xlink"
	 x="0px" y="0px" viewBox="0 0 94 122" xml:space="preserve">
<g>
	<path fill-rule="evenodd" fill="#FF3B59" d="M59.9,58c4,3.2,32.5,6.8,32.1-15.1c-0.3-22-31.3-22.8-35.3-10.6S55.9,54.8,59.9,58z"/>
</g>
<g>
	<path fill-rule="evenodd" fill="#03EBC3" d="M62.7,10.8C55.5,4.9,5.1-1.9,5.7,39.1c0.6,41,55.5,42.6,62.7,19.7
		C75.5,36,69.8,16.7,62.7,10.8z"/>
</g>
<path fill-rule="evenodd" fill="#FFFFFF" d="M3.9,61.7c0.7-5.6,7.1-7.3,10.2-7.4V18.9c0-7.9,9.8-12.6,28.4-11.2
	C57.5,8.8,58.4,33.9,57,46.3c4.5-0.2,13.5,1.2,13.5,7.9v44.2c2.3,2.8,5.1,8.8-2.3,10.2s-35.1,6.2-48,8.4c-4.7,0.8-13.9,0.7-13.5-6.1
	c0.2-3.9-0.6-13.4-1.4-23.2C4.4,76.8,3.4,65.4,3.9,61.7z M24,24.4c-2.2,4.5-0.9,21.7,0,29.8l22.3-4.2c-0.2-3.4-0.4-11.6,0-17.2
	c0.5-7-3.7-14-10.2-14S26.7,18.9,24,24.4z M38.4,96.6V83.1c-0.3-0.5-1.1-1-1.9-1.4c-1.1-0.6-2.3-1.2-2.5-2.3
	c-0.4-2.1,2.2-5.5,4.4-6.1c5.1-1.4,6.5,1.4,6.5,4.2c0,2.2-2.5,4.7-3.7,5.6v13.5H38.4z"/>
<path d="M55.8,17.5L55.8,17.5C55.8,17.4,55.8,17.4,55.8,17.5L55.8,17.5C55.8,17.5,55.8,17.5,55.8,17.5z M72.7,103.3
	c-0.1-0.8-0.1-1.5-0.1-2.3c-0.1-1.6,0-3.2-0.2-4.9c0-0.4,0-0.8-0.1-1.2c-0.1-0.2,0-0.6,0-0.9c0-0.2,0.1-0.4,0-0.5
	c-0.2-0.3-0.1-0.6-0.1-0.9c0-1.8,0-3.7,0-5.5c0-1.8,0-3.7-0.1-5.5C72,79,72,76.4,72,73.7c0-0.3,0-0.7,0-1c0-0.3,0-0.7-0.1-1
	c-0.1-0.5-0.1-1.1-0.2-1.6c0-0.1,0-0.3,0-0.4c-0.3-0.6-0.1-1.3-0.1-1.9c0-0.2,0.1-0.3,0.1-0.5c0-0.1-0.1-0.2-0.1-0.3
	c-0.1-0.9-0.1-1.9-0.1-2.8c0-1.4,0-2.8,0-4.2c0-0.7,0-1.4-0.2-2c-0.2-0.9-0.1-1.8-0.3-2.6c0,0,0-0.1,0-0.1c-0.2,0.1-0.3,0.1-0.5,0.2
	c-0.1,0.3-0.2,0.6-0.3,0.8c-0.2,0.6-0.5,1.3-0.6,2c-0.2,0.7-0.3,1.4-0.3,2c0,0.4,0,0.9,0.1,1.4c0,0.1,0,0.3-0.1,0.6
	c0,0.3-0.1,0.5-0.1,0.8c0,0.5,0,1,0,1.5c0,0.5,0,1,0.2,1.5c0.1,0.4,0.1,0.7,0,1c0.1,0.3,0.2,0.5,0.1,0.8c-0.1,0.3-0.2,0.8,0,1.1
	c0.2,0.5,0.1,0.8-0.1,1.2c0.2,0.4,0.2,0.8,0.1,1.2c0,0.2-0.1,0.4,0,0.5c0.2,0.3,0.1,0.6,0.1,0.9c0,1.1,0,2.1,0,3.2c0,0.5,0,1,0,1.5
	c0,0.5-0.1,0.9,0,1.4c0.1,0.5,0.1,1-0.1,1.4c0.1,0.8-0.3,1.6,0,2.4c0,0.1-0.1,0.3-0.1,0.5c0,0.1,0.1,0.2,0.1,0.3
	c0,0.2,0.1,0.5,0,0.7c-0.1,0.2,0.1,0.5,0.1,0.7c0,0.6-0.1,1.2-0.2,1.8c-0.1,0.6-0.1,1.2,0,1.8c0,0.3,0.1,0.6,0,0.9
	C69,89.6,69,89.8,69,90.1c0,0.5,0.1,1-0.1,1.4c-0.1,0.2-0.1,0.4,0,0.6c0.1,0.3,0.1,0.7,0.1,1c0,0.4,0,0.7,0,1.1
	c0.1,1.4-0.1,2.9,0.1,4.4c0.2,1.3,0.1,2.7,0.2,4.1c0,0.3,0.1,0.7,0,1c0,0,0.1,0.1,0.1,0.1c0.1,0.6-0.3,1.1-0.5,1.6
	c-0.1,0.2-0.3,0.3-0.5,0.4c-0.6,0.7-1.3,1.2-2.3,1.4c-0.1,0.1-0.3,0.3-0.4,0.5c-0.5,0.1-1,0.1-1.5,0.1c-0.5,0-1,0.4-1.5,0
	c-0.9,0.3-1.8,0.3-2.7,0.3c-0.2,0.1-0.4,0.2-0.6,0.3c-0.3,0-0.7,0.1-1,0.1c-0.9,0-1.8,0.6-2.7,0.5c-0.2,0.1-0.4,0.2-0.6,0.3
	c-0.2,0-0.4,0-0.6,0c-0.7,0.2-1.4,0.2-2.1,0.3c-1,0.1-2,0-3,0.2c-1.1,0.2-2.2,0.6-3.4,0.8c-0.5,0.1-1,0.3-1.5,0.2
	c-0.3,0-0.6,0-0.9,0.1c-0.3,0.1-0.6,0.2-0.9,0.2c-0.3,0-0.6,0-0.9,0.1c-0.3,0.1-2.5,0.6-3.4,0.4c-0.1,0.1-0.4,0.2-0.4,0.2
	c-0.3,0.2-0.6,0.1-0.8,0.1c-0.5,0-1,0.2-1.5,0c0,0-0.7,0.2-0.9,0.1c-0.4-0.1-0.8,0.3-1.2,0c-0.7,0.2-1.5,0.4-2.2,0.5
	c-0.4,0.1-2.1,0.5-2.5,0.5c-0.7,0-1.4,0.3-2.2,0.4c-0.9,0.2-1.8,0.6-2.7,0.7c-0.4,0-0.8,0-1.1,0.1c-0.7,0.3-2.5,0.7-2.6,0.8
	c-0.6,0.3-0.7,0.2-1.2,0.4c-0.3,0.1-3.1,0.7-3.1,1.5c0,1.1,1.7,1.1,2.1,1c0.4-0.1,1.3,0.2,1.7-0.1c0,0,1.1-0.1,1.1-0.1
	c0.5,0,1,0,1.5-0.2c0.3-0.1,0.7,0,1-0.1c0.8-0.2,1.6-0.3,2.5-0.4c0,0,0.5-0.1,0.6-0.1c0.1,0,0.3-0.1,0.4-0.1
	c0.8,0.1,1.5-0.3,2.3-0.3c0.6,0,1.8-0.3,1.8-0.2c0.2-0.1,0.4-0.2,0.4-0.2c0.6-0.1,1.1-0.1,1.5-0.2c0.5-0.1,1-0.2,1.5-0.3
	c0.3-0.1,0.6-0.2,1-0.1c0.3,0,0.6-0.2,1,0c0,0,0.1-0.1,0.1-0.1c0.5-0.2,1-0.2,1.5-0.2c0.3,0,0.6,0.1,0.8,0c0.7-0.3,1.5-0.3,2.2-0.3
	c0.2-0.1,1.7-0.2,2.1-0.5c0,0,0.2-0.1,0.2,0c0.2,0.2,0.4,0,0.7,0c0.3,0,0.5,0,0.8,0c0.4-0.3,0.9-0.3,1.3-0.3c0.5-0.1,1-0.2,1.5-0.3
	c0.6-0.1,1.2-0.4,1.7-0.4c0.6-0.2,1.1-0.4,1.5-0.4c0.5,0,1-0.2,1.5,0c0.5-0.2,1-0.1,1.4-0.1c0.8,0,1.5-0.2,2.3-0.4
	c0.1,0,0.2,0.1,0.2,0.1c0.3-0.1,0.6-0.2,0.8-0.3c0.2-0.1,0.5-0.2,0.7-0.3c0.4-0.2,0.7-0.2,1.1-0.1c0-0.1,0.1-0.2,0.1-0.2
	c0.4-0.1,0.7-0.1,1-0.1c0.5,0,0.9-0.2,1.4-0.2c0.3,0,0.6-0.2,1-0.1c0.3,0.1,0.7-0.1,1.1-0.3c0.3-0.1,0.6-0.2,0.9-0.1
	c1,0.1,1.9-0.4,2.8-0.8c0.7-0.3,1.4-0.7,2.1-1c0.4-0.1,0.7-0.3,0.9-0.5c0.6-0.6,1.1-1.2,1.7-1.8c0.2-0.2,0.3-0.5,0.4-0.8
	c0-0.3,0.2-0.5,0.4-0.7v-1.3c0.1,0.3,0.1,0.4,0.2,0.6c0-0.1,0.1-0.2,0.1-0.3C72.9,104,72.7,103.7,72.7,103.3z M69.5,103.7v-0.3
	C69.7,103.6,69.6,103.7,69.5,103.7z M72,83.9C72,83.9,72,83.9,72,83.9L72,83.9C72,84,72,83.9,72,83.9C72,83.9,72,83.9,72,83.9z
	 M72.1,84.2v0.4c0,0,0,0-0.1,0L72.1,84.2L72.1,84.2z M72.1,87.3C72,87.3,72,87.3,72.1,87.3L72,87.1c0,0,0,0,0.1,0V87.3z M72,86.6
	C72,86.6,72,86.5,72,86.6C72,86.5,72,86.5,72,86.6C72,86.6,72,86.6,72,86.6C72,86.6,72,86.6,72,86.6z M72,85.5v-0.5c0,0,0.1,0,0.1,0
	c0,0.2,0,0.3,0,0.5C72.1,85.6,72,85.6,72,85.5z M18.9,64c0.1,0,0.3,0,0.4,0c0.3,0,0.7-0.1,1-0.1c0.3,0,0.7,0.1,0.8,0.2
	c0.6-0.1,1-0.1,1.4-0.2c0.2,0,0.4-0.2,0.7-0.3c0.2-0.1,0.4,0.1,0.6,0c0.2-0.1,0.5,0,0.7,0c0.1,0,0.3,0,0.4-0.1
	c0.5-0.2,1-0.2,1.6-0.3c0.4,0,0.8,0,1.1-0.2c0.3,0,0.5,0.1,0.7,0.1c0.4,0,0.9,0.1,1.3,0c0.4-0.1,0.8,0,1.2-0.1
	c0.5-0.1,1.1,0,1.6-0.2c0.2-0.1,0.4-0.1,0.6-0.1c0.6-0.1,1.3-0.2,1.9-0.4c0.5-0.1,0.9-0.2,1.4-0.2c0.3,0,0.7,0.1,1,0
	c0.8-0.2,1.7-0.3,2.5-0.3c0.2-0.1,0.3-0.2,0.4-0.3c0.4,0,0.9,0.1,1.2,0c0.7-0.2,1.5-0.3,2.2-0.4c0.2,0,0.4-0.1,0.6-0.1
	c0.8,0,1.5-0.2,2.3-0.3c0.6-0.1,1.2-0.2,1.7-0.4c0.4-0.1,0.9-0.2,1.2-0.2c1.6-0.5,3.1-0.7,4.6-1c0.1,0,0.1,0,0.2,0
	c0,0,0.1,0,0.1,0.1c0-0.1,0.1-0.1,0.1-0.2c0.3-0.1,0.6-0.2,0.9-0.3c0.2,0,0.4,0.1,0.6,0c0.4-0.1,0.7-0.2,1.1-0.3
	c1.2-0.7-1.6-1.1-1.6-1.1c-0.5,0.1-0.9-0.2-1.4,0c-0.4-0.3-0.8,0.1-1.2,0.1c-0.2,0-0.4,0.1-0.6,0.1c-0.4,0-0.8,0.1-1.1,0.2
	c-0.2,0.1-0.4,0.1-0.6,0.1c-0.4,0-0.8,0-1.2,0.1c-0.5,0.1-1.1,0.1-1.6,0.2c-0.4,0.1-0.8,0.2-1.2,0.2c-0.6,0.1-1.2,0.1-1.8,0.2
	c-0.4,0.1-0.8,0.1-1.3,0.1c-0.2,0.1-0.4,0.2-0.5,0.2c-0.6,0.1-1.2,0.2-1.7,0.2c0,0-0.1,0.1-0.1,0.1c-0.8,0-1.7,0.2-2.5,0.3
	c-0.6,0.1-1.1,0.1-1.6,0.3c-0.1,0-0.2,0-0.4,0c-0.5,0-1.1,0-1.5,0.3c-0.1,0-0.1,0-0.2,0c-0.8,0-1.6,0-2.5,0.1c-2,0.3-4,0.1-6,0.2
	c0,0.1-0.1,0.1-0.1,0.2c-0.2,0-0.3-0.1-0.5-0.1c-0.5,0.1-1,0.1-1.5,0.3C24,61.1,23.4,61,22.8,61c-0.1,0.1-0.2,0.2-0.2,0.2
	c-0.9,0.2-1.6,0.4-2.5,0.7c-0.3,0-0.8,0.1-1.3,0.2c-0.4,0.1-0.8,0-1.1,0.1c-0.4,0.1-0.8,0-1.2,0c-0.4,0-0.8,0-1.2,0
	c-0.7,0-1.3,0.1-1.9,0.3c-0.4,0.1-0.8,0-1.2,0c-0.4,0.3-0.8,0.5-1,0.7c-0.8,0.1-1.4-0.1-1.9-0.4c-0.7-0.3-1.5-0.5-2.1-0.9
	c-0.4-0.2-0.7-0.6-1-0.9c-0.3-0.3-0.3-0.7-0.3-1.2c0.3-0.5,0.6-1.1,0.9-1.6c0.4-0.2,0.6-0.4,1-0.7c1.2-0.5,2.6-1.1,4.1-1.8h0.5
	c0.1-0.1,0.2-0.2,0.4-0.3c0.2,0,0.4,0,0.5,0c0.1-0.2,0.2-0.3,0.3-0.4c0.2,0.1,0.3,0.1,0.5,0.2v0.4c0.3,0.4,0.5,0.6,0.7,1
	c0.3,0.1,0.6,0.2,0.8,0.5c1.1,0,1.7-0.6,2.1-1.5c-0.2-0.3-0.5-0.5-0.3-0.9c0-0.1,0-0.2,0-0.3c-0.3-0.6-0.3-1.3-0.4-1.9
	c-0.2-0.7,0.1-1.4-0.3-2c0,0,0-0.1,0-0.1c0-1.3-0.3-2.6-0.1-3.9c0.1-0.5-0.1-1.1-0.2-1.6c-0.1-0.4-0.1-0.7,0-0.9
	c0-0.4-0.1-0.7-0.1-0.9c0-0.7,0-1.4,0-2.1c0-0.5,0-0.9-0.1-1.4c-0.1-0.2-0.3-0.5,0-0.8c-0.2-0.3-0.1-0.6-0.1-0.8
	c0-0.4-0.1-0.8-0.1-1.2c0-0.4-0.1-0.7-0.2-1.1c-0.1-0.1-0.1-0.2,0-0.3c0.1-0.8-0.1-1.6-0.2-2.4C15,32.4,15.1,31.7,15,31
	c-0.1-0.2-0.2-0.4-0.2-0.5v-1.9c0,0-0.1-0.2-0.1-0.4c-0.1,0-0.1,0.1-0.2,0.1c-0.1-0.6-0.2-1.2-0.3-1.9c0,0,0.1-0.2,0.1-0.3
	c-0.4-0.9-0.1-1.8,0.2-2.8c0.1,0.3,0.1,0.5,0.1,0.8c0.3-1,0.2-1.9,0.7-2.7v-0.8c0.2-0.3,0.5-0.6,0.5-0.9c0.1-0.6,0.4-1.2,0.7-1.7
	c0.5-0.9,0.9-1.9,1.7-2.6c0.4-0.4,0.7-0.9,1.1-1.4c0.4-0.4,0.7-0.7,1.2-1c0.3-0.2,0.5-0.5,0.8-0.8c1-0.2,1.9-0.5,2.8-1.2
	c0,0,0.1,0.1,0.2,0.1c0.4-0.2,0.9-0.4,1.3-0.7c0,0,0-0.1,0-0.1h0.8c0.1-0.1,0.1-0.2,0.2-0.3c0.4,0,0.8,0.1,1.3,0
	c0.5-0.1,1-0.3,1.5-0.4c0.6-0.1,1.1-0.3,1.7-0.4c0.3,0.3,0.7-0.1,1,0c0.3,0.1,0.7,0,1.1-0.1c0.3-0.1,0.7,0,1.1,0
	c0.3,0,0.5-0.1,0.8-0.1c0.1,0,0.3,0.1,0.5,0.2c0.7-0.1,1.5,0.3,2.3,0c0.2-0.1,0.5,0,0.7,0.1c0.1,0,0.2,0.1,0.4,0.1
	c1,0.1,1.9,0.2,2.8,0.4c0.3,0.1,0.6-0.1,0.8,0.1c0.2-0.2,0.3,0.1,0.4,0.1c0.1,0,0.1-0.1,0.2-0.1c0.1,0,0.1,0,0.1,0
	c0.2,0.1,0.3,0.2,0.5,0.2c1.4,0.4,2.7,1,3.8,1.9c0.4,0.3,0.8,0.6,1.2,0.9c0.8,0.6,1.4,1.5,2.1,2.3c0.2,0.2,0.3,0.5,0.5,0.8
	c0.3,0.5,0.6,1,0.9,1.5c0.1,0,0.1-0.1,0.2-0.1c0.2,0.4,0.4,0.7,0.6,1c0.2,0.3,0.4,0.5,0.3,0.9c0,0.3,0.2,0.5,0.3,0.8
	c0.2,0.6,0.4,1.1,0.5,1.7c0,0-0.1,0.1-0.2,0.1c0.1,0.1,0.2,0.2,0.3,0.3v4.4c0.1,0.1,0.2,0.3,0.3,0.4c-0.1,0.1-0.1,0.2-0.1,0.3
	c0.1,0.2,0.1,0.4,0.2,0.7c0,0.2-0.1,0.3-0.1,0.5c0,0.6-0.1,1.1,0,1.7c0.2,1.2,0.1,2.5,0.1,3.7c0,0.1,0,0.2,0,0.3
	c0.1,0.3,0.3,0.6,0.2,1c-0.1,0.3,0.1,0.6,0,1c0,0.1,0.1,0.2,0.1,0.3c0,0,0.1,0,0.1,0.1c0,0.6,0,1.2,0,1.8c0,0-0.1,0.1-0.1,0.1
	c0,0.2,0.1,0.3,0.1,0.5c-0.1,0.6,0.2,1.3-0.1,2c0,0,0,0.1,0.1,0.2c0.1,0.6,0.3,1.3,0.1,1.9c0.2,0.5,0.1,0.9,0.1,1.4
	c0,0.2-0.1,0.4-0.1,0.6c0.4,1-0.2,2.1,0,3.2c0,0,0.1,0.1,0.2,0.2c0.1,0.1,0.1,0.2,0.2,0.4c0,0.1-0.1,0.2-0.2,0.4
	c0.1,0.2,0.2,0.4,0.3,0.6v0.8c-0.1-0.1-0.1-0.2-0.2-0.3c-0.1,0.3,0,0.7-0.1,1c0.1,0.1,0.2,0.3,0.3,0.4v1c0.6,0,1.1,0.1,1.7,0.1
	c0.1-0.1,0.3-0.2,0.3-0.3c0.3-0.8,0.4-1.6,0.5-2.5c-0.1-0.2-0.1-0.6,0.2-1c0,0.1,0.1,0.1,0.1,0.2h0.9c0.3-0.3,0.7-0.2,1.1-0.2
	c0.5,0,1-0.1,1.5-0.3c0.4-0.1,0.8-0.1,1.1,0.1c0.4,0.1,0.7,0.2,1.3,0.3c0.1,0.1,0.3,0.2,0.6,0.3c0.4,0.2,0.8,0.2,1.1,0.7
	c0,0.1,0.2,0,0.3,0.1c0.4,0.2,0.8,0.3,1.2,0.5c0.1,0.1,0.2,0.3,0.3,0.4c0.1,0.1,0.2,0.3,0.3,0.4v0.3c-1.1,1.3-2.6,2-4.3,2.6
	c-0.1,0.1-0.2,0.3-0.3,0.4c-0.4,0.1-0.8,0-1.1,0.2c-0.4,0.2-0.7,0.4-1,0.6c-0.3,0.2-0.6,0.3-1,0.4c-0.2,0.1-0.8,1.7,0.3,1.7
	c0,0,0.6,0,0.7,0c0.1,0,0.8-0.3,1.1-0.4c0,0.1,0.6-0.1,1-0.1c0.5-0.3,1.1-0.2,1.5-0.6c0.1-0.1,0.2-0.3,0.3-0.3c0.6,0,1-0.5,1.5-0.5
	c0.1,0,0.3-0.1,0.4-0.2c0.2-0.3,0.5-0.2,0.7-0.3c0.1,0.1,1.2-0.8,1.8-1.1c0.4-0.5,0.7-1,1-1.5c-0.1-0.1-0.2-0.1-0.2-0.1
	c0-0.4,0.1-0.7,0.1-1c0-0.3,0.1-0.7,0.2-0.9c-0.4-0.5-0.6-1-1-1.5c-0.4-0.4-0.9-0.8-1.3-1.2c-0.2-0.1-0.4-0.1-0.6-0.2
	c-0.5-0.4-1.1-0.5-1.6-0.7c-0.6-0.3-1.3-0.3-1.9-0.5c-0.1,0-0.2-0.1-0.2-0.1c0,0.1-0.1,0.1-0.1,0.2h-1.2c0-0.1-0.1-0.3-0.1-0.4
	c-0.1-0.1-0.3-0.1-0.3-0.2c-0.3,0-0.5,0.2-0.6,0.1c-0.5-0.3-0.9,0-1.3,0.1c-0.1,0-0.2,0.1-0.3,0.1c-0.7,0-1.4,0.2-2,0.6
	c-0.1-0.2-0.1-0.4-0.2-0.5c0.2-0.5,0.1-1,0.1-1.5c-0.1-0.7-0.1-1.3,0.1-2c0-0.1-0.1-0.3-0.2-0.4c0.1-0.2,0.1-0.3,0.2-0.5
	c-0.1-0.1-0.2-0.2-0.3-0.3c0-0.1,0.1-0.2,0.1-0.3c0-0.1-0.1-0.2-0.1-0.3c0-0.2,0.1-0.5,0.1-0.7c0-0.4-0.1-0.8-0.1-1.1
	c-0.1-1.2,0-2.4-0.1-3.5c-0.1-1.6-0.3-3.2-0.2-4.9c0-0.9,0-1.8,0-2.6c0-0.1,0-0.3,0-0.4c-0.3-1-0.3-2-0.3-3c0-0.2,0-0.4-0.1-0.5
	c-0.2-0.3-0.1-0.7-0.1-1c0-0.1,0-0.2,0-0.3c-0.1-0.7-0.1-1.4-0.2-2.2c0-0.2-0.1-0.5-0.1-0.7c-0.1-0.3-0.1-0.7-0.2-1.1
	c-0.1-0.2-0.1-0.5-0.2-0.7c-0.1-0.3-0.3-0.7-0.4-1c0,0-0.1-0.1-0.2-0.1c0,0.4,0.1,0.7,0.1,1.1c-0.4-0.6-0.7-1.3-0.7-2
	c-0.1,0-0.1,0-0.2,0c-1.2-1.7-2.4-3.4-3.4-5.2c-0.2-0.1-0.4-0.3-0.6-0.4c-0.3-0.5-0.6-1-1.1-1.3c-0.5-0.3-0.8-0.9-1.4-1.1
	c-0.6-0.6-1.4-0.9-1.8-1.5c-0.4,0-0.7-0.1-1-0.1c-0.1,0.2-0.3,0.3-0.4,0.6c-0.4-0.2-0.8-0.4-1.2-0.5c-0.3-0.1-0.6-0.4-1-0.1
	c-0.1-0.1-0.2-0.2-0.3-0.3c-0.2,0-0.5,0.1-0.6,0c-0.7-0.3-1.4-0.3-2.1-0.3c-0.2,0-0.4,0-0.7,0c-0.4-0.1-0.8,0-1.2,0.1
	c-0.3,0.1-0.6,0.1-0.9,0c-0.3-0.1-0.7-0.1-1-0.1c-0.9,0-1.9,0-2.8,0c-0.1,0-0.1,0-0.2,0c-0.2,0.1-0.4,0.2-0.6,0.3H32
	c-0.8,0.3-1.7,0.4-2.1,1.2h-1.1c-0.1-0.1-0.2-0.2-0.3-0.3H27c-0.1,0.1-0.2,0.2-0.4,0.2c-0.5,0-0.8,0.3-1.3,0.3
	c-0.5,0.1-0.9,0.3-1.2,0.5c-0.5,0.3-1.1,0.3-1.5,0.7c-0.4-0.1-0.7,0.2-1.1,0.3C21.3,9.6,21,9.7,21,10.1c-0.6,0-1,0.3-1.2,0.8
	c-0.2,0.1-0.3,0.1-0.4,0.2c-0.3,0.3-0.6,0.7-1,0.8c-0.6,0.3-1,0.9-1.4,1.4c-0.3,0.4-0.6,0.9-1,1.3c-0.4,0.5-0.5,1.1-1,1.6
	c-0.1,0.1,0,0.3-0.1,0.4c-0.2,0.4-0.4,0.9-0.5,1.3c-0.2,0.5-0.3,1.1-0.5,1.7c0,0-0.1,0-0.1,0.1c0,0.5-0.1,1-0.1,1.4
	c0.1,0.1,0.2,0.3,0.3,0.4v0.7c-0.1,0.1-0.2,0.1-0.3,0.2c0,0.1,0.1,0.2,0.1,0.3c0,0.2-0.1,0.3-0.1,0.4c0,0.8,0.1,1.6-0.1,2.5
	c-0.1,0.3-0.1,0.6,0.1,0.9c0.1,0.1,0.1,0.4-0.2,0.5c0-0.2,0-0.3-0.1-0.5c0-0.2-0.1-0.3-0.2-0.5c0,0,0,0-0.1,0v1.1
	c-0.1,0.1-0.2,0.2-0.3,0.2v2.3c-0.4,0.2-0.5,0.5-0.4,0.9c0,0.4,0.2,0.7,0,1.1c0.2,0.7,0,1.4,0.1,2.1c0,0.5,0,0.9,0.3,1.3
	c0,0.5,0,1,0,1.5c0,0.4,0,0.8,0.1,1.2c0.1,0.6,0.3,1.2,0.2,1.8c0,0.4-0.1,0.8,0.1,1.1c0.1,0.2,0,0.5-0.1,0.8
	c0.2,0.4,0.1,0.8-0.1,1.3c0.1,0.1,0.2,0.3,0.3,0.4c-0.2,0.3,0,0.7,0,1c0,0.7-0.1,1.3,0.1,2c0.1,0.3,0.1,0.6,0.1,0.8
	c0,0.6,0,1.2,0,1.8c0,0.2,0.1,0.4,0.1,0.5c0,0.3-0.1,0.6-0.1,0.8c0.1,0.1,0.2,0.1,0.2,0.1c0,0.4,0.1,0.8,0.1,1.1
	c0,0.4,0.1,0.7-0.1,1.1c0.2,0.4-0.1,0.7-0.2,1c-0.2,0.1-0.4,0.2-0.6,0.3c-0.2-0.1-0.3-0.2-0.4-0.3c-0.4,0-0.8,0-1-0.1
	c-0.5,0.2-0.8,0.4-1.2,0.4c-0.4,0-0.6,0.3-0.9,0.5c0,0-0.1,0-0.1,0c-0.6,0.1-1.2,0.3-1.7,0.6c-0.3,0.1-0.6,0.2-0.9,0.3
	c-0.7,0.2-1.2,0.5-1.8,0.9c-0.6,0.4-0.9,1-1.3,1.6c-0.3,0.5-0.5,1-0.7,1.6c-0.2,0.6-0.1,1.2,0,1.7c-0.2,0.4-0.4,0.6-0.6,0.9
	c0.1,0.7-0.1,1.4,0.1,2.1c0.1,0.2-0.1,0.4-0.1,0.6c0,0.2,0,0.4,0,0.4c0,0.4-0.1,0.7-0.1,0.9c0.2,0.5,0.1,1,0.1,1.4
	c0,0.3,0,0.6,0.2,0.9C3,68.7,3,69,3,69.3c0,0.4,0,0.8,0,1.2c0,0.2,0.1,0.4,0.1,0.6c-0.3,0.4,0.1,1-0.1,1.4c0.3,0.8,0.3,1.5,0.3,2.3
	c0,0.4,0,0.8,0,1.2c0.1,0.1,0.2,0.1,0.3,0.2c-0.2,0.4,0.3,0.8,0,1.2c0.2,0.4,0,0.8,0,1.2c0.1,0,0.2,0,0.3-0.1
	c-0.1,0.4-0.2,0.8-0.1,1.2c0.1,0.3,0,0.7,0,1.2c0.2,0.3,0,0.6,0,1c0,0.5,0.1,1,0.1,1.6C4,83.9,4.1,84,4.2,84.2
	c-0.1,0.1-0.2,0.1-0.3,0.2v0.4C4,84.9,4.1,85,4.2,85.2c0,0.2-0.1,0.4-0.1,0.6c0,0.2-0.1,0.4,0,0.6c0.2,0.5,0.1,1,0.1,1.4
	c0,0.2-0.1,0.5,0,0.6c0.2,0.3,0.1,0.7,0,1c0.1,0.1,0.2,0.1,0.2,0.1c0,0.3-0.2,0.6-0.1,0.8c0.2,0.4,0.1,0.8,0.1,1.1
	c0,0.2,0.1,0.5,0.1,0.7c-0.1,0.2-0.1,0.4-0.1,0.6c0,0.2,0,0.3,0,0.5c-0.1,0.3,0,0.6,0,0.9c0,0.3-0.1,0.6,0,1c0,0,0,0.1,0,0.1
	c0.2,0.3,0.1,0.6,0.1,0.9c0,0.3,0.1,0.7,0.1,1c0.1,0.6,0.1,1.2,0.2,1.9c0,0.1,0.1,0.3,0.1,0.4c-0.1,0.4-0.2,0.7-0.3,1
	c0,0.1,0.1,0.1,0.1,0.2c0.1,0.6,0.1,1.2,0.2,1.8c0,0.2-0.1,0.5,0,0.7c0.2,0.4,0,0.9,0.1,1.3c0.1,0.4,0.1,0.9,0.1,1.3
	c0,0.8,0.1,1.5,0.2,2.3c0,0.4,0.1,0.8,0.2,1.2c0,0,0.1,0.2,0.2,0.3c-0.1,0.2-0.1,0.4-0.2,0.7c0.3,1.6,1.2,2.9,1.7,4.4
	c0.4,0.5,0.7,1,1.2,1.5c0.3,0.3,0.7,0.7,1.1,0.8c0.8,0.1,1.4,0.5,2,0.9c0.1,0,0.1,0.1,0.2,0.1c0.1-0.1,0.1-0.2,0.1-0.3
	c0.1,0.1,0.2,0.2,0.3,0.2c0.5,0.1,1,0.2,1.4,0.3c0-0.1,0.1-0.2,0.1-0.4c0.5-0.8-0.4-1.6-0.4-1.6c-0.1-0.2-0.1-0.3-0.2-0.4
	c-0.4-0.2-0.6-0.3-0.9-0.4c-0.4-0.1-0.8-0.3-1.1-0.5c-0.2-0.2-0.4-0.3-0.7-0.4c-0.4-0.2-0.7-0.5-1-0.9c-0.4-0.6-0.7-1.2-0.9-1.9
	c-0.2-0.6-0.4-1.1-0.4-1.7c-0.1-0.1-0.2-0.2-0.2-0.3c0-0.1,0.1-0.2,0.1-0.3C8.2,109,8.1,109,8,109c0.1-0.1,0.2-0.2,0.3-0.3
	c0-0.7,0-1.4-0.1-2C8,105.8,8,104.9,8,104.1c0-0.1,0-0.2,0-0.2c-0.3-0.6,0-1.3-0.3-1.8c0.2-0.3,0-0.6,0-0.9c0-0.3,0-0.7,0-1
	c0-0.3,0-0.6,0-0.9c0-0.6,0-1.2-0.2-1.7c-0.2-0.6-0.1-1.1,0-1.7c0,0.1,0.1,0.2,0.1,0.3c0,0,0,0,0.1,0v-0.3c-0.2-0.2-0.3-0.4-0.4-0.6
	c0.2-0.4,0.2-0.8,0.1-1.1c0-0.4,0.1-0.7,0-1c-0.2-0.4-0.1-0.8-0.1-1.2c0-0.2,0-0.4,0-0.5C7,90.9,7.1,90.5,7.1,90
	c0.1,0.2,0.1,0.2,0.3,0.4c0-0.2,0-0.4-0.1-0.5C7.1,89.5,7,89.4,7,89.1c0-0.1,0.1-0.2,0.1-0.3c0,0,0,0,0,0c0,0,0,0,0-0.1l0,0
	c-0.1-0.3-0.2-0.7-0.2-0.9C7,87.6,7,87.4,7.1,87.1c-0.3-0.2,0-0.5,0-0.7c-0.4-0.8-0.6-1.6-0.6-2.4c0-0.7-0.1-1.4-0.1-2.2
	c0-0.1-0.1-0.2-0.1-0.2c0-0.3,0.2-0.5,0.1-0.7c-0.2-0.3-0.1-0.6-0.1-0.9c0-0.5,0-1.1,0-1.6c0-0.1,0-0.3,0-0.4
	c-0.2-0.6-0.3-1.3-0.3-1.9c0-0.3-0.1-0.6-0.1-0.9c0-0.2,0-0.5,0-0.7c-0.1-0.5-0.1-0.5-0.1-1.2c0,0,0-0.1,0-0.1c-0.1-1-0.3-2-0.3-3.1
	c0-0.4-0.1-0.9-0.2-1.3c-0.1-0.6-0.3-1.3-0.4-2c0-0.2,0.2-0.4,0.1-0.6c-0.3-0.8,0.1-1.6-0.3-2.3c0.4-0.3,0.7,0.2,1,0.2
	c0.4,0,0.7,0.2,1,0.3h0.8c0.1,0.1,0.3,0.2,0.4,0.3h1.8c0.1,0.1,0.2,0.2,0.2,0.2c0.2,0,0.4,0.1,0.5,0.1c0.9,0.2,1,0.3,2,0.1
	c0.1,0,0.1,0,0.2,0c0.5,0,1,0.1,1.6,0.1c0.1-0.4,0.5-0.3,0.8-0.4c0.9-0.4,1.9-0.5,2.8-0.8C18.1,63.9,18.5,64,18.9,64z M55.5,48.1
	C55.5,48.1,55.5,48.1,55.5,48.1c-0.1-0.1-0.1-0.2-0.1-0.3c0,0,0.1,0,0.1,0V48.1z M46.7,76c-0.1-0.9-0.6-1.6-1.3-2.2
	c-0.3-0.3-0.6-0.5-0.9-0.8c-0.3-0.3-0.6-0.6-1-0.8c-0.4-0.1-0.6-0.6-1.1-0.4c0,0-0.1-0.2-0.1-0.2c-0.2,0-0.3,0-0.4,0
	c-0.1-0.2-0.1-0.4-0.2-0.4c-0.4-0.1-0.6-0.3-0.9-0.3s-0.5-0.3-0.8-0.1c-0.3,0.1-0.6-0.1-0.9,0c-0.3,0-0.6,0-0.9,0
	c-0.2,0.1-0.4,0.2-0.6,0.3c-0.9,0.2-1.7,0.7-2.4,1.1c-0.4,0.2-0.8,0.7-1.2,1c0,0.5-0.4,0.9,0,1.3c-0.1,0.1-0.2,0.2-0.3,0.2
	c0,0.2-0.2,0.2-0.2,0.4c-0.2-0.2-0.1,0.3-0.2,0.3c-0.2,0.6-0.2,0.8-0.3,1.4c0.1,0.1-0.1,1.1-0.1,1.1c0,0.9-0.1,1.3,0.1,2.2
	c0.1,0.2,0.5,1.2,0.6,1.4c0.1,0.7,0.4,0.6,0.8,1.2c0.2,0.3,0.9,0.2,1.1,0.5c0.2,0.1,0.4,0.1,0.6,0.2c0.1,0.1,0.4,0.1,0.4,0.3
	c0.2,0,0.3,0,0.4,0.2c-0.1,0.4-0.2,0.8-0.1,1.2c0.3,1.1,0,2.2,0.3,3.3c0.1,0.7,0,1.4,0.1,2.1c0.2,0.9,0.1,1.8,0.2,2.7
	c0,0,0,0.1,0,0.1c0.1,0,0.2,0.1,0.2,0.1c0.1,0.4,0.1,0.7,0.2,1c0.2,0.7,0.2,1.5,0.1,2.4c-0.1-0.2-0.1-0.4-0.2-0.6
	c-0.1,1-0.1,1.9,0.4,2.7c1.6,0,3.1,0.1,4.8-0.4c0.3-0.2,0.5-0.6,0.9-0.7c0.1-0.4,0.5-0.6,0.8-0.9c-0.2-0.5-0.5-0.9-0.7-1.3
	c0.2-0.2,0.3-0.4,0.6-0.7c0,0,0-0.2,0-0.3c0.1,0.1,0.2,0.2,0.3,0.3c0.1-0.6,0.2-1.2,0.2-1.8c0-0.1,0-0.3,0-0.4
	c-0.2-0.7-0.3-1.4-0.3-2.1c0-0.1-0.1-0.3-0.1-0.4c0.3-0.3,0-0.6-0.1-0.8c0.1-0.4,0-1.1-0.1-1.9C44,87,44,86.3,43.9,85.7
	c-0.1-0.1-0.2-0.1-0.3-0.2c-0.1-0.3,0.1-0.6,0-0.9c0-0.1,0.1-0.3,0.2-0.5c0.1,0.1,0.1,0.2,0.1,0.3c0.3-0.3-0.1-0.5-0.2-0.7
	c0.1-0.3,0.1-0.5,0.2-0.8c0.2-0.1,0.4-0.2,0.7-0.4c0.2-0.5,0.7-0.9,0.7-1.5c0-0.4,0.2-0.7,0.4-1.1c0.4-1.1,0.8-2.1,0.7-3.3
	c0.1-0.1,0.2-0.1,0.3-0.2C46.8,76.3,46.7,76.1,46.7,76z M44.3,89.9c0,0.1,0,0.3,0,0.4C44.1,90.2,44.3,90,44.3,89.9z M43.7,85.8
	C43.7,85.8,43.7,85.8,43.7,85.8C43.7,85.8,43.7,85.8,43.7,85.8C43.7,85.8,43.7,85.8,43.7,85.8C43.7,85.8,43.7,85.8,43.7,85.8z
	 M44.2,78.9c0,0,0.1,1-0.5,2c-0.3,0.5-0.7,0.8-0.9,1.4c-0.2-0.1-0.7,0.2-1,0.1c-0.3,0.5-0.2,0.5-0.5,1c0,0.7,0,1.4-0.3,2.1
	c-0.1,0.4,0,0.9,0,1.3c0,0.7,0,1.4,0.3,2.1c0.1,0.2,0,0.4,0,0.7c0.1,0.9,0.2,1.8,0.6,2.7c0,0.5,0,1.1,0.4,1.5c0,0.8,0.1,1,0.5,1.3
	v0.5c-0.9,0.3-1.8,0.5-2.7,0.4c-0.2-0.5-0.3-1-0.2-1.5c0-0.2-0.1-0.4-0.1-0.6c-0.1-0.5-0.1-1-0.2-1.5c-0.2-0.6,0.1-1.2-0.4-1.8
	c0.2,0,0.3,0,0.4,0c0-0.4,0.1-0.8-0.1-1.2c0.2-0.4,0.1-0.8,0.1-1.1c-0.1-0.1-0.2-0.2-0.3-0.2c0.3-1.4,0.1-2.8-0.1-4.2
	c0,0,0-0.1,0.1-0.2c0,0,0-0.1,0-0.2c-0.1-0.1-0.2-0.1-0.3-0.2c-0.1-0.2-0.3-0.4-0.6-0.5c-0.4-0.1-0.9,0.2-0.9-0.2
	c-0.7-0.4-1.1-0.3-1.4-1.1c-0.3-0.6-0.9-1-1-1.6c0-0.1-0.2-1.3-0.3-1.5c0-0.5,0-1.2,0.3-2.1c0,0,0-0.1,0.1-0.1
	c0.6-0.6,1-1.3,1.7-1.8c0.2-0.2,0.5-0.3,0.8-0.4c0.2-0.1,0.4-0.2,0.7-0.3c0.8-0.2,1.5,0.1,2.2,0.3c0.2,0,0.4,0.2,0.6,0.3
	c0.3,0.1,0.6,0.3,1,0.3c0.4,0.1,0.7,0.5,1,0.8c0.2,0.2,0.4,0.4,0.6,0.6c0.3,0.3,0.5,0.6,0.6,1C44.2,77.3,44.4,78.6,44.2,78.9z
	 M55.5,17.1c0.1,0.2,0.1,0.3,0.3,0.3v-0.5c-0.4-0.2-0.2-0.8-0.7-0.9c0.1,0.2,0.1,0.4,0.1,0.5l0,0c0,0,0,0,0,0c0,0,0,0,0,0
	C55.3,16.7,55.5,16.9,55.5,17.1z M7.3,89c0-0.1-0.1-0.1-0.1-0.2C7.1,88.9,7.1,89,7.3,89C7.2,89.1,7.2,89,7.3,89z M7.1,87
	C7.1,87.1,7.1,87.1,7.1,87C7.1,87.1,7.1,87.1,7.1,87C7.1,87.1,7.1,87.1,7.1,87C7.1,87.1,7.1,87.1,7.1,87z M13.1,25.4
	C13.1,25.4,13,25.4,13.1,25.4C13,25.4,13,25.4,13.1,25.4L13.1,25.4C13.1,25.4,13.1,25.4,13.1,25.4z M13.1,26.6
	C13.1,26.6,13.1,26.6,13.1,26.6C13,26.6,13,26.6,13.1,26.6L13.1,26.6C13.1,26.6,13.1,26.6,13.1,26.6z M13,25.7
	C13,25.7,13,25.7,13,25.7C13,25.7,13,25.7,13,25.7L13,25.7C13.1,25.7,13,25.7,13,25.7z M48.9,54.2c-0.1-0.3,0-0.7,0-0.9
	c-0.1-0.4-0.1-0.7-0.1-1.1c0-0.3,0-0.6,0-0.9c0-0.3,0-0.6,0-0.9c0-0.8,0-1.5,0-2.3c0-0.7-0.1-1.5-0.1-2.2c0-0.3,0-0.7-0.1-1
	c0-0.3-0.1-0.6,0-0.9c0-0.2,0-0.3,0-0.5c-0.2-0.7-0.4-1.5,0-2.2c-0.1-0.3,0.1-0.6,0-0.9c-0.1-0.2-0.2-0.4-0.3-0.7v-2
	c0-0.3,0-0.6,0-0.9c0-0.3,0.1-0.7,0-1c-0.1-0.3,0-0.6,0-1c0-0.7,0-1.4,0-2.1c0-1-0.2-2-0.7-2.9c0,0,0-0.1,0-0.1
	c0.1-0.1,0.2-0.1,0.3-0.2c0.2-0.2-0.1-0.4-0.1-0.7c0.1-0.2,0-0.5-0.1-0.8c0-0.2,0.2-0.4,0-0.7c-0.1-0.2,0-0.5,0-0.8
	c0-0.2,0-0.5,0-0.7c0-0.2,0-0.3-0.1-0.5c-0.2-0.4-0.3-0.9-0.2-1.3c-0.1-0.1-0.2-0.2-0.3-0.3c-0.1-0.4-0.2-0.8-0.3-1.2
	c-0.1-0.2-0.2-0.3-0.3-0.4c0,0.1-0.1,0.2-0.2,0.4c-0.2-0.4-0.3-0.8-0.5-1.1c-0.4-0.5-0.7-1-1.1-1.4c-0.1-0.1-0.3-0.2-0.5-0.4
	c-0.1-0.4-0.6-0.5-0.9-0.8c-0.2,0.1-0.3,0.2-0.5,0.3c-0.1,0-0.2-0.1-0.2-0.1c-0.2,0.2-0.4,0.3-0.5,0.4c-0.2,0.1-0.2,0.4-0.5,0.2
	c0.1,0.3,0.2,0.6,0.3,0.9c0.1,0.2,0.2,0.4,0.3,0.5c0.6,0.2,0.7,0.8,1.2,1.1c0.3,0.2,0.4,0.6,0.5,1c0.1,0.5,0.5,1,0.5,1.5
	c0.1,0.1,0.2,0.1,0.3,0.2v0.6c0.1,0.2,0.2,0.4,0.3,0.6c0,0.6,0.1,1.2,0.2,1.8c0,0.2,0.1,0.4,0.1,0.6c0,0.7,0,1.4,0.1,2.1
	c0.1,0.6,0.1,1.3,0.2,2c0,0.1,0,0.1,0,0.2c0.2,0.9,0.2,2,0,2.7c0.1,0,0.1,0.1,0.1,0.1c0,0.4,0,0.8,0,1.2c0,0.4-0.1,0.7-0.1,1.1
	c0,0.4,0,0.8,0.1,1.2c0,0-0.1,0.1-0.1,0.2c0.1,1-0.1,1.9,0.1,2.9c0.2,0.9,0.1,1.9,0.2,2.8c0,0.4-0.1,0.7,0.1,1.1
	c0.1,0.1,0,0.3,0,0.4c-0.1,0.6-0.1,1.1,0,1.7c0.1,0.3,0.1,0.7,0.2,1c0,0.1-0.1,0.2-0.2,0.3c-0.2-0.1-0.4-0.2-0.4-0.2
	c-0.3,0-0.5,0-0.7,0c0,0.1-0.1,0.1-0.1,0.1c-0.1,0-0.2-0.1-0.2-0.1c-0.3,0.2-0.7,0.1-1,0.1c-1,0-1.9,0-2.8,0
	c-0.2,0.1-0.4,0.2-0.6,0.3h-2.7c-0.4,0.1-0.7,0.2-1.1,0.3c-0.5,0.2-1,0.3-1.5,0.2c-0.3,0-0.6-0.1-0.9,0c-1,0.2-2.1,0.3-3.2,0.3
	c-0.2,0-0.5,0-0.7,0c-0.1,0.1-0.3,0.2-0.4,0.3c-0.6,0-1.1,0.2-1.6,0.2c-0.6-0.1-0.9,0.2-1.3,0.4c0,0.4,0.1,0.9,0,1.2
	c0.2,0.2,0.3,0.3,0.5,0.5c0.1,0,0.3,0.1,0.6,0.2c0.3,0.1,0.6,0.3,0.9,0c0.3,0.3,0.6,0.1,0.9,0c0.3-0.1,0.6-0.2,0.9-0.1
	c0.2,0,0.5,0.1,0.7,0c0.8-0.3,1.7-0.3,2.6-0.3c0.4,0,0.7-0.1,1.1-0.1c0,0,0.1,0.1,0.3,0.1c0.1-0.1,0.3-0.2,0.4-0.3h1.1
	c0.2-0.1,0.4-0.2,0.5-0.3c0.4,0,0.7,0,0.9-0.1c0.8-0.3,1.7-0.3,2.6-0.4c0.9-0.1,1.7-0.2,2.6-0.2c0.1,0,0.2,0,0.2,0
	c0.6-0.4,1.2-0.2,1.8-0.3c0.2-0.1,0.3-0.2,0.5-0.3c0.1,0.1,0.2,0.2,0.3,0.3v1.9c0.3,0.6,0.5,1.3,1.1,1.7c0.1,0,0.2-0.1,0.3-0.1
	c0.1,0.1,0.2,0.2,0.3,0.3c0.3,0,0.6-0.1,1-0.2c0.1,0,0.2,0.1,0.4,0.1c0-0.2-0.1-0.3-0.1-0.4C48.8,54.6,48.9,54.4,48.9,54.2z
	 M25.2,47.2c0.1-0.3-0.1-0.6-0.1-0.9c-0.1-2.4-0.1-4.9-0.1-7.3c0-0.1,0-0.1,0-0.2c0-0.2-0.1-0.4-0.1-0.5c0.1-0.2,0.2-0.4,0.1-0.5
	c-0.2-0.7-0.3-1.4-0.3-2.2c0-1,0-2.1,0-3.1c0-0.2,0-0.4,0-0.6c-0.1-0.6-0.3-1.2-0.3-1.8c0-0.1,0-0.2,0-0.3c-0.1,0.1-0.1,0.2-0.2,0.3
	c-0.1-0.5,0-0.9,0.1-1.3c0.3-0.7,0.2-1.4,0.1-2.1c0-0.3-0.1-0.5,0-0.8c0.1-0.2,0.1-0.5-0.2-0.7c-0.2,0.3,0.1,0.7-0.3,1
	c-0.1-0.2-0.2-0.3-0.3-0.5c-0.4,0.6-0.5,1.3-0.1,1.9c-0.1,0.3-0.2,0.5-0.3,0.8c-0.1,0-0.2,0-0.4,0.1c-0.1,0.3-0.2,0.5-0.2,0.8
	c-0.1,0-0.1,0.1-0.2,0.1V32c-0.1,0.1-0.2,0.3-0.3,0.4c0,0.8,0,1.6,0,2.4c0,0.2-0.1,0.4,0,0.5c0.2,0.5,0.1,0.9,0.1,1.4
	c-0.1,0-0.2-0.1-0.3-0.1v0.5c0.1,0.1,0.2,0.1,0.2,0.1c0,0.8,0.1,1.7,0.1,2.5c0,0-0.1,0.1-0.2,0.1c-0.4,0.9-0.5,1.9-0.3,3
	c0.1-0.2,0.1-0.4,0.2-0.5c0.1,0.3,0.2,0.6,0.2,0.9c-0.1,0.1-0.2,0.2-0.3,0.3c0.2,0.4,0.3,0.8,0.5,1.3c-0.1,0-0.2-0.1-0.2-0.1
	c-0.1,0.3-0.1,0.6-0.2,0.9c0,0,0.1,0.1,0.1,0.2c0.2,0.7,0.3,1.3,0.3,2c0,1.6,0,3.2,0,4.8c0,0.8,0.1,1.5,0.3,2.3
	c0.1,0.2,0.2,0.5,0.3,0.7c0.2,0.1,0.3,0.1,0.5,0.2c0,0.2,0.1,0.4,0.1,0.6c0,0,0.1,0,0.1,0c0.1-0.1,0.1-0.3,0.2-0.4
	c0.2,0,0.3,0.1,0.4,0.3c0.2-0.2,0.4-0.3,0.6-0.5c0,0,0,0.1,0.1,0.1c0.1,0,0.3,0,0.4,0c0-0.4,0-0.7,0-1c0-0.9,0.1-1.8-0.1-2.7
	c-0.1-0.2-0.1-0.5,0-0.7c0.2-0.4,0.2-0.8,0-1.2c0-0.1,0-0.3,0-0.4c0.2-0.3,0.1-0.5,0.1-0.8c0-0.3,0-0.6,0-0.9
	C25.3,47.8,25.2,47.5,25.2,47.2z M22.6,29.4C22.6,29.4,22.5,29.4,22.6,29.4C22.5,29.4,22.5,29.4,22.6,29.4
	C22.6,29.4,22.6,29.4,22.6,29.4C22.6,29.4,22.6,29.4,22.6,29.4z M28.1,19.6c0.7-0.3,1.5-0.6,2.2-0.7c0.4-0.1,0.8,0,1.2,0.1
	c0.1,0,0.3,0.1,0.4,0c0.5-0.2,1.1-0.1,1.7-0.1c0.2,0,0.3,0,0.5-0.1l0.1,0.1c0.1-0.1,0.2-0.2,0.3-0.3c0.5,0.1,1,0.1,1.5,0.2
	c0.6,0.1,1,0.4,1.6,0.5c0.1-0.1,0.3-0.3,0.5-0.4c0.1,0.1,0.3,0.2,0.3,0.2h1.3c0.2-0.4,0.6-0.3,0.9-0.4c-0.1-0.1-0.1-0.2-0.2-0.3
	c-0.2,0-0.3-0.1-0.4-0.1c-0.1-0.2-0.3-0.4-0.4-0.6c0.1,0,0.3-0.1,0.4-0.1c-0.2-0.2-0.3-0.3-0.4-0.4c-0.5-0.4-1.1-0.6-1.7-0.8
	c-0.6-0.2-1.2-0.6-1.9-0.5c-0.3-0.2-0.6,0-0.8-0.1c-0.3-0.1-0.6,0-0.9,0C33.7,15.8,33,16,32.3,16c-0.1,0-0.2,0-0.3,0.1
	c-0.9,0.2-1.8,0.4-2.7,0.6c0,0,0,0.1-0.1,0.1c-0.4,0.2-0.7,0.6-1.1,0.7c-0.5,0.1-0.8,0.5-1.2,0.7c-0.4,0.2-0.8,0.5-1.2,0.8
	c-0.4,0.4-0.7,0.7-1.1,1.1c-0.3,0.3-0.5,0.7-0.8,1.1c-0.3,0.3-0.3,0.8-0.7,1c0,0.5-0.5,0.7-0.6,1.2c-0.1,0.2-0.2,0.5-0.3,0.7
	c-0.1,0.5-0.1,1-0.2,1.6c0.2-0.1,0.4-0.3,0.6-0.4c0,0,0.1,0.1,0.2,0.3c0.1-0.3,0.3-0.4,0.4-0.6c0.1,0.1,0.1,0.2,0.1,0.2
	c0.1-0.2,0.2-0.4,0.3-0.6c0.1-0.2,0.3-0.3,0.3-0.5c0.4-1.1,1-1.9,1.8-2.7C26.4,20.6,27.1,20,28.1,19.6z M46.4,21.8
	C46.4,21.8,46.4,21.8,46.4,21.8C46.4,21.8,46.4,21.8,46.4,21.8C46.4,21.8,46.4,21.8,46.4,21.8C46.4,21.8,46.4,21.8,46.4,21.8z
	 M46.1,21.3c0.1,0.2,0.1,0.4,0.3,0.5C46.4,21.6,46.5,21.4,46.1,21.3z M22.1,48.3l0.1,0c0-0.2,0-0.3,0-0.5c0,0-0.1,0-0.1,0V48.3z
	 M15.5,20.9c0,0,0.1,0,0.1,0c0-0.1,0-0.2-0.1-0.3c0,0,0,0-0.1,0V20.9z M21.9,38.3v0.3c0,0,0.1,0,0.1,0C22,38.5,22,38.4,21.9,38.3
	L21.9,38.3z M55,37.3C55,37.3,55,37.3,55,37.3l0.1-0.3c0,0-0.1,0-0.1,0C55,37.1,55,37.2,55,37.3z M15.2,22.4
	C15.2,22.4,15.3,22.4,15.2,22.4c0.1-0.1,0.1-0.1,0.1-0.2c0,0,0,0-0.1,0C15.2,22.3,15.2,22.3,15.2,22.4z M16.3,45.5
	C16.3,45.5,16.3,45.5,16.3,45.5c0.1-0.1,0.1-0.1,0.1-0.2c0,0-0.1,0-0.1,0C16.2,45.4,16.2,45.4,16.3,45.5z M16.1,40.7
	C16.1,40.7,16.2,40.6,16.1,40.7c0.1-0.1,0.1-0.1,0.1-0.2l-0.1,0C16.1,40.5,16.1,40.6,16.1,40.7z M27.9,17.2
	C27.8,17.2,27.8,17.2,27.9,17.2C27.8,17.2,27.9,17.3,27.9,17.2C27.9,17.2,27.9,17.2,27.9,17.2C27.9,17.2,27.9,17.2,27.9,17.2z
	 M16.4,46.5C16.4,46.5,16.5,46.5,16.4,46.5C16.5,46.5,16.4,46.4,16.4,46.5C16.4,46.4,16.4,46.5,16.4,46.5
	C16.4,46.5,16.4,46.5,16.4,46.5z M55.1,36.6C55.1,36.6,55.1,36.6,55.1,36.6C55.1,36.6,55.1,36.6,55.1,36.6
	C55.1,36.6,55.1,36.6,55.1,36.6C55.1,36.6,55.1,36.6,55.1,36.6z M23.6,25C23.6,25,23.6,25,23.6,25C23.6,25,23.6,25,23.6,25
	C23.6,25,23.6,25,23.6,25C23.6,25,23.6,25,23.6,25z M39.6,87C39.6,87,39.6,87,39.6,87C39.6,87,39.6,87,39.6,87
	C39.6,87,39.6,87,39.6,87C39.6,87,39.6,87,39.6,87z"/>
</svg>
