<?xml version="1.0" encoding="utf-8"?>
<!-- Generator: Adobe Illustrator 23.0.3, SVG Export Plug-In . SVG Version: 6.00 Build 0)  -->
<svg version="1.1" baseProfile="tiny" id="Layer_1" xmlns="http://www.w3.org/2000/svg" xmlns:xlink="http://www.w3.org/1999/xlink"
	 x="0px" y="0px" viewBox="0 0 122 120" xml:space="preserve">
<g>
	<path fill-rule="evenodd" fill="#FF3B59" d="M95.2,33.2c3.1,2.5,25.1,5.5,24.9-12.1S95.8,2.9,92.7,12.7
		C89.6,22.5,92,30.7,95.2,33.2z"/>
</g>
<g>
	<path fill-rule="evenodd" fill="#FF3B59" d="M51.5,27.8c0.3,0.2,2.4,0.5,2.4-1.1c0-1.7-2.3-1.7-2.6-0.8
		C51,26.8,51.2,27.6,51.5,27.8z"/>
</g>
<g>
	<path fill-rule="evenodd" fill="#03EBC3" d="M93.7,13.2C82.2,4.1,1.6-6.4,2.5,56.8c0.9,63.2,88.8,65.7,100.3,30.5
		C114.2,52,105.1,22.3,93.7,13.2z"/>
</g>
<path fill="#FFFFFF" d="M11.1,23.4v47.5h19.2v20.4l81.4,27.1V46L82.1,38l-6.7-22.6L11.1,23.4z"/>
<path d="M114.2,53.6c0-1.6,0-3.2,0-4.9c0-0.6-0.4-1.2-0.4-1.8c-0.3-0.2-0.2-0.5-0.3-0.8c-0.1-0.4-0.4-0.8-0.6-1.1
	c-0.4,0.1-0.5-0.3-0.7-0.4c-0.3-0.1-0.5-0.3-0.7-0.5c-0.2-0.1-0.6-0.2-0.7-0.4c-0.2-0.3-0.6,0-0.7-0.4c-0.1-0.6-0.5,0.2-0.7-0.1
	c0,0-0.1,0-0.1-0.1c0-0.3-0.3-0.2-0.5-0.3c-0.3,0-0.5-0.1-0.7-0.4c0-0.1-0.2-0.2-0.3-0.3c-0.3-0.1-0.6-0.1-0.9-0.1
	c0,0,0,0.3-0.2,0.1c-0.1-0.1-0.1-0.2-0.2-0.3c-0.4,0.1-1.1-0.1-1.4-0.3c0,0-0.1-0.1-0.1-0.1c-0.1,0.4-0.3,0.1-0.4,0
	c-0.3-0.1-0.7-0.3-1-0.2c-0.6,0.2-0.9-0.1-1.1-0.4c-0.2-0.3-0.3,0.1-0.4,0c-0.3-0.6-0.8-0.4-1.3-0.5c-0.5-0.1-1,0.1-1.5-0.1
	c-0.4-0.2-0.8-0.1-1.2-0.3c-0.3-0.1-0.7,0.2-0.9-0.3c0,0-0.1,0-0.1,0c0,0.2,0,0.3-0.2,0.1c-0.1-0.1-0.3-0.2-0.4-0.2
	c-0.8,0.2-1.4-0.8-2.2-0.4c-0.4-0.3-0.9-0.3-1.3-0.4c-0.4-0.1-0.8,0-1.2-0.2c-0.3-0.2-0.4-0.1-0.6,0.1C91.2,39,91.1,39,91,38.7
	c0,0-0.1-0.1-0.2-0.1c-0.2,0-0.4-0.1-0.7-0.1c-0.2,0-0.5,0.2-0.5-0.2c0,0,0,0-0.1,0c-0.2,0.1-0.4,0.3-0.5,0.3
	c-0.2,0-0.3-0.2-0.5-0.3c-0.1,0-0.2,0-0.4,0c-0.2,0-0.3-0.1-0.5-0.1c-0.2,0-0.4-0.3-0.6-0.1c-0.2-0.2-0.5-0.1-0.7-0.2
	c-0.2,0-0.6,0.1-0.7-0.1c-0.3-0.4-0.6-0.1-0.8-0.1c-0.7,0-1.3-0.2-2-0.2c-0.6,0-0.6-0.2-0.6-0.8c0-0.3-0.1-0.6,0-0.8
	c0.3-0.4,0-0.7,0-1c0-0.2-0.1-0.5-0.1-0.7c0.2-0.5,0.1-1.1,0.2-1.6c0-0.2,0-0.4,0.1-0.5c0.4-0.3,0.2-0.5,0.1-0.8c0-0.1,0-0.3,0-0.4
	c0-0.3,0.1-0.5,0.1-0.8c0,0-0.1-0.1-0.1-0.1c0,0,0.1,0,0.1-0.1c0-0.1,0-0.2,0-0.2c-0.2-0.2-0.1-0.3,0.1-0.3c0,0,0-0.1,0.1-0.1l0,0
	c0,0,0,0,0,0c0,0,0,0,0,0c-0.1-0.1-0.2-0.1-0.2-0.2c0-0.2,0-0.4,0-0.7c0.3-0.2,0.1-0.6,0.1-0.9c0-0.2-0.1-0.4-0.1-0.6
	c0.1-0.1,0.2-0.1,0.2-0.1c-0.2-0.4-0.1-0.9-0.2-1.4c0-0.3,0.1-0.6,0-0.8c-0.2-0.3,0.1-0.5,0-0.8C82.3,23,82.4,22,82.4,21
	c0-0.3,0-0.5-0.1-0.8c-0.3-0.7-0.3-1.3-0.3-2c0-0.6-0.2-1.1-0.3-1.6c-0.1-0.3-0.2-0.5-0.5-0.6c-0.3-0.1-0.3-0.3-0.4-0.5
	c-0.1-0.2-0.1-0.3-0.4-0.2s0-0.4-0.3-0.4c-0.2,0-0.4-0.1-0.4,0.2c0,0.1-0.1,0.2-0.1,0.2c0-0.1,0-0.2-0.1-0.2c0-0.1-0.1-0.1-0.1-0.2
	c0,0.1-0.1,0.2-0.1,0.2c0,0.2,0,0.2-0.2,0.1c-0.2-0.1-0.3-0.3-0.4-0.4c-0.2-0.3-0.5-0.5-0.9-0.3c-0.2,0.1-0.3,0.1-0.3-0.1
	c-0.1-0.4-0.3-0.3-0.6-0.3c-0.3,0-0.6,0-1,0H74c-0.4,0-0.7,0-1.1,0c-0.3,0-0.6-0.1-0.9,0.1c-0.3-0.3-0.6-0.1-0.9-0.1
	c-0.4,0-0.8,0-1.1,0h-1.1c-0.4,0-0.8,0-1.1,0c-0.4,0-0.8,0.2-1.1-0.1c-0.3,0.3-0.7,0.1-1.1,0.2c-0.2,0-0.4,0-0.6,0
	c-0.2,0-0.3,0.1-0.5,0.2C64.2,14.4,64,14,64,14.5c-0.1-0.1-0.2-0.2-0.3-0.2c-0.1,0-0.2,0-0.3,0c-0.3,0.1-0.6,0.1-0.9,0.2
	c-0.1,0.1-0.2,0-0.3-0.1c-0.2-0.2-0.3-0.2-0.6,0c-0.3,0.1-0.7,0.2-1,0.2c-0.8-0.1-11.1,1.3-12,1.3c-0.2,0.3-0.4-0.1-0.7,0.1
	C47.7,16,47.3,15.9,47,16c-0.3,0-0.5,0-0.8,0c-0.2,0-0.5-0.1-0.6,0c-0.5,0.4-1,0.1-1.4,0.2c-0.7,0.2-10,1.3-10.4,1.1
	c-0.1-0.1-0.4,0.1-0.6,0.1c-0.8,0-1.7,0.1-2.5,0.4c-0.1,0-0.2,0-0.3,0c-0.4-0.2-0.8-0.1-1.2,0c-0.3,0-0.6-0.1-0.9,0
	c-0.3,0.1-0.5,0-0.8,0.1c-0.2,0.1-0.5,0.1-0.8,0.1c-0.4,0.1-0.7,0.1-1,0.1c-0.3,0-0.6,0.4-0.9,0.1c-0.3,0.1-0.6,0.3-0.9,0.2
	c-0.3,0-0.4,0.2-0.7,0.1c-0.2-0.1-0.5,0-0.8,0c-0.6,0.1-1.3,0.1-1.9,0.3c-0.6,0.1-1.1,0.1-1.6-0.1c-1-0.4-4.7,0-4.1,0.2
	c0.1,0,0.2,0.2,0.2,0.3c0,0.3-0.2,0-0.3,0c-0.1,0-0.3,0-0.4,0.1c-0.4,0.1-0.9,0.2-1.3,0.3c-0.5,0-1.1-0.1-1.6,0.3
	c-0.1,0.1-0.3,0.1-0.4,0c-1-0.1-1.6,0.6-2.4,1c-0.1,0.1-0.2,0.3-0.3,0.4c-0.1,0.3-0.7,0.2-0.7,0.6c0,0-0.1-0.1-0.1-0.1
	c0-0.1-0.1-0.3-0.2-0.1c-0.2,0.5-0.4,1-0.8,1.3c-0.1,0-0.1,0.2-0.1,0.2c-0.1,0.7-0.1,1.4-0.2,2.2c0,0.4,0.1,0.8,0,1.1
	c-0.1,0.4,0,0.7,0,1.1c-0.1,0.8-0.3,8.5,0,8.8c0.1,0.1,0.1,0.3,0,0.4c-0.3,0.9-0.2,1.8,0,2.7c0,0.2,0,0.5,0,0.7c0,0.3,0,0.6,0.1,0.9
	c0.2,0.3-0.7,2.7-0.2,2.7c0.2,0,0.2,0.2,0.3,0.3c0.2,0.2,0.1,0.4,0.1,0.7c0,0.7-0.1,1.4,0.2,2.2c0.1,0.2,0,0.5-0.1,0.8
	c0,0.1-0.1,0.2,0,0.4C7,48.4,7,48.6,7,48.8c0,0.7,0.1,1.4,0.1,2.1c0,0.8,0.3,1.6,0.1,2.4c0.3,0.4,0.1,0.9,0.1,1.4c0,0.5,0,1,0.1,1.6
	c0,0.1,0,0.2,0.1,0.3c0.2,0.6,0.2,0.6-0.1,1.4c0,0.1,0,0.2,0,0.3c0.2,0.7,0.4,1.5,0.3,2.3c0,0.3,0.2,0.7,0,1
	c0.3,0.4,0.1,0.8,0.2,1.2c0,0.4,0.1,0.8,0.2,1.2c0,0.6,0,1.1,0,1.7c0,0.5,0.1,1.1,0.2,1.6c0,0.3,0.1,0.4,0.4,0.4
	c0.1,0,0.1,0.2,0.2,0.2c-0.1,0-0.2,0.1-0.2,0.1c-0.2-0.1-0.3-0.2-0.3,0.1c0,0.2-0.2,0.6,0.2,0.6c0,0,0.1,0.2,0.1,0.2
	c0,0.1-0.1,0.1-0.1,0.2c0,0.4,0,0.8,0,1.2c0.7,0.2-0.1,0.7,0.1,1c0.1,0.1,0.1,0.2,0.2,0.2c0.3,0.1,0.4,0.3,0.4,0.7
	c0,0.3,0.2,0.7,0.4,0.9c0.1,0.2,0.5,0.2,0.7,0.2c0.3,0,0.3-0.2,0.3-0.4c0-0.2,0-0.2,0.2-0.1c0.2,0.1,0.4,0.4,0.6,0.2
	c0.2-0.2,0.4-0.1,0.6,0c0.4,0.2,0.9,0.3,1.4,0.2c0.3,0,0.7,0,1,0c0.3,0,0.6,0,0.9,0c0.5,0.1,1,0.3,1.6,0.2c0.4,0.3,0.9,0.1,1.3,0.2
	c0.4,0.1,0.8-0.1,1.2,0c0.2,0,0.5,0.1,0.7,0.1c0.1,0,0.2,0,0.2,0c0.1-0.1,0.1-0.2,0.2-0.4c0.1,0.1,0.2,0.3,0.3,0.4
	c0.1,0.1,0.3,0.1,0.4,0.1c0.3,0.1,0.7,0.1,1.1,0.1c0.4,0,0.8,0,1.3,0.1c0.3,0.1,0.5-0.2,0.8-0.1c0.1,0.1,0.5,0,0.7-0.3
	c0,0,0.2,0,0.2,0c0.2,0.2,0.3-0.1,0.4,0c0.2,0.1,0.3,0.2,0.4,0.3c0,0,0.1,0,0.1,0c0.2-0.5,0.5-0.2,0.8-0.2c0.2,0,0.4,0.1,0.6-0.1
	c0.1-0.2,0.2-0.1,0.2,0.1s0.2,0.2,0.3,0c0.1-0.1,0.1-0.2,0.2-0.3c0,0,0.2,0,0.2,0c0,0.2,0.1,0.2,0.3,0.1c0.1-0.1,0.3-0.2,0.5-0.2
	c0.2-0.1,0.4,0,0.4,0.3c-0.1,1,0.2,2.1-0.2,3.1c0,0.1-0.1,0.3,0,0.4c0.3,0.4,0.1,0.8,0.2,1.3c0,0.4,0,0.7,0,1.1
	c0,0.3-0.1,0.7,0.1,0.9c-0.4,0.3,0,0.6,0,1c0,0.2,0.1,0.5,0,0.6c-0.3,0.3,0,0.6-0.1,0.8c0,0.1,0.1,0.2,0,0.4
	c-0.2,0.2,0.1,0.4,0.1,0.5c0,0.2-0.2,0.4-0.1,0.6c0.3,0.4,0.1,0.9,0.1,1.3c0,0.3,0,0.5,0,0.8c0.4,1.4,0.4,2.8,0.5,4.3
	c0,0.6,0.1,0.8,0.8,1.3c0.1,0.1,0.2,0.4,0.2,0.5c0,0.1,0,0.2,0,0.3c0.1,0.2,0.3,0.5,0.4,0.7c0,0,0.5,0.4,0.5,0.5
	c0.2,0.3,0.5,0.2,0.8,0.4c0.7,0.4,1.3,0.8,2,1.2c0.7,0.4,1.5,0.6,2.1,1.1c0.4,0.3,1,0.3,1.4,0.6c0.5,0.3,1,0.3,1.5,0.6
	c0.3,0.2,0.7,0.2,1,0.4c0.2,0.1,0.4,0.2,0.1,0.4l0.5,0.1c0.2,0.3,0.5,0.6,0.9,0.5c0.1,0,0.2,0.1,0.3,0.2c0.4,0.2,0.8,0.4,1.3,0.4
	c0.1,0,0.3,0.1,0.4,0.2c0.2,0.1,0.4,0.2,0.6,0.3c0.2,0.2,0.5-0.1,0.6,0.2c0.1,0.2,0.4,0.1,0.6,0.2c0.4,0.1,0.8,0.3,1.1,0.5
	c0.3,0.2,0.7,0.4,1.1,0.5c0.4,0,0.5,0.4,0.9,0.4c0.6,0,1,0.6,1.6,0.5c0,0,0.1,0.1,0.1,0.2c-0.1,0.4-0.1,0.4,0.1,0.4
	c0.8,0.1,1.5,0.5,2.2,0.8c0.9,0.3,1.7,0.6,2.6,0.9c0.8,0.3,1.6,0.8,2.6,0.8c0.1,0,0.2,0.1,0.3,0.2c0.4,0.2,0.8,0.4,1.2,0.5
	c0.3,0.1,0.6,0.1,0.9,0.3c0.4,0.1,0.7,0.4,1.1,0.4c0.4,0,0.7,0.4,1.1,0.3c0.2,0,0.5,0.2,0.8,0.3c0.3-0.3,0.5,0,0.7,0.2
	c0.1,0,0.2-0.1,0.3-0.1c0.4,0.3,0.8,0.5,1.3,0.5c0.1,0,0.2,0.1,0.3,0.1l1.1,0.6c0.6-0.1,1,0.5,1.6,0.4c0.9,0.4,1.9,0.7,2.8,0.8
	c0.2,0,0.4,0.1,0.7,0.2c0.1,0,0.3-0.2,0.4-0.1c0.2,0.1,0.2,0.3,0.4,0.3c0.3,0.1,0.6,0.2,0.9,0.3c0.2,0,0.2,0,0.3,0
	c0.1,0.1,0.2,0.2,0.4,0.2c0.2,0,0.5-0.2,0.5-0.1c0.1,0.1,0.2,0.3,0.4,0.3c0.2,0,0.4,0.1,0.6,0.2c0.2,0.1,0.4,0.3,0.6,0.1
	c0.3-0.3,0.1,0.3,0.4,0.2c0.3-0.1,0.5,0.3,0.9,0.3c0.3-0.1,0.7,0.1,1,0.4c0,0,0.2,0,0.3,0c0.2,0.1,0.5,0.1,0.7,0.2
	c0.2,0,0.3,0.1,0.5,0.2c0.7,0.1,1.4,0.3,2,0.6c0.2,0.1,0.3,0,0.4-0.1c0.1-0.1,0-0.3,0.3-0.2c0.2,0.1,0.5,0.1,0.8,0
	c0.7-0.1,1,0,1.6,0.4c0.1,0.1,0.4,0,0.4,0.2c0.1,0,0.2,0,0.3-0.1c0.1,0,0.1-0.1,0.1-0.2c0.1,0.5,0.6,0.3,0.9,0.5
	c0.4,0.2,0.9,0.3,1.4,0.4c0.4,0.1,0.8,0.1,1.2,0.2c0.2,0.6,0.7,0.3,1.1,0.3c0.1,0,0.2,0.1,0.2,0.2c0,0,0,0,0,0c0,0,0,0,0,0l0,0
	c0.5,0,1.1-0.1,1.5,0.5c0,0.1,0.2,0.1,0.3,0.1c0.3-0.2,0.6-0.3,0.8,0.2c0.4-0.2,0.7,0.2,1.1,0.3c0.4,0.1,0.7,0.2,1.1,0.3
	c0.2,0.1,0.5,0.2,0.7,0.2c0.3,0.1,0.7,0,0.9,0.2c0.3,0.3,0.7,0.2,1,0.3c0.3,0.2,0.6,0.3,1,0.4c0,0,0.1,0.1,0.1,0.1
	c0.5-0.4,0.9,0,1.4,0.1c0.2,0,0.2,0.1,0.3-0.2c0.1-0.5,0.2-0.5,0.7-0.2c0.1,0,0.2,0,0.3,0c0.1,0,0.2-0.1,0.3-0.1
	c0.3,0.1,0.6,0.2,0.9,0.3c0.1,0,0.2-0.2,0.3,0.1c0,0.1,0,0.2,0,0.3c0,0.1,0.1,0.1,0.1,0.2c0-0.1,0-0.2,0.1-0.2
	c0-0.1-0.1-0.2,0.2-0.2c0.2,0.1,0.5,0.2,0.7,0.2c0.4,0.1,0.8,0,1.2,0.3c0,0,1.1,0.4,1.1,0.4c0,0,0.1,0.1,0.1,0.1
	c0.1,0.2,0.1,0.2,0.2,0c0.1-0.1,0.2-0.2,0.3-0.2c0.1,0,0.3,0,0.4-0.1c0.1-0.1,0.2-0.3,0.3-0.5c0.1-0.4,0.3-0.8,0.4-1.2
	c0.2-0.6,0.7-1.2,0.5-2c0.5-0.1,0.3-0.6,0.4-0.8c0.2-0.5,0.4-1,0.3-1.5c0-0.1-0.1-0.1-0.1-0.2c0,0.1-0.1,0.2-0.1,0.2
	c0,0.1,0,0.2,0,0.3c0,0.1-0.1,0.1-0.1,0.1c0,0-0.1-0.1-0.1-0.1c0-0.2,0-0.4,0-0.6c0.2-0.6,0.2-1.3,0.3-1.9c0.1-0.3-0.1-0.8,0.3-1
	c0,0,0-0.2,0-0.3c0,0-0.1-0.1-0.1,0c-0.1,0,0,0.4-0.2,0.1c-0.1-0.1,0-0.2,0-0.3c0.2-0.5,0.1-1.1,0.4-1.6c0.1-0.1,0.1-0.3,0.1-0.4
	c0-0.2-0.4-0.5,0.1-0.6c0,0,0-0.1,0-0.1c-0.4-0.1-0.3-0.5-0.2-0.7c0.3-0.6,0.3-1.2,0.3-1.8c0-0.5,0-1,0-1.5c0-0.5,0-1,0.2-1.5
	c0.2-0.5,0.1-0.9,0-1.5c-0.1-0.3-0.1-0.5,0.2-0.7c0.1-0.1,0.2-0.3,0.1-0.4c-0.2-0.5-0.1-1-0.1-1.5c0,0,0-0.1,0.1-0.1
	c0,0.1,0.1,0.1,0.1,0.2c0,0.1,0,0.2,0.1,0.2c0-0.1,0.1-0.2,0.1-0.2c0-0.3-0.1-0.6,0-0.9c0.1-0.2,0.4-0.4,0-0.7c0,0,0.1-0.3,0.1-0.5
	c0-0.2-0.1-0.4,0-0.5c0.2-0.2,0.1-0.3-0.1-0.4c0.1-0.1,0.2-0.2,0.3-0.3c0-0.1-0.1-0.2-0.2-0.3l0,0c0.1-0.3,0.3-0.6,0.1-0.9
	c0-0.1-0.1-0.3,0-0.3c0.2-0.1,0.3-0.2,0.3-0.4c0-0.1,0.1-0.3,0.1-0.4c0-0.4-0.3,0.1-0.3-0.1c0-0.1,0-0.3,0-0.4
	c0.2-0.6,0.3-1.2,0.3-1.9c0-0.2-0.2-0.4-0.1-0.5c0.2-0.4,0.1-0.7,0.1-1.1c0-0.1-0.1-0.1-0.1-0.2c0,0.1,0,0.1-0.1,0.2
	c0,0.1-0.1,0.2-0.1,0.3c0-0.1-0.1-0.2-0.1-0.2c0.1-0.2-0.2-0.6,0.2-0.6c0.1-0.4,0.2-0.8,0.2-1.1c0-0.2-0.2-0.4,0-0.6
	c0.1-0.2-0.1-0.5,0-0.6c0.2-0.5,0.1-0.9,0.1-1.4c0.1-0.5,0.2-0.9,0.2-1.4c0-1.4,0-2.7,0-4.1c0-0.3,0.1-0.7-0.3-0.9c0,0,0-0.2,0-0.2
	c0.3,0,0.2-0.2,0.2-0.4c0-0.3,0-0.6,0-1c-0.1-1,0.2-2-0.1-3c0.3-0.5,0.2-1,0.1-1.4c0-0.5,0.2-0.9,0-1.4c0.3-0.5,0-1.2,0.2-1.7
	c0.3-0.6,0-1.1,0-1.7c0-0.1,0-0.2,0-0.3c0.3-0.4,0.2-0.9,0.2-1.4c0-1.4,0-2.7,0-4.1c0-0.3,0.1-0.5,0.1-0.8c0-0.2-0.1-0.5-0.1-0.7
	c0.2-0.4,0.2-0.8,0.1-1.2c0,0,0-0.1,0-0.1C114,55.6,114.1,54.6,114.2,53.6z M82.6,26.8c0,0,0,0.1,0,0.1
	C82.7,26.9,82.6,26.9,82.6,26.8C82.6,26.8,82.6,26.8,82.6,26.8z M82.6,27.7C82.6,27.7,82.7,27.7,82.6,27.7c0,0.1,0,0.1,0,0.1
	C82.6,27.7,82.6,27.7,82.6,27.7C82.6,27.7,82.6,27.7,82.6,27.7z M82.6,28c0,0,0.1,0.1,0.1,0.1c0,0,0,0.1,0,0.1
	c-0.1,0-0.1-0.1-0.2-0.1C82.5,28.2,82.6,28.1,82.6,28z M7.7,54.5c0,0-0.1,0-0.1,0C7.6,54.4,7.6,54.4,7.7,54.5
	C7.7,54.4,7.7,54.4,7.7,54.5L7.7,54.5L7.7,54.5z M8.6,67.4c0,0-0.1,0-0.1,0C8.5,67.3,8.5,67.3,8.6,67.4C8.5,67.3,8.6,67.3,8.6,67.4
	L8.6,67.4L8.6,67.4z M8.7,66.2C8.7,66.1,8.7,66.1,8.7,66.2C8.7,66,8.7,66,8.7,65.9c0.1,0,0.1,0.1,0.1,0.1C8.8,66,8.7,66.1,8.7,66.2z
	 M102.1,40.9c0,0,0,0.1,0,0.1c0,0,0,0-0.1-0.1L102.1,40.9z M82.1,21.1L82.1,21.1c0,0,0,0.1,0,0.1C82.1,21.2,82,21.2,82.1,21.1
	C82,21.2,82.1,21.2,82.1,21.1z M81.6,16.9C81.6,16.9,81.6,16.9,81.6,16.9L81.6,16.9C81.6,17,81.5,16.9,81.6,16.9
	C81.5,16.9,81.5,16.9,81.6,16.9z M81.6,17.4c0,0.1,0.1,0.1,0.1,0.2c0,0.1-0.1,0.2-0.1,0.2c0-0.1-0.1-0.1-0.1-0.1
	C81.5,17.6,81.5,17.5,81.6,17.4z M30,49.6c0,0-0.1,0.1-0.1,0.1c0,0-0.1-0.1-0.1-0.1c0-0.1,0-0.2,0-0.3c0-0.1,0-0.1,0.1-0.1
	c0,0.1,0.1,0.1,0.1,0.2c0,0,0,0.1,0,0.2C30,49.5,30,49.5,30,49.6z M30.3,44.6C30.3,44.6,30.3,44.6,30.3,44.6c0-0.1,0-0.1,0-0.1
	C30.3,44.5,30.3,44.5,30.3,44.6C30.3,44.5,30.3,44.6,30.3,44.6z M30.4,43.4c0,0-0.1,0.1-0.1,0.1c0,0-0.1,0-0.1-0.1
	c0-0.2,0-0.4,0-0.6C30.5,43,30.3,43.2,30.4,43.4z M30.9,35.4c-0.2,0.9-0.1,1.7-0.2,2.6c0,0.1-0.1,0.2-0.1,0.2c-0.1,0-0.3,0-0.4,0
	c-0.1-0.1-0.2-0.3-0.4-0.4c-0.4-0.3-0.7-0.6-1.3-0.6c-0.3,0-0.6-0.2-0.8-0.4c-0.6-0.4-1.1-0.8-1.6-1.3c-0.2-0.2-0.6-0.3-0.7-0.6
	c-0.2-0.3-0.7,0-0.7-0.4c-0.8-0.2-1.2-0.9-1.8-1.4c-0.4-0.4-0.9-0.6-1.4-0.8c-0.4-0.2-0.7-0.4-1.1-0.7c-0.1-0.1-0.4-0.1-0.4-0.3
	c-0.2-0.5-0.7-0.6-1-0.8c-0.6-0.4-1.4-0.6-1.9-1.1c-0.5-0.5-1.2-0.7-1.6-1.3c-0.6-0.1-0.9-0.7-1.6-0.8c-0.3,0-0.5-0.3-0.7-0.5
	c-0.4-0.3-0.4-0.3-0.7,0.2c0,0.1-0.1,0.1-0.2,0.2c-0.2,0.3-0.4,0.3-0.7,0.2c0,0.1,0,0.3,0,0.4c0,0.2,0.3-0.2,0.3,0.1
	c0,0.1,0.2,0.3,0.3,0.4c1,0.7,2,1.5,3,2.2c0.2,0.2,0.4,0.5,0.8,0.4c0,0,0.1,0.1,0.2,0.1c0.2,0.2,0.5,0.4,0.7,0.6
	c0.4,0.2,0.8,0.4,1.1,0.7c0.2,0.3,0.6,0.1,0.8,0.4c0.2,0.2,0.3,0.5,0.5,0.7c0.2,0.2,0.4,0.3,0.6,0.4c0.7,0.6,1.4,1.1,2.1,1.7
	c0.6,0.4,1.2,0.8,1.7,1.2c0.1,0.1,0.2,0.1,0.3,0.2c0.3,0.2,0.3,0.6,0.7,0.7c0.4,0.1,0.5,0.3,0.6,0.6c0.4-0.1,0.7,0.2,1,0.4
	c0.3,0.2,0.6,0.3,0.7,0.5c0.2,0.3,0.5,0,0.7,0.2c-0.2,0.4,0.1,0.4,0.3,0.5c0,0,0.1,0,0.1,0c0.3,0.5,0.7,0.7,1.3,0.8
	c0.3,0,0.5,0.2,0.6,0.5c0.1,0.2,0.4,0.4,0.1,0.8c-0.2,0.2,0,0.6,0,0.9c0,0-0.1,0-0.1,0.1c0,0.6-0.1,1.3,0,1.9
	c0.1,0.4,0.1,0.8,0.1,1.2c0,0,0,0.1,0,0.1c-0.1,0.1-0.5,0.1-0.2,0.5c0.1,0.1-0.2,0.3,0,0.5c0,0,0,0.1,0,0.2c-0.4,1.5-0.2,3-0.2,4.4
	c0,0.2,0.1,0.4,0.2,0.7c0,0-0.1,0.1-0.1,0.1c0,0-0.1-0.1-0.1-0.1c0-0.1-0.1-0.2-0.2,0c0,0.2,0.1,0.5,0.1,0.8c0,0.1,0,0.3,0,0.4
	c-0.1,0-0.2,0-0.3,0c0,0-0.1,0.1-0.1,0.1c0,0.3,0,0.6-0.5,0.5c-0.4,0-0.4,0.4-0.4,0.6c0,0.4-0.2,0.6-0.4,0.8
	c-0.3,0.4-0.7,0.7-0.9,1.2c0,0.1-0.2,0.2-0.3,0.2c-0.6,0-0.9,0.4-1.2,0.8c-0.5,0.6-1,1-1.5,1.5c-0.2,0.2-0.5,0.5-0.6,0.8
	c-0.3,0.4-0.7,0.7-1.1,1c-0.3,0.2-0.7,0.3-1,0.4c-0.1,0.1-0.2,0.1-0.4,0.2c-0.4,0.3-0.7,0.8-1.1,1.1c-0.1,0.1-0.1,0.2-0.2,0.4
	c0,0.1-0.1,0.2-0.1,0.2c-0.6,0.1-0.7,0.7-1.1,1c-0.4,0.3-0.7,0.8-1.1,1.1c-0.8,0.6-1.5,1.4-2.3,2c-0.3,0.2-0.7,0.6-0.6,1.2
	c0,0.1,0,0.2,0,0.3c-0.1,0.3,0,0.5,0.4,0.4c0.2,0,0.4,0,0.5,0c0.8,0.1,1.4-0.4,2-0.9c0.2-0.2,0.3-0.3,0.5-0.4
	c0.3-0.2,0.6-0.4,0.7-0.7c0-0.1,0.1-0.2,0.2-0.2c0.6-0.2,0.9-0.6,1.4-1c0.2-0.1,0.3-0.3,0.5-0.5c0.4-0.4,0.7-1,1.4-1.1
	c0.2,0,0.4-0.3,0.6-0.5c0.3-0.4,0.6-0.7,0.9-1.1c0.3-0.3,0.6-0.5,0.9-0.7c0.8-0.8,1.7-1.5,2.4-2.3c0.7-0.8,1.6-1.4,2.2-2.2
	c0,0,0.1-0.1,0.1-0.1c0,0,0.1,0.1,0.1,0.1c0.1,0.5,0.3,2.9,0.2,3.5c0,0.3-0.1,0.6-0.2,0.8c0,0.2,0.1,0.4,0.1,0.6c0,0.4,0,0.7,0,1.1
	c0,0.2-0.1,0.3-0.1,0.5c0,0.2,0.1,0.3,0.1,0.5c0,2.1,0,4.1,0,6.2c0,0.2,0,0.3-0.3,0.2c-0.4-0.1-0.8,0-1.3-0.2c-0.1-0.1-0.3,0-0.4,0
	c-0.4,0.1-0.7,0.3-1,0.3c-0.3,0.1-0.7-0.1-1,0c-0.8,0.2-1.6-0.2-2.4,0.2c-0.6-0.3-1.3-0.1-2-0.2c-0.1,0-0.3-0.1-0.4-0.1
	c-0.3,0-0.7-0.2-0.9,0c-0.5,0.3-1-0.1-1.4,0.1c-0.4-0.3-0.8-0.1-1.2-0.1c-0.9,0-1.7-0.1-2.5-0.4c-0.2-0.1-0.4,0-0.5,0
	c-0.3,0-0.6,0.1-1,0c-0.3-0.1-0.6,0-0.8-0.1c-0.2-0.1-0.2-0.5-0.2-0.7c-0.1-0.8-0.1-1.7-0.2-2.5c0-0.2,0.2-0.4,0-0.7
	c-0.1-0.2,0-0.6,0-0.9c0-0.3,0-0.5,0-0.8v-0.9c0-0.3,0.1-0.6,0-0.8c-0.1-0.4,0.1-0.8-0.2-1.1c-0.1-0.1-0.1-0.3-0.1-0.5
	c0-0.5,0-1,0-1.5c0-0.4,0-0.7-0.2-1c-0.2-0.5-0.2-0.6,0-1.2l0.1-0.1c0,0-0.1-0.1-0.1-0.1c-0.2-0.3-0.3-0.6-0.1-0.9
	c0.1-0.2,0-0.5,0.2-0.6c0.2-0.2-0.2-0.4,0-0.6c-0.1-0.1-0.2-0.3-0.3-0.4c-0.1-0.3-0.3-0.7-0.1-0.9c0.2-0.3,0-0.6,0.1-0.8
	c0.1-0.4,0.2-0.9-0.1-1.3c-0.1-0.1-0.1-0.3,0-0.5c0-1.1-0.1-2.2-0.5-3.2c-0.2-0.4,0-0.9,0-1.3c0.1-0.7,0.1-1.8,0-2.4
	c0-0.1,0-0.2-0.1-0.3c0-0.1,0-0.2,0-0.3c0-0.7,0-1.5,0-2.2c0-0.7-0.1-1.4-0.2-2.1c-0.3-1.7-0.1-3.4-0.2-5.2c0-0.3,0.1-0.6-0.2-0.8
	c0-0.1,0-0.1,0.1-0.5c0.1-0.2,0-0.4,0-0.6c0-0.2-0.1-0.4-0.1-0.6c0.1-0.5,0.4-0.9,0-1.4c0.4-0.9,0.1-1.9,0.2-2.9c0-1,0-1.9,0-2.9
	c0-0.2,0.1-0.3,0.1-0.5c0-0.1,0-0.3,0-0.4c-0.2-0.3-0.2-0.7,0-1c0-0.1,0-0.2,0.1-0.2c0-0.3,0.2-0.6,0.4-0.8c0.4-0.3,0.9-0.4,1.3-0.5
	c0.5-0.2,1-0.1,1.5-0.2c0.2,0,0.4,0.1,0.5-0.2c0,0,0.2-0.1,0.3-0.1c0.4,0.2,0.9-0.1,1.3,0c0.5,0,0.9,0.1,1.4-0.2
	c0.4,0.2,0.8,0,1.2,0c0.6,0,1.1-0.1,1.7-0.2c0.6-0.1,1.2,0.1,1.7-0.1c0.1-0.1,0.3,0,0.5,0c0.1,0,0.3,0.1,0.4,0.1
	c0.3-0.2,0.7-0.4,1.1-0.1c0.4-0.2,0.9-0.1,1.4-0.2c0.4,0,0.8-0.1,1.2-0.2c0,0,0,0,0.1,0c0.3-0.1,0.5,0.4,0.8,0.1
	c0.2-0.2,0.5-0.2,0.8-0.2c1.2,0,2.3,0,3.5-0.2c1.1-0.2,2.2-0.1,3.2-0.1c0.4,0,0.7,0.1,1.1,0c0.2-0.1,0.6,0,0.8-0.3
	c0.1-0.1,0.3,0,0.4,0c0.7,0,1.4,0,2,0c0.4,0,0.8-0.2,1.1-0.1c0.4,0.2,0.6,0,1,0c0.1,0,0.2,0,0.3-0.1c0.2-0.2,0.5-0.2,0.8-0.1
	c0.3,0.1,0.6,0.1,0.9,0c0.4-0.1,0.8-0.2,1.2-0.1c0.8,0.1,1.7,0,2.6,0c0.2,0,0.4-0.1,0.6-0.2c0.9-0.3,1.9-0.1,2.9-0.2
	c0.3,0,0.7,0,1-0.1c0.2-0.1,0.5,0,0.8-0.1c0.2-0.1,0.5,0,0.8,0c0.3,0,0.5-0.1,0.8-0.1c1,0,2.1-0.3,3.1-0.2c0.8-0.3,1.6-0.1,2.3-0.2
	c0.3,0,0.6-0.1,0.8-0.1c0.2,0,0.4-0.1,0.5-0.1c0.5,0.1,1,0.3,1.4-0.2c0.1-0.1,0.4,0,0.5,0.1c0.3,0.4,0.6,0.2,0.9,0
	c0.2-0.1,0.5-0.2,0.7-0.1c0.6,0.2,1.2,0,1.7,0c0.6,0,1.2,0.2,1.8-0.2c0.2,0.2,0.5,0,0.8,0.1c0.5,0.1,1-0.1,1.4,0.1
	c0.2,0.1,0.1-0.1,0-0.2c0.1,0,0.2-0.1,0.2-0.1c0.4,0.1,0.9,0.2,1.3,0.3c0.2,0,0.4-0.1,0.6-0.1c0.1,0,0.2,0,0.2,0
	c0.4,0.2,0.7,0.2,1,0c0.2-0.3,0.5-0.2,0.8-0.2c0.8-0.1,1.6,0.2,2.4-0.1c0,0,0.1,0.1,0.2,0.1c0.5-0.1,1,0.3,1.4-0.3
	c0.4,0,0.8,0,1.2,0c0,0,0.1,0,0.1,0.1c0.1,0.6,0.6,1,0.5,1.7c-0.1,0.2,0.1,0.5-0.1,0.8c-0.1,0.2,0.1,0.5,0.1,0.8
	c0,0.3,0,0.6,0.1,0.8c0.1,0.2,0.1,0.5,0,0.7c0,0.7,0.1,1.3,0.3,1.9c0,0.1,0,0.1,0,0.2c0,0.4,0,0.7,0,1.1c0,0.3,0.1,0.7,0.2,1
	c0.1,0.5-0.2,0.9,0.2,1.4c-0.3,0.5,0.1,0.9,0,1.4c-0.1,0.5,0,1,0,1.5c0,0.3-0.1,0.6,0.1,0.9c0,0,0,0.1,0,0.1
	c-0.5,1.1,0.4,2.2-0.1,3.3c0.4,0.4,0,0.8,0,1.2c0.1,0.4,0.1,0.9,0.1,1.3c0,0.3-0.1,0.3-0.3,0.1c-0.1-0.1-0.2-0.1-0.3,0
	c-0.5,0-1,0.3-1.5-0.2c0,0-0.1,0-0.2,0c-0.4,0.2-0.8,0.2-1.2-0.1c-0.1,0-0.2-0.1-0.2,0c-0.3,0.2-0.5,0.1-0.7-0.1
	c-0.2-0.2-0.4-0.2-0.6-0.2c-0.3,0-0.7,0-1,0c-0.3,0-0.6-0.1-0.8-0.1c-0.3-0.1-0.6-0.1-0.9-0.2c-0.4-0.1-0.9,0-1.2-0.3
	c-0.5,0.3-0.9-0.1-1.4-0.1c-1,0.1-2.1,0-3.1,0c-0.4,0-0.8,0-1.2,0c-0.4,0-0.8-0.1-1.2-0.2c-0.1,0-0.1,0-0.2-0.1c0,0,0.1-0.1,0.1-0.1
	c0.6-0.6,1.2-1.2,1.8-1.7c0.3-0.3,0.6-0.5,0.8-0.8c0.6-0.8,1.5-1.4,2.1-2.2c0.2-0.4,0.7-0.6,1-0.8c0.2-0.2,0.5-0.2,0.5-0.6
	c0,0,0-0.1,0-0.1c0.6,0,0.6-0.7,0.9-1c0.3-0.3,0.6-0.6,1-0.9c0.5-0.4,0.9-0.9,1.2-1.5c0.2-0.3,0.5-0.5,0.7-0.8
	c0.2-0.3,0.5-0.6,0.7-1c0.2-0.3,0.4-0.6,0.6-0.9c0.1-0.1,0.2-0.2,0.3-0.3c0.7-0.6,0.9-1.4,1.2-2.1c0.1-0.1,0-0.3,0-0.5
	c0-0.1,0-0.3,0-0.4c0-0.1,0-0.2,0-0.2c-0.1,0-0.1,0-0.2,0.1c-0.2,0.1-0.3,0.1-0.5,0.2c-0.2,0.2-0.4,0.1-0.5-0.1
	c-0.1-0.2-0.1-0.2-0.2,0c-0.1,0.2-0.1,0.3-0.2,0.5c0,0.1-0.1,0.2-0.1,0.2c-0.6-0.3-0.3,0.2-0.4,0.4c-0.1,0.2-0.3,0.4-0.5,0.6
	c-0.2,0.3-0.5,0.4-0.7,0.7c-0.1,0.1-0.4,0-0.4,0.4c-0.1,0-0.2-0.1-0.3,0c-0.2,0.1-1,1.1-1.3,1.4c-0.3,0.4-0.6,0.7-1,1.1
	c-1,0.9-1.8,2-2.8,2.8c-0.3,0.3-0.5,0.6-0.8,0.9c-0.2,0.2-0.3,0.5-0.5,0.8c-0.2,0.2-0.5,0.3-0.6,0.6c-0.1,0.3-0.6,0-0.6,0.5
	c0,0.3-0.3,0.4-0.6,0.6c-0.5,0.3-1,0.5-1.2,1.1c0,0.1-0.2,0.1-0.4,0.1c-0.2,0.1-0.4-0.1-0.5,0.2c-0.1,0.1-0.1,0.1-0.2,0.2
	c-0.3,0-0.4,0.1-0.4,0.4c-0.2,0.1-0.4-0.1-0.6,0.2c-0.4,0.6-0.9,1-1.5,1.4c-0.2,0.1-0.4,0.3-0.5,0.4c-0.7,0.6-0.8,0.7-1.7,0.4
	c-0.3-0.1-0.6-0.2-0.9,0c-0.2,0.1-0.4,0-0.6,0c-0.4,0-0.7-0.2-1,0c-0.1,0-0.2,0-0.3-0.1c-0.5-0.4-1-0.3-1.5-0.3c-0.4,0-0.8,0-1.1,0
	c-0.4-0.1-0.7,0-1,0c-0.1,0-0.3,0-0.4-0.1c-0.4-0.2-0.9-0.3-1.2-0.1c-0.2,0.2-0.5,0.1-0.6,0c-0.2-0.2-0.5-0.2-0.6-0.1
	c-0.3,0.4-0.7,0-1,0.1c-0.3,0.1-0.7-0.1-1,0.2c-0.3-0.3-0.7-0.1-1-0.1c-0.3,0-0.6,0.1-0.9,0.1c-0.1,0-0.2,0-0.2,0
	c-0.2-0.3-0.5-0.3-0.8-0.2c-0.4,0.1-0.7-0.4-1.1-0.1c0,0-0.1-0.4-0.4-0.2c-0.1,0.1-0.4,0-0.6,0.1c-0.2,0.1-0.3,0.1-0.4,0
	c-0.2-0.3-0.5-0.2-0.8-0.2c-0.6,0-1.2,0-1.9,0c-0.9,0-1.7,0.1-2.6-0.2c-0.2-0.1-0.5,0-0.8,0c-0.3-0.1-0.4,0.2-0.7,0.1
	c-0.2-0.1-0.4,0-0.6,0c-0.3,0-0.5,0-0.8,0.1c-0.2,0.1-0.5,0.3-0.7,0.5c-0.1,0.2-0.2,0.2-0.4,0.1c-0.1-0.1-0.2-0.1-0.3-0.1
	C31.6,34.5,31.1,34.7,30.9,35.4z M28.4,39.8l-0.1,0C28.3,39.8,28.3,39.7,28.4,39.8C28.3,39.7,28.4,39.7,28.4,39.8z M11,58
	c0,0,0.1-0.1,0.1-0.1c0,0,0,0.1,0,0.1C11.1,58,11,58,11,58z M63.9,32.5C63.9,32.5,63.9,32.5,63.9,32.5c-0.1,0-0.1,0-0.1,0
	C63.8,32.5,63.9,32.4,63.9,32.5C63.9,32.4,63.9,32.5,63.9,32.5z M63.6,32.5c0,0-0.1,0.1-0.1,0.1c0,0-0.1,0-0.1,0c0-0.1,0-0.1,0-0.2
	c0,0,0.1,0,0.1,0C63.5,32.4,63.5,32.5,63.6,32.5z M62.9,32.9c0.1-0.1,0.1-0.2,0.2-0.3h0.2C63.3,32.9,63.2,33,62.9,32.9z M62.9,32.9
	c0,0.1,0,0.2-0.1,0.3c0,0-0.1,0-0.2,0c0-0.1,0-0.1,0.1-0.2c0,0,0-0.1,0.1-0.1C62.8,32.9,62.8,32.9,62.9,32.9z M32.2,81.5
	C32.2,81.5,32.2,81.5,32.2,81.5c-0.1-0.1,0-0.1,0-0.1h0.1C32.3,81.5,32.2,81.5,32.2,81.5z M32.2,80.7c0,0-0.1-0.1-0.1-0.1
	c0-0.1,0.1-0.1,0.1-0.1c0,0,0,0.1,0.1,0.1C32.3,80.6,32.3,80.6,32.2,80.7z M41.7,98.5c0,0,0-0.1,0-0.1c0,0,0,0,0.1,0.1
	C41.8,98.5,41.8,98.5,41.7,98.5z M49.8,101C49.7,101,49.7,100.9,49.8,101l0-0.1C49.8,100.9,49.8,100.9,49.8,101
	C49.8,100.9,49.8,101,49.8,101z M65.2,107.4C65.2,107.3,65.2,107.3,65.2,107.4c-0.1-0.2-0.3-0.3-0.1-0.5c0,0,0.2,0,0.2,0
	C65.4,107.1,65.5,107.3,65.2,107.4z M75.9,109.5C75.9,109.4,75.9,109.4,75.9,109.5c-0.1-0.1,0-0.1,0-0.1
	C75.9,109.4,75.9,109.4,75.9,109.5C76,109.4,75.9,109.4,75.9,109.5z M85.5,112.3C85.5,112.3,85.4,112.3,85.5,112.3
	c-0.1-0.1,0-0.1,0-0.1C85.5,112.2,85.5,112.2,85.5,112.3C85.5,112.3,85.5,112.3,85.5,112.3z M89.6,113.6c0,0-0.1,0-0.1-0.1
	c0,0,0.1-0.1,0.1-0.1c0,0,0.1,0,0.1,0.1C89.7,113.5,89.7,113.5,89.6,113.6z M90.4,113.6c-0.1,0-0.1-0.1-0.2-0.1c0,0,0,0,0.1-0.1
	c0.1,0,0.1,0,0.2,0C90.4,113.5,90.4,113.6,90.4,113.6z M110.6,72.3C110.6,72.3,110.5,72.3,110.6,72.3c-0.1-0.1,0-0.1,0-0.1
	C110.6,72.2,110.6,72.3,110.6,72.3C110.6,72.3,110.6,72.3,110.6,72.3z M110.6,71.3c0,0-0.1-0.1-0.1-0.1c0,0,0-0.1,0.1-0.1
	c0,0,0.1,0.1,0.1,0.1C110.6,71.2,110.6,71.2,110.6,71.3z M110.5,69.2c0-0.1,0.1-0.1,0.1-0.1c0,0,0,0.1,0,0.1c0,0-0.1,0.1-0.1,0.1
	C110.5,69.3,110.5,69.2,110.5,69.2z M111,55.1c-0.3,0.8-0.1,1.7-0.2,2.5c0,0.2-0.1,0.4,0,0.5c0.1,0.2,0.1,0.2-0.1,0.3
	c-0.1,0.1-0.1,0.4-0.1,0.6c0,2.2,0,4.4,0,6.5c0,0.5-0.1,1-0.2,1.4c-0.1,0.5,0.1,1-0.2,1.5c-0.1,0.2,0,0.4,0,0.6c0,2,0,4,0,5.9
	c0,0.5-0.1,1.1-0.1,1.6c0,0.1-0.1,0.3,0,0.4c0.2,0.4,0.2,0.8,0,1.2c0,0.1,0,0.2,0,0.3c-0.1,0.3,0.3,0.5,0,0.9c-0.2,0.2,0,0.6,0,1
	c0,0.5,0.2,1.1-0.2,1.5c0.2,0.4,0,0.8,0,1.1c0,0.4-0.1,0.8,0,1.2c0.1,0.4-0.2,0.8-0.1,1.2c0.1,0.3-0.1,0.7-0.2,1.1
	c-0.1,0.3-0.1,0.7-0.1,1c0,1,0,2,0,3c0,0.4,0,0.8-0.1,1.2c-0.1,0.2,0,0.6,0.1,0.9c0,0.1,0.1,0.2,0,0.2c-0.7,0.3-0.2,0.9-0.4,1.4
	c-0.2,0.4,0,1,0,1.5c0,0.1,0,0.2-0.1,0.4c-0.2,0.4-0.2,0.9-0.2,1.4c0,0.7-0.1,1.4-0.2,2.1c0,0.1,0,0.2,0,0.3c0.1,0.2,0.1,0.4,0,0.6
	c-0.3,0.6-0.1,1.2-0.2,1.8c-0.1,0.9,0,1.9-0.2,2.8c-0.1,0.6-0.1,1.1-0.1,1.7c-0.1,0.5-0.2,1-0.2,1.5c0,0.2-0.1,0.3-0.1,0.5
	c0,1.3-0.1,2.5-0.3,3.8c-0.1,0.3,0,0.6,0,1c0,0.5,0,0.5-0.5,1.4c0,0,0,0,0,0.1c0,0.1,0,0.3,0.1,0.4c-0.2,0-0.4,0.1-0.6,0
	c-0.4-0.3-0.8,0-1.3-0.3c-0.3-0.2-0.8-0.1-1.2-0.2c-0.1,0-0.3-0.1-0.4-0.2c-0.1,0-0.1-0.2-0.2-0.2c-0.6,0.1-1-0.3-1.5-0.5
	c-0.5-0.1-0.9-0.4-1.4-0.5c-0.6-0.1-1.1-0.3-1.7-0.6c-0.3,0.3-0.3-0.6-0.6-0.1c-0.3,0-0.5-0.1-0.8-0.1c-0.1,0-0.2-0.1-0.3-0.2
	c-0.2-0.2-0.3-0.2-0.6-0.2c-0.2,0-0.4,0-0.5,0c-0.2-0.1-0.4-0.5-0.7-0.2c-0.2-0.3-0.6-0.1-0.8-0.1c-0.1,0-0.3,0-0.4,0
	c-1.2-0.5-2.5-0.6-3.6-1.2c-0.3-0.2-0.7-0.2-1-0.3c-0.3-0.2-0.7-0.2-1-0.2c-0.1,0-0.3,0-0.4,0c-0.4-0.3-0.8-0.2-1.2-0.4
	c-0.4-0.2-0.8-0.1-1.1-0.4c-0.3-0.2-0.7-0.2-1.1-0.2c-0.5,0-1-0.3-1.5-0.4c-0.4-0.1-0.8-0.3-1.2-0.3c-0.3,0-0.6-0.3-0.9-0.4
	c-0.4-0.1-0.8-0.3-1.2-0.3c-0.4,0-0.7-0.2-1.1-0.4c-0.2,0-0.4,0-0.5-0.1c-0.2-0.2-0.4-0.2-0.6-0.2c-0.2,0-0.4,0-0.6,0
	c-0.1,0-0.2,0-0.2-0.1c-0.5-0.5-1.1-0.4-1.7-0.6c-0.7-0.3-1.4-0.4-2.1-0.7c-0.2-0.1-0.4-0.3-0.7,0c0,0-0.1,0-0.1,0
	c-0.3-0.5-0.8-0.3-1.2-0.3c-0.2,0-0.1-0.5-0.5-0.2c-0.1,0.1-0.4-0.1-0.5-0.2c-0.9-0.5-2-0.7-2.9-1.3c-0.1-0.1-0.2-0.1-0.3,0
	c-0.3,0-0.6-0.1-0.9-0.2c-0.2-0.1-0.4-0.1-0.6-0.2c-0.3,0-0.7,0.1-1-0.3c0,0-0.1-0.1-0.1-0.1c-0.7,0-1.3-0.4-2-0.5
	c-0.2,0-0.4-0.1-0.5-0.2c-0.2-0.3-0.5-0.3-0.9-0.3c-0.1,0-0.3-0.3-0.4-0.3c-0.7,0.1-1.2-0.4-1.8-0.4c-0.1,0-0.2,0-0.2,0
	c-0.3-0.4-0.9-0.3-1.3-0.6c-0.4-0.3-0.9-0.4-1.3-0.7c-0.2-0.1-0.4-0.2-0.6-0.1c-0.3,0.1-0.6-0.1-0.8-0.2c-0.7-0.2-1.3-0.6-2.1-0.7
	c-0.3-0.1-0.6-0.2-0.9-0.4c-0.3-0.2-0.7-0.6-1.2-0.4c0,0-0.1-0.1-0.2-0.1c-0.1-0.1-0.2-0.2-0.3-0.2c-0.6-0.1-1.2-0.3-1.8-0.6
	c-0.4-0.2-0.8-0.4-1.3-0.4c-0.3-0.1-0.6-0.2-0.9-0.3C45.1,96,44.5,96,44,95.7c-1.1-0.5-2.3-0.7-3.3-1.2c-0.2-0.1-0.6,0.2-0.7-0.3
	c-0.2,0-0.5,0-0.7-0.1c-0.9-0.6-2.1-0.8-3-1.5c-0.6-0.4-1.3-0.7-1.9-1c-0.3-0.1-0.5-0.3-0.8,0c-0.3,0.2-0.2-0.2-0.4-0.3
	c-0.1-0.1-0.3-0.2-0.3-0.3c0-0.1,0.2-0.3,0.3-0.4c0.1-0.2,0.3-0.5,0.4-0.7c0.2-0.2,0.4-0.5,0.6-0.6c0.5-0.4,0.8-1,1.2-1.4
	c0.3-0.3,0.4-0.8,0.8-1c0.3-0.2,0.2-0.5,0.4-0.7c0.2-0.2,0.4-0.4,0.6-0.6c0.1-0.2,0.3-0.5,0.4-0.5c0.3,0,0.2-0.5,0.5-0.3
	c0,0,0.1-0.1,0.1-0.2c0-0.1,0.1-0.3,0.1-0.3c0.5,0,0.6-0.6,0.9-0.8c0.3-0.2,0.4-0.6,0.8-0.6c0.1,0,0.3-0.2,0.4-0.3
	c0.3-0.7,1-1,1.4-1.6c0.5-0.5,1.1-1,1.7-1.4c0,0,0-0.1,0.1-0.1c0.3-0.2,0.7-0.3,1-0.6c0.3-0.3,0.6-0.5,1-0.7c0.4-0.2,0.7-0.7,1-1
	c0.4-0.4,0.9-0.7,1.3-1.2c0.1-0.1,0.3-0.1,0.5-0.2c0,0,0.1,0,0.1,0c0.1-0.3,0.1-0.6,0.5-0.6c0.2,0,0.4-0.2,0.6-0.4
	c1-0.9,2.1-1.7,2.9-2.8c0,0,0-0.1,0.1-0.1c1-0.3,1.1-1.4,1.6-2.1c0,0-0.1-0.2-0.1-0.2c-0.2-0.1-0.5,0.1-0.6-0.3c0,0-0.3,0-0.5,0
	c-0.6,0.4-1.2,0.9-1.7,1.4c-0.3,0.3-0.7,0.5-1,0.9c-0.1,0.2-0.4,0.3-0.7,0.4c0,0,0,0,0,0c-0.1,0-0.3,0-0.3,0.1
	c-0.1,0.2-0.1,0.5-0.5,0.3c0,0-0.2,0.2-0.2,0.2c0,0.5-0.4,0.8-0.8,1.1c-0.5,0.5-1.2,0.8-1.5,1.4c0,0-0.2,0-0.2,0l-0.1-0.1
	c0,0-0.1,0.1-0.1,0.1c-0.3,0.2-0.7,0.3-0.9,0.7c-0.4,0.1-0.5,0.4-0.5,0.7c0.1,0.4-0.2,0.1-0.3,0.2l0,0c0,0,0,0,0,0c0,0,0,0,0,0
	c-0.1,0.1-0.3,0.3-0.3,0.3c-0.3-0.3-0.5,0-0.7,0.1c-0.5,0.4-1,0.8-1.4,1.2c-0.1,0.1-0.1,0.3,0.1,0.3c0.1,0,0.2,0,0.3,0.1
	c0,0,0,0.2-0.1,0.2c-0.3,0.2-0.8,0.5-0.8,0.6c0,0.4-0.3,0.4-0.5,0.5c-0.2-0.6-0.2-0.6-0.6-0.2c0,0.1-0.1,0.1-0.1,0.2
	c-0.2,0-0.2,0.2-0.2,0.4c0,0,0,0-0.1,0c-0.4,0.1-0.1,0.6-0.5,0.8c-0.3,0.1-0.4,0.4-0.6,0.7c0.1,0,0.2,0,0.3,0.1
	c-0.1,0.1-0.1,0.2-0.2,0.2c-0.1,0.1-0.3,0.1-0.3-0.1c-0.2,0.2-0.4,0.4-0.5,0.5c-0.4,0.2-0.8,0.4-0.9,0.9c-0.1,0.1-0.3-0.3-0.4,0
	c-0.1,0.3-0.6,0.6-0.2,1c-0.1,0.1-0.2,0.2-0.3,0.2c0-0.2,0-0.3-0.1-0.5c-0.2,0.1-0.3,0.2-0.5,0.3c-0.4,0.4-0.5,0.9-1,1.3
	c0,0,0,0.2,0,0.2c0.3,0.2,0.2,0.5-0.1,0.5c-0.4,0-0.5,0.3-0.7,0.6c-0.2,0.2-0.5,0.5-0.7,0.8c-0.2,0.2-0.3,0.1-0.4-0.1
	c-0.2-0.6-0.4-1.1-0.3-1.7c0-0.2,0.5,0.1,0.4-0.3c-0.1-0.2,0-0.5,0-0.7c0-0.4-0.1-0.8-0.2-1.2c-0.1-0.4,0.1-0.8-0.2-1.1
	c-0.1-0.1,0-0.3,0-0.5c0-0.5,0-0.9,0-1.4c0-0.5,0-1.1-0.2-1.6c-0.1-0.5,0.1-1.1-0.2-1.6c-0.1-0.1,0-0.3,0-0.4c0.1-0.2,0.1-0.3,0-0.5
	c-0.1-0.2,0-0.4,0.1-0.7c0-0.1,0.1-0.3,0-0.4c-0.1-0.2-0.1-0.3,0-0.5c0.1-0.1,0-0.3,0-0.4c0-0.1-0.1-0.2-0.1-0.3
	c0.3-0.5-0.1-1,0-1.5c0.1-0.6,0-1.1,0-1.7c0-0.5,0-1.1,0-1.6c0-0.6,0.1-1.2-0.2-1.7c-0.1-0.2-0.1-0.5,0.1-0.7
	c-0.2-0.2-0.1-0.5-0.2-0.7c0-0.3,0-0.5,0.2-0.7c0.1-0.1,0-0.3,0-0.4c0-0.4-0.1-0.7,0-1.1c0-0.4,0.1-0.8,0-1.1c0-0.4,0-0.8,0-1.2
	v-2.5c0-0.4,0-0.8,0-1.2c0-0.3,0.3-0.6,0-0.9c0.2-0.3,0.2-0.7,0.2-1c0-0.3-0.1-0.7,0-1c0.3-0.6,0-1.3,0.3-1.9c0.1-0.1,0-0.4,0-0.5
	c0.1-0.4-0.3-0.8,0-1.2c0.2-0.3-0.1-0.8,0.2-1.2c-0.4-0.6,0.1-1.2,0-1.8c-0.1-0.6,0-1.2,0-1.8c0-0.3-0.1-0.6,0.1-0.8
	c-0.2-0.9,0.3-1.7,0.2-2.6c0-1-0.2-2,0.1-3c0,0,0-0.1,0-0.2c-0.3-0.3-0.1-0.6,0-0.9c0-0.6,0.1-1.2,0.1-1.9c0-0.5,0.1-0.6,0.6-0.6
	c0.6,0,1.3-0.1,1.9,0.1c0.2,0.1,0.5,0.1,0.8,0c0.2-0.1,0.5,0.3,0.7,0c0.1-0.1,0.3-0.1,0.3,0c0.3,0.2,0.6,0.1,0.8,0.1
	c0.6,0,1.3,0,1.9,0c0.8,0,1.6,0.1,2.4,0.3c0.2,0.1,0.4,0,0.5,0c0.7,0,1.5,0,2.2,0c0.3,0,0.5,0.1,0.8,0.1c0.2,0,0.5,0.1,0.7,0
	c1.1-0.2,1.4-0.2,2.5,0c0.2,0,0.4,0,0.5,0c0.4,0,0.9-0.1,1.3,0.2c0.1,0.1,0.3-0.1,0.5-0.1c0.2,0,0.4,0.2,0.5,0.1
	c0.2-0.1,0.5-0.1,0.7,0c0.3,0,0.6,0,0.9,0.1c0.3,0,0.5,0,0.8,0c0.3,0,0.5,0.1,0.8,0.1c0.6,0.1,1.2,0.1,1.8,0.2
	c0.8,0.1,1.6,0,2.4,0.1c0.2,0,0.4,0,0.6,0c0.3-0.1,0.6,0.1,0.8,0.1c0.6,0,1.1,0.1,1.7,0.2c0.4,0.1,0.7,0,1.1,0.2
	c0.2,0.1,0.4,0,0.6,0.1c0.2,0,0.5,0.1,0.7,0.1c1.1,0,2.2,0,3.4,0c0.2,0,0.5,0,0.7,0.1c0.2,0,0.4-0.1,0.5,0.2c0,0,0.1,0,0.2,0
	c0.6,0,1.3,0.1,1.9,0.1c0.3,0,0.5,0.2,0.9,0.1c0.3-0.1,0.6,0,1,0.1c0.3,0,0.6,0.2,0.9,0.1c0.2,0,0.3,0.1,0.4,0.1
	c0.3-0.1,0.5,0.4,0.8,0.1c0.1-0.1,0.5,0.1,0.7,0.1c0.8,0.1,1.6,0.2,2.4,0.2c0.2,0,0.3,0.1,0.5,0.1c0.7,0,1.4,0.2,2.1,0.3
	c0.4,0.1,0.9,0.1,1.3,0c0.6-0.1,1.1,0.1,1.7,0.2c0.2,0,0.4,0.1,0.6,0.1c0.5,0,0.9,0.1,1.3,0.2c0.1,0,0.1,0.1,0.1,0.1
	c0.8,0,1.6,0.2,2.4,0.4c0.3,0,0.5,0,0.7,0.2c0.1,0.1,0.3,0.2,0.5,0c0.1,0,0.2,0,0.3,0c0.2,0.1,0.3,0.4,0.6,0.1
	c0.1-0.1,0.4,0.3,0.6,0c0.1-0.1,0.4,0,0.5,0.1c0.2,0.2,0.4,0.1,0.7,0.1c0.1,0,0.2,0,0.3,0c0.5,0.4,1,0.5,1.5,0.4
	c0.1,0.5,0.5,0.1,0.7,0.2c0.3,0.1,0.6,0.4,0.9,0.3c0.4-0.1,0.4,0.4,0.7,0.3c0.2-0.1,0.6,0.1,0.9,0.1c0.3,0.1,0.6,0.1,0.9,0.2
	c0.5,0.2,1,0.3,1.6,0.3c0.5,0,1,0.2,1.5,0.3c0.9,0.1,1.8,0.4,2.7,0.7c0.1,0,0.3,0,0.4,0c0.4,0,0.8,0,1,0.4c0.1,0.2,0.3,0,0.4,0.1
	c0.1,0.2,0.4-0.2,0.4,0.2c0,0.1,0.3,0.1,0.5,0.1c0.2,0,0.4,0.1,0.6,0.2c0.6,0.3,1.3,0.6,1.9,0.9c0.3,0.2,0.6,0.4,0.9,0.3
	c0.2,0,0.3,0.1,0.3,0.3c0,0.7,0,1.4,0,2.1c0,0.3,0,0.5,0,0.8c0,0.4,0.1,0.8-0.1,1.2c0,0.1,0,0.2,0,0.3C111.2,52.8,110.9,54,111,55.1
	z M36.1,84.6l0.1,0C36.2,84.6,36.2,84.7,36.1,84.6C36.1,84.7,36.1,84.7,36.1,84.6z M36.8,84c0-0.1,0.1-0.1,0.2-0.1c0,0,0,0.1,0,0.1
	c0,0.1-0.1,0.1-0.1,0.1C36.8,84.1,36.7,84,36.8,84z M37.1,83.3c0.1,0,0.2,0,0.3,0c-0.1,0.1-0.2,0.2-0.3,0.3
	C37.1,83.6,37.1,83.5,37.1,83.3z M37.6,83.1C37.7,83,37.7,83,37.6,83.1c0.1-0.1,0.1,0,0.1,0v0.1C37.7,83.1,37.7,83.1,37.6,83.1z
	 M38,82.5c0.1,0,0.1,0.1,0.2,0.1c0,0,0,0.1,0,0.1c0,0-0.1-0.1-0.1-0.1C38,82.6,38,82.5,38,82.5z M38.3,82.4
	C38.4,82.3,38.4,82.3,38.3,82.4c0.1-0.1,0.1,0,0.1,0v0.1C38.4,82.4,38.4,82.4,38.3,82.4z M39.4,81.3C39.4,81.3,39.4,81.3,39.4,81.3
	L39.4,81.3C39.5,81.3,39.5,81.3,39.4,81.3C39.5,81.4,39.4,81.3,39.4,81.3z M40.5,80c0,0,0.2,0,0.3-0.1c-0.1,0.1-0.1,0.2-0.2,0.4
	c-0.3,0.4-0.3,0.4-0.7,0C40.2,80.3,40.4,80.4,40.5,80z M40.1,80c0,0,0.1,0,0.1,0c0,0,0,0-0.1,0.1C40.1,80.1,40.1,80,40.1,80z
	 M42.8,77.7C42.8,77.7,42.8,77.7,42.8,77.7l0.1,0C42.9,77.8,42.9,77.8,42.8,77.7C42.8,77.8,42.8,77.8,42.8,77.7z M43.5,77.2
	C43.5,77.2,43.5,77.2,43.5,77.2L43.5,77.2C43.6,77.2,43.6,77.3,43.5,77.2C43.5,77.3,43.5,77.3,43.5,77.2z M44.7,76.1
	c0,0,0.1,0,0.1,0C44.8,76.1,44.8,76.2,44.7,76.1C44.8,76.2,44.8,76.2,44.7,76.1z M44.9,76.1c0-0.1,0-0.2,0-0.3c0.1,0,0.2,0,0.3-0.1
	c0.1,0,0.2-0.4,0.4-0.2c0,0-0.1,0.3-0.2,0.4C45.2,76,45,76,44.9,76.1z M45.8,75c0.1,0,0.1,0,0.2,0c0,0,0,0.1,0,0.1
	c0,0,0,0.1-0.1,0.1c0,0-0.1-0.1-0.1-0.1C45.8,75.1,45.8,75.1,45.8,75z M49.5,71.9c0.1,0,0.1,0.1,0.2,0.1c0,0,0,0.1,0,0.1
	c0,0-0.1-0.1-0.1-0.1C49.5,72,49.5,71.9,49.5,71.9z M32.5,85.2C32.5,85.2,32.6,85.2,32.5,85.2L32.5,85.2
	C32.6,85.2,32.6,85.2,32.5,85.2C32.6,85.2,32.5,85.2,32.5,85.2z M112.6,92.7c0,0.1-0.1,0.1-0.1,0.1c0-0.1-0.1-0.1,0-0.1
	c0-0.1,0.1-0.1,0.2-0.1C112.6,92.6,112.6,92.6,112.6,92.7z M82.7,29.9L82.7,29.9C82.7,29.9,82.7,29.9,82.7,29.9
	C82.7,29.9,82.7,29.9,82.7,29.9C82.7,29.9,82.7,29.9,82.7,29.9z M103.2,117.5C103.2,117.5,103.2,117.5,103.2,117.5
	C103.2,117.5,103.2,117.5,103.2,117.5C103.2,117.4,103.2,117.5,103.2,117.5C103.2,117.5,103.2,117.5,103.2,117.5z M102.5,117.3
	c0.1,0.3,0.4,0.2,0.6,0.3c0,0,0.1-0.1,0.1-0.2C103,117.3,102.8,117.3,102.5,117.3z M103.2,117.4c0,0,0.1,0,0.1,0c0,0,0,0-0.1-0.1
	C103.3,117.4,103.3,117.4,103.2,117.4z M102.5,117.3C102.5,117.3,102.5,117.3,102.5,117.3C102.5,117.3,102.5,117.3,102.5,117.3
	C102.5,117.3,102.5,117.3,102.5,117.3C102.5,117.3,102.5,117.3,102.5,117.3z M104.1,117.6C104.2,117.6,104.2,117.6,104.1,117.6
	C104.2,117.6,104.2,117.5,104.1,117.6L104.1,117.6C104.2,117.5,104.1,117.5,104.1,117.6z M82.7,30.1C82.7,30.1,82.7,30.1,82.7,30.1
	C82.7,30.1,82.7,30.1,82.7,30.1C82.7,30.1,82.7,30.1,82.7,30.1z M8.6,72c0,0.1,0,0.2,0.1,0.3c0.1-0.1,0.2-0.1,0.3-0.2
	C8.9,72,8.8,72,8.7,71.9C8.7,71.9,8.6,72,8.6,72z M84,113.1c0,0,0.1,0,0.1,0v-0.1C84.1,113.1,84,113.1,84,113.1
	C84,113.1,84,113.1,84,113.1z M102.4,117.2c0,0,0.1,0,0.1,0C102.5,117.2,102.5,117.2,102.4,117.2
	C102.4,117.2,102.4,117.2,102.4,117.2z M83,29.1c0,0,0,0.1,0,0.1C83,29.2,83,29.2,83,29.1C83,29.1,83,29.1,83,29.1z M82.9,30
	c0,0-0.1,0-0.1,0c0,0,0,0.1,0,0.1C82.8,30.1,82.8,30,82.9,30z M106.6,41.8c0,0,0,0.1,0,0.1C106.6,41.9,106.7,41.9,106.6,41.8
	L106.6,41.8z M106.6,41.9C106.6,41.9,106.6,41.9,106.6,41.9C106.6,42,106.6,42,106.6,41.9C106.6,42,106.6,42,106.6,41.9
	C106.6,42,106.6,41.9,106.6,41.9z M112.3,96.8c0,0,0,0.1,0,0.1c0,0,0.1-0.1,0.1-0.1c0,0,0-0.1-0.1-0.1
	C112.3,96.7,112.3,96.7,112.3,96.8z M92,114.9c0,0,0-0.1,0-0.1C92,114.8,92,114.9,92,114.9C92,114.9,92,114.9,92,114.9z
	 M111.9,101.5C111.9,101.5,112,101.5,111.9,101.5c0.1,0,0.1-0.1,0.1-0.2c0,0-0.1,0-0.1-0.1C111.9,101.3,111.9,101.4,111.9,101.5z
	 M111.9,102.4C111.9,102.4,112,102.4,111.9,102.4C112,102.4,112,102.3,111.9,102.4L111.9,102.4C111.9,102.3,111.9,102.3,111.9,102.4
	z M47,73.8c0,0,0.1,0,0.1,0c0,0,0,0-0.1-0.1C47,73.7,47,73.7,47,73.8z M103.6,113.2C103.6,113.2,103.6,113.2,103.6,113.2
	L103.6,113.2C103.6,113.2,103.6,113.2,103.6,113.2z M46.9,73.9c0,0,0-0.1,0-0.1C46.9,73.8,46.9,73.8,46.9,73.9
	C46.9,73.9,46.9,73.9,46.9,73.9z M103.9,113.6C103.9,113.6,103.9,113.6,103.9,113.6C103.9,113.6,103.9,113.6,103.9,113.6
	C103.9,113.6,103.9,113.6,103.9,113.6C103.9,113.6,103.9,113.6,103.9,113.6z M103.7,113.2c-0.1,0-0.1,0-0.2,0c0,0.1,0,0.2,0,0.3
	c0,0.1,0.1,0.1,0.1,0.2c0.1-0.1,0.1-0.1,0.2-0.2C103.7,113.5,103.8,113.4,103.7,113.2z M47,73.8C47,73.8,47,73.8,47,73.8
	C47,73.8,47,73.8,47,73.8C47,73.8,47,73.8,47,73.8C47,73.8,47,73.8,47,73.8z M104,114.2c0,0,0.1-0.1,0.1-0.1c0,0,0-0.1,0-0.1
	c-0.1,0-0.1,0.1-0.2,0.1C103.9,114.1,104,114.2,104,114.2z M103.7,113.2L103.7,113.2C103.8,113.2,103.8,113.2,103.7,113.2
	C103.8,113.2,103.7,113.2,103.7,113.2C103.7,113.2,103.7,113.2,103.7,113.2z M106.1,114c0,0,0.1,0,0.1,0V114
	C106.2,114,106.1,114,106.1,114C106.1,114,106.1,114,106.1,114z M106.1,113.2c-0.1-0.2-0.1-0.3-0.2-0.5c-0.2-0.3-0.2-0.4-0.3-0.9
	c0-0.1-0.1-0.2-0.2-0.3c-0.3-0.2-0.3-0.5-0.5-0.8c-0.3-0.6-0.6-1.2-0.9-1.8c-0.2-0.5-0.6-0.9-0.8-1.3c-0.2-0.7-0.8-1.2-1-1.9
	c-0.2-0.6-0.7-0.9-0.9-1.5c-0.1-0.3-0.3-0.6-0.5-0.8c-0.2-0.2-0.3-0.5-0.5-0.7c-0.8-0.8-1.5-1.6-2-2.6c-0.1-0.1-0.1-0.2-0.2-0.3
	c-0.5-0.5-0.9-1.1-1.3-1.6c-0.7-0.7-1.3-1.6-2-2.3c-0.3-0.2-0.4-0.6-0.7-0.8c-0.3-0.2-0.5-0.5-0.7-0.8c-0.6-1-1.4-1.9-2.1-2.8
	c-0.3-0.4-0.6-0.7-0.9-1c-0.3-0.3-0.5-0.7-0.8-1c-0.4-0.4-0.8-0.8-1.2-1.2c-0.4-0.4-0.8-0.9-1.1-1.3c-0.8-1.1-1.8-2.2-2.7-3.3
	c-0.3-0.4-0.7-0.8-1.1-1.2c-1.1-1.2-2.1-2.4-3.2-3.6c-0.3-0.3-0.5-0.6-0.8-0.9c-0.5-0.6-0.9-1.3-1.6-1.6c-0.1-0.5-0.7-0.3-0.9-0.7
	c0,0-0.4,0-0.5,0c-0.1,0-0.2,0-0.2-0.1c0-0.2-0.2-0.2-0.4-0.3c-0.3-0.2-0.2,0-0.2,0.2c0,0.1,0,0.2,0,0.2c-0.1,0-0.2,0-0.2,0
	c-0.2,0-0.1-0.5-0.4-0.3c-0.1,0,0.1,0.4,0.1,0.5c0,0.1,0.2,0.2,0.2,0.3c0.2,0.3,0.5,0.6,0.7,0.9c0.2,0.3,0.7,0.4,0.7,0.9
	c0.9,0.9,1.6,2.1,2.5,2.9c0.5,0.4,0.9,0.9,1.2,1.4c0.4,0.8,1.2,1.2,1.6,2c0.5,0.2,0.6,0.7,0.9,1c0.7,0.7,1.4,1.4,1.8,2.3
	c0.1,0.1,0.2,0.2,0.3,0.3c0.4,0.2,0.6,0.6,0.9,0.9c0.2,0.3,0.4,0.7,0.9,0.7c0.2,0.6,0.8,1.1,1.1,1.7c0.1,0.2,0.1,0.1,0.2,0.1
	c0.1,0,0.5,0.5,0.5,0.5c-0.2,0.3-0.2,0.4,0.2,0.5c0.1,0,0.2,0.2,0.3,0.4c0.1,0.2,0.2,0.4,0.3,0.5c0.2,0.2,0.4,0.4,0.6,0.7
	c0.2,0.2,0.4,0.4,0.4,0.8c0,0,0.1,0.1,0.2,0.1c0.5,0.6,0.9,1.2,1.5,1.7c0.6,0.6,1,1.4,1.8,1.8c0,0,0.1,0.1,0,0.1
	c-0.2,0.2,0.1,0.3,0.1,0.4c0.1,0.2,0.2,0.3,0.4,0.4c0.4,0.4,0.8,0.8,1.1,1.3c0.2,0.3,0.3,0.7,0.5,1c0.4,0.5,0.6,1.2,1,1.7
	c0.5,0.6,1,1.3,1.4,1.9c0.4,0.7,0.9,1.4,1.4,2c0.1,0.1,0.2,0.1,0.2,0.2c0,0.4,0.5,0.5,0.5,0.8c0,0.4,0.3,0.5,0.5,0.7
	c0.2,0.2,0.3,0.3,0.3,0.5c0,0.3,0.2,0.2,0.3,0.3c0.1,0.2,0.1,0.4,0.2,0.5c0.4,0.6,0.5,1.4,1,1.9c0,0.3,0.1,0.5,0.4,0.7
	c0,0.1-0.1,0.3,0.2,0.4c0,0,0.1-0.1,0.1-0.1l0.1,0.1c0.2,0,0.2,0.2,0.2,0.4c0.2,0,0.2,0.2,0.2,0.4l0,0c0,0,0,0,0,0c0,0,0,0,0,0
	c0.2,0.2,0.4,0.4,0.5,0.6c0.1,0.1,0.1,0.1,0.2,0.1c0,0,0.1-0.1,0.1-0.1c0-0.1,0-0.2,0-0.3c0.1-0.3,0.1-0.2,0.2,0
	c0.1,0.2,0.1,0,0.2-0.1c0.1-0.2,0.1-0.6,0.6-0.5C106.3,113.6,106.1,113.4,106.1,113.2z M75.8,76c0,0-0.1-0.1-0.1-0.1
	c0,0,0-0.1,0-0.1c0.1,0,0.1,0.1,0.2,0.1C75.8,75.9,75.8,76,75.8,76z M92.3,96.4C92.3,96.4,92.3,96.4,92.3,96.4c-0.1-0.1,0-0.1,0-0.1
	h0.1C92.4,96.3,92.4,96.4,92.3,96.4z M101.8,109.7c0,0,0-0.1,0-0.1c0,0,0.1,0.1,0.1,0.1C101.9,109.7,101.9,109.7,101.8,109.7z
	 M102.1,109.8c0,0,0-0.1,0-0.1C102,109.7,102.1,109.7,102.1,109.8C102.1,109.8,102.1,109.8,102.1,109.8z M102.5,110.5
	c0,0-0.1,0-0.1,0C102.4,110.5,102.4,110.4,102.5,110.5C102.4,110.4,102.5,110.4,102.5,110.5L102.5,110.5L102.5,110.5z M103.1,112.1
	c0,0,0-0.1,0-0.1c0-0.1,0.1-0.1,0.1-0.1c0,0.1,0.1,0.1,0,0.1C103.2,112.1,103.1,112.1,103.1,112.1z M103.4,112.8c0,0,0-0.1,0-0.1
	c0-0.1,0.1-0.1,0.1-0.1c0,0.1,0.1,0.1,0,0.1C103.5,112.8,103.5,112.8,103.4,112.8z M107.5,109.2
	C107.5,109.2,107.6,109.3,107.5,109.2c0.1,0,0.1,0,0.1,0C107.6,109.2,107.6,109.2,107.5,109.2C107.5,109.2,107.5,109.2,107.5,109.2z
	 M34.3,39.9c0-0.1-0.1-0.1-0.1-0.1c0,0.1-0.1,0.1,0,0.1c0,0.1,0.1,0.1,0.2,0.1C34.3,39.9,34.3,39.9,34.3,39.9z M107.3,111.7
	c0,0,0.1,0,0.1,0v-0.1C107.4,111.7,107.4,111.7,107.3,111.7C107.3,111.7,107.3,111.7,107.3,111.7z M109.1,50.8
	c-0.3,0-0.4-0.2-0.6-0.4c-0.2-0.2-0.6-0.4-0.9-0.5c-0.1,0-0.3,0.2-0.4,0.3c-0.2,0.3-0.6,0.3-0.8,0.5c-0.3,0.2-0.5,0.6-0.8,0.9
	c-0.3,0.3-0.6,0.4-0.9,0.6c-1.1,0.7-2.1,1.5-3.2,2.2c-0.6,0.4-1.3,0.8-1.9,1.2c-0.1,0.1-0.3,0.2-0.4,0.3c-0.5,0.4-0.9,0.8-1.4,1.1
	c-0.9,0.5-1.8,1-2.7,1.6c-0.3,0.2-0.6,0.4-0.9,0.5c-0.3,0.1-0.5,0.4-0.8,0.4c-0.4,0-0.4,0.6-0.8,0.4c-0.7,0.4-1.3,1-2.2,1
	c0,0,0,0-0.1,0c0.2,0.2,0.1,0.2-0.1,0.3c-0.2,0.1-0.4,0.2-0.5,0c-0.3,0.3-0.9,0.2-1,0.8c-0.1,0.5-0.2,0.1-0.3,0.1
	C88.1,62,88.1,62,88,62.3c-0.6-0.1-0.8,0.5-1.3,0.6c-0.1,0-0.1,0.5-0.3,0.6c-0.2,0.1-0.5-0.1-0.7,0c-0.8,0.4-1.6,0.8-2.4,1.1
	c-0.2,0.1-0.3,0.3-0.5,0.3c-0.4,0-0.6,0.2-0.8,0.5c-0.6,0-1,0.3-1.5,0.5c-0.7,0.4-1.6,0.6-2.1,1.2c0,0-0.1,0-0.1,0
	c-0.8-0.1-1.2,0.7-1.9,0.8c-1,0.8-2.1,1.2-3.2,1.8c-0.4,0.2-0.8,0.4-1.2,0.6c-0.6,0.2-1.1,0.5-1.6,0.7c-0.5,0.2-0.8,0.5-1.3,0.6
	c-0.2,0.1-0.6,0.1-0.7,0.2c-0.2,0.4-0.6,0.4-0.9,0.6c-0.3,0.2-0.7,0.2-1,0.4c-0.4,0.4-1,0.2-1.4,0.7c0,0-0.2,0-0.3-0.1
	c-0.1-0.1-0.2-0.3-0.3-0.3c-0.3,0,0.1,0.2,0,0.3c0,0-0.1,0-0.2,0c-0.2-0.1-0.2-0.3-0.1-0.5c0,0,0-0.1,0.1-0.1
	c-0.5-0.1-0.2-0.5-0.3-0.7c-0.2-0.2-0.4-0.3-0.6-0.5s-0.1-0.5-0.4-0.6c-0.3-0.1-0.4-0.3-0.4-0.6c-0.1-0.3-0.3-0.6-0.5-0.8
	c-0.3-0.3-0.6-0.6-0.9-0.9c-0.9-0.9-1.8-1.8-2.7-2.7c-0.5-0.6-1.2-1-1.6-1.7c-0.5-0.7-1.1-1.3-1.7-1.9c-0.4-0.4-0.9-0.7-1.3-1.1
	c-0.4-0.4-0.8-0.9-1.3-1.4c-0.5-0.5-1-1-1.5-1.5c-0.4-0.4-0.9-0.8-1.1-1.4c0-0.1,0-0.1-0.1-0.1c-0.7-0.3-1.1-1-1.7-1.5
	c-0.2-0.2-0.4-0.6-0.6-0.7c-0.4-0.1-0.4-0.4-0.6-0.6c-0.1-0.2-0.3-0.3-0.4-0.5c-0.3-0.3-0.5-0.6-0.8-0.9c-0.3-0.3-0.5-0.8-1-0.9
	c-0.1,0-0.2-0.2-0.2-0.3c0-0.2-0.1-0.3-0.3-0.4c-0.2-0.1-0.4-0.3-0.4-0.4c-0.1-0.8-0.9-1-1.2-1.6c-0.7-0.4-1.1-1.2-1.6-1.9
	c-0.3-0.4-0.6-0.7-0.8-1.1c-0.1-0.2-0.4-0.4-0.6-0.7c-0.5-0.8-0.9-1.5-1.4-2.2c-0.2-0.3-0.5-0.4-0.7-0.7c-0.2-0.5-0.6-0.8-0.9-1.1
	c-0.4-0.4-0.7-0.9-0.9-1.5c-0.1-0.5-0.6-0.7-0.9-1.1c0,0-0.2,0-0.3,0c0,0,0,0.1,0,0.2c0.2,0.4,0,0.6-0.3,0.9c0,0,0,0,0,0
	c0,0,0,0,0,0l0,0c0,0.8,0.6,1.2,0.8,1.9c0.5,0.4,0.7,0.9,1,1.4c0.4,0.5,0.7,1,1,1.5c0.2,0.4,0.5,0.9,0.9,1.2
	c0.3,0.2,0.4,0.7,0.8,0.9c0.2,0.8,0.9,1.4,1.3,2.1c0.2,0.4,0.4,0.7,0.7,1c0.3,0.3,0.5,0.7,0.8,1c0.6,0.5,0.7,1.4,1.3,1.9
	c0.3,0.3,0.5,0.7,0.8,0.9c0.4,0.2,0.4,0.6,0.7,0.9c0.3,0.3,0.6,0.6,0.8,0.9c0.2,0.4,0.5,0.7,0.8,1c0.5,0.5,1,1,1.3,1.6
	c0.6,1.1,1.6,1.8,2.2,2.8c0.9,0.6,1.5,1.5,2.3,2.2c0.4,0.3,0.6,0.8,1,1.1c0.9,0.8,1.7,1.6,2.5,2.5c0.3,0.3,0.6,0.6,0.9,1
	c0.4,0.4,1,0.7,1.3,1.3c0.3,0.6,1.1,0.7,1.2,1.5c0.5,0.4,0.7,1,1.1,1.4c0.8,0.8,1.4,1.6,2.2,2.4c0.1,0.1,0.2,0.4,0.3,0.6
	c0,0.1-0.2,0.2-0.3,0.3c0,0-0.1,0.1-0.1,0.1c0.1,0,0.2,0.1,0.2,0.1c0.1,0.1,0.1,0.3,0.1,0.5c0.1,0.2,0.3,0.3,0.3,0.4
	c0,0.3,0.1,0.4,0.4,0.3c0.9-0.1,1.8,0.2,2.6-0.3c0.2-0.1,0.5,0,0.7-0.1c0.2-0.2,0.6-0.2,0.8-0.3c0.3-0.2,0.5-0.3,0.8-0.4
	c0.1,0,0.1-0.1,0.2-0.1c0.5-0.3,1-0.5,1.5-0.7c0.2-0.1,0.3-0.2,0.5,0c0.1,0.1,0.3,0,0.3-0.2c0-0.2,0.1-0.3,0.3-0.4
	c0.3-0.2,0.7-0.3,1-0.3c0.3-0.5,0.9-0.5,1.4-0.7c0.7-0.3,1.5-0.7,2.2-1.1c0.1-0.4,0.7-0.1,0.8-0.6c0.3-0.1,0.6-0.3,0.9-0.4
	c0.5-0.3,1-0.4,1.5-0.7c0.5-0.3,0.9-0.9,1.7-0.8c0,0,0-0.1,0.1-0.1c0.5-0.3,0.9-0.6,1.4-0.9c0.2-0.1,0.6,0,0.6-0.1
	c0.1-0.4,0.4-0.2,0.6-0.3c0.2-0.1,0.3-0.3,0.5-0.4c0.2-0.1,0.5-0.3,0.7-0.3c0.4,0.1,0.4-0.3,0.7-0.4c0.5-0.2,1-0.5,1.5-0.8
	c0.4-0.2,0.8-0.5,1.3-0.6c0.3-0.1,0.6-0.3,0.9-0.5c0.3-0.2,0.7-0.1,0.9-0.5c0.1-0.2,0.5-0.1,0.7-0.3c0.2-0.2,0.3,0,0.3-0.1
	c0-0.2,0.2-0.3,0.4-0.4c0.2-0.1,0.3-0.2,0.5-0.3c0.2-0.1,0.4-0.1,0.5-0.2c0.2-0.1,0.4-0.4,0.5-0.4c0.4,0.1,0.1-0.3,0.4-0.3
	c0,0,0.1-0.1,0.1-0.1c0.3,0,0.6,0.1,0.7-0.3c0.1-0.1,0.5-0.2,0.7-0.2c0.5-0.1,0.8-0.4,1.2-0.7c0.5-0.3,1.1-0.6,1.6-0.9
	c0.5-0.3,1.2-0.4,1.5-1c0,0,0.1,0,0.1,0c0.2,0.2,0.4,0,0.5-0.1c0.2-0.3,0.5-0.4,0.7-0.6c0.4,0.2,0.3-0.3,0.6-0.4
	c0.3-0.1,0.6-0.2,0.7-0.4c0.6-0.8,1.8-0.8,2.3-1.7c0.5,0.2,0.6-0.6,1.1-0.4c0.2-0.6,0.9-0.6,1.3-1c0.2-0.2,0.7-0.2,0.7-0.7
	c0.5-0.1,0.6-0.6,0.9-0.9c0.1-0.1,0.3-0.2,0.5-0.3c0.1-0.1,0.3-0.3,0.3-0.4c-0.2-0.4,0.2-0.2,0.3-0.4c0.1-0.3,0.3-0.8,0.1-1
	c-0.2-0.3-0.2-0.3,0.1-0.3c0,0,0.1,0,0.2-0.1C109.2,50.9,109.1,50.8,109.1,50.8z M34.9,40.1c0,0-0.1,0-0.1,0
	C34.8,40.1,34.9,40.1,34.9,40.1C34.9,40,34.9,40.1,34.9,40.1L34.9,40.1L34.9,40.1z M36.2,42.4C36.1,42.4,36.1,42.4,36.2,42.4
	c-0.1-0.1,0-0.1,0-0.1C36.1,42.4,36.2,42.4,36.2,42.4C36.2,42.4,36.2,42.4,36.2,42.4z M36.5,43c0,0,0-0.1,0-0.1c0.1,0,0.2,0,0.2,0
	c0,0.1,0,0.2,0.1,0.3C36.6,43.1,36.6,43.1,36.5,43z M36.9,43.5c0,0-0.1-0.1-0.1-0.1c0,0,0-0.1,0-0.1c0.1,0,0.1,0.1,0.2,0.1
	C36.9,43.4,36.9,43.4,36.9,43.5z M37.3,44.1c-0.1,0-0.1-0.1-0.1-0.1c0,0,0.1-0.1,0.1,0c0,0,0.1,0.1,0.1,0.1
	C37.4,44,37.3,44.1,37.3,44.1z M37.5,44.4C37.5,44.4,37.5,44.4,37.5,44.4c-0.1-0.1,0-0.1,0-0.1h0.1C37.6,44.3,37.5,44.4,37.5,44.4z
	 M81.9,65.8C81.9,65.8,81.9,65.7,81.9,65.8c0-0.1,0-0.1,0-0.1C82,65.7,82,65.7,81.9,65.8z M82,65.6c0,0,0-0.1,0-0.1c0,0,0.1,0,0.1,0
	C82.1,65.6,82.1,65.6,82,65.6z M82.7,65.4c0,0-0.1,0-0.1,0C82.6,65.4,82.6,65.3,82.7,65.4C82.6,65.3,82.7,65.3,82.7,65.4L82.7,65.4
	L82.7,65.4z M85,64.2c0,0-0.1,0-0.1,0c0,0,0.1-0.1,0.1-0.1c0,0,0.1,0,0.1,0C85.1,64.1,85.1,64.2,85,64.2z M85.2,64c0,0,0-0.1,0-0.1
	c0,0,0,0,0.1,0.1C85.3,64,85.3,64,85.2,64z M88.1,62.6c0,0-0.1-0.1-0.1-0.1c0,0,0-0.1,0-0.1c0.1,0,0.1,0.1,0.2,0.1
	C88.2,62.5,88.2,62.5,88.1,62.6z M89.2,61.9C89.2,61.9,89.1,61.9,89.2,61.9c-0.1-0.1,0-0.1,0-0.1C89.2,61.8,89.2,61.8,89.2,61.9
	C89.2,61.9,89.2,61.9,89.2,61.9z M30,45.9L30,45.9C29.9,45.9,29.9,45.9,30,45.9c-0.1,0.1,0,0.1,0,0.1C29.9,46,30,45.9,30,45.9z
	 M12.3,27.1C12.3,27.1,12.3,27.1,12.3,27.1C12.3,27.1,12.3,27.1,12.3,27.1C12.3,27.1,12.3,27.1,12.3,27.1
	C12.3,27.1,12.3,27.1,12.3,27.1z M40.8,79.4C40.9,79.4,40.9,79.4,40.8,79.4C40.9,79.4,40.9,79.4,40.8,79.4L40.8,79.4
	C40.9,79.3,40.8,79.4,40.8,79.4z M109.3,86.4C109.3,86.4,109.3,86.5,109.3,86.4c0.1,0,0.1,0,0.1,0C109.4,86.4,109.3,86.4,109.3,86.4
	C109.3,86.4,109.3,86.4,109.3,86.4z M12,26.8c0,0.1,0,0.2,0,0.2c0.1,0,0.2,0,0.3,0.1c0-0.1-0.1-0.2-0.2-0.2
	C12.1,26.8,12.1,26.8,12,26.8z M11.6,27.3C11.6,27.3,11.6,27.3,11.6,27.3C11.6,27.3,11.6,27.3,11.6,27.3
	C11.6,27.3,11.6,27.3,11.6,27.3C11.6,27.3,11.6,27.3,11.6,27.3z M34.2,39.2c0,0-0.1,0-0.1,0C34.1,39.2,34.1,39.2,34.2,39.2
	C34.2,39.2,34.2,39.2,34.2,39.2z M11.5,27.2c0,0,0.1,0,0.1,0C11.6,27.2,11.6,27.2,11.5,27.2C11.5,27.2,11.5,27.2,11.5,27.2z
	 M34.1,39.2C34.1,39.1,34.1,39.1,34.1,39.2C34.1,39.1,34.1,39.1,34.1,39.2C34.1,39.1,34.1,39.1,34.1,39.2
	C34.1,39.1,34.1,39.1,34.1,39.2z M44,76.6c0,0,0.1,0,0.1,0C44.1,76.6,44.1,76.5,44,76.6C44.1,76.5,44.1,76.5,44,76.6z M34,38.6
	c0,0.1-0.1,0.1-0.1,0.2c0,0.1,0,0.3,0.2,0.3c0-0.1,0-0.2,0-0.3C34.1,38.7,34,38.7,34,38.6z"/>
</svg>
