<?xml version="1.0" encoding="utf-8"?>
<!-- Generator: Adobe Illustrator 23.0.3, SVG Export Plug-In . SVG Version: 6.00 Build 0)  -->
<svg version="1.1" baseProfile="tiny" id="Layer_1" xmlns="http://www.w3.org/2000/svg" xmlns:xlink="http://www.w3.org/1999/xlink"
	 x="0px" y="0px" viewBox="0 0 24 24" xml:space="preserve">
<g>
	<path fill-rule="evenodd" fill="#4285F4" d="M23.1,12.6c0-0.8-0.1-1.6-0.2-2.4H12.1v4.4h6.2c-0.3,1.4-1.1,2.7-2.3,3.5v2.9h3.7
		C21.8,19.1,23.1,16.1,23.1,12.6z"/>
	<path fill-rule="evenodd" fill="#34A853" d="M12.1,23.9c3.1,0,5.7-1,7.6-2.8l-3.7-2.9c-1,0.7-2.3,1.1-3.9,1.1c-3,0-5.5-2-6.4-4.7
		H1.8v3C3.7,21.3,7.6,23.9,12.1,23.9z"/>
	<path fill-rule="evenodd" fill="#FBBC05" d="M5.6,14.5c-0.2-0.7-0.4-1.4-0.4-2.2c0-0.8,0.1-1.5,0.4-2.2v-3H1.8
		C1,8.8,0.6,10.5,0.6,12.4c0,1.9,0.4,3.6,1.2,5.2L5.6,14.5z"/>
	<path fill-rule="evenodd" fill="#EA4335" d="M12.1,5.4c1.7,0,3.2,0.6,4.4,1.7l3.3-3.3c-2-1.9-4.6-3-7.7-3c-4.5,0-8.4,2.6-10.3,6.3
		l3.8,3C6.5,7.5,9.1,5.4,12.1,5.4z"/>
</g>
</svg>
