<?xml version="1.0" encoding="utf-8"?>
<!-- Generator: Adobe Illustrator 23.0.3, SVG Export Plug-In . SVG Version: 6.00 Build 0)  -->
<svg version="1.1" id="Layer_1" xmlns="http://www.w3.org/2000/svg" xmlns:xlink="http://www.w3.org/1999/xlink" x="0px" y="0px"
	 viewBox="0 0 180 146" enable-background="new 0 0 180 146" xml:space="preserve">
<g>
	<path fill-rule="evenodd" clip-rule="evenodd" fill="#FF3B59" d="M14,30.8c0.6-0.3,2.3-0.2,2.3,1.5c0,1.8-1.8,2.3-2.6,1.2
		c-0.4-0.5-0.3-1.1-0.2-1.6C13.5,31.4,13.7,31,14,30.8z"/>
</g>
<g>
	<path fill-rule="evenodd" clip-rule="evenodd" fill="#FF3B59" d="M34.2,16.2c1.1-0.5,4.2-0.4,4.2,2.4s-3.2,3.6-4.8,1.9
		c-0.8-0.8-0.6-1.7-0.4-2.5C33.4,17.1,33.6,16.4,34.2,16.2z"/>
</g>
<path fill="#FFFFFF" d="M2.5,65l107.5,79l25-13.7l44.2-32.4c-64.4-40-64.2-46-75.3-51.9c-11.1-5.9-25.9-17.8-25.9-17.8L56,36
	l-15.7-7.9l-7.9,2.5L29,45.9L2.5,58.1V65z"/>
<g>
	<path fill-rule="evenodd" clip-rule="evenodd" fill="#03EBC3" d="M144.5,21.4c0.5-0.2,1.8-0.2,1.8,1.1s-1.4,1.6-2.1,0.9
		C143.6,22.6,144.1,21.7,144.5,21.4z"/>
</g>
<path fill="#FF385C" d="M57.5,43.4l-25.3-14l7.8-2L66.8,41l-3.4,23.8l-10.3,3.7L57.5,43.4z"/>
<g>
	<path fill="none" stroke="#03E4BD" stroke-width="16" stroke-linecap="round" stroke-linejoin="round" d="M73.7,49.8
		c3.2-2.4,6.4-5.5,9.8-7.5c2.1-1.2,4.3-1.8,6.4-2.8"/>
</g>
<g>
	<path fill="none" stroke="#03E4BD" stroke-width="12" stroke-linecap="round" stroke-linejoin="round" d="M98.7,110.2
		c5-2.9,10.3-5.4,15.3-8.3c1.7-1,5.1-2.6,6.2-4.5c0.6-1.1,1.9-2.1,3.1-2.5"/>
</g>
<g>
	<path fill="none" stroke="#03E4BD" stroke-width="16" stroke-linecap="round" stroke-linejoin="round" d="M105.6,90.5
		c3.2-2.4,6.4-5.5,9.8-7.5c2.1-1.2,4.3-1.8,6.4-2.8"/>
</g>
<path d="M9.2,31c0.4,0.1,0.6-0.1,0.9-0.3c0.4-0.4,0.8-0.8,1.3-1.2c0.2-0.2,0.6-0.3,0.7-0.6c0,0,0.1,0,0.1,0c0,0,0,0.1,0,0.1
	c-0.2,0.2-0.2,0.5-0.4,0.8c-0.2,0.1-0.2,0.4-0.3,0.6c-0.2,0.4-0.5,0.8-0.7,1.2c-0.2,0.3-0.2,0.5,0,0.8c0.3,0.4,0.3,0.4,0.8,0.4
	c0.3,0,0.5,0,0.8-0.2c0.3-0.2,0.6-0.3,0.9-0.4c0.3-0.1,0.5-0.4,0.8-0.5c0.3-0.1,0.5-0.3,0.8-0.4c0.3-0.2,0.7-0.4,1.1-0.6
	c0,0,0.1,0,0.1,0c0,0.1,0.1,0.2,0.1,0.2c-0.1,0.4-0.2,0.7-0.3,1.1c-0.1,0.3-0.3,0.6-0.4,0.9c-0.1,0.1,0,0.1,0.1,0.1
	c0.2,0,0.2,0.1,0.1,0.2c-0.1,0.3-0.3,0.7-0.4,1c-0.1,0.2-0.1,0.3,0,0.5c0.1,0.2,0.2,0.1,0.4,0.2c0.5,0.1,1,0,1.4-0.3
	c0.1-0.1,0.2-0.1,0.3-0.1c0.4,0,0.7-0.2,1-0.4c0.5-0.3,0.9-0.5,1.4-0.8c0.3-0.2,0.7-0.4,1-0.5c0.2-0.1,0.3-0.1,0.4,0.2
	c0,0,0.1,0,0.2,0c0,0,0.1,0,0.1-0.1c0,0,0,0.1,0,0.1c-0.1,0.5-0.5,0.8-0.9,1.2c-0.1,0.1-0.1,0.1-0.2,0.2c-0.2,0.2-0.3,0.4-0.5,0.6
	c-0.3,0.3-0.4,0.6-0.2,1c0,0.1,0.1,0.2,0.1,0.2c-0.3,0.4,0.2,0.3,0.3,0.6c0,0,0.1,0,0.1,0c0.2-0.2,0.6,0,0.9-0.2
	c0.3-0.2,0.7-0.4,1.1-0.5c0.3-0.1,0.5-0.3,0.8-0.5c0.7-0.5,1.3-1,2-1.3c0,0,0-0.1,0.1-0.1c0,0,0.1,0,0.2,0c0,0,0,0.1,0,0.1
	c-0.2,0.2-0.2,0.6-0.4,0.8c-0.2,0.3-0.4,0.5-0.5,0.8c0,0,0,0,0,0c0,0.4-0.4,0.6-0.5,0.9c-0.2,0.1-0.2,0.2-0.2,0.4
	c0,0.2,0.1,0.4-0.2,0.5c0,0-0.1,0.1-0.1,0.1c0.1,0.4-0.2,0.8-0.1,1.2c0,0.2,0.1,0.1,0.2,0.1c0.1,0,0.2,0,0.3,0.1
	c0,0.1,0.1,0.3,0.2,0.4c0.2,0.2,0.4,0.2,0.6,0.1c0.2-0.2,0.5-0.4,0.8-0.4c0.1,0,0.2-0.1,0.3-0.2c0.1-0.2,0.3-0.3,0.5-0.5
	c0.1-0.1,0.2-0.1,0.2-0.1c0-0.3,0.4-0.4,0.4-0.7c0-0.4,0.3-0.7,0.4-1.1c0.1-0.4,0.4-0.7,0.4-1.1c0-0.1,0.1-0.2,0.1-0.3
	c0.2-0.4,0.4-0.8,0.5-1.2c0-0.1,0-0.2-0.1-0.3c0-0.1-0.1-0.1,0-0.3c0-0.1,0-0.2-0.1-0.3c-0.2-0.2-0.2-0.3-0.1-0.5
	c0.1-0.2,0.1-0.2-0.1-0.3c0,0,0-0.2,0-0.2c0.2-0.1,0.2-0.1,0-0.2c-0.2-0.2-0.2-0.2-0.8-0.4c0,0-0.1,0-0.1-0.1
	c-0.1-0.1-0.1-0.3-0.2-0.4c-0.1-0.1-0.2-0.2-0.3-0.2c0,0.1,0,0.2-0.1,0.3c0,0.1-0.1,0.3-0.2,0.4c-0.1,0.1,0,0.4-0.3,0.3
	c-0.3,0.4-0.8,0.5-1.2,0.8c-0.3,0.2-0.6,0.4-0.9,0.6c-0.3,0.2-0.5,0.3-0.8,0.5c0,0-0.1,0-0.1,0c0,0,0-0.1,0-0.1
	c0.1-0.3,0.3-0.5,0.4-0.8c0.1-0.3,0.3-0.5,0.2-0.8c0,0,0,0,0-0.1c0-0.2-0.2-0.9-0.3-1c0-0.1-0.1-0.1-0.1-0.2c0-0.1-0.1-0.1-0.2-0.1
	c-0.3,0.1-0.6,0-0.9,0.1c-0.3,0.1-0.6,0.3-0.8,0.4c-0.2,0.1-0.4,0.2-0.5,0.3c-0.2,0.1-0.4,0.3-0.7,0.3c-0.2,0-0.4,0.3-0.6,0.4
	c-0.8,0.4-1.6,1-2.5,1.3c-0.1,0-0.2,0.2-0.4,0.2c-0.3,0-0.4-0.1-0.3-0.4c0.1-0.2,0.2-0.3,0.3-0.5c0.1-0.2,0.1-0.4,0.3-0.6
	c0.2-0.2,0.3-0.3,0.3-0.5c0.1-0.2,0.1-0.3,0.2-0.5c0.1-0.2,0.2-0.4,0.3-0.6c0.2-0.3,0.2-0.5,0.3-0.8c0.1-0.2,0-0.3-0.1-0.4
	c-0.1-0.1-0.2-0.1-0.2-0.2c-0.2-0.3-0.4-0.4-0.7-0.2c-0.8,0.2-1.4,0.6-2.1,1c-0.3,0.2-0.7,0.3-1,0.5c-0.1,0-0.1,0.1-0.2,0.1
	c-0.3,0.3-0.7,0.4-1.1,0.5c0,0-0.1,0-0.1,0c0,0,0-0.1,0-0.1c0.4-0.3,0.4-0.8,0.7-1.1c0.3-0.4,0.5-0.7,0.7-1.1
	c0.2-0.4,0.4-0.9,0.4-1.4c0-0.1,0-0.1,0-0.2c0.1-0.3,0.1-0.3-0.1-0.3c-0.2,0-0.4-0.1-0.5,0.1c-0.6,0.1-0.9,0.6-1.4,0.9
	c-0.4,0.3-0.8,0.6-1.2,1c0,0-0.1,0.1-0.1,0.1c-0.2,0.1-0.4,0.2-0.6,0.3c-0.2,0.1-0.2,0.4-0.3,0.5C9,30.4,9,30.7,9,30.9
	C9,30.9,9.1,31,9.2,31z M21.6,34C21.6,34,21.6,34.1,21.6,34c0,0.1-0.1,0.2-0.2,0.3c0,0,0,0-0.1-0.1C21.5,34.2,21.5,34.1,21.6,34z
	 M28.4,9.4L28.4,9.4L28.4,9.4L28.4,9.4z M26.2,49.2c-0.5,0.1-1,0.5-1.5,0.7s-1,0.4-1.5,0.5c-0.7,0.2-1.2,0.5-1.8,0.8
	c-0.6,0.3-1.3,0.6-1.9,0.8c-0.9,0.4-1.8,0.8-2.7,1c-0.6,0.2-1.2,0.4-1.7,0.6c-0.8,0.3-1.5,0.6-2.3,0.9c-0.8,0.3-1.5,0.5-2.2,1
	C10,55.8,9.4,56,8.9,56.2c-0.1,0-0.2,0.1-0.3,0.1c-0.2,0.3-0.3,0.5-0.5,0.8c0.2,0.1,0.4,0.2,0.6,0.3c1.1-0.2,2.1-0.5,3-1
	c0.1-0.1,0.3-0.1,0.4-0.2c0.8-0.3,1.7-0.6,2.5-1c0.8-0.4,1.7-0.5,2.5-0.9c1-0.4,2-0.8,2.9-1.2c0.5-0.2,0.9-0.4,1.4-0.6
	c0.8-0.3,1.6-0.7,2.5-1c0.9-0.3,1.7-0.7,2.6-1.1c0.6-0.3,1.2-0.5,1.7-0.8V48c-0.5,0.2-0.9,0.5-1.4,0.8
	C26.7,48.9,26.5,49.1,26.2,49.2z M44.5,32.3c0.5,0.4,1.1,0.3,1.6,0.8c0.4,0.4,1,0.5,1.3,1c0.4,0.5,0.8,0.9,1,1.3
	c0.1,0.4,0.2,0.7,0.2,0.9c0.4,0.2,0.6,0.7,1,0.8c0.1-0.3,0.2-0.5,0.3-0.9c-0.1-0.4-0.1-0.9-0.2-1.4c-0.2-0.4-0.4-0.7-0.6-1.1
	c-0.7-0.6-1.4-1.3-2.3-1.8c-0.1,0-0.3,0.1-0.5,0.1c-0.3-0.4-0.8-0.3-1.2-0.4c-0.4,0.1-0.9,0.2-1.2,0.5
	C44.1,32.5,44.3,32.2,44.5,32.3z M36.6,33.3c0.2,0.1,0.4,0.2,0.6,0.3c1.5,0.5,2.9,1.3,4.3,2.1c1.4,0.8,2.8,1.6,4.2,2.4
	c0.4,0.2,0.8,0.4,1.1,0.6c0.5,0.3,1,0.6,1.5,0.8c0.3,0.1,0.6,0.2,0.8,0.5c-0.2,0.8,0.9,2.4,0.6,1.8c0-0.1,0-0.2,0-0.3
	c0-0.2,0-0.3,0.1-0.5c0.1-0.2-0.2-0.4,0-0.6c0.9,0.2,1.6,0.8,2.4,1.2c0.4,0.6,0.8,1,1.2,1.3c0.3,0.2,0.5,0.3,0.7,0.6
	c0.2,0.2,0.4,0.3,0.5,0.4c0,0,0.1,0,0.2,0c0.2-0.2,0.4-0.5,0.5-0.7c-0.1-0.2-0.1-0.4-0.2-0.7c-0.4-0.3-0.7-0.6-1.1-0.9
	c-0.4-0.3-0.8-0.6-1.3-0.7c-0.4-0.1-0.8-0.3-1.2-0.5c-1.1-0.7-2.3-1.2-3.4-1.9c-1.1-0.6-2.2-1.2-3.2-1.9c-0.5-0.4-1-0.6-1.6-0.9
	c-0.9-0.5-1.9-0.9-2.7-1.5c-0.3-0.1-0.5-0.1-0.7-0.2c-0.1,0-0.1-0.1-0.2-0.1c-0.1-0.1-0.2-0.2-0.3-0.3c-0.4-0.3-0.8-0.5-1.3-0.8
	c-0.9-0.4-1.7-0.8-2.6-1.1c0,0-0.1,0-0.1,0c0.1,0.3,0.3,0.6,0.4,0.9C36.3,33,36.4,33.2,36.6,33.3z M55.7,55.6
	c-0.1,1-0.2,1.9-0.4,2.9c-0.1,0.8-0.2,1.6,0,2.5c0.2,0,0.3,0,0.5,0c0.2-0.3,0.4-0.6,0.5-0.9c0.1-0.4,0.2-0.8,0.4-1.1
	c0.2-0.3,0.1-0.8,0.3-1.1c0.2-0.4,0.2-0.8,0.1-1c0.1-0.3,0.2-0.5,0.2-0.7c0.2-1.3,0.3-2.6,0.5-3.9c0-0.1,0.1-0.2,0-0.3
	c-0.2-0.6,0-1.3,0.1-1.9c0-0.2,0.1-0.3,0-0.5c-0.1-1.1-0.2-2.2-0.6-3.2c-0.2-0.1-0.3-0.2-0.5-0.3c-0.1,0.3-0.3,0.5-0.4,0.8
	c-0.1,0.7-0.2,1.4-0.3,2.1c0,0.3-0.1,0.6,0,0.9c0.1,0.3,0,0.5,0,0.8c-0.1,1.1-0.2,2.1-0.4,3.2c0,0.2-0.1,0.4,0,0.6
	C55.9,54.8,55.7,55.2,55.7,55.6z M58.7,42.8c0.2,0,0.4,0,0.6,0c0.5-0.1,1-0.1,1.6-0.1c0.5,0,1.1-0.1,1.6-0.2
	c0.4-0.1,0.8-0.2,1.1-0.6c-0.2-0.1-0.4-0.2-0.6-0.4c-1.7,0.3-3.5,0.2-5.2,0.6c0,0.2-0.1,0.3-0.1,0.4c0.2,0.1,0.3,0.2,0.5,0.3
	C58.3,42.9,58.5,42.8,58.7,42.8z M179.7,98.5c0.1-0.1,0.2-0.2,0.3-0.3c-0.5-1.2-0.6-1.1-1.4-2c-0.6-0.6-1.4-1.1-1.7-1.8
	c-1-0.7-1.9-1.3-2.8-2c-0.6-0.4-1.1-0.9-1.7-1.2c-1.1-0.7-2.3-1.4-3.4-2.3c-0.3-0.2-0.6-0.5-0.9-0.6c-0.7-0.3-1.2-0.8-1.8-1.2
	c-0.2-0.1-0.4-0.3-0.5-0.4c-0.2-0.3-0.6-0.3-0.7-0.7c-0.9-0.7-1.7-1.5-2.6-2.1c-0.2-0.2-0.6-0.1-0.8-0.3c-0.6-0.4-1.2-0.7-1.7-1.3
	c-0.1-0.2-0.4-0.3-0.5-0.4c-0.2-0.1-0.5-0.1-0.4-0.5c0,0,0-0.1-0.1-0.1c-0.4,0-0.6-0.3-0.8-0.4c-0.6-0.4-1.1-1-1.6-1.5
	c-0.3-0.3-0.6-0.8-1.1-0.9c-0.2,0-0.3-0.4-0.5-0.5c-0.8-0.6-1.7-1.2-2.5-1.8c-0.2-0.2-0.4-0.4-0.6-0.6c-0.3-0.5-0.8-0.8-1.2-1.2
	c-0.8-0.8-1.7-1.4-2.6-2c-0.1-0.1-0.2-0.2-0.3-0.3c-0.1-0.1-0.2-0.2-0.3-0.2c-0.4,0-0.7-0.3-0.8-0.6c-0.1-0.3-0.4-0.3-0.6-0.5
	c-0.2-0.2-0.4-0.3-0.7-0.3c-0.1,0-0.1-0.1-0.2-0.1c-0.5-0.4-0.9-0.8-1.5-1c-0.2,0-0.3-0.2-0.4-0.3c-0.1-0.1-0.2-0.2-0.3-0.1
	c-0.3,0-0.5,0.1-0.5-0.2c0-0.1-0.3-0.1-0.4-0.2c-0.4,0-0.7-0.1-1-0.3c0,0-0.1-0.1-0.2-0.1c-0.3,0.2-0.4,0-0.6-0.1
	c-0.1-0.1-0.2-0.2-0.3-0.2c-0.2,0.1-0.3,0.3-0.4,0.1c-0.1-0.2-0.3-0.1-0.5-0.1c-0.1,0-0.2,0-0.2-0.1c-0.3-0.3-0.7-0.4-1-0.6
	c-0.1,0-0.2,0-0.3-0.1c0.1,0.1,0.1,0.1,0.1,0.2c0.8,0.6,1.7,1.2,2.5,1.8c0.2,0.2,0.4,0.3,0.6,0.5c0.2,0.2,0.4,0.3,0.7,0.4
	c0.2,0.1,0.2,0.5,0.6,0.4c0.1,0,0.2,0.3,0.3,0.4c0.2,0.1,0.4,0,0.5,0.2c0.1,0.1,0.2,0.2,0.3,0.2c0.5,0.3,1.1,0.6,1.4,1.1
	c0,0,0.1,0.1,0.1,0.1c0.6,0.1,0.8,0.7,1.3,0.9c0.5,0.2,0.9,0.6,1.3,0.9c0.2,0.2,0.5,0.3,0.6,0.6c0,0,0.1,0.1,0.1,0.1
	c0.2,0.1,0.4,0.1,0.5,0.2c0.1,0.1,0.2,0.3,0.3,0.4c0.1,0.1,0.3,0.1,0.4,0.2c0.1,0,0.2,0,0.3,0.1c0.3,0.5,0.8,0.7,1.3,1.1
	c0.5,0.4,0.9,0.8,1.4,1.2c0.5,0.4,0.9,0.7,1.4,1c0.2,0.1,0.2,0.4,0.5,0.5c0.1,0,0.2,0.1,0.3,0.2c0.1,0,0.2,0,0.2,0.1
	c0.2,0.3,0.4,0.4,0.7,0.6c0.3,0.4,0.6,0.7,1,1.1c0.9,0.8,1.9,1.6,2.9,2.4c1.1,0.9,2.2,1.7,3.4,2.5c0.3,0.2,0.6,0.5,0.9,0.7
	c0.6,0.5,1.2,1.1,1.8,1.6c0.7,0.5,1.4,1.1,2.2,1.5c0.3,0.2,0.6,0.4,0.9,0.6c0.8,0.7,1.7,1.3,2.6,1.8c0.4,0.2,0.8,0.4,1.1,0.7
	c0.8,0.7,1.7,1.3,2.5,1.9c0.4,0.3,0.8,0.5,1.1,0.9c0.6,0.6,1.2,1.2,1.8,1.9c0,0,0.1,0.1,0.1,0.2c-0.1,0.2-0.3,0.4-0.4,0.5
	c-0.2,1,0.1,1.9,0.2,2.7c-0.4,1-1.2,1.5-1.6,2c-1,0.8-2.2,0.8-2.9,1.6c-0.2,0-0.4,0.1-0.6,0.1c-0.6,0.5-1.4,0.7-2.2,1
	c-0.1,0.2-0.3,0.3-0.4,0.5c-0.1,0-0.2,0-0.2,0c-0.1,0-0.1-0.1-0.2-0.1c-0.4,0.6-0.4,0.6-0.8,0.8c-0.6,0.3-1.2,0.8-1.8,1.1
	c-0.4,0.2-0.7,0.4-1,0.8c-0.1,0-0.1-0.1-0.2-0.1c-0.1,0.1-0.2,0.2-0.2,0.3c-0.1,0-0.2-0.1-0.3-0.1c-0.4,0.4-1.1,0.6-1.5,1.1
	c-0.7,0.1-1.2,0.6-1.9,1c-0.9,0.5-1.7,1.2-2.8,1.5c-1.1,0.9-2.5,1.4-3.7,2.2c-0.1,0.1-0.2,0.2-0.4,0.3c-0.7,0.2-1.2,0.6-1.7,1
	c-0.4,0.3-0.8,0.5-1.2,0.8c-0.8,0.5-1.7,0.6-2.3,1.3c-0.1,0.1-0.3,0.2-0.5,0.2c-0.3,0-0.5,0.3-0.8,0.4c-0.3,0.1-0.6,0.3-0.9,0.5
	c-0.1,0.1-0.3,0.2-0.5,0.3c-0.2,0-0.4,0.2-0.6,0.3c-0.3,0.2-0.6,0.4-0.9,0.6c-0.2,0.1-0.5,0.2-0.8,0.3c-0.3,0.1-0.4,0.4-0.7,0.6
	c-0.5,0.3-1,0.6-1.5,1c-1,0.8-2,1.4-3.2,1.8c-0.8,0.9-1.9,1.4-2.8,2c-0.5,0.4-1.2,0.6-1.7,1c-0.3,0.3-0.7,0.5-1.1,0.7
	c-0.5,0.3-1.2,0.4-1.7,0.8c-0.5,0.4-1.2,0.6-1.7,0.9c-1.3,0.8-2.6,1.5-3.8,2.5c-0.3,0.2-0.6,0.4-0.9,0.5c-1.2,0.6-2.5,1.3-3.5,2.3
	c-0.3,0.2-0.5,0.5-0.8,0.6c-1.5,0.8-2.9,2-4.5,2.7c-0.1,0-0.1,0.1-0.2,0.1c-0.7,0.7-1.7,1.2-2.3,2c-0.4,0.5-0.9,0.8-1.3,1.3
	c-1.4,0.5-0.8,0.4-3.6,0.3c-0.4-0.2-0.6-0.6-1-0.8c-0.5-0.3-0.9-0.6-1.3-1c-1-0.9-2-1.6-3-2.4c-0.2,0.2-0.3,0.2-0.5,0
	c-0.1,0-0.1-0.1-0.2-0.1c0,0,0.1-0.1,0.1-0.1c0,0,0,0,0,0c0,0,0,0,0,0c0,0,0,0,0,0c0,0,0,0,0,0c-0.1-0.4-0.4-0.5-0.7-0.7
	c-0.5-0.4-1.1-0.8-1.6-1.2c-0.4-0.4-0.7-0.8-1.2-1.1c-0.4-0.3-0.9-0.6-1.3-1c-0.1-0.1-0.2-0.2-0.4-0.3c-1.1-0.9-2.1-1.8-3.3-2.6
	c-0.2-0.1-0.4-0.3-0.6-0.5c-0.4-0.4-0.8-0.7-1.3-1c-2-1.3-3.9-2.8-5.8-4.3c-1.2-0.9-2.3-1.8-3.5-2.5c-0.3-0.2-0.6-0.4-0.9-0.6
	c-0.7-0.5-1.3-0.9-2-1.4c-0.6-0.4-1.2-0.8-1.9-1.2c-0.9-0.6-1.7-1.3-2.6-1.9c-0.6-0.4-1.2-0.9-1.8-1.3c-0.8-0.7-1.5-1.4-2.5-1.9
	c-0.1-0.1-0.2-0.2-0.4-0.3c-0.9-0.6-1.6-1.4-2.6-1.9c-0.3-0.2-0.5-0.5-0.7-0.8c-0.1,0-0.3,0-0.3-0.1c-0.3-0.4-0.7-0.5-1-0.7
	c-0.4-0.3-0.9-0.5-1.3-0.8c-0.4-0.4-0.9-0.6-1.3-1c-0.5-0.4-0.9-0.7-1.4-1.1c-0.5-0.5-1.1-0.9-1.7-1.2c-0.2-0.1-0.5-0.3-0.7-0.5
	c-0.2-0.2-0.4-0.3-0.7-0.4c-0.2-0.1-0.3-0.4-0.6-0.5c-0.4-0.1-0.5-0.5-0.8-0.7c-0.3-0.1-0.6-0.3-0.8-0.6c-0.5-0.5-1.2-1-1.8-1.4
	c-0.5-0.3-1-0.6-1.4-1c-1-0.8-2.1-1.5-3.1-2.3c-0.9-0.7-1.9-1.3-2.8-2.1c-0.5-0.5-1-0.9-1.5-1.3c-0.6-0.4-1.1-0.9-1.6-1.3
	c-0.5-0.3-0.9-0.8-1.4-1.1c-0.4-0.3-0.8-0.6-1.2-0.9c-1.5-1.1-3-2.2-4.5-3.4c-0.8-0.6-1.5-1.1-2.2-1.7c-0.4-0.3-0.8-0.7-1.3-1
	c-0.7-0.3-1.2-0.8-1.8-1.2c-0.4-0.3-0.8-0.5-1.2-0.8c-0.5-0.3-1.1-0.6-1.6-1c-1.2-1-2.4-1.9-3.6-2.7c-0.4-0.2-0.7-0.5-1-0.8
	c-1.2-0.9-3.3-2.4-4.8-3.3c-0.1-0.1-0.2-0.1-0.3-0.2c-0.3-0.3-0.8-0.5-1.2-0.7c-0.4-0.2-0.7-0.5-1.1-0.8C16.7,73.9,15.3,73,14,72
	c-0.2-0.1-0.4-0.3-0.6-0.4c-0.7-0.5-1.5-1-2.2-1.5c-1.1-0.7-2-1.6-3.1-2.3C6.6,67,5.2,66,3.9,65.2c-0.7-1.5-1.1-3.1-1.5-4.6
	c0-0.1,0-0.3,0-0.6c0.4,0.3,0.7,0.5,1,0.8c0.4,0.3,0.7,0.7,1,1c0.9,0.6,1.7,1.3,2.6,2c0.4,0.4,0.9,0.8,1.4,1.1
	c0.8,0.5,1.5,1.1,2.2,1.8c0.3,0.3,0.6,0.5,0.9,0.7c1.1,0.8,2.2,1.6,3.2,2.5c0.4,0.4,0.8,0.7,1.3,1c1,0.6,1.9,1.2,2.9,1.8
	c0.4,0.2,0.7,0.4,1.1,0.7c0.5,0.3,1,0.6,1.5,1c0.9,0.7,1.7,1.3,2.7,1.8c0.2,0.1,0.5,0.3,0.7,0.4c1,0.7,2,1.4,3,2.1
	c1.5,1,2.9,2.1,4.4,3.1c0.6,0.4,1.1,0.8,1.7,1.2c1.1,0.8,2.3,1.5,3.4,2.3c0.6,0.4,1.2,0.8,1.7,1.2c0.3,0.2,0.6,0.5,0.9,0.7
	c0.9,0.8,1.9,1.5,2.9,2.3c1.1,0.8,2.3,1.5,3.3,2.4c1.4,0.8,2.6,2,4.1,2.7c0.1,0.1,0.2,0.2,0.4,0.3c0.8,0.6,1.6,1.3,2.5,1.9
	c0.8,0.6,1.6,1,2.3,1.6c0.3,0.3,0.8,0.5,1.1,0.8c0.8,0.5,1.5,1,2.3,1.6c0.6,0.5,1.3,0.9,1.9,1.4c0.6,0.5,1.4,0.9,2,1.4
	c0.4,0.4,0.8,0.7,1.3,1c1.5,1.1,3,2.1,4.5,3.2c1.6,1.2,3.2,2.4,4.7,3.6c0.8,0.6,1.5,1.3,2.3,1.9c0.6,0.5,1.2,0.9,1.9,1.4
	c0.6,0.4,1.2,1,1.8,1.5c1.1,0.7,2,1.6,3,2.4c0.9,0.7,1.8,1.4,2.7,2.1c0.6,0.4,1.1,0.9,1.6,1.3c0.6,0.4,1.1,0.8,1.7,1.2
	c0.4,0.3,0.9,0.6,1.3,1c0.4,0.4,0.8,0.7,1.3,1.1c0.5,0.4,1,0.8,1.5,1.2c0.6,0.5,1.2,1,1.9,1.4c0.4,0.3,0.7,0.6,1.1,0.9
	c0.4,0.3,0.9,0.5,1.3,0.8c1,0.7,2,1.4,3,2.1c0.6,0.4,1.1,0.9,1.8,1.1c0,0,0.1,0,0.1,0.1c0.2,0.5,0.7,0.7,1.1,1
	c0.9,0.7,1.8,1.2,2.6,1.9c0.4,0.3,0.8,0.6,1.2,0.9c0.6,0.4,1.3,0.7,1.9,1.2c0.6,0.5,1.4,0.9,1.9,1.5c0.2,0.3,0.5,0.4,0.9,0.5
	c0.2-0.4,0.5-0.7,0.9-1c0.9,0,1.7-0.6,2.4-0.8c0.9-0.6,1.6-1,2.4-1.5c0.9-0.6,1.9-1.1,2.8-1.7c0.9-0.6,2-1.1,2.9-1.8
	c0.2-0.1,0.4-0.3,0.6-0.4c1.4-0.9,2.8-1.8,4.2-2.7c1.3-0.8,2.5-1.6,3.9-2.3c1.5-0.8,2.9-1.7,4.1-2.6c0.7-0.3,1.3-0.5,1.8-0.8
	c0.7-0.4,1.4-0.9,2.1-1.3c0.6-0.4,1.2-0.8,1.9-1.1c0.8-0.4,1.6-0.9,2.3-1.4c0.8-0.6,1.6-1,2.4-1.5c0.4-0.2,0.9-0.5,1.3-0.8
	c1.3-0.9,2.7-1.5,4-2.4c0.5-0.4,1.2-0.6,1.7-1c1.3-0.9,2.7-1.6,4-2.3c0.5-0.3,1-0.5,1.4-0.9c1.2-1,2.6-1.8,3.8-2.7
	c1-0.7,2.1-1.3,3.2-2c1-0.7,2-1.3,3.2-1.8c0.6-0.3,1.3-0.6,1.9-1c0.9-0.6,1.9-1.1,2.5-2.1c0-0.1,0.1-0.1,0.2-0.1
	c-0.2-0.3-0.5-0.5-0.7-0.7c-1,0.2-1.9,0.7-2.6,1.3c-0.1,0.1-0.3,0.2-0.4,0.2c-0.9,0.2-1.5,0.7-2.1,1.3c-0.7,0.3-1.2,0.6-1.8,1
	c-1.5,1.1-3.1,2-4.6,3c-0.1,0.1-0.2,0.1-0.3,0.2c-0.7,0.4-1.4,0.8-2.2,1.2c-0.5,0.3-0.9,0.6-1.3,1c-0.2,0.2-0.4,0.4-0.6,0.5
	c-0.9,0.5-1.8,1-2.7,1.5c-1.3,0.7-2.7,1.3-4,2c-0.6,0.3-1.2,0.6-1.8,0.9c-0.7,0.3-2,1.2-2.6,2c-0.8,0.4-1.5,1.1-2.3,1.5
	c-0.4,0.4-0.9,0.7-1.4,0.9c-1.2,0.5-2.2,1.3-3.2,2.1c-0.7,0.5-1.3,0.9-2.1,1.3c-0.5,0.2-1,0.5-1.4,0.8c-1.9,1.3-3.9,2.5-5.9,3.7
	c-0.9,0.6-1.9,0.9-2.6,1.7c-0.1,0.1-0.2,0.1-0.3,0.2c-0.3,0-0.4,0.2-0.6,0.3c-1.1,0.8-2.2,1.7-3.5,2.3c-0.3,0.3-0.7,0.4-1.1,0.6
	c-0.4,0.2-0.8,0.5-1.2,0.8c-0.4,0.2-0.8,0.4-1.2,0.7c-0.8,0.6-1.7,0.9-2.4,1.6c-0.1,0.1-0.3,0.2-0.5,0.3c-0.4,0.2-0.8,0.5-1.1,0.8
	c-0.6,0.2-1.1,0.4-1.5,0.5c-0.6,0.1-1.1,0.2-1.6,0.3c-0.7-0.5-1.4-1-2.1-1.6c-0.5-0.4-1.1-0.7-1.7-1.1c-0.5-0.4-1.1-0.8-1.6-1.1
	c-0.6-0.3-1.1-0.7-1.6-1.1c-1.1-0.8-2.2-1.5-3.2-2.3c-0.6-0.4-1.2-0.8-1.7-1.2c-0.5-0.4-1.1-0.8-1.6-1.1c-0.5-0.3-1.1-0.6-1.6-1
	c-1.1-0.9-2.1-1.8-3.3-2.7c-1.6-1.2-3.1-2.7-4.8-3.7c-0.1-0.1-0.2-0.1-0.3-0.2c-0.3-0.3-0.6-0.5-0.9-0.7c-0.2-0.1-0.4-0.2-0.6-0.4
	c-0.8-0.8-1.8-1.5-2.7-2.2c-1.1-0.8-2.2-1.7-3.2-2.6c-0.9-0.7-1.8-1.3-2.7-2.1c-0.3-0.3-0.7-0.6-1-0.8c-0.7-0.4-1.3-1-1.9-1.5
	c-0.6-0.5-1.1-1-1.7-1.4c-0.4-0.3-0.8-0.5-1.2-0.8c-0.9-0.8-1.8-1.5-2.7-2.2c-1.1-0.9-2.2-1.6-3.3-2.4c-0.7-0.5-1.4-0.9-2-1.4
	c-1.2-1-2.4-1.8-3.7-2.7c-0.3-0.3-0.6-0.6-1.1-0.7c-0.4-0.5-1-0.7-1.3-0.9c-1-0.8-1.8-1.5-2.7-2.1c-1.5-1-3-2-4.4-3.2
	c-0.8-0.7-1.8-1.1-2.6-1.8c-0.7-0.6-1.6-0.9-2.3-1.6c-0.1-0.1-0.3-0.2-0.5-0.3c-1-0.6-1.9-1.4-2.8-2.1c-1.3-1.1-2.7-2.1-4.2-2.9
	c-0.4-0.2-0.8-0.5-1.1-0.8c-0.1-0.1-0.2-0.2-0.4-0.3c-0.5-0.4-1.1-0.7-1.6-1.1c-0.7-0.5-1.4-1-2-1.6c-0.5-0.4-0.9-0.8-1.4-1.1
	c-0.8-0.5-1.6-1-2.3-1.5c-0.9-0.6-1.7-1.2-2.6-1.7c-0.1-0.1-0.2-0.2-0.4-0.3c-0.3-0.2-0.5-0.4-0.8-0.6c-0.5-0.4-1-0.7-1.6-1
	c-0.6-0.3-1.2-0.6-1.7-1.1c-0.3-0.3-0.7-0.5-1-0.8c-0.7-0.6-1.7-0.8-2.4-1.5c-1.4-0.7-2.5-1.7-3.8-2.6c-0.6-0.4-1.1-1-1.8-1.3
	c-0.9-0.5-1.7-1.2-2.5-1.9C9.9,63.7,8.9,63,8,62.3c-1.1-0.8-2.1-1.7-3.3-2.5c-0.7-0.5-1.3-1.1-2-1.6c-0.2-0.1-0.4-0.3-0.3-0.6
	c0.4-0.2,0.8-0.4,1.2-0.6c0.5-0.3,1.1-0.6,1.7-0.8c1.3-0.6,2.6-1.3,4-1.7c0.1,0,0.3-0.1,0.4-0.2c1-0.6,2.1-1,3.2-1.4
	c0.7-0.3,1.3-0.6,2-0.8c1.2-0.4,2.5-0.9,3.7-1.5c0.2-0.1,0.5-0.3,0.7-0.3c1-0.2,2-0.7,2.9-1.1c1.3-0.7,2.7-1.3,4-1.9
	c0.2-0.1,0.4-0.2,0.6-0.3c0.8-0.2,1.5-0.5,2.3-0.9c-0.1,1.1-0.3,3.3-0.4,3.6c0,0.4-0.1,0.7-0.1,1.1c0,0.4-0.1,0.8-0.2,1.2
	c0,0.4-0.1,0.8-0.1,1.2c0.2,0,0.2-0.3,0.5-0.2c0.1,0.1,0.1,0.3,0.2,0.4c0.8,0.1,1.3,0.7,2,1.1c0.3,0.2,0.6,0.5,0.8,0.7
	c0,0,0,0.1,0,0.2c-0.2,0.2-0.6,0.2-0.9,0.4c-0.3,0.4-0.6,0.9-0.5,1.5c0.1,0.2,0.1,0.4,0.2,0.5c0.2,0.2,0.4,0.3,0.6,0.4
	c0.3,0.3,0.6,0.5,1,0.6c0.4,0.1,0.7,0.4,1.1,0.5c0.3-0.1,0.5-0.1,0.8,0c0.5,0,0.9,0,1.3-0.3c0.1-0.3,0.2-0.6,0.2-0.9
	c0.2,0.1,0.4,0.1,0.5,0.2c0.8,0.6,1.7,1.1,2.6,1.7c2.2,1.5,4.4,3,6.7,4.4c0.5-0.2,0.9,0.3,1.4,0.3c-0.9,1-0.9,1-1,2
	c0.2,0.5,0.5,1,0.8,1.5c0.5,0.3,1,0.5,1.6,0.5c0.6-0.2,1.2-0.3,1.7-0.5c0.2-0.2,0.3-0.3,0.4-0.4c-0.1-0.3-0.1-0.7,0-1.1
	c0.1,0,0.3,0,0.3,0.1c0.4,0.2,0.9,0.5,1.3,0.8c0.2,0.2,0.5,0.3,0.7,0.2c0.1,0,0.2-0.1,0.3-0.1c0.1,0.1,0.2,0.3,0.3,0.3
	c0.3,0.1,0.5,0.1,0.6,0.2c0.2,0.1,0.4,0.2,0.5,0.3c2.9-0.5,2.6-0.6,4.5-1.5c0.1-0.1,0.2-0.3,0.3-0.4c0.9-0.4,1.8-0.8,2.6-1.2
	c0.2,0.1,0.3,0.2,0.4,0.2c0.4-0.1,0.7-0.3,1.1-0.4c0.1-0.2,0.3-0.4,0.4-0.6c0.1-0.5,0.2-1,0.1-1.5c-0.1-0.2,0-0.5,0-0.7
	c0.1-1,0.2-1.9,0.4-2.9c0.2-1.7,0.4-3.5,0.7-5.2c0.1-0.4,0.2-0.8,0.3-1.2c0-0.2,0.8-4.6,0.6-5c0,0,0-0.1,0-0.2
	c0.1-0.2,0.1-0.4,0.2-0.7c0.2-1.3,0.3-2.7,0.5-4c0-0.2,0.1-0.4,0-0.6c-0.1-0.3,0-0.6,0-0.9c0-0.2,0-0.5,0-0.6
	c-0.2-0.3-0.3-0.6-0.4-0.9c-0.2,0-0.4-0.1-0.5-0.1c-0.2-0.4-0.4-0.7-0.6-1c-0.7-0.2-1.2-0.5-1.6-1c-0.4-0.2-0.8-0.4-1.1-0.6
	c-0.5-0.1-1.6-0.6-2.7-1.2c0.7-0.2,1.3-0.5,1.9-0.8c1.4-0.6,2.7-1.2,4.1-1.9c0.1,0,0.2-0.1,0.3-0.1c0.9-0.3,1.8-0.6,2.7-0.9
	c0.1,0,0.2-0.1,0.4-0.1c0.8-0.4,1.6-0.7,2.5-0.9c1.1-0.4,2.1-0.9,3.1-1.5c0.1,0,0.2-0.1,0.2-0.2c0.2-0.3,0.6-0.5,0.9-0.7
	c0,0,0-0.1,0.1-0.2c-0.1-0.1-0.3-0.1-0.4-0.2c-0.3,0.1-0.5,0.2-0.7,0.3c-0.3,0-0.4,0-0.6,0c-0.5,0.2-0.9,0.4-1.4,0.5
	c-0.3,0.1-0.6,0.1-0.9,0.2c-0.4,0.2-0.8,0.3-1.2,0.4c-0.4,0.1-0.7,0.2-1.1,0.3c-0.9,0.5-1.9,0.6-2.8,1.1c-0.5,0.1-0.9,0.2-1.3,0.4
	c-0.4,0.2-0.9,0.4-1.3,0.6c-0.1,0-0.2,0.1-0.3,0.1c-0.9,0.2-1.6,0.7-2.4,1c-0.3,0.3-0.8,0.4-1.2,0.6c-0.7,0.4-1.6,0.5-2.3,0.9
	c0,0,0,0,0,0c-0.7-0.4-1.4-0.7-1.8-1c0.1,0,0.1,0,0.2-0.1c1.5-0.5,3-1.2,4.6-1.6c0.9-0.2,1.8-0.6,2.6-1c0.6-0.3,1.4-0.3,1.8-1
	c0,0,0.1,0,0.2-0.1c0.3-0.1,0.5-0.2,0.8-0.2c0.9-0.2,1.7-0.6,2.7-0.8c1-0.5,2.2-0.9,2.9-1.5c1.2-0.3,2.3-0.6,3.3-0.9
	c0-0.1,0.1-0.2,0.1-0.3c0.2-0.1,0.5-0.1,0.7-0.2s0.5-0.3,0.7-0.4c0.2,0.1,0.3,0.2,0.5,0.3c1.2,0.2,2.2,0.8,3.2,1.4
	c0.8,0.5,1.6,1.1,2.4,1.7c0.8,0.5,18.8,12.5,19.8,12.5c1,0.7,1.8-0.5,1.4-0.8c-0.2-0.1-0.4-0.2-0.5-0.3c-0.2-0.5-0.8-0.7-1.1-1
	c-0.5-0.4-18.2-12-18.7-12.4c-0.4-0.3-0.7-0.7-1.1-1c-0.6-0.1-1-0.4-1.5-0.6c-0.2-0.1-0.3-0.3-0.5-0.3c-1.1-0.4-2.1-0.8-3.2-1
	c-0.5,0-0.9,0.5-1.3,0.7c-0.2-0.1-0.3-0.2-0.4-0.2c-1.1-0.2-2.1,0.3-3.1,0.5c-0.9,0.6-1.9,0.8-2.9,1.2c-1.3,0.6-2.6,1.2-4,1.8
	c-0.3,0-0.8,0-1.2,0.2c-0.5,0.2-1,0.3-1.3,0.3c-0.7,0.3-1.1,0.7-1.7,0.8c-0.9,0.2-1.7,0.7-2.6,1.1c-1.3,0.7-2.7,1.3-4.1,1.7
	c-0.3,0.1-0.5,0.3-0.5,0.5c-0.4-0.1-0.7-0.2-1.1-0.3c-0.4-0.8-0.9-1.6-1.7-2.1c-0.2-0.1-0.3-0.3-0.4-0.4c-0.2-0.3-0.4-0.5-0.6-0.8
	c-1.1-0.6-2.3-1-3.6-0.8c-0.1-0.1-0.3-0.1-0.4-0.2c-0.3,0-0.5,0.1-0.7,0.1c-0.2-0.1-0.4-0.2-0.5-0.3l-1.2-0.2
	c-0.3-0.2-0.6-0.3-0.8-0.6c-0.3-0.3-0.6-0.4-0.9-0.6c-0.3-0.2-0.6-0.3-0.9-0.5c-0.7-0.4-1.5-0.7-2.4-0.5c-0.2,0.3-0.4,0.5-0.6,0.8
	c-0.4,0-0.8-0.1-1.2,0c-0.3,0-0.6,0.1-0.9,0c-0.9-0.1-1.8,0.1-2.6,0.6c-0.7,0.4-1.3,0.7-1.9,1.2c-0.1,0.2-0.2,0.3-0.3,0.5l-0.1,0.8
	c-0.1,0.1-0.3,0.1-0.4,0.2c0,0.2-0.1,0.4-0.1,0.6c-0.1,0.7-0.2,1.3-0.3,2c0,0.2-0.1,0.4-0.2,0.7c0,0.2,0,0.5,0,0.7
	c-0.3,0.5-0.3,1-0.4,1.5c-0.1,0.4-0.1,0.9-0.2,1.3c-0.1,0.4-0.1,0.9-0.2,1.3c-0.1,0.5-0.1,1-0.2,1.4c-0.1,0.4-0.1,0.8-0.1,1.3
	c-0.1,0.9-0.2,1.8-0.3,2.7c0,0-0.1,0.1-0.1,0.1c-0.1,0.1-0.2,0.1-0.3,0.1c-1.1,0.5-2.3,0.8-3.3,1.4c-0.6,0.3-1.2,0.5-1.8,0.8
	c-0.3,0.1-0.6,0.2-0.9,0.3c-0.5,0.2-1,0.4-1.5,0.7c-0.5,0.3-1,0.4-1.5,0.6c-1,0.4-2.1,0.7-3.1,1.4c-0.3,0.2-0.7,0.2-1,0.3
	c-0.3,0.1-0.7,0.2-1,0.4c-0.8,0.4-1.7,0.8-2.6,1.1c-0.6,0.2-1.2,0.4-1.7,0.7c-0.5,0.3-1,0.5-1.5,0.7c-0.4,0.1-0.7,0.2-1.1,0.4
	c-1.1,0.5-2.2,1-3.3,1.5c-0.8,0.3-1.6,0.7-2.4,1.2c-0.5,0.3-1,0.6-1.4,0.9c-0.1-0.1-0.2-0.1-0.3-0.1c-0.1,0.2-0.2,0.5-0.3,0.6
	c0.1,0.2,0.1,0.3,0.1,0.4c-0.1,0.2-0.3,0.3-0.4,0.5c0.5,2.8,1.1,5.5,2.3,8.2c0.1,0.1,0.3,0.2,0.5,0.4c0.4,0.3,0.9,0.5,1.3,0.7
	c0.4,0.3,0.8,0.6,1.2,0.9c0.8,0.5,1.7,1,2.4,1.6c1.7,1.2,3.3,2.4,5,3.6c0.3,0.2,0.6,0.4,0.9,0.6c1.2,0.8,2.3,1.7,3.5,2.4
	c1.2,0.7,2.3,1.6,3.5,2.4c0.9,0.7,1.8,1.2,2.6,2c0.9,0.3,1.5,1,2.3,1.5c0.5,0.3,0.8,0.7,1.3,1c1.6,1,3,2.2,4.5,3.2
	c0.6,0.5,1.3,0.8,1.9,1.4c0.9,0.4,1.6,1.1,2.4,1.6c1.6,1,3,2.2,4.5,3.3c1.5,1.2,3.1,2.2,4.5,3.5c0.8,0.7,1.7,1.3,2.6,2
	c1.3,1.1,2.8,2.1,4.2,3.2c0.5,0.4,1,0.8,1.5,1.1c1.6,1,3,2.2,4.5,3.3c1.2,0.9,2.3,1.7,3.5,2.6c0.5,0.3,1,0.6,1.5,1
	c0.8,0.6,1.5,1.2,2.3,1.7c1,0.7,2.1,1.4,3,2.2c0.8,0.6,1.7,1.2,2.5,1.8c0.3,0.2,0.7,0.1,0.8,0.6c0.7,0.6,1.4,1.1,2.1,1.7
	c0.7,0.5,1.3,1.2,2.1,1.4c0.5,0.8,1.4,0.9,2,1.6c0.2,0.2,0.5,0.2,0.8,0.4c0.1,0.6,0.8,0.8,1.3,1.2c0.4,0,0.8,0.2,1.1,0.4
	c0.1,0.2,0.2,0.4,0.3,0.4c0.7,0.3,1.1,1,1.8,1.3c0.5,0.2,0.8,0.7,1.2,0.9c0.5,0.2,0.8,0.5,1.2,0.8c0.2,0.1,0.3,0.3,0.5,0.3
	c0.7,0.3,1.2,0.8,1.9,1.2c0.3,0.2,0.6,0.5,1,0.7c0.3,0.2,0.7,0.4,1,0.7c0.6,0.5,1.2,0.9,1.8,1.2c0.2,0.3,0.3,0.5,0.7,0.6
	c0.2,0,0.4,0.2,0.5,0.3c1,0.9,2,1.7,3,2.4c0.2,0.2,0.5,0.3,0.8,0.6c0.7,0.8,1.6,1.3,2.3,2c0.4,0.2,0.9,0.4,1.3,0.7
	c0,0.1,0,0.2,0.1,0.2c0,0.1,0.1,0.1,0.2,0.1c0.1,0.3,0.4,0.2,0.6,0.3c0,0.1,0,0.2,0,0.3c0.2,0.1,0.3,0.2,0.4,0.2c0.1,0,0.2,0,0.4,0
	c0.1,0.1,0.2,0.3,0.3,0.4c0.6,0.3,1.1,0.8,1.6,1.2c0,0,0,0,0,0c0,0,0,0,0.1,0l0,0c0.3,0.1,0.6,0.2,0.7,0.5c0.3,0.2,0.6,0.4,0.9,0.6
	c0.2,0.2,0.5,0.3,0.5,0.6l0,0c0,0,0,0,0,0c0,0,0,0,0,0c0.1,0.1,0.1,0.1,0.2,0.2c0.1,0,0.1,0.1,0.2,0.1c0,0-0.1,0.1-0.1,0.1
	c0,0,0,0,0,0c0,0,0,0,0,0l0,0c0.3,0.6,0.9,1,1.4,1.4c0.2,0.2,0.4,0.3,0.6,0.5c0.4,0.5,0.9,1,1.3,1.5c0.1,0.1,0.2,0.1,0.3,0.2
	c0.2-0.1,0.3-0.1,0.4-0.2c0.2,0,0.3,0.1,0.5,0.1c0.1-0.2,0.2-0.3,0.3-0.4c0.5-0.1,0.9-0.1,1.4-0.3c0.6-0.2,1.3-0.4,1.8-0.7
	c0.2-0.1,0.4-0.4,0.5-0.6c0.8-0.6,1.8-0.9,2.7-1.4c0.4-0.2,0.7-0.4,1.1-0.6c1-0.5,2-1.2,3-1.9c0.8-0.6,1.7-1.1,2.5-1.7
	c0.9-0.6,1.8-1.2,2.8-1.7c0.4-0.2,0.8-0.4,1.2-0.7c0.8-0.6,1.7-1.1,2.5-1.7c0.7-0.5,1.5-0.9,2.3-1.3c0.8-0.4,1.6-0.8,2.3-1.3
	c0.5-0.4,1.1-0.8,1.7-1.2c0.6-0.4,1.3-0.6,1.8-1c0.4-0.1,0.7-0.4,1.1-0.5c0.6-0.2,1.1-0.5,1.5-0.8c0.5-0.4,1.2-0.7,1.7-1.2
	c0.1-0.1,0.2-0.1,0.3-0.2c1-0.7,2.2-1.2,3.1-2.1c0.2-0.2,0.5-0.3,0.8-0.5c0.2-0.1,0.5-0.2,0.7-0.4c1.2-0.8,2.3-1.6,3.6-2.2
	c0.8-0.7,1.8-1,2.7-1.6c0.7-0.4,1.5-0.8,2.2-1.2c1.4-0.8,2.8-1.7,4.3-2.4c0.9-0.4,1.7-0.9,2.6-1.4c1-0.6,1.9-1.2,2.8-1.9
	c0.8-0.6,1.6-1,2.3-1.6c1.5-1.1,3.2-2,4.8-2.9c0.4-0.2,0.8-0.4,1-0.8c0.5-0.6,1.2-0.9,1.8-1.2c0.6-0.5,1.1-1.2,1.7-1.7
	c0.1-0.1,0.2-0.3,0.3-0.4c0.1-0.2,0.3-0.4,0.5-0.5c0.4-0.2,0.6-0.5,0.9-0.7c0.1-0.1,0.3-0.2,0.5-0.3c0-0.4,0-0.8,0-1.1
	c0-0.4,0-0.7,0-1.1C179.6,99.2,179.8,98.9,179.7,98.5z M30.1,49.2c0.2-1.3,0.3-2.7,0.5-4c0.1-0.6,0-1.2,0.4-1.7
	c0.1-0.1,0-0.3,0.1-0.4c0.1-0.4,0.1-0.7,0.3-1.1c0.1-0.1,0.1-0.3,0.1-0.5c0.2-1.2,0.3-2.4,0.5-3.6c0-0.4,0.1-0.7,0.4-1
	c-0.3-0.8,0-1.5,0-2.3c-0.1-0.2-0.1-0.4-0.3-0.8c0-0.4,0.1-0.9,0.2-1.4c0-0.4,0.1-0.8,0-1.2c0-0.1,0-0.3,0.1-0.6
	c0.1,0.2,0.1,0.2,0.2,0.4c0.5-0.1,0.6-0.7,1.1-0.9c0.1,0,0.3,0,0.6-0.1c0.1-0.1,0.2-0.2,0.4-0.4c0.5-0.5,1.1-0.6,1.7-0.6
	c0.5,0,1.1-0.1,1.6-0.1c0.4-0.2,0.7,0,1.1,0c0.2,0,0.3-0.1,0.5-0.2c0.1-0.1,0.2-0.2,0.4-0.3c0.2,0.1,0.4,0.1,0.6,0.2
	c0.7,0.4,1.4,0.7,2,1.1c0.3,0.2,0.6,0.3,0.9,0.5c0.3,0.1,0.6,0.2,0.9,0.3c0.1,0.1,0.2,0.2,0.2,0.3c0.3-0.1,0.5-0.1,0.7-0.1
	c0.1,0,0.2-0.1,0.3-0.1c0.7-0.3,1.3-0.4,2,0c0.2,0,0.4-0.1,0.6-0.1c0.4,0.2,0.8,0.3,1.1,0.5c0.8,0.6,1.6,1.2,2.1,2.1
	c0.3,0.5,0.5,1.1,0.8,1.6c-0.6,0.5-1.3,0.5-1.9,1.1c0.1,0.1,0.2,0.2,0.3,0.3c0.1,0.1,0.2,0.3,0.3,0.4l0.7,0.1
	c0.6-0.1,1.2-0.5,1.8-0.9l0.1-0.9c0.1,0,0.2-0.1,0.2,0c0.3,0.1,0.5,0.3,0.8,0.4c0.2,0.1,0.3,0.2,0.5,0.3c0.3,0.1,0.5,0.2,0.8,0.4
	c0.5,0.3,1.1,0.6,1.6,0.9v0.6c0.2-0.1,0.4-0.1,0.6-0.2c0.7,0.3,1.2,0.8,1.9,1.1c0.6,0.3,1,0.7,1.6,0.9c0.6,0.2,1.1,0.6,1.7,0.9
	c0.3,0.1,0.5,0.3,0.7,0.6c0.2,0.4,0.5,0.7,0.7,1.1c0.2,0.6,0,1.2,0,1.9c-0.3,2.3-0.6,4.5-0.9,6.8c-0.1,1.1-0.3,2.2-0.4,3.3
	c-0.1,0.6-0.2,1.1-0.3,1.7c0,0.3-0.1,0.5-0.1,0.8c0,0.3-0.1,0.6,0,0.9c0.1,0.3-0.1,0.5,0,0.8c0,0.3-0.1,0.4-0.1,0.7
	c0,0.2,0,0.4,0,0.6c-0.2,1.4-0.3,2.7-0.5,4.1c0,0.2,0,0.3-0.1,0.5c-0.4,0.3-0.8,0.5-1.2,0.4c-0.2,0-0.3,0-0.5,0.1
	c-0.8,0.2-1.6,0.3-2.3,0.6c-1,0.4-2,0.6-3,0.9c-0.5,0.1-0.9,0.3-1.6,0.6c0,0-0.2,0-0.4,0c-0.2,0-0.3-0.1-0.5-0.1
	c-1.1-0.6-2.1-1.2-3.1-1.7c-0.2-0.1-0.5-0.3-0.7-0.3c-0.6-0.2-1.1-0.3-1.7-0.5c-0.5-0.3-0.9-0.5-1.4-0.8c-0.4-0.2-0.9-0.5-1.3-0.8
	c-0.2-0.1-0.2-0.4-0.5-0.5c-0.8-0.5-1.6-1.1-2.5-1.5c-0.8-0.3-1.4-0.9-2.1-1.3c-0.9-0.6-1.8-1.3-2.6-2c-0.6-0.5-1.2-0.9-1.8-1.3
	c-1.2-0.8-2.3-1.8-3.4-2.7c-0.4-0.3-0.8-0.6-1.2-1c-0.2,0-0.4-0.1-0.6-0.1c0-0.1-0.1-0.2-0.1-0.3C30,50.5,30,49.9,30.1,49.2z
	 M100,136.8c0,0,0-0.1,0.1-0.1C100.2,136.8,100.1,136.8,100,136.8z M67.9,61.9L67.9,61.9C67.9,61.9,67.9,61.9,67.9,61.9
	C67.9,61.9,67.9,61.9,67.9,61.9C67.9,61.9,67.9,61.9,67.9,61.9z M68.1,62c0,0-0.1,0-0.1-0.1C67.9,62,67.9,62.1,68.1,62z M64.5,72.6
	c-0.3,0-0.6,0.2-0.9,0.3c-0.8,0.5-1.7,1-2.6,1.4c-1.1,0.5-2.2,1-3.2,1.6c-0.1,0-0.1,0.1-0.1,0.1v0.7c0.1,0.1,0.2,0.2,0.3,0.3
	c0.8-0.2,1.5-0.3,2.2-0.7c0.1-0.1,0.3-0.1,0.4-0.2c0.7-0.3,1.4-0.6,2.1-1c0.8-0.5,1.7-0.9,2.6-1.4c0.3-0.2,0.6-0.2,0.8-0.2
	c0.4-0.2,0.6-0.4,1-0.6c0.7-0.3,1.4-0.8,2.1-1.2c0.7-0.4,1.5-0.8,2.2-1.3c1.5-0.9,3-1.8,4.5-2.7c0.3-0.1,0.6-0.2,0.9-0.3
	c0.4-0.2,0.8-0.5,1.2-0.7c-0.2-0.3-0.3-0.7-0.5-1c-0.6-0.2-1,0.2-1.5,0.3c-0.2,0.5-0.7,0.5-1.1,0.8c-0.5,0.3-1.1,0.5-1.7,0.8
	c-0.7,0.4-1.4,0.8-2.2,1c-0.8,0.3-1.6,0.7-2.4,1.2c-0.3,0.2-0.5,0.3-0.8,0.5c-0.8,0.5-1.7,1-2.5,1.5C65.1,72.2,64.7,72.2,64.5,72.6z
	 M63.9,77.9c0.1,0.1,0.3,0.3,0.5,0.4c0.1-0.1,0.3-0.1,0.4-0.1c0.3-0.2,0.6-0.1,0.9-0.3c0.3-0.3,0.6-0.4,1-0.5c0.1,0,0.3,0.1,0.4,0.1
	c0-0.2,0.1-0.3,0.1-0.5c0.2,0,0.3-0.1,0.5-0.1c0-0.1,0.1-0.1,0.1-0.2c0.5-0.2,0.9-0.4,1.3-0.7c1.6-0.9,3.1-1.8,4.6-2.7
	c0.1-0.1,0.3-0.2,0.4-0.2c0.3,0,0.6-0.3,0.8-0.4c0.4-0.2,0.7-0.5,1.1-0.8c0.5-0.3,1-0.7,1.6-0.9c0.3-0.1,0.5-0.3,0.7-0.4
	c0.2-0.4-0.2-0.6-0.1-0.9c0-0.1-0.1-0.1-0.1-0.2c-0.2-0.1-0.4-0.2-0.6-0.2c-0.2,0.1-0.5,0.1-0.7,0.2c-0.6,0.2-1.1,0.3-1.6,0.8
	c-0.2,0.2-0.4,0.5-0.7,0.6c-0.4,0.1-0.6,0.4-0.8,0.6c-0.3,0.2-0.7,0.3-1,0.5c-0.9,0.7-2,1.3-3,1.9c-0.2,0.1-0.5,0.3-0.7,0.4
	c-0.3,0.1-0.5,0.3-0.8,0.4c-0.6,0.3-1.1,0.7-1.7,0.9c-0.5,0.2-0.9,0.4-1.4,0.6c-0.5,0.2-0.8,0.7-1.2,1c0,0.2,0.1,0.3,0.1,0.4
	C63.8,77.6,63.8,77.7,63.9,77.9z M121.7,109.8L121.7,109.8C121.7,109.8,121.7,109.8,121.7,109.8
	C121.7,109.8,121.7,109.8,121.7,109.8z M144.4,111.3c-0.4,0.2-0.9,0.3-1.3,0.5c-1.4,0.6-2.5,1.5-2.9,3c0.1,0.4,0.1,0.8,0.2,1.3
	c0.2,0.1,0.4,0.2,0.6,0.3h1.2c1-0.5,2-1,3-1.6c1-0.7,1.8-1.5,2.2-2.6V111c-0.1-0.1-0.2-0.2-0.3-0.4c-0.5,0.1-0.9,0-1.4,0.2
	C145.1,111,144.8,111.1,144.4,111.3z M151.1,106.5c0.9-0.5,1.8-0.9,2.7-1.5c0.9-0.6,1.7-1.2,2.7-1.7c0.4-0.3,0.8-0.6,1.4-0.7
	c1.5-0.9,3-1.7,4.4-2.7c0.2-0.2,0.4-0.3,0.7-0.4c0.7-0.3,1.4-0.6,1.9-1.1c0.8-0.6,1.6-1.1,2.5-1.5c0.8-0.4,1.6-1,2.3-1.6
	c0,0,0.1-0.1,0.1-0.2c-0.1-0.3-0.2-0.5-0.3-0.8c-0.2-0.1-0.4-0.2-0.6-0.2c-1.1,0.3-1.9,0.7-2.7,1.2c-0.2,0.1-0.4,0.3-0.7,0.4
	c-0.7,0.4-1.4,0.7-2,1.2s-1.4,0.7-2,1.2c-0.3,0.2-0.7,0.5-1.1,0.7c-0.6,0.4-1.2,0.8-1.8,1.1c-0.7,0.3-1.1,0.9-1.7,1.2
	c-0.3,0.2-0.6,0.4-1,0.6c-0.8,0.3-1.5,0.8-2.2,1.2c-0.5,0.3-0.9,0.6-1.4,0.8c-1.6,0.8-3,1.7-4.5,2.7c-1.1,0.7-2.2,1.3-3.3,2
	c-1.3,0.3-2,1.4-3.1,2c-0.2,0.1-0.3,0.4-0.5,0.6c-0.1,0.2-0.2,0.3-0.3,0.5c-0.3,0.1-0.6,0.3-0.8,0.4h-1c-0.6,0.3-1.1,0.6-1.7,1
	c-0.6,0.3-1.2,0.7-1.8,1c-0.9,0.5-1.8,1-2.7,1.3c-0.3,0.1-0.5,0.2-0.7,0.3c-0.3,0.2-0.6,0.4-0.9,0.5c-1.1,0.6-2.2,1.1-3.3,1.7
	c-0.7,0.4-1.4,0.8-2.2,1.1c-0.9,0.4-1.7,1-2.5,1.5c-0.4,0.2-0.8,0.5-1.2,0.7c-1.7,0.8-3.1,1.9-4.8,2.7c0,0-0.1,0-0.1,0.1
	c-1.6,1.1-3.3,2.2-5.1,3.1c-0.5,0.3-1,0.6-1.5,0.9c-0.5,0.2-1,0.4-1.4,0.6c-0.1,0.3-0.2,0.5-0.3,0.7c-0.1,0.2-0.1,0.4,0.1,0.5
	c0.6-0.2,1.2-0.4,1.8-0.7c0.6-0.2,1.1-0.6,1.6-0.9c0.1,0,0.1-0.1,0.2-0.1c0.7-0.2,1.3-0.6,2-0.9c0.6-0.4,1.3-0.6,1.9-1.1
	c0.1-0.1,0.3-0.1,0.4-0.2c1.1-0.6,2.1-1.2,3.2-1.7c0.2-0.1,0.4-0.2,0.6-0.4c1.6-1,2.4-1.5,4.4-2.3c0.1,0,0.2-0.1,0.3-0.2
	c1.3-0.8,2.6-1.5,4-2.2c0.5-0.2,0.9-0.4,1.3-0.7c0.5-0.4,1.1-0.6,1.6-0.8c0.3-0.2,0.5-0.4,0.7-0.6c1.4-0.7,2.7-1.7,4.1-2.4
	c0.7-0.4,1.4-0.8,2-1.4c0.9-0.9,1.9-1.5,3.1-1.9c0.7-0.2,1.4-0.6,2.2-0.5c0.3-0.2,0.6-0.4,0.9-0.5c0.5-0.3,0.9-0.6,1.4-0.9
	c0.7-0.5,1.4-1,2.1-1.4C149.1,107.5,150.1,107,151.1,106.5z M69.3,80.1c0.1-0.1,0.2-0.1,0.3-0.1c0.5-0.2,1.1-0.4,1.6-0.7
	c0.7-0.4,1.4-0.7,2-1c0.2-0.1,0.4-0.1,0.6-0.1c0.3-0.2,0.5-0.3,0.8-0.4c0.6-0.2,1.1-0.6,1.7-0.9c0.6-0.3,1.2-0.6,1.8-0.9
	c1.2-0.7,2.4-1.4,3.6-2c0.2-0.1,0.4-0.1,0.6-0.2c0.3-0.2,0.7-0.4,1-0.6c-0.1-0.3-0.1-0.7-0.2-1c-0.4-0.2-0.7,0.1-1.1,0.1
	c-0.2,0.4-0.6,0.4-0.9,0.6c-0.4,0.2-0.9,0.4-1.3,0.6c-0.6,0.3-1.1,0.6-1.7,0.7c-0.6,0.2-1.3,0.5-1.9,0.9c-0.2,0.1-0.4,0.3-0.6,0.4
	c-0.7,0.4-1.3,0.8-2,1.1c-0.3,0.1-0.5,0.2-0.8,0.5c-0.2-0.1-0.4,0.1-0.7,0.2c-0.7,0.4-1.4,0.7-2,1c-0.8,0.4-1.7,0.7-2.5,1.2
	c-0.1,0-0.1,0.1-0.1,0.1c0,0.3-0.1,0.5-0.1,0.7c0.1,0.1,0.1,0.2,0.2,0.3C68.2,80.5,68.8,80.4,69.3,80.1z M74,82.8
	c0.1,0,0.2,0,0.3-0.1c0.6-0.2,1.1-0.3,1.7-0.6c0.7-0.4,1.4-0.5,2.1-0.8c0.2-0.1,0.4,0,0.6,0c0.3-0.1,0.5-0.3,0.8-0.4
	c0.6-0.2,1.2-0.5,1.8-0.7c0.6-0.3,1.2-0.5,1.9-0.8c1.3-0.6,2.5-1.1,3.8-1.7c0.2-0.1,0.4-0.1,0.7-0.1c0.3-0.2,0.7-0.3,1-0.5
	c0-0.3,0-0.7-0.1-1.1c-0.3-0.3-0.7,0-1.1,0c-0.3,0.4-0.6,0.4-1,0.5c-0.4,0.2-0.9,0.3-1.4,0.5c-0.6,0.3-1.2,0.5-1.8,0.6
	c-0.7,0.1-1.3,0.3-1.9,0.7c-0.2,0.1-0.4,0.2-0.7,0.3c-0.7,0.3-1.4,0.6-2.1,0.9c-0.3,0.1-0.6,0.1-0.8,0.4c-0.2-0.1-0.5,0-0.7,0.2
	c-0.7,0.4-1.4,0.6-2.1,0.8c-0.9,0.3-1.8,0.5-2.6,0.9c-0.1,0-0.1,0.1-0.1,0.1c-0.1,0.3-0.1,0.5-0.2,0.7c0.1,0.1,0.1,0.2,0.1,0.3
	C72.9,83.1,73.5,83,74,82.8z M85.8,39.4c-0.3,0.4-0.6,0.4-0.9,0.6c-0.4,0.2-0.9,0.3-1.3,0.6c-0.6,0.3-1.2,0.5-1.7,0.7
	c-0.6,0.2-1.3,0.4-1.9,0.9c-0.2,0.1-0.4,0.3-0.6,0.4c-0.7,0.4-1.4,0.7-2,1.1c-0.3,0.1-0.5,0.2-0.8,0.4c-0.2-0.1-0.4,0.1-0.7,0.2
	c-0.7,0.4-1.4,0.7-2.1,1c-0.8,0.4-1.7,0.7-2.5,1.1c-0.1,0-0.1,0.1-0.1,0.1c-0.1,0.3-0.1,0.5-0.1,0.7c0.1,0.1,0.1,0.2,0.2,0.3
	c0.5,0,1.1-0.1,1.6-0.4c0.1-0.1,0.2-0.1,0.3-0.1c0.5-0.2,1.1-0.4,1.6-0.7c0.7-0.4,1.4-0.6,2.1-1c0.2-0.1,0.4-0.1,0.6-0.1
	c0.3-0.2,0.5-0.3,0.8-0.4c0.6-0.2,1.1-0.5,1.7-0.8c0.6-0.3,1.2-0.6,1.8-0.9c1.2-0.6,2.4-1.3,3.7-1.9c0.2-0.1,0.4-0.1,0.6-0.2
	c0.3-0.2,0.7-0.4,1-0.5c0-0.3-0.1-0.7-0.1-1.1C86.6,39,86.2,39.3,85.8,39.4z M91,41.9c-0.3,0.4-0.6,0.4-0.9,0.6
	c-0.4,0.2-0.9,0.3-1.3,0.6c-0.6,0.3-1.2,0.5-1.7,0.7c-0.6,0.2-1.3,0.4-1.9,0.9c-0.2,0.1-0.4,0.3-0.6,0.4c-0.7,0.4-1.4,0.7-2,1.1
	c-0.3,0.1-0.5,0.2-0.8,0.4c-0.2-0.1-0.4,0.1-0.7,0.2c-0.7,0.4-1.4,0.7-2.1,1c-0.8,0.4-1.7,0.7-2.5,1.1c-0.1,0-0.1,0.1-0.1,0.1
	c-0.1,0.3-0.1,0.5-0.1,0.7c0.1,0.1,0.1,0.2,0.2,0.3c0.5,0,1.1-0.1,1.6-0.4c0.1-0.1,0.2-0.1,0.3-0.1c0.5-0.2,1.1-0.4,1.6-0.7
	c0.7-0.4,1.4-0.6,2.1-1c0.2-0.1,0.4-0.1,0.6-0.1c0.3-0.2,0.5-0.3,0.8-0.4c0.6-0.2,1.1-0.5,1.7-0.8c0.6-0.3,1.2-0.6,1.8-0.9
	c1.2-0.6,2.4-1.3,3.7-1.9c0.2-0.1,0.4-0.1,0.6-0.2c0.3-0.2,0.7-0.4,1-0.5c0-0.3-0.1-0.7-0.1-1.1C91.7,41.5,91.4,41.8,91,41.9z
	 M133.5,79.6c-0.6-0.4-1.3-0.7-1.9-1.1c-0.5-0.1-0.8-0.4-1.2-0.7c-0.6-0.4-1.2-0.8-1.9-1.2c-0.7-0.4-1.3-0.8-2-1.1
	c-0.2-0.1-0.3-0.2-0.4-0.3c-0.1-0.1-0.1-0.1-0.2-0.1c-0.3-0.1-0.6-0.2-0.9-0.1c-0.2,0-0.3,0.1-0.5,0.1c-0.3,0.1-0.7,0.2-0.9,0.4
	c0,0-0.1,0.1-0.2,0.1c-0.2,0-0.3,0.1-0.5,0.1c-0.1,0-0.3,0-0.4,0.1c-0.1,0.1-0.3,0.1-0.3,0.2c0,0-0.1,0-0.1,0
	c-0.4,0.1-0.6,0.1-0.8,0.3c0,0-0.1,0.1-0.2,0.1c-0.2,0-0.3,0.1-0.3,0.1c-0.1,0.1-0.2,0.1-0.3,0.1c-0.1,0-0.2,0.1-0.2,0.1
	c0.1,0.1-0.1,0.1-0.2,0.1c-0.3,0-0.4,0.2-0.7,0.2c-0.3,0.1-0.6,0.2-0.9,0.3c-0.4,0.2-0.8,0.3-1.1,0.5c-0.1,0-0.3,0.1-0.3,0.1
	c-0.1,0-0.1,0.1-0.2,0.2c-0.6,0-0.7,0.3-1.2,0.4c-0.1,0.1-0.3,0.2-0.5,0.3c-0.4,0.1-0.7,0.3-1,0.4c-0.2,0.1-0.3,0.2-0.5,0.3
	c-0.3,0.1-0.4,0.3-0.8,0.3c-0.1,0.3-0.7,0.3-1,0.5c-0.4,0.2-1,0.4-1.5,0.6c-0.2,0.1-0.2,0.1-0.5,0.1c-0.2,0-0.4,0-0.5,0.1
	c0,0-0.2,0.1-0.3,0.1c-0.4,0.2-0.9,0.2-1.1,0.5c0,0-0.1,0-0.2,0c-0.1,0-0.2,0-0.3,0.1c-0.2,0.1-0.3,0.2-0.5,0.3
	c-0.3,0.2-0.7,0.3-1.1,0.5c-0.7,0.2-1.1,0.6-1.9,0.8c0,0.2-0.5,0.2-0.6,0.3c-0.3,0.3-1,0.4-1.2,0.7c0,0-0.1,0-0.2,0
	c-0.2,0-0.3,0.1-0.4,0.2c-0.1,0.1-0.1,0.1-0.2,0.1c-0.4,0-0.6,0.3-1,0.4c-0.2,0-0.5,0.1-0.6,0.3c-0.2,0.2-0.5,0.3-0.8,0.4
	c-0.3,0.1-0.4,0.3-0.8,0.3c-0.1,0.2-0.7,0.2-0.8,0.4c-0.2,0.2-0.6,0.3-0.9,0.4c-0.4,0.2-0.8,0.4-1.2,0.6c-0.2,0.1-0.4,0.2-0.7,0.4
	c-0.1,0.1-0.3,0.1-0.4,0.1c-0.1,0-0.2,0.1-0.3,0.1c-0.2,0.1-0.2,0.3-0.6,0.3c-0.3,0-0.4,0.2-0.6,0.3c-0.8,0.3-1.5,0.7-2.3,1
	c-0.1,0-0.2,0.1-0.2,0.1c-0.2,0.2-0.5,0.4-0.9,0.5c-0.3,0.1-0.4,0.3-0.8,0.3c-0.2,0.4-1.1,0.4-1.3,0.8c-0.7,0.3-1.5,0.7-2.3,1
	c-0.5,0.2-0.8,0.5-1.4,0.6c0,0.2-0.5,0.2-0.7,0.3c-0.1,0.2-0.5,0.2-0.7,0.3c-0.2,0.1-0.4,0.3-0.7,0.4c-0.1,0-0.2,0-0.3,0.1
	c-0.4,0.1-0.6,0.3-0.8,0.4c-0.1,0.1-0.2,0.3-0.4,0.3c-0.7,0.3-1.1,0.7-1.9,0.9c-0.1,0-0.2,0.1-0.2,0.2c-0.2,0.1-0.4,0.3-0.7,0.4
	c-0.3,0.2-0.7,0.3-0.9,0.6c-0.2,0.2-0.5,0.4-0.7,0.6c-0.1,0.1-0.4,0.2-0.3,0.3c0.3,0.2-0.2,0.4,0,0.6c0.1,0.1,0.1,0.2,0.2,0.2
	c0.4,0.3,1.2,0.4,1.3,0.9c0,0,0.1,0,0.1,0c0.6,0,0.5,0.4,0.9,0.5c-0.2,0.3,0.3,0.4,0.6,0.5c0.6,0.3,1,0.5,1.3,0.8
	c0.1,0.1,0.2,0.2,0.4,0.2c0.4,0.1,0.6,0.3,0.8,0.5c0.4,0.3,0.8,0.5,1.3,0.8c0.3,0.2,0.5,0.4,0.7,0.6c0.1,0.1,0.4,0.3,0.4,0.4
	c-0.2,0.3,0.3,0.2,0.5,0.3c0.3,0.2,0.4,0.6,1,0.6c0,0,0,0,0,0c-0.2,0.3,0.2,0.3,0.4,0.3c0.2,0.1,0.3,0.2,0.4,0.3
	c0.1,0.2,0.3,0.4,0.6,0.5c0.3,0.1,0.5,0.3,0.8,0.5c0.4,0.2,0.5,0.5,1,0.7c0.4,0.1,0.4,0.4,0.9,0.5c0,0,0,0.1,0,0.2
	c0,0.1,0.1,0.3,0.2,0.3c0.1,0.1,0.4,0.1,0.5,0.2c0.1,0.1,0.1,0.3,0.3,0.3c0.5,0.2,0.5,0.6,1.1,0.6c0.3,0.5,1.2,0.5,1.5,1
	c0.4,0,0.1,0.3,0.4,0.4c0.4,0.1,0.5,0.3,0.6,0.5c0.2,0.3,0.4,0.6,0.8,0.8c0.3,0.1,0.3,0.4,0.6,0.5c0.3,0.1,0.4,0.3,0.7,0.5
	c0.4,0.3,0.5,0.6,1,0.9c0.2,0.1,0.4,0.1,0.5,0.2c0.1,0.1,0.1,0.2,0.2,0.3c0.4,0.3,0.9,0.6,0.9,1.1c0,0,0.1,0.1,0.2,0.1
	c0.5,0.1,0.8,0.3,0.8,0.7c0,0.1,0.1,0.2,0.2,0.2c0.3,0.1,0.4,0.3,0.5,0.5c0.5,0.6,1.2,1.1,1.7,1.7c0.2,0.2,0.4,0.4,0.6,0.7
	c0.3,0.4,0.7,0.8,1.2,1.1c0.3,0.2,0.7,0,1,0c0.3,0,0.3-0.2,0.4-0.3c0.1-0.1,0.2,0,0.4,0c-0.1,0.2-0.2,0.6-0.4,0.7
	c-0.4,0.2-0.4,0.4-0.2,0.6c0.2,0.2,0.8,0.2,1.2,0.1c0.3-0.2,0.7-0.3,1-0.5c0.6-0.4,1.4-0.6,1.9-1.1c0.3-0.2,0.8-0.3,1.1-0.5
	c0.3-0.3,0.7-0.4,1.1-0.6c0.3-0.1,0.5-0.2,0.8-0.2c0.8-0.2,1.4-0.7,2.1-1c0.4-0.2,1-0.4,1.2-0.7c0.6-0.2,1.1-0.6,1.6-0.9
	c0.3-0.2,0.7-0.4,1-0.5c0.6-0.2,1.2-0.5,1.8-0.8c0.9-0.5,1.8-1,2.6-1.6c0.1-0.1,0.3-0.1,0.5-0.2c0.9-0.4,1.8-0.8,2.2-1.6
	c0.2-0.3,0.2-0.4-0.2-0.6c-0.1-0.1-0.4-0.1-0.6-0.1c-0.1,0-0.3,0-0.3-0.1c0.1-0.3-0.3-0.2-0.4-0.2c-0.1,0.1-0.3,0.2-0.4,0.3
	c-0.1,0.1-0.1,0.2-0.2,0.3c-0.8,0.3-1.5,0.8-2.3,1.2c-0.2,0.1-0.4,0.2-0.6,0.1c-0.1,0-0.1,0-0.2,0c0.1,0.3-0.4,0.2-0.5,0.4
	c-0.2,0.2-0.4,0.4-0.7,0.4c-0.1,0-0.2,0.1-0.2,0.2c-0.2,0.4-0.6,0.5-1,0.7c-0.2,0.1-0.3,0.1-0.5,0.2c0-0.1,0-0.2-0.1-0.3
	c0-0.1-0.1-0.1-0.2-0.2c-0.6-0.3-0.9-0.8-1.2-1.2c-0.4-0.5-1-0.9-1.2-1.4c-0.6-0.3-0.8-0.8-1.4-1.1c-0.2-0.1-0.3-0.2-0.4-0.3
	c-0.3-0.3-0.3-0.3,0.2-0.5c0.6-0.2,1.1-0.6,1.6-0.9c0.2-0.1,0.5-0.2,0.6-0.3c0.2-0.3,0.8-0.4,1-0.7c0.8-0.2,1.3-0.7,1.8-1.1
	c0.2-0.1,0.5-0.3,0.7-0.4c0.3-0.1,0.2,0.2,0.4,0.3c0.4,0.2,0.7,0.5,1,0.7c0.1,0.1,0.3,0.2,0.2,0.4c0,0,0.1,0.1,0.1,0.1
	c0.3-0.1,0.3,0.1,0.4,0.2c0.2,0.2,0.3,0.4,0.6,0.6c0.4,0.2,0.4,0.6,0.9,0.7c0.1,0.5,0.7,0.8,1.2,1.1c0.3,0.2,0.7,0.2,0.9-0.1
	c0,0,0-0.1,0.1-0.1c0.3-0.3,0.4-0.5,0.1-0.8c-0.2-0.2-0.4-0.5-0.6-0.7c-0.5-0.5-1-0.9-1.4-1.4c-0.3-0.3-0.7-0.5-0.9-0.7
	c-0.2-0.4-0.6-0.7-1-1c-0.1-0.1-0.2-0.2-0.2-0.3c0-0.1,0-0.2,0.1-0.2c0.6-0.2,0.8-0.6,1.4-0.8c0.8-0.3,1.4-0.8,2-1.2
	c0.4-0.2,0.8-0.4,1.2-0.6c0.4-0.2,0.9-0.3,1.3-0.6c0,0,0.1,0,0.2,0c0.1,0,0.3-0.1,0.4-0.1c0.6-0.3,1.2-0.6,1.8-0.9
	c0.6-0.3,1.2-0.6,1.8-0.9c0.6-0.2,1-0.6,1.6-0.8c0.4-0.1,0.6-0.4,1-0.5c0.4-0.2,0.9-0.3,1.3-0.5c0.3-0.1,0.6-0.2,0.8-0.3
	c0.2-0.3,0.6-0.4,0.9-0.5c0.5-0.2,1-0.4,1.4-0.7c0.3-0.1,0.4-0.3,0.7-0.4c0.3-0.1,0.4-0.3,0.7-0.4c0.3-0.1,0.4-0.3,0.7-0.4
	c0.3-0.1,0.3-0.4,0.7-0.4c0.2-0.2,0.4-0.3,0.7-0.4c0.4-0.1,0.5-0.3,0.8-0.4c0.3-0.1,0.5-0.2,0.7-0.3c0.1-0.1,0.3-0.2,0.5-0.2
	c0.4-0.1,0.7-0.3,1-0.4c0.3-0.1,0.6-0.2,0.8-0.4c0.3-0.1,0.6-0.2,0.9-0.4c0.1,0,0.1-0.1,0.1-0.1c0.1-0.1,0.1-0.3,0.3-0.3
	c0.2,0,0.2-0.2,0.3-0.3c0.2-0.1,0.5-0.2,0.7-0.3c0.1-0.1,0.2-0.1,0.3-0.1c0.3,0,0.5,0,0.6-0.2c0,0,0,0,0-0.1c0.1-0.1,0.4,0,0.5-0.1
	c0-0.1-0.2-0.2-0.1-0.4c0.1-0.1,0-0.2,0-0.3c-0.1-0.2-0.1-0.3-0.3-0.5c-0.1-0.1-0.1-0.1-0.2-0.2c-0.2,0-0.3-0.2-0.4-0.3
	c-0.2-0.2-0.5-0.4-0.7-0.6c-0.4-0.3-0.9-0.6-1.2-0.9c-0.3-0.2-0.6-0.4-0.9-0.6c-0.3-0.2-0.6-0.4-0.9-0.6c-0.2-0.2-0.5-0.5-0.9-0.6
	c0,0-0.1-0.1-0.1-0.1c-0.1-0.1-0.2-0.2-0.4-0.2c-0.1,0-0.2-0.1-0.2-0.1c-0.1-0.1-0.3-0.2-0.4-0.3c-0.4-0.3-0.7-0.5-1.2-0.8
	c-0.2-0.1-0.4-0.3-0.6-0.4c-0.3-0.1-0.3-0.4-0.7-0.4c0,0,0,0-0.1-0.1c-0.3-0.2-0.6-0.4-0.8-0.6c-0.2-0.1-0.5-0.3-0.6-0.4
	c-0.1-0.2-0.4-0.3-0.7-0.5c-0.2-0.1-0.4-0.3-0.6-0.4c-0.6-0.3-1-0.7-1.6-0.9C134.2,80,133.8,79.8,133.5,79.6z M121.2,77.3
	c0.2-0.1,0.4-0.2,0.7-0.3c0.4-0.1,0.7-0.4,1.2-0.4c0,0,0,0,0,0c0.1-0.2,0.4-0.2,0.7-0.3c0.3-0.1,0.5-0.2,0.8-0.3c0,0,0-0.1,0-0.1
	c-0.2-0.1-0.1-0.1,0.1-0.2c0.1,0,0.2,0,0.1,0.1c0.1,0,0.2,0,0.2,0.1c0.2,0.2,0.6,0.3,0.9,0.5c0.5,0.3,1.1,0.6,1.5,0.9
	c0.1,0.1,0.2,0.1,0.3,0.1c0.2,0.1,0.4,0.2,0.5,0.3c0.1,0.1,0.2,0.2,0.4,0.3c0.3,0.1,0.5,0.3,0.7,0.5c0.6,0.4,1.3,0.8,2,1.1
	c0,0,0.1,0,0.1,0.1c0.1,0.2,0.5,0.4,0.8,0.5c0.2,0.1,0.1,0.2,0,0.2c-0.3,0.1-0.6,0.3-1,0.4c-0.3,0-0.4,0.2-0.8,0.3
	c0,0.2-0.4,0.1-0.5,0.2c-0.1,0.1-0.3,0.1-0.5,0.2c-0.2,0.1-0.4,0.1-0.5,0.2c-0.1,0-0.2,0.1-0.2,0.1c0,0.1-0.1,0-0.2,0.1
	c-0.2,0-0.2,0.3-0.5,0c-0.1-0.1-0.4-0.1-0.5-0.3c0-0.1-0.3-0.2-0.4-0.3c-0.5-0.3-0.8-0.6-1.4-0.9c-0.2-0.1-0.3-0.2-0.4-0.3
	c-0.5-0.3-1-0.5-1.4-0.8c-0.3-0.2-0.5-0.3-0.8-0.5c-0.2-0.1-0.4-0.2-0.6-0.3c-0.2-0.1-0.4-0.2-0.6-0.3c-0.3-0.1-0.5-0.3-0.8-0.4
	C121,77.5,121,77.4,121.2,77.3z M119.8,92.4c-0.7-0.2-1-0.7-1.5-1c-0.5-0.4-1-0.8-1.6-1.1c-0.2-0.1-0.3-0.2-0.5-0.4
	c-0.2-0.2-0.4-0.4-0.7-0.5c-0.3-0.1-0.3-0.3-0.5-0.4c0,0,0.1-0.1,0.1-0.1c0.3,0,0.5-0.2,0.7-0.3c0.2-0.2,0.6-0.3,0.8-0.4
	c0.1-0.1,0.3-0.1,0.4-0.2c0.1-0.1,0.4,0,0.4-0.2c0-0.1,0.3-0.1,0.4-0.2c0.3-0.1,0.5-0.2,0.7-0.4c0.3-0.2,0.7-0.3,1-0.5
	c0.3-0.2,0.6-0.3,0.9-0.5c0.2-0.1,0.5-0.2,0.7-0.2c0.1,0,0.2,0,0.2,0c0.5,0.1,0.4,0.3,0.7,0.5c0.1,0.1,0.1,0.2,0.3,0.1
	c0.1,0,0.2,0.1,0.3,0.1c0.1,0.2,0.4,0.3,0.6,0.4c0.4,0.2,0.9,0.6,1.2,0.9c0,0,0,0.1,0,0.1c0.5,0.2,0.7,0.5,1.1,0.7
	c0,0,0.1,0,0.1,0.1c0.1,0.1,0.2,0.3,0.3,0.4c0.2,0.1,0.4,0.2,0.6,0.4c0.2,0.1,0.4,0.2,0.6,0.3c0.3,0.2,0.3,0.3,0,0.4
	c-0.3,0.1-0.6,0.2-0.7,0.4c-0.1,0.1-0.4,0-0.5,0.2c0,0.2-0.3,0.1-0.4,0.2c-0.4,0.2-0.8,0.3-1.1,0.5c-0.3,0.1-0.5,0.3-0.9,0.4
	c-0.2,0.3-0.8,0.3-1.1,0.6c-0.2,0.2-0.7,0.3-1,0.6c-0.1,0.1-0.3,0.1-0.5,0c-0.2-0.1-0.6-0.3-0.7-0.4
	C120.3,92.9,119.9,92.7,119.8,92.4C119.8,92.4,119.9,92.4,119.8,92.4z M110.6,96.8c-0.4-0.4-0.9-0.7-1.3-1.1c-0.3-0.4-0.8-0.6-1.1-1
	c-0.3-0.3-0.7-0.6-1.1-0.8c-0.2-0.1-0.4-0.3-0.5-0.4c-0.1-0.2-0.1-0.2,0.2-0.3c0.5-0.2,0.9-0.4,1.4-0.7c0,0,0.1,0,0.1-0.1
	c0.1-0.3,0.4-0.4,0.8-0.5c0.1,0,0.2,0,0.2-0.1c0.2-0.2,0.6-0.3,0.8-0.5c0.5-0.3,1-0.6,1.6-0.8c0.5-0.2,0.9-0.4,1.3-0.6
	c0.1-0.1,0.3-0.1,0.5-0.2c0.1,0,0.2,0,0.3,0c0.1,0,0.2,0.1,0.2,0.1c0.2,0.2,0.5,0.5,0.9,0.6c0,0.3,0.4,0.4,0.6,0.6
	c0,0.1,0.1,0.1,0.2,0.2c0.5,0.2,0.7,0.6,1,0.9c0,0,0.1,0.1,0.1,0.1c0.4,0,0.5,0.3,0.8,0.5c0.3,0.1,0.5,0.3,0.7,0.5
	c0.1,0.1,0.2,0.2,0.4,0.2c0.2,0.1,0.4,0.1,0.3,0.3c0.3,0.1,0.3,0.3,0.5,0.4c0.2,0.1,0.2,0.2,0.3,0.3c0.2,0.2,0.1,0.3-0.2,0.3
	c-0.1,0-0.2,0-0.2,0.1c-0.1,0.2-0.5,0.1-0.6,0.3c-0.1,0.2-0.4,0.2-0.6,0.3c-0.2,0.1-0.4,0.2-0.6,0.3c-0.2,0.1-0.5,0.1-0.6,0.3
	c-0.1,0.1-0.5,0.1-0.6,0.3c-0.5,0.1-0.7,0.4-1.1,0.5c-0.4,0.1-0.6,0.5-1.1,0.6c0,0-0.1,0-0.1,0c-0.2,0.3-0.7,0.5-1.1,0.7
	c-0.1,0.1-0.3,0.2-0.4,0.2S112,98,112,97.9c0-0.1-0.1-0.1-0.1-0.2C111.4,97.4,111,97.1,110.6,96.8z M110.6,99.3
	c-0.6,0.3-1.2,0.7-1.8,1c-0.5,0.3-1.1,0.5-1.5,0.8c-0.7,0.5-1.7,0.9-2.5,1.4c-0.3,0.2-0.4,0.2-0.6,0c-0.4-0.3-0.9-0.6-1.2-1
	c-0.2-0.2-0.5-0.4-0.7-0.5c-0.2-0.1-0.3-0.3-0.6-0.4c-0.2-0.1-0.2-0.3-0.4-0.3c-0.3-0.1,0-0.3-0.3-0.3c-0.2-0.1-0.3-0.2-0.4-0.3
	c-0.3-0.2-0.5-0.5-0.9-0.7c-0.4-0.2-0.7-0.5-1-0.7c-0.4-0.3-0.3-0.5,0.3-0.7c0.1,0,0.3-0.1,0.4-0.2c0.4-0.4,0.9-0.6,1.5-0.8
	c0,0,0.1,0,0.1-0.1c0.2-0.3,0.7-0.4,1-0.6c0.2-0.2,0.4-0.3,0.8-0.4c0.1,0,0.2-0.1,0.2-0.1c0.2-0.2,0.4-0.4,0.8-0.5
	c0.2-0.1,0.3-0.2,0.4-0.3c0.2-0.2,0.5-0.2,0.8-0.1c0.2,0.1,0.5,0.3,0.7,0.5c0.4,0.3,0.8,0.6,1.2,0.9c0.3,0.2,0.6,0.4,0.9,0.6
	c0.3,0.2,0.5,0.4,0.8,0.6c0,0,0,0,0,0c0.3,0.5,1,0.9,1.6,1.4c0.3,0.2,0.3,0.5,0.5,0.8C110.8,99.2,110.7,99.3,110.6,99.3z
	 M127.1,88.3c-0.1-0.2-0.4-0.4-0.6-0.5c-0.3-0.2-0.5-0.4-0.8-0.5c-0.3-0.1-0.4-0.3-0.7-0.5c-0.3-0.1-0.4-0.3-0.6-0.5
	c-0.1,0-0.2-0.1-0.3-0.1c-0.2-0.1-0.6-0.3-0.7-0.5c0,0-0.2-0.1-0.2-0.1c-0.1,0-0.1-0.1-0.2-0.2c0.2-0.1,0.3-0.1,0.4-0.2
	c0.4-0.2,0.8-0.3,1.1-0.5c0.1-0.1,0.5-0.1,0.6-0.2c0.1-0.1,0.2-0.1,0.4-0.2c0.4-0.1,0.7-0.3,1.1-0.4c0.5-0.2,1-0.4,1.5-0.6
	c0.2-0.1,0.4,0,0.6,0.1c0.6,0.3,1,0.6,1.5,1c0.2,0.1,0.3,0.4,0.7,0.4c0,0.1,0.2,0.2,0.4,0.3c0.2,0.1,0.3,0.2,0.4,0.3
	c0.2,0.1,0.3,0.2,0.5,0.3c0.1,0.1,0.3,0.2,0.4,0.3c0.2,0.2,0.4,0.4,0.7,0.5c0.3,0.3,0.8,0.5,1.1,0.8c0.1,0.1,0.1,0.1,0,0.2
	c-0.2,0.1-0.4,0.2-0.5,0.3c0,0-0.1,0.1-0.1,0.1c-0.4,0-0.6,0.3-1,0.4c-0.3,0.1-0.7,0.1-0.8,0.4c0,0,0,0-0.1,0
	c-0.6,0.1-0.9,0.5-1.5,0.6c-0.1,0-0.2,0.1-0.3,0.2c-0.1,0.1-0.3,0.1-0.4,0.1c-0.2,0.1-0.4,0.2-0.6,0.2c-0.2,0-0.1-0.3-0.4-0.3
	c-0.1-0.3-0.8-0.4-0.8-0.7c0,0-0.1-0.1-0.1-0.1C127.3,88.6,127.2,88.5,127.1,88.3z M114.6,80.2c0.4-0.1,0.5-0.3,0.9-0.3
	c0.1-0.2,0.5-0.2,0.7-0.3c0.2-0.1,0.4-0.2,0.6-0.3c0.4-0.1,0.8-0.3,1.2-0.5c0.4-0.1,0.7-0.3,1-0.5c0.1-0.1,0.3-0.2,0.4-0.2
	c0,0,0.1,0,0.2,0c0.1,0,0.2,0.1,0.3,0.1l0,0c0.2,0.1,0.3,0.2,0.5,0.3c0.3,0.1,0.5,0.3,0.8,0.5c0.1,0,0.2,0.2,0.3,0.2
	c0.4,0.3,0.9,0.5,1.3,0.7c0.3,0.2,0.6,0.3,0.9,0.5c0.1,0.1,0.3,0.2,0.4,0.2c0.3,0.1,0.4,0.4,0.8,0.5c0.2,0.1,0.5,0.2,0.6,0.3
	c0.2,0.2,0.5,0.3,0.7,0.4c0.1,0.1,0.2,0.1,0.3,0.2c0.3,0.2,0.3,0.3,0,0.4c-0.1,0-0.2,0.1-0.4,0.1c-0.1,0-0.2,0.1-0.2,0.1
	c-0.1,0.2-0.3,0.3-0.6,0.3c-0.3,0-0.4,0.2-0.6,0.3c-0.2,0.1-0.5,0.2-0.7,0.3c-0.4,0.2-0.9,0.4-1.3,0.5c-0.3,0.1-0.6,0.2-0.8,0.4
	c-0.2,0.2-0.5,0.1-0.8,0.1c0,0-0.1,0-0.1-0.1c0.1-0.1-0.2-0.1-0.3-0.2c-0.4-0.3-1-0.5-1.3-0.9c-0.2-0.2-0.5-0.3-0.7-0.5
	c-0.4-0.3-0.8-0.6-1.2-0.9c-0.1,0-0.1-0.1-0.2-0.1c-0.5-0.2-0.8-0.4-1.1-0.6c-0.1-0.1-0.2-0.1-0.4-0.2c0,0-0.2,0-0.2-0.1
	c-0.1-0.3-0.7-0.3-1-0.5C114.4,80.3,114.4,80.2,114.6,80.2z M107,83.3c0.4-0.1,0.6-0.3,0.9-0.4c0.3-0.1,0.6-0.2,0.9-0.4
	c0.3-0.1,0.5-0.4,1.1-0.3c0.1,0,0.2,0,0.3-0.1c0.3-0.2,0.7-0.3,1.1-0.4c0.3-0.1,0.7-0.3,1-0.4c0.1-0.1,0.3-0.1,0.4-0.2
	c0.3-0.2,0.4-0.2,0.9,0c0,0,0.2,0.1,0.3,0.2c0.3,0.2,0.6,0.3,0.9,0.5c0.1,0.1,0.2,0.1,0.3,0.2c0.4,0.1,0.7,0.4,1,0.6
	c0.4,0.2,0.7,0.5,1.2,0.7c0.1,0,0.1,0.1,0.2,0.1c0.4,0.3,0.9,0.6,1.2,0.9c0.1,0.1,0.4,0.2,0.6,0.3c0.3,0.1,0.3,0.3,0.6,0.4
	c0,0,0,0.1,0,0.2c-0.5,0.2-0.8,0.5-1.4,0.6c-0.3,0.1-0.5,0.2-0.7,0.3c-0.1,0.1-0.3,0.2-0.5,0.2c-0.3,0.1-0.5,0.1-0.6,0.3
	c0,0,0,0-0.1,0.1c-0.8,0.2-1.2,0.6-1.8,0.9c-0.2,0.1-0.6,0.2-0.7,0.4c-0.1,0.1-0.5,0.1-0.7,0c-0.2-0.1-0.3-0.2-0.4-0.3
	c-0.4-0.3-0.9-0.5-1.2-0.8c0,0-0.1-0.1-0.2-0.1c-0.2-0.1-0.6-0.1-0.6-0.3c-0.3-0.1-0.4-0.2-0.6-0.3c-0.6-0.3-0.9-0.6-1.4-0.9
	c-0.3-0.1-0.4-0.3-0.6-0.5c-0.1-0.1-0.2-0.1-0.3-0.2c-0.1-0.1-0.4-0.1-0.3-0.2c0,0-0.1-0.1-0.1-0.1c-0.2-0.1-0.6-0.1-0.5-0.3
	c0,0-0.1-0.1-0.2-0.1c-0.1-0.1-0.4-0.1-0.4-0.2C106.7,83.5,106.8,83.3,107,83.3z M98.3,87.5c0.3-0.4,1-0.6,1.5-0.8
	c0.2-0.1,0.4-0.2,0.6-0.3c0.1,0,0.2-0.1,0.3-0.1c0.1,0,0.3,0,0.3-0.1c0.1-0.3,0.7-0.3,1-0.5c0.1-0.1,0.4-0.1,0.5-0.2
	c0.8-0.4,1.6-0.7,2.3-1.1c0.1-0.1,0.4-0.1,0.5-0.2c0,0,0.1,0,0.1,0c0.2,0.2,0.4,0.5,0.9,0.6c0.1,0.3,0.7,0.4,0.8,0.6
	c0,0.1,0.2,0.1,0.2,0.2c0,0.2,0.5,0.1,0.5,0.3c0,0.2,0.4,0.2,0.6,0.3c0.2,0.1,0.4,0.2,0.5,0.3c0.2,0.2,0.7,0.3,0.8,0.6
	c0,0,0.1,0.1,0.2,0.1c0.1,0,0.1,0,0.2,0.1c0.4,0.3,0.9,0.6,1.4,0.8c0,0.2,0.3,0.2,0.5,0.3c0.4,0.2,0.4,0.4,0,0.6
	c-0.4,0.2-1,0.4-1.3,0.7c-0.4,0-0.5,0.3-0.7,0.4c-0.3,0.1-0.6,0.2-0.8,0.3c0,0-0.2,0-0.2,0.1c-0.1,0.3-0.7,0.4-1,0.5
	c-0.3,0.2-0.7,0.4-0.9,0.6c-0.1,0.1-0.5,0-0.5,0.2c0,0.1-0.2,0.2-0.5,0.3c-0.2,0-0.3,0.2-0.4,0.2c-0.3,0.1-0.3,0.1-0.6,0
	c-0.1-0.1-0.4-0.1-0.2-0.2c0,0,0-0.1-0.1-0.1c-0.5-0.1-0.6-0.4-1-0.5c-0.1,0-0.1-0.1-0.2-0.2c-0.2-0.2-0.4-0.4-0.7-0.4
	c-0.4-0.1-0.3-0.3-0.7-0.4c-0.2-0.1-0.4-0.2-0.5-0.4c-0.3-0.3-0.8-0.5-1-0.8c-0.1-0.1-0.3-0.2-0.4-0.3c-0.4-0.2-0.7-0.5-1.1-0.7
	C99,88.2,99,88,98.7,87.9C98.4,87.9,98.6,87.6,98.3,87.5C98.2,87.6,98.2,87.5,98.3,87.5z M89.2,91.9c1-0.5,1.9-1,2.9-1.4
	c0.1,0,0.2,0,0.2-0.1c0.6-0.7,1.9-1,2.7-1.5c0.4-0.2,0.7-0.4,1.2-0.6c0.1,0,0.1-0.1,0.2,0c0.3,0.2,0.7,0.4,1,0.6
	c0.6,0.4,1.1,0.8,1.9,1.1c0.3,0.1,0.4,0.3,0.7,0.5c0.1,0.1,0.3,0.2,0.4,0.3c0.3,0.1,0.4,0.3,0.6,0.5c0,0,0,0.1,0.1,0.1
	c0.7,0.3,1.1,0.8,1.8,1.2c0.2,0.1,0.5,0.3,0.7,0.4c0.2,0.1,0.1,0.3-0.1,0.4c-0.1,0.1-0.3,0.1-0.4,0.2c-0.5,0.3-1.1,0.6-1.6,0.9
	c-0.2,0.2-0.7,0.2-0.8,0.4c-0.7,0.3-1.2,0.6-1.8,1c-0.3,0.2-0.6,0.3-0.9,0.5c-0.2,0.2-0.7,0.3-0.9,0.5c0,0-0.3,0.1-0.3,0
	c0-0.2-0.3-0.3-0.6-0.3c-0.3-0.1-0.5-0.2-0.6-0.4c-0.3-0.3-0.5-0.6-1.1-0.9c-0.3-0.1-0.5-0.4-0.8-0.6c-0.2-0.1-0.4-0.3-0.6-0.3
	c-0.6-0.1-0.8-0.4-1.1-0.7c-0.3-0.3-0.7-0.6-1.1-0.8c-0.1-0.1-0.3-0.2-0.4-0.3c-0.3-0.3-0.3-0.3-1.1-0.5C89,92.2,89,92.1,89.2,91.9z
	 M87.5,103.1c-0.5,0.3-0.9,0.3-1.3-0.1c-0.2-0.2-0.5-0.4-0.7-0.6c-0.3-0.2-0.6-0.4-0.9-0.7c-0.3-0.2-0.8-0.4-0.9-0.7
	c-0.1-0.3-0.7-0.4-0.9-0.6c-0.2-0.2-0.5-0.5-0.9-0.6c-0.6-0.2-0.9-0.5-1.4-0.8c-0.4-0.1-0.6-0.4-0.9-0.6c-0.3-0.2-0.5-0.4-0.9-0.5
	c-0.1,0-0.2-0.1-0.2-0.1c0-0.2-0.2-0.2-0.4-0.3c0,0-0.1-0.1-0.1-0.1c0.2-0.1,0.4-0.3,0.7-0.4c0.7-0.1,0.8-0.5,1.4-0.7
	c-0.1-0.2,0.3-0.2,0.4-0.3c0.1,0,0.3-0.1,0.3-0.1c0.3-0.3,0.8-0.4,1.2-0.7c0.5-0.3,1.2-0.6,1.7-0.9c0.1-0.3,0.8-0.3,0.9-0.6
	c0.8-0.1,1.1-0.5,1.8-0.7c0.3-0.1,0.5-0.2,0.6-0.1c0.3,0.1,0.6,0.1,0.4,0.3c0,0,0.1,0.1,0.1,0.1c0.5,0,0.5,0.2,0.8,0.4
	c0.2,0.2,0.5,0.3,0.7,0.5s0.4,0.3,0.7,0.4c0.2,0.1,0,0.3,0.4,0.3c-0.2,0.2,0.1,0.2,0.3,0.3c0.1,0,0.3,0.1,0.4,0.2
	c0.5,0.3,1.1,0.5,1.5,0.9c0.3,0.2,0.8,0.4,0.9,0.7c0,0,0.1,0.1,0.2,0.1c0.7,0.3,0.9,0.7,1.3,1.1c0.1,0.1,0.1,0.2-0.3,0.2
	c0,0-0.1,0-0.1,0.1c-0.4,0.2-0.7,0.5-1.1,0.7c-0.1,0.1-0.3,0.2-0.4,0.3c-0.1,0.1-0.2,0.2-0.3,0.2c-0.9,0.4-1.5,0.9-2.3,1.3
	c-0.4,0.2-0.8,0.4-1.1,0.6c-0.1,0.1-0.3,0.1-0.4,0.2c-0.2,0.2-0.3,0.3-0.7,0.5c-0.2,0.1-0.3,0.3-0.4,0.4
	C87.6,102.9,87.6,103,87.5,103.1z M93.9,108.3c0,0-0.3,0-0.3,0c-0.7-0.6-1.7-1-2.5-1.5c-0.3-0.2-0.5-0.4-0.8-0.6
	c-0.4-0.2-0.7-0.6-1.1-0.8c-0.2-0.2-0.4-0.4-0.6-0.6c-0.1-0.1-0.1-0.2-0.2-0.2c-0.3-0.1-0.6-0.2-0.5-0.4c0.1-0.2,0.3-0.5,0.7-0.6
	c0.3-0.1,0.6-0.3,0.8-0.5c0.2-0.1,0.1-0.2,0.4-0.3c0.2,0,0.3-0.2,0.5-0.3c0.2-0.1,0.4-0.2,0.5-0.3c0.8-0.4,1.6-0.9,2.4-1.3
	c0.4-0.3,0.9-0.5,1.3-0.8c0.4-0.3,0.9-0.5,1.3-0.7c0.3-0.2,0.7-0.2,0.9,0c0.3,0.3,0.9,0.5,0.9,0.9c0,0,0,0.1,0.1,0.1
	c0.6,0.1,0.6,0.5,1.1,0.6c0.1,0,0.2,0.1,0.3,0.2c0.3,0.4,0.9,0.6,1.2,1c0.2,0.2,0.7,0.4,0.8,0.6c0,0,0.1,0.1,0.1,0.1
	c0.5,0,0.4,0.4,0.8,0.5c0.2,0.1,0.3,0.3,0.1,0.5c-0.1,0.1-0.2,0.2-0.4,0.2c-0.5,0.3-0.9,0.6-1.5,0.8c-0.5,0.3-1.1,0.5-1.6,0.8
	c-0.1,0.1-0.3,0.1-0.3,0.2c-0.2,0.3-0.5,0.4-1,0.4c-0.1,0-0.4,0.1-0.5,0.2c-0.2,0.2-0.5,0.3-0.8,0.4
	C95.5,107.5,94.6,107.8,93.9,108.3z M97.5,106.6C97.5,106.6,97.4,106.6,97.5,106.6c-0.1,0-0.1,0-0.1,0L97.5,106.6
	C97.5,106.6,97.5,106.6,97.5,106.6z M100.2,113.4c-0.4,0.1-0.6,0.1-0.8-0.1c-0.2-0.2-0.3-0.3-0.5-0.5c-0.5-0.6-1.1-1.1-1.9-1.6
	c-0.5-0.3-0.8-0.6-1.2-1c-0.2-0.2-0.3-0.4-0.5-0.6c-0.4-0.4-0.4-0.5,0.3-0.8c0.4-0.2,0.9-0.4,1.2-0.7c0.2-0.2,0.7-0.2,0.8-0.4
	c0.1-0.2,0.5-0.3,0.8-0.4c0.6-0.3,1.2-0.7,1.8-1c0.4-0.2,0.9-0.4,1.3-0.7c0.4-0.2,0.7-0.4,1.1-0.6c0.1,0,0.2-0.1,0.2-0.1
	c0-0.3,0.4-0.2,0.6-0.2c0,0,0.1,0,0.1,0.1c0.2,0.3,0.4,0.5,0.9,0.6c0.1,0,0.1,0.1,0.1,0.1c0.2,0.2,0.3,0.4,0.5,0.5
	c0.3,0.1,0.2,0.4,0.6,0.5c0.1,0,0.1,0.1,0.1,0.1c0.1,0.3,0.4,0.4,0.7,0.5c0.2,0.1,0.5,0.2,0.4,0.4c0.4,0,0.4,0.3,0.6,0.5
	c0.2,0.1,0.4,0.3,0.6,0.4c0.4,0.3,0.4,0.3-0.2,0.5c0,0-0.1,0-0.1,0.1c-0.2,0.2-0.3,0.5-0.8,0.5c-0.2,0.3-0.6,0.5-1,0.7
	c-0.7,0.5-1.5,0.9-2.3,1.3c-0.8,0.4-1.7,0.9-2.4,1.4C101,113.1,100.6,113.3,100.2,113.4z M111.9,112.3c0.3,0.2,0.4,0.5,0.7,0.8
	c0.4,0.3,0.6,0.7,1.1,1c0.2,0.1,0.4,0.4,0.5,0.6c0.1,0.2-0.1,0.5-0.4,0.6c-0.8,0.3-1.4,0.9-2.3,1.2c-0.1,0-0.1,0.1-0.2,0.1
	c-0.5,0.3-1,0.7-1.6,0.9c-0.7,0.4-1.4,0.8-2.1,1.2c-0.5,0.3-0.9,0.5-1.4,0.8c-0.3,0.1-0.7,0.2-1,0.3c0.2-0.7-0.1-1.3-0.8-1.7
	c-0.4-0.2-0.7-0.5-0.9-0.8c-0.2-0.3-0.6-0.5-0.9-0.8c-0.2-0.3-0.4-0.6-0.7-0.8c-0.3-0.2-0.4-0.5-0.7-0.8c-0.1-0.1,0-0.2,0.2-0.2
	c0.5,0,0.5-0.4,0.9-0.5c0.4-0.1,0.7-0.3,1-0.5c0.3-0.2,0.7-0.2,0.9-0.4c0.2-0.2,0.5-0.4,0.9-0.5c0.2-0.1,0.3-0.2,0.5-0.3
	c0.5-0.3,1-0.6,1.5-0.8c0.5-0.2,0.8-0.5,1.3-0.8c0.2-0.1,0.3-0.2,0.4-0.3c0.1-0.1,0.4-0.2,0.5-0.2c0.2,0.1,0.5,0.2,0.4,0.3
	c0,0.2,0.2,0.3,0.3,0.4c0.1,0.1,0.1,0.3,0.4,0.3c0.1,0,0.1,0.2,0.2,0.3c0,0,0,0.1,0.1,0.1C111.5,111.7,111.5,112.1,111.9,112.3z
	 M116.2,104.3c-0.6,0.4-1.2,0.8-1.9,1.2c-0.2,0.1-0.3,0.3-0.5,0.3c-0.4,0-0.4,0.2-0.6,0.3c-0.5,0.2-0.6,0.5-1.1,0.6
	c-0.2,0.3-0.7,0.4-1,0.6c-0.2,0.1-0.6,0.2-0.7,0.4c-0.1,0-0.2,0-0.2-0.1c0,0,0-0.1,0-0.2c-0.2-0.1-0.6-0.1-0.5-0.4
	c-0.2-0.1-0.4-0.2-0.4-0.4c0-0.1-0.1-0.2-0.2-0.2c-0.7-0.3-1-0.8-1.4-1.2c0,0,0-0.1-0.1-0.1c-0.2-0.1-0.5-0.2-0.6-0.3
	c0-0.2-0.2-0.3-0.3-0.4c-0.1-0.1-0.4-0.2-0.5-0.3c-0.2-0.2-0.4-0.4-0.8-0.5c0,0,0-0.1,0-0.2c0.3-0.2,0.5-0.4,0.8-0.6
	c0.3-0.2,0.6-0.2,0.8-0.4c0.2-0.2,0.4-0.3,0.7-0.4c0.2-0.3,0.6-0.4,1-0.4c0.1,0,0.2-0.1,0.3-0.2c0.2-0.2,0.4-0.3,0.7-0.5
	c0.5-0.2,1-0.5,1.5-0.8c0.1-0.1,0.2-0.1,0.3-0.2c0.2-0.1,0.4-0.1,0.5,0c0.4,0.4,1,0.7,1.3,1.1c0.1,0.1,0.2,0.2,0.4,0.3
	c0.7,0.5,1.1,1.2,1.9,1.7c0.2,0.1,0,0.3,0.4,0.4c0.3,0,0.1,0.3,0.3,0.4C116.4,104.1,116.3,104.2,116.2,104.3z M125.7,99.1
	c-0.3,0.1-0.6,0.2-0.8,0.4c-0.5,0.4-1.2,0.6-1.7,0.9c-0.4,0.3-0.8,0.5-1.3,0.7c-0.3,0.2-0.6,0.4-1,0.5c-0.6,0.2-1,0.6-1.5,0.8
	c-0.3,0.2-0.6,0.4-1,0.6c-0.3,0.1-0.5,0.1-0.6,0c-0.1-0.2-0.4-0.4-0.6-0.5c-0.3-0.1-0.2-0.4-0.7-0.5c0,0,0-0.1-0.1-0.1
	c-0.3-0.3-0.3-0.7-0.9-1c-0.1,0-0.2-0.1-0.2-0.2c-0.2-0.3-0.5-0.6-0.9-0.8c-0.4-0.2-0.5-0.6-0.8-0.8c-0.1-0.1,0-0.3,0.3-0.4
	c1-0.4,1.9-0.9,2.7-1.3c0.7-0.4,1.5-0.7,2.2-1.1c0.4-0.2,0.8-0.3,1.1-0.5c0.2-0.2,0.5-0.2,0.8-0.3c0.2-0.1,0.4-0.1,0.7,0
	c0.2,0.1,0.3,0.1,0.5,0.3c0.2,0.3,0.5,0.6,0.9,0.8c0.1,0.3,0.6,0.5,0.8,0.8c0.4,0.4,0.9,0.7,1.4,1.1c0.2,0.1,0.3,0.3,0.4,0.4
	c0.1,0.1,0.2,0.2,0.3,0.2C125.8,98.9,125.8,99,125.7,99.1z M133.1,95.3c-0.4,0.2-0.7,0.4-1.1,0.6c-0.6,0.3-1.2,0.6-1.9,0.9
	c-0.1,0-0.1,0.1-0.2,0.1c0,0,0,0.1-0.1,0.1c-0.5,0.1-0.8,0.3-1.2,0.5c-0.4,0.3-1.1,0.4-1.5,0.7c-0.1,0.1-0.2,0.1-0.3,0
	c-0.4-0.4-0.9-0.8-1.4-1.2c-0.1-0.1-0.2-0.3-0.5-0.3c-0.2-0.1-0.3-0.2-0.4-0.4c-0.1-0.1-0.3-0.3-0.4-0.4c-0.1-0.1-0.2-0.1-0.3-0.1
	c-0.1,0-0.2-0.1-0.2-0.2c0-0.2-0.2-0.3-0.4-0.4c-0.3-0.2-0.6-0.4-0.9-0.7c-0.1-0.1-0.1-0.2,0.1-0.2c0.5-0.2,0.8-0.4,1.2-0.7
	c0.4-0.3,0.8-0.6,1.4-0.8c0.3-0.1,0.3-0.3,0.7-0.4c0.3,0,0.6-0.2,0.7-0.4c0,0,0.1-0.1,0.2-0.1c0.5-0.1,0.8-0.3,1.2-0.5
	c0.2-0.1,0.3-0.2,0.5-0.3c0.1,0,0.1,0,0.2-0.1c0.1,0.1,0.1,0.1,0.2,0.1c0.1,0.1,0,0.3,0.5,0.3c0,0,0.1,0.1,0.1,0.1
	c0.1,0.1,0.2,0.3,0.3,0.3c0.4,0.1,0.5,0.3,0.7,0.5c0.2,0.2,0.5,0.4,0.7,0.6c0.3,0.3,0.7,0.5,0.8,0.8c0.1,0.1,0.3,0.3,0.5,0.4
	c0.2,0.1,0.4,0.3,0.6,0.4C133.4,95,133.4,95.2,133.1,95.3z M139.9,92c-0.3,0-0.4,0.2-0.6,0.2c-0.2,0-0.4,0.2-0.6,0.3
	c-0.3,0.1-0.5,0.2-0.8,0.3c-0.5,0.2-1,0.4-1.4,0.7c-0.2,0.1-0.5,0.2-0.7,0.3c-0.2,0.1-0.3,0.2-0.5,0.2c-0.2,0.1-0.1,0.3-0.4,0.2
	c-0.2,0-0.4-0.2-0.4-0.3c0-0.3-0.3-0.4-0.7-0.5c-0.1,0-0.2,0-0.2-0.1c-0.1-0.3-0.6-0.4-0.8-0.6c-0.5-0.4-1.2-0.8-1.7-1.3
	c-0.3-0.3-0.6-0.5-0.9-0.7c-0.1-0.1-0.1-0.1-0.1-0.2c0.1,0,0.1-0.1,0.2-0.1c0.4-0.2,0.6-0.5,1-0.6c0.4-0.2,0.7-0.4,1.2-0.6
	c0.3-0.1,0.4-0.2,0.6-0.3c0.3-0.1,0.5-0.2,0.8-0.4c0.2-0.1,0.2-0.3,0.5-0.3c0.2,0,0.4-0.1,0.5-0.2c0.2-0.1,0.3-0.1,0.4,0
	c0.2,0.1,0.4,0.1,0.3,0.2c0.4,0.2,0.6,0.5,1,0.7c0.2,0.1,0.3,0.2,0.4,0.3c0.1,0.1,0.2,0.2,0.3,0.3c0.2,0.1,0.3,0.1,0.3,0.2
	c0.3,0.1,0.4,0.3,0.5,0.4c0.2,0.2,0.4,0.3,0.5,0.5c0.1,0.1,0.2,0.2,0.3,0.3c0.3,0.2,0.6,0.5,0.9,0.7C140.1,91.8,140.1,92,139.9,92z
	 M140.2,85.7C140.2,85.7,140.2,85.7,140.2,85.7c0.1,0,0.2,0,0.2,0c0.4,0.3,0.8,0.5,1.2,0.8c0.4,0.3,0.9,0.5,1.2,0.8
	c0.1,0.1,0.3,0.2,0.5,0.3c0.2,0.1,0.3,0.2,0.5,0.4c0.2,0.1,0.4,0.2,0.6,0.4c0.2,0.1,0.3,0.3,0.5,0.4c0.3,0.1,0.3,0.2,0.4,0.3
	c0.1,0.1,0.1,0.2,0.3,0.2c0.2,0,0.1,0.1,0.1,0.2c0,0-0.1,0-0.2,0.1c0,0-0.1,0-0.1,0c-0.1,0.2-0.3,0.2-0.5,0.3
	c-0.2,0.1-0.5,0.1-0.6,0.2c-0.2,0.2-0.4,0.4-0.8,0.3c-0.1,0.2-0.4,0.2-0.5,0.4c-0.1,0.1-0.4,0.2-0.6,0.2c-0.1,0-0.2,0-0.2,0.1
	c0,0.2-0.4,0-0.5,0.2c-0.1,0-0.1,0-0.2-0.1c-0.1-0.1-0.1-0.2-0.3-0.2c-0.1-0.3-0.6-0.4-0.6-0.6c0,0-0.1-0.1-0.2-0.2
	c-0.2-0.2-0.5-0.4-0.7-0.6c-0.2-0.2-0.4-0.4-0.8-0.6c-0.3-0.1-0.4-0.3-0.7-0.4c-0.3-0.1-0.3-0.3-0.6-0.4c-0.2-0.1-0.4-0.2-0.4-0.2
	c0-0.1-0.2-0.2-0.3-0.3c-0.1-0.1-0.1-0.2,0.1-0.2c0.1,0,0.2,0,0.2-0.1c0.2-0.1,0.3-0.2,0.5-0.3c0.5-0.1,0.9-0.4,1.4-0.5
	c0,0,0.1,0,0.1,0c0-0.2,0.5-0.3,0.7-0.4C140,86,140.2,85.9,140.2,85.7z M136.9,83.4c0.1,0.1,0.3,0.2,0.4,0.3
	c0.1,0.1,0.1,0.2,0.4,0.3c0.1,0,0.2,0.1,0.2,0.2c0,0.1,0.1,0.2,0.3,0.1c0,0,0.1,0,0.1,0c0.2,0.3,0.8,0.4,0.9,0.7
	c0,0.1,0.3,0.1,0.4,0.2c0,0,0.4,0.1,0,0.1c-0.3,0-0.5,0.1-0.6,0.2c-0.1,0.1-0.2,0.2-0.3,0.2c-0.3,0-0.3,0.1-0.4,0.2
	c-0.1,0.1-0.4,0.2-0.6,0.2c-0.3,0.1-0.6,0.2-0.8,0.3c-0.3,0.1-0.5,0.2-0.8,0.4c-0.2,0.1-0.5,0.1-0.7-0.1c-0.5-0.4-1-0.7-1.6-1.1
	c-0.1,0-0.2-0.1-0.2-0.1c0.1-0.1-0.1-0.2-0.3-0.3c-0.5-0.2-0.7-0.5-1.1-0.8c-0.3-0.3-0.8-0.5-1.1-0.7c-0.3,0-0.3-0.3-0.6-0.4
	c-0.2-0.2-0.6-0.4-0.9-0.6c0,0,0-0.1,0-0.1c0.4-0.1,0.7-0.3,1.1-0.4c0,0,0.1,0,0.1,0c0.1,0,0.1-0.1,0.1-0.1c0.4,0,0.6-0.2,1-0.3
	c0.3-0.1,0.6-0.2,0.7-0.3c0,0,0,0,0-0.1c0.2-0.1,0.3-0.2,0.3-0.4c0,0,0,0,0-0.1c0.1,0,0.1,0,0.1,0.1c0.3,0.3,0.7,0.6,1.1,0.8
	c0.3,0.2,0.5,0.3,0.8,0.5C135.6,82.5,136.6,83.1,136.9,83.4z"/>
<ellipse transform="matrix(0.2841 -0.9588 0.9588 0.2841 29.4982 150.6297)" fill="#FFFFFF" cx="115.6" cy="55.6" rx="12" ry="20"/>
<g>
	<path fill="#00A699" d="M97.5,49.4c-0.1,1.4,0.1,2.8,0.5,3.9c2.3,5.9,15.3,15.1,29,11.5c3.5-0.9,6-2.7,7.4-4.9
		c-0.1,4.2-3.1,7.9-8.9,9.4c-13.7,3.6-26.6-5.6-29-11.5C95.7,55.6,95.9,52.3,97.5,49.4z"/>
</g>
<path d="M119.7,45.6c0.1,0,0.1,0,0.2,0.1c0,0,0,0.1,0,0.1C119.8,45.7,119.7,45.7,119.7,45.6C119.6,45.6,119.7,45.6,119.7,45.6z"/>
<path d="M95.7,52.3c0-0.2,0.3-0.4,0.4-0.5c0.2-0.1,0.5,0.1,0.4,0.3c0,0.2,0,0.2,0.1,0.3c0.1,0.1,0,0.3,0.1,0.4
	c0.2,0.4,0.1,0.8,0,1.2c-0.1,0.4,0,0.8,0,1.2c0,0.5,0.2,1,0.4,1.5c0.1,0.2,0.2,0.4,0.3,0.6c0.2,0.2,0.4,0.5,0.7,0.8
	c0.1,0.1,0.1,0.3,0.2,0.4c0.1,0.1,0.2,0.2,0.3,0.3c0.2,0.2,0.4,0.4,0.6,0.6c0.2,0.1,0.2,0.4,0.5,0.3c0,0.3,0.3,0.3,0.4,0.5
	c0.1,0.2,0.3,0.2,0.5,0.4c0.2,0.2,0.3,0.3,0.5,0.5c0.9,0.8,1.8,1.6,2.7,2.3c0.3,0.2,0.6,0.5,0.9,0.7c0.6,0.5,1.3,0.9,2.1,1.3
	c0.7,0.4,1.4,0.7,2.1,1c0.6,0.3,1.3,0.5,1.9,0.9c0.1,0.1,0.2,0.1,0.4,0.1c1.9,0.4,3.7,0.8,5.6,1.2c1,0,1.9,0.3,2.9,0.5
	c0.2,0,0.4,0,0.7,0c0.1,0,0.2,0,0.3,0c0.8,0.2,1.5,0.1,2.3,0c0.3-0.1,0.6-0.1,0.8-0.2c0.5-0.1,1.1-0.2,1.7-0.3
	c0.3,0,0.5-0.1,0.8-0.2c0.3-0.1,0.5-0.2,0.8-0.3c0.4-0.2,0.8-0.4,1.3-0.5c0.5-0.1,0.9-0.4,1.3-0.6c0.4-0.2,0.9-0.4,1.3-0.6
	c0.2-0.1,0.4-0.3,0.6-0.4c0,0,0.1-0.1,0.1-0.1c-0.1-0.3,0.2-0.4,0.4-0.5c0.3-0.2,0.5-0.5,0.7-0.8c0.2-0.3,0.3-0.6,0.4-0.9
	c0.2-0.3,0.1-0.7,0.3-1c0.3-0.6,0.3-1.2,0.5-1.8c0-0.2,0.1-0.3,0-0.5c0-0.1,0-0.3,0-0.3c0.1-0.1,0-0.2,0-0.3c0-0.3,0.2-0.5,0-0.8
	c0,0,0-0.2,0-0.3c0-0.1,0-0.2,0-0.3c0-0.2-0.1-0.5-0.1-0.7c0-0.2-0.1-0.4-0.1-0.6c0,0,0-0.1,0-0.1c-0.2-0.4-0.3-0.7-0.4-1.1
	c0-0.2-0.2-0.3-0.3-0.4c0,0-0.1-0.1-0.1-0.1c0-0.1,0-0.4,0-0.5c-0.3-0.4-0.5-0.7-0.7-1.1c-0.2-0.4-0.6-0.7-0.8-1
	c-0.2-0.3-0.6-0.6-0.8-0.9c-0.3-0.3-0.7-0.5-1-0.8c-0.1-0.1-0.3-0.2-0.4-0.3c-0.4-0.3-0.8-0.7-1.1-1c-0.2-0.1-0.4-0.1-0.5-0.3
	c-0.4-0.2-0.6-0.6-1.1-0.7c-0.1-0.2-0.3-0.3-0.6-0.3c-0.1,0-0.1-0.3-0.3-0.3c-0.2,0-0.3-0.1-0.5-0.2c-0.1-0.1-0.3-0.1-0.4-0.2
	c-0.2-0.4-0.7-0.3-1-0.6c-0.5-0.1-1-0.2-1.5-0.3c-0.1,0-0.1,0-0.2,0c-0.2-0.1-0.4-0.1-0.5-0.2c-0.1,0-0.2,0-0.2,0
	c0-0.1,0.1-0.2,0-0.2c0-0.1-0.1-0.1-0.2-0.1c-0.3,0-0.5-0.1-0.7-0.3c-0.2-0.2-0.5-0.2-0.7-0.2c-0.1,0-0.1,0-0.2,0
	c-0.1,0.1-0.2,0.1-0.4,0c-0.1-0.1-0.4-0.1-0.6-0.1c-0.4-0.1-0.9-0.2-1.3-0.5c-0.1-0.1-0.4-0.1-0.5-0.1c-0.2,0.1-0.3,0-0.5,0
	c-0.2,0-0.4,0-0.4,0c-0.1-0.1-0.2-0.2-0.3-0.3c-0.2-0.1-0.3,0-0.5-0.1c-0.1-0.1-0.4-0.1-0.6-0.1c-0.2-0.1-0.5-0.1-0.7-0.2
	c-0.1,0-0.2-0.1-0.3,0c-0.3,0.1-0.5,0.1-0.7,0c-0.2-0.1-0.5,0-0.7,0c-0.1,0-0.2,0-0.2,0c-0.4-0.3-0.9-0.2-1.3-0.2
	c-0.4,0-0.7,0-1.1,0c-0.1,0-0.3,0-0.5,0c-0.1,0-0.2,0-0.3,0c-0.2,0-0.4-0.2-0.5,0.1c-0.2-0.1-0.4,0.1-0.6,0.1c-0.4,0-0.7,0.2-1,0.2
	c-0.6,0.1-1.3,0.4-1.9,0.7c-0.3,0.1-0.6,0.2-0.9,0.4c-0.1,0-0.2,0.1-0.2,0c-0.1,0-0.2,0-0.3,0.1c-0.2,0.1-0.3,0.3-0.5,0.3
	c-0.2,0.1-0.4,0.2-0.5,0.3c-0.4,0.2-0.6,0.6-1.1,0.5c0,0-0.1,0-0.1,0c-0.3,0.4-0.8,0.6-1.2,1c-0.1,0.1-0.2,0.1-0.2,0.2
	c-0.1,0.2-0.3,0.3-0.5,0.4c-0.3,0.1-0.4,0.4-0.6,0.7c-0.1,0.3-0.5,0.4-0.6,0.7c-0.3-0.2-0.3,0.2-0.5,0.3c-0.2,0.1-0.3,0.2-0.5,0.3
	c-0.1,0.1-0.3,0-0.3-0.1c0.1-0.2,0-0.4,0.2-0.6c0.2-0.2,0.3-0.5,0.4-0.8c0.1-0.3,0.3-0.5,0.5-0.7c0.2-0.1,0.2-0.4,0.4-0.5
	c0.2-0.1,0.4-0.3,0.5-0.4c0.1-0.2,0.3-0.4,0.5-0.7c0,0-0.1-0.2,0.1-0.1c0.2,0,0.3,0,0.4-0.1c0.2-0.2,0.5-0.4,0.7-0.6
	c0.2-0.2,0.5-0.3,0.7-0.4c0.2-0.1,0.4-0.3,0.5-0.4c0.2-0.2,0.4-0.3,0.5-0.3c0.2,0,0.3-0.2,0.5-0.2c0.1-0.3,0.4-0.3,0.6-0.3
	c0.2,0,0.3-0.2,0.5-0.2c0.4-0.2,0.9-0.3,1.3-0.5c0.2-0.1,0.4-0.1,0.5-0.2c0.2-0.2,0.4-0.2,0.6-0.3c0.2-0.1,0.4-0.1,0.6-0.1
	c0.2,0,0.3-0.1,0.4-0.1c0.6-0.2,1.2-0.2,1.9-0.1c0,0,0.1,0,0.2,0c0.3-0.2,0.7,0,1,0c0.2,0,0.4,0,0.6,0c0.6,0,1.2,0,1.8,0
	c0.1,0,0.2,0,0.2,0c0.1,0.1,0.1,0.1,0.2,0c0,0,0.2,0,0.2,0c0.3,0.1,0.6,0.1,0.8,0.2c0.2,0,0.5,0,0.7,0.1c0.6,0.1,1.1,0.4,1.8,0.5
	c0.2,0.2,0.5,0.2,0.8,0.3c0.3,0.1,0.5,0.2,0.8,0.3c0.3,0.1,0.6,0.1,0.8,0.2c0.2,0,0.4,0.1,0.6,0c0.2,0.2,0.5,0.1,0.7,0.3
	c0.5,0.3,1,0.4,1.6,0.6c0.3,0.1,0.7,0.2,1,0.4c0.3,0.1,0.6,0.3,0.9,0.4c0.1,0,0.3,0.1,0.4,0.1c0.2,0.1,0.4,0.1,0.6,0.3
	c0.1,0.2,0.4,0.2,0.6,0.3c0.3,0.1,0.4,0.2,0.7,0.4c0.2,0.1,0.4,0.3,0.7,0.4c0.4,0.1,0.6,0.4,0.9,0.6c0.3,0.1,0.6,0.4,0.8,0.6l0,0
	c0.1,0.1,0.3,0.2,0.5,0.3c0.4,0.2,0.8,0.5,1.2,0.8c0.1,0,0.1,0.1,0.1,0.1c0.3,0.3,0.6,0.6,1.1,0.8c0.1,0,0.2,0.2,0.3,0.3
	c0.2,0.2,0.5,0.3,0.7,0.5c0.4,0.4,0.7,0.8,1.1,1.2c0.4,0.4,0.6,0.8,0.9,1.3c0.3,0.5,0.6,0.9,0.9,1.4c0.3,0.5,0.5,0.9,0.5,1.5
	c0,0.1,0.1,0.2,0.1,0.3c0,0.1-0.1,0.3,0.1,0.4c0.1,0-0.2,0.2,0.1,0.2c0.1,0.3,0.1,0.5,0.2,0.8c-0.2,0.2,0.1,0.4,0,0.7
	c-0.1,0.2,0,0.4,0,0.6c-0.3,0.1,0.2,0.1,0,0.2c-0.1,0.1,0.1,0.2,0,0.3c-0.1,0.1,0.1,0.2,0.1,0.3c0,0.2,0,0.3-0.1,0.5
	c0,0.2,0.1,0.2,0.2,0.2c0.1,0,0.2,1.5-0.4,1.3c-0.2-0.1-0.1,0.1-0.2,0.2c-0.2,0.4-0.2,0.8-0.3,1.2c0,0,0.1,0.1,0.1,0.2
	c0,0.1-0.1,0.1-0.1,0.2c0,0.2,0.2,0.2,0.1,0.4c0.1,0,0.2,1.2-0.3,1.3c-0.1,0-0.3-0.1-0.4-0.1c-0.2,0-0.3,0-0.5,0.2
	c-0.1,0.3-0.4,0.5-0.6,0.7c-0.5,0.4-1,0.7-1.5,1.1c-0.3,0-0.5,0.3-0.7,0.5c-0.2,0.1-0.4,0.3-0.6,0.4c-0.2,0.1-0.4,0.2-0.7,0.4
	c-0.2,0.1-0.4,0.3-0.7,0.4c-0.6,0.2-1.1,0.5-1.6,0.6c-0.3,0.1-0.6,0.1-0.8,0.3c-0.3,0.2-0.6,0.1-0.8,0.4c-0.3,0-0.5,0.1-0.8,0.1
	c-0.2,0-0.4,0.3-0.7,0.1c-0.1,0.2-0.4,0.1-0.6,0.2c-0.2,0.1-0.5,0.1-0.7,0.1c-0.1,0-0.2-0.1-0.3,0c-0.1,0-0.2,0.1-0.2,0.1
	c-0.2,0.1-0.4,0.2-0.6,0.1c-0.1,0-0.1,0-0.2,0c-0.1,0.1-0.3,0.1-0.4,0c-0.5-0.1-0.9-0.2-1.4-0.1c-0.1,0-0.1,0-0.2,0
	c-0.3,0-0.7-0.1-1-0.1c-0.2,0-0.4,0-0.6,0c-0.3-0.1-0.6-0.1-0.9-0.2c-1-0.2-2-0.3-3-0.5c-0.2-0.1-0.4-0.1-0.6-0.2
	c-0.2,0-0.4-0.1-0.7-0.1c-0.2,0-0.4-0.1-0.6-0.1c-0.2,0-0.5-0.1-0.7-0.1c-0.5-0.2-0.8,0-1.2,0.4c-0.3,0.3-1.3-0.3-1.2-0.6
	c0,0,0-0.1,0-0.1c-0.1,0-0.1-0.1-0.2-0.1c-0.2,0.1-0.3,0.2-0.5,0.3c-0.4,0.4-1.2-0.9-0.8-1.1c0.1-0.1,0-0.1,0-0.1
	c-0.2-0.1-0.4-0.2-0.6-0.3c-0.2-0.1-0.5-0.1-0.7-0.3c-0.4-0.4-1-0.5-1.4-0.8c-0.1,0-0.1-0.1-0.2-0.1c-0.1,0-0.3,0-0.3-0.2
	c0,0,0-0.1-0.1-0.1c-0.3,0-0.4-0.3-0.7-0.4c-0.2-0.1-0.3-0.2-0.5-0.3c-0.2,0-0.2-0.3-0.4-0.4c-0.3-0.2-0.6-0.4-0.8-0.7
	c-0.1-0.2-0.3-0.3-0.5-0.4c-0.3-0.1-0.5-0.4-0.8-0.5c-0.3-0.2-0.5-0.4-0.7-0.6c-0.2-0.2-0.3-0.3-0.5-0.5c-0.3-0.2-0.5-0.5-0.7-0.7
	c-0.2-0.3-0.5-0.5-0.7-0.8c0-0.1-0.1-0.1-0.2-0.1c-0.8-0.6-1.1-1-1.6-1.9c-0.1-0.1-0.2-0.3-0.3-0.4l0,0c-0.2-0.2-0.4-0.4-0.3-0.7
	c0,0-0.1-0.1-0.1-0.2c-0.3-0.4-0.4-0.6-0.6-1.2c-0.1-0.5-0.2-1-0.3-1.5l0,0c-0.1-0.2-0.1-0.4,0-0.6c0,0,0-0.1,0-0.1
	c-0.2-0.3-0.1-0.6,0.1-0.9c0,0,0.1-0.1,0-0.1C95.3,53,95.7,52.7,95.7,52.3z"/>
<path d="M97.9,55.1c-0.1-0.1-0.2-0.2-0.1-0.2c0.2-0.1,0.1-0.3,0-0.4c-0.2-0.3,0.1-0.4,0.2-0.6c0,0,0.2-0.1,0.3-0.1
	c0,0,0.1,0.1,0.1,0.2c0.1,0.2,0.2,0.4,0.3,0.6c0.2,0.3,0.4,0.6,0.4,0.9c0.1,0.4,0.3,0.7,0.6,1c0.1,0.2,0.3,0.4,0.4,0.5
	c0.2-0.1,0.2,0.1,0.3,0.2c0.1,0.1,0.2,0.2,0.2,0.3c0.1,0.2,0.3,0.5,0.5,0.6c0.2,0.1,0.3,0.3,0.4,0.4c0.1,0.1,0.2,0.3,0.4,0.4
	c0.3,0.1,0.1,0.3,0.3,0.4c0,0,0.1,0,0.1,0c0.4,0.4,0.8,0.8,1.3,1c0,0.2,0.3,0.2,0.3,0.3c0.1,0.1,0.2,0.2,0.4,0.3
	c0.1,0.1,0.3,0.1,0.4,0.2c0.1,0.2,0.4,0.2,0.5,0.3c0.1,0.2,0.4,0.1,0.5,0.3c0.1,0.2,0.4,0.1,0.5,0.2c0.1,0,0.1,0.1,0.2,0.1
	c0.1,0,0.2,0.1,0.3,0.1c0.6,0.2,1.1,0.4,1.6,0.6c0.3,0.1,0.5,0.2,0.8,0.3c0.4,0.1,0.8,0.4,1.2,0.5c0,0,0,0,0.1,0.1
	c0.2,0.1,0.3,0.2,0.5,0.2c1.1,0.2,2.2,0.5,3.4,0.7c0.2,0,0.4,0.1,0.6,0c0.2-0.1,0.4,0,0.7,0.1c0.1,0,0.3,0.1,0.4,0.2
	c0.5,0.1,1,0.1,1.4,0.2c0.7,0.1,1.4,0.1,2,0.1c0.5,0,0.9-0.1,1.4,0c0,0,0.1,0,0.1,0c0.4-0.1,0.8,0,1.3-0.1c0.3-0.1,0.6-0.2,0.9,0
	c0.1,0,0.2,0,0.3,0c0.3,0,0.6,0.1,0.8,0c0.3-0.1,0.7,0.1,0.9-0.1c0.2,0.1,0.5,0,0.7,0c0.2,0,0.4,0,0.6,0.1c0.1-0.2,0.3-0.2,0.5-0.2
	c0.3,0,0.7-0.1,1-0.2c0.5-0.1,0.9-0.4,1.4-0.4c0,0,0,0,0.1-0.1c0.3-0.1,0.5-0.3,0.8-0.4l0,0c0.3-0.1,0.5-0.2,0.8-0.3
	c0.1,0,0.3-0.1,0.3,0.1c0.3,0.2,0.4,0.4,0.3,0.6c-0.1,0.1-0.1,0.2-0.3,0.3c-0.3,0.2-0.7,0.4-0.9,0.6c-0.3,0.3-0.6,0.4-1,0.4
	c0,0-0.1,0-0.1,0c-0.7,0.3-1.5,0.3-2.2,0.5c-0.1,0-0.1,0-0.2,0c-0.3,0-0.6,0.1-0.8,0c-0.2,0.1-0.3,0.1-0.5,0c-0.1,0-0.3,0-0.4,0.1
	c-0.2,0.1-0.5,0.1-0.7,0.1c-0.1,0-0.2-0.1-0.3,0c0,0-0.1,0.1-0.2,0c-0.3-0.1-0.7-0.1-1,0c-0.3,0-0.6,0.1-0.8,0c-0.2,0-0.3,0.1-0.5,0
	c-0.2,0-0.4,0.1-0.5-0.1c0,0-0.1,0-0.1,0c0.1,0.2-0.1,0.1-0.2,0.1c-0.3-0.1-0.7-0.2-1,0c-0.2-0.1-0.4,0.1-0.5,0.1
	c-0.5,0-1-0.1-1.4-0.2c-0.2,0-0.4-0.1-0.6,0c0,0-0.1-0.1-0.1-0.1c0.1-0.1,0-0.2-0.1-0.1c-0.2,0.1-0.4,0.1-0.6,0
	c-0.1,0-0.3-0.1-0.4-0.1c-0.3,0-0.6-0.1-0.9-0.1c-0.1,0-0.2-0.2-0.3-0.1c-0.2,0.1-0.4,0-0.6,0c-0.6,0-1.2-0.1-1.7-0.4
	c-0.1,0-0.1-0.1-0.2-0.1c-0.3,0.1-0.6-0.1-0.9-0.1c-0.1,0-0.2,0-0.3,0c-0.2-0.1-0.4-0.3-0.7-0.2c-0.1-0.1-0.3-0.1-0.4-0.2
	c-0.1,0,0-0.2-0.2-0.2c-0.1,0-0.3,0-0.4-0.1c-0.2-0.2-0.5-0.2-0.7-0.2c-0.3-0.1-0.5-0.2-0.8-0.3c-0.2,0-0.4-0.1-0.6-0.2
	c-0.2-0.1-0.4-0.2-0.6-0.2c-0.1,0-0.2,0-0.3-0.1c-0.1-0.2-0.3-0.2-0.5-0.2l0,0c-0.1,0-0.2,0-0.2-0.1c-0.2-0.3-0.5-0.3-0.7-0.5l0,0
	c-0.1-0.1-0.2-0.2-0.4-0.2c-0.1,0-0.2,0-0.3-0.1c-0.1-0.1-0.2-0.2-0.3-0.3c-0.2-0.2-0.5-0.3-0.7-0.5c-0.2-0.2-0.4-0.3-0.7-0.4
	c-0.3-0.2-0.6-0.6-1-0.8c-0.1-0.1-0.3-0.2-0.4-0.3c0,0-0.1-0.1-0.1-0.1c-0.3-0.2-0.5-0.3-0.8-0.5c-0.3-0.3-0.6-0.6-0.9-0.9
	c-0.1-0.1-0.2-0.3-0.3-0.5c-0.1-0.2-0.3-0.4-0.4-0.7c0,0,0-0.1-0.1-0.1c-0.2-0.1-0.2-0.3-0.4-0.5c-0.1-0.1-0.1-0.2-0.2-0.3
	c-0.2-0.3-0.5-0.6-0.6-1c0-0.1,0-0.1,0-0.2C98.1,55.3,98,55.2,97.9,55.1z"/>
<path d="M108.5,48.4c0.6-0.2,1.3-0.4,2-0.4c0.1,0,0.3,0,0.4,0c0.3-0.1,0.3,0,0.1,0.2c0.1,0.1,0.2,0.2,0.3,0.2c0.6,0.1,0.6,0.6,0.7,1
	c0,0.1,0,0.2,0.1,0.4c0,0.3,0,0.5,0.1,0.8c-0.3,0-0.3,0.4-0.6,0.4c-0.3,0.1-0.1,0.1,0,0.2c0,0-0.1,0.1-0.1,0.1
	c-0.2-0.1-0.4,0-0.4,0.2c-0.1,0.2-0.1,0.4-0.1,0.6c0,0.1,0.1,0.2,0.2,0.2c0.6,0.2,1.2,0.3,1.8,0.5c0.3-0.3,0.2-0.6,0.3-0.9
	c0.1-0.2,0.1-0.4,0.3-0.6c0.3-0.3,0.9-0.4,1.2-0.1c0.1,0.1,0.2,0.2,0.3,0.4c0,0.1,0.1,0.2,0.1,0.2c0,0,0,0.1,0,0.1v0
	c0,0.3-0.1,0.5-0.1,0.8c0,0.1,0,0.2,0,0.3c0,0.1-0.1,0.3-0.1,0.3c-0.2,0-0.2,0.6-0.6,0.3c0,0-0.1,0.1-0.1,0.1c0.1,0.2,0,0.3-0.1,0.3
	c-0.1,0.1-0.2,0.1-0.4,0c-0.2-0.1-0.5-0.2-0.7-0.2c-0.1,0-0.2,0-0.3-0.1c-1-0.1-1.8-0.7-2.5-1.3c-0.1-0.1-0.1-0.1-0.2-0.2
	c-0.1-0.3-0.2-0.6-0.2-0.9c0-0.3,0-0.6,0.4-0.8c0.2-0.1,0.4-0.3,0.1-0.6c-0.2-0.2-0.3-0.6-0.4-0.9c-0.1-0.2-0.1-0.2-0.3,0
	c0,0,0,0.1-0.1,0.1c-0.7,0.3-1.2,0.8-1.8,1.4c-0.1,0.1-0.2,0.4-0.2,0.7c0,0.5,0.3,1.2,0.6,1.5c0.5,0.5,1,1.1,1.6,1.4
	c0.4,0.3,0.9,0.5,1.3,0.7c0.4,0.2,0.9,0.3,1.3,0.5c0.3,0.1,0.6,0.1,0.9,0.1c0,0,0.1,0,0.1,0c0.6,0,0.7,0.2,0.6,0.8
	c-0.1,0.3-0.2,0.5-0.2,0.8c0,0.3-0.3,0.5-0.2,0.8c0,0.1-0.3,0.3-0.3,0.4c-0.1,0.4-0.5,0.5-0.8,0.7c-0.3,0.2-0.4,0-0.7-0.2
	c-0.4-0.4-0.3-0.8-0.2-1.2c0.1-0.3,0.1-0.5,0.2-0.8c0.1-0.4,0-0.5-0.4-0.6c-0.4-0.1-0.8-0.2-1.1-0.6c0,0-0.1-0.1-0.2-0.1
	c-0.4-0.2-0.9-0.3-1.2-0.5c-0.4-0.3-0.9-0.5-1.2-1c-0.2-0.3-0.5-0.4-0.7-0.7c-0.2-0.2-0.4-0.4-0.4-0.7c0-0.2-0.2-0.4-0.3-0.7v0
	c0-0.9,0-1.1,0.3-1.7c0.1-0.2,0.2-0.5,0.4-0.7c0.2-0.1,0.2-0.4,0.4-0.5C108,48.8,108.2,48.5,108.5,48.4z"/>
<path d="M121.4,46.5C121.4,46.4,121.4,46.4,121.4,46.5C121.4,46.4,121.4,46.4,121.4,46.5C121.4,46.5,121.4,46.5,121.4,46.5
	C121.4,46.5,121.4,46.5,121.4,46.5z"/>
<path d="M122.8,56.4c0.2-0.1,0.3-0.3,0.4-0.5c0.2-0.5,0.4-1.1,0.5-1.6c0.1-0.5,0-1-0.4-1.4c-0.3-0.3-0.4-0.6-0.7-1
	c-0.3-0.4-0.5-0.4-0.8-0.1c-0.1,0.1-0.2,0.1-0.3,0.2c0,0-0.1,0.1,0,0.1c0,0.1,0.1,0.3,0.2,0.4c0.7,0.6,0.7,1.4,0.7,2.2
	c0,0.2,0,0.3,0,0.5c-0.1,0.3-0.5,0.3-0.5,0.6c0,0-0.1,0-0.1,0c-0.7,0.1-1.3,0.4-2,0.5c-0.1,0-0.2,0-0.2,0c-0.2-0.2-0.4-0.2-0.6-0.3
	c-0.6-0.3-1.2-0.3-1.8-0.5c-0.1,0-0.1,0-0.2,0c-0.4-0.1-0.5-0.2-0.4-0.7c0-0.1,0.1-0.3,0.1-0.4c0-0.1,0.1-0.2,0.1-0.2
	c-0.1-0.4,0.1-0.8,0.2-1.1c0-0.2,0.2-0.4,0.5-0.4c0.1,0,0.2-0.3,0.4-0.2c0.2,0.1,0.5,0,0.6,0.2c0.1,0.3,0.4,0.6,0.3,1
	c0,0.3-0.1,0.5-0.1,0.8v0c0.3,0.2,0.7,0.3,1,0.5c0.4,0.2,0.8-0.1,1.2,0c0,0,0.1-0.1,0.1-0.1c0-0.3-0.1-0.6,0-0.9
	c0-0.3-0.1-0.5-0.3-0.7c0,0-0.1-0.1-0.1-0.1c-0.3-0.2-0.5-0.4-0.6-0.7c0.3,0,0.3-0.5,0.7-0.5c0.2,0,0.4-0.3,0.6-0.4
	c0.2-0.1,0.3-0.3,0.5-0.5c0.2-0.1,0.4-0.3,0.6-0.4c0.1-0.1,0.4-0.2,0.5,0c0,0,0.1,0,0.1,0c0.5,0,0.9,0.3,1.3,0.7
	c0.1,0.1,0.8,0.9,0.8,1c0.1,0.4,0.3,0.8,0.3,1.2c-0.1,0.6,0,1.2,0,1.8c0,0.2-0.4,0.3-0.2,0.5c-0.3,0.4-0.3,1-0.8,1.3
	c-0.1,0.1-0.2,0.1-0.2,0.2c-0.2,0.4-0.5,0.6-0.9,0.7c-0.2,0-0.3,0.1-0.5,0.2c-0.5,0.4-1.1,0.4-1.6,0.5c-0.3,0-0.6,0.1-1,0
	c-0.3-0.1-0.7-0.1-1-0.1c-0.4,0-0.7-0.3-1-0.5c-0.1-0.1-0.2-0.1-0.3,0.1c0,0.1-0.1,0.2-0.2,0.3c-0.1,0.4-0.2,0.7-0.4,1.1
	c-0.1,0.3-0.3,0.6-0.6,0.8c-0.2,0.1-0.4,0.4-0.7,0.2c-0.3-0.2-0.5-0.5-0.4-0.9c0.1-0.4,0.2-0.8,0.2-1.1c0.1-0.3,0.2-0.6,0.2-0.9
	c0-0.3,0.3-0.5,0.4-0.7c0-0.1,0.1-0.1,0.2-0.1c0.5-0.1,0.9,0,1.3,0.3c0.1,0.1,0.2,0.1,0.3,0.1c0.2-0.1,0.5-0.1,0.7,0
	c0.4,0.1,0.8,0.2,1.2,0.1c0.1,0,0.3,0,0.4-0.1c0.5-0.2,1.1-0.3,1.6-0.4C122.2,56.7,122.5,56.5,122.8,56.4z"/>
<path d="M113.9,44.3C113.9,44.3,114,44.3,113.9,44.3L113.9,44.3L113.9,44.3C113.9,44.3,113.9,44.3,113.9,44.3z"/>
<path d="M111,44C111,44,111,44,111,44C111,44,111,44,111,44C111,44,111,44,111,44C111,44,111,44,111,44z"/>
<ellipse transform="matrix(0.7396 -0.6731 0.6731 0.7396 18.5922 83.6111)" fill="#FFFFFF" cx="117.3" cy="17.8" rx="20" ry="12"/>
<g>
	<path fill="#00A699" d="M127.3,27.8c14.2-13.7,5.3-24.6-1-25.5c-1-0.1-2.2-0.1-3.6,0.1c6.2,1.7,13.8,12.2,0.1,25.4
		c-4.7,4.6-9.5,6.9-13.7,7.6C114.1,36.2,120.8,34.1,127.3,27.8z"/>
</g>
<path d="M109.8,23.3c0-0.1-0.1-0.2-0.1-0.3c-0.3-0.4-0.3-0.7-0.1-1.2c0.1-0.2,0.1-0.3,0.1-0.5c-0.1-0.6,0.2-1.1,0.4-1.6
	c0.1-0.3,0.2-0.6,0.4-0.9c0.2-0.3,0.4-0.5,0.6-0.8c0.2-0.4,0.6-0.4,0.9-0.6c0.2-0.1,0.2-0.1,0.1-0.3c-0.1-0.1-0.1-0.2-0.1-0.3
	c-0.3-0.3-0.5-0.5-0.8-0.8c-0.2-0.3-0.3-0.6-0.4-0.9c0-0.3-0.2-0.5,0.1-0.7c0.3-0.2,0.7-0.2,1,0.1c0.3,0.2,0.6,0.5,0.9,0.8
	c0.2,0.2,0.5,0.4,0.7,0.6c0.3,0.2,0.3,0.5,0.4,0.7c0,0.1,0,0.2,0,0.2c-0.2,0.4-0.4,0.8-0.9,1c-0.2,0-0.2,0.1-0.2,0.3
	c0,0.3-0.2,0.5-0.3,0.7c-0.3,0.3-0.6,0.6-0.7,1c0,0.1-0.1,0.2-0.1,0.3c-0.1,0.6-0.3,1.1-0.5,1.6c-0.1,0.3-0.1,0.6-0.1,0.9
	c0,0.2,0.1,0.5,0.3,0.6c0.4,0.4,0.8,0.8,1.2,1.2c0.4,0.4,0.9,0.5,1.4,0.3c0.4-0.1,0.8-0.1,1.2-0.1c0.4,0,0.6-0.2,0.5-0.7
	c0-0.1,0-0.2,0-0.3c0,0-0.1-0.1-0.1-0.1c-0.1,0-0.3-0.1-0.4,0c-0.8,0.3-1.6,0-2.2-0.5c-0.1-0.1-0.3-0.1-0.4-0.3
	c-0.2-0.2-0.1-0.5-0.3-0.7c0,0,0-0.1,0-0.1c0.2-0.7,0.2-1.3,0.5-2c0-0.1,0.1-0.2,0.1-0.2c0.3-0.1,0.3-0.3,0.5-0.4
	c0.6-0.3,0.9-0.9,1.3-1.4c0,0,0.1-0.1,0.1-0.1c0.3-0.3,0.5-0.4,0.8-0.1c0.1,0.1,0.2,0.2,0.3,0.3c0,0.1,0.1,0.1,0.2,0.2
	c0.4,0.1,0.6,0.4,0.9,0.7c0.2,0.1,0.3,0.3,0.1,0.6c-0.1,0.1,0.2,0.3-0.1,0.4c-0.2,0.1-0.2,0.5-0.5,0.4c-0.3,0-0.7,0-1-0.2
	c-0.2-0.2-0.4-0.3-0.6-0.4c-0.3,0.2-0.6,0.4-0.9,0.6c-0.4,0.3-0.3,0.7-0.5,1.1c0,0,0,0.1,0.1,0.1c0.3,0.1,0.5,0.2,0.8,0.4
	c0.3,0.2,0.5,0.2,0.8,0c0,0,0.1,0,0.1,0c0.3-0.2,0.6-0.2,0.9-0.2c-0.1,0.3,0.3,0.5,0.1,0.9c-0.1,0.2,0.1,0.5,0.1,0.7
	c0.1,0.2,0.1,0.4,0.2,0.7c0,0.2,0.1,0.5,0.1,0.7c0,0.1,0,0.4-0.3,0.4c0,0-0.1,0-0.1,0.1c-0.3,0.4-0.7,0.7-1.2,0.8
	c-0.1,0-1.1,0.3-1.2,0.2c-0.4-0.1-0.8-0.1-1.2-0.3c-0.5-0.3-1-0.6-1.6-0.8c-0.2-0.1-0.1-0.4-0.4-0.4
	C110.4,24.1,109.9,23.8,109.8,23.3z"/>
<path d="M124.2,11.6c0.1,0.2,0.4,0.5,0.4,0.7c0,0.2,0.2,0.4,0.2,0.6c0,0.3,0.1,0.6,0,0.8c-0.1,0.7-0.2,1.4-0.6,1.9l0,0
	c-0.1,0.1-0.1,0.2-0.2,0.3c-0.1,0.2-0.1,0.3-0.2,0c-0.1,0-0.3,0.1-0.3,0.1c-0.3,0.5-0.8,0.2-1.2,0.2c-0.1,0-0.2-0.1-0.3-0.1
	c-0.2-0.1-0.5-0.2-0.7-0.3c0.1-0.3-0.2-0.5-0.1-0.7c0.1-0.3,0-0.2-0.1-0.1c0,0-0.1-0.1,0-0.1c0.1-0.1,0.2-0.3,0.1-0.5
	c-0.1-0.2-0.3-0.3-0.5-0.4c-0.1,0-0.2,0-0.3,0.1c-0.4,0.4-0.9,0.9-1.3,1.4c0.1,0.4,0.4,0.5,0.7,0.7c0.2,0.2,0.4,0.3,0.4,0.5
	c0.1,0.4-0.1,0.9-0.5,1.1c-0.2,0.1-0.3,0.1-0.5,0.1c-0.1,0-0.2,0-0.2,0c0,0-0.1-0.1-0.1-0.1l-0.6-0.5c-0.1-0.1-0.2-0.1-0.2-0.2
	c-0.1-0.1-0.2-0.2-0.2-0.2c0.1-0.2-0.4-0.5,0-0.7c0,0,0-0.1-0.1-0.1c-0.2,0-0.2-0.1-0.2-0.3c0-0.2,0-0.2,0.2-0.3
	c0.2-0.1,0.4-0.4,0.5-0.5c0.1-0.1,0.1-0.1,0.2-0.2c0.6-0.8,1.5-1.2,2.3-1.6c0.1,0,0.2-0.1,0.3,0c0.3,0.1,0.6,0.1,0.9,0.3
	c0.2,0.1,0.5,0.3,0.5,0.7c0,0.2,0.1,0.5,0.5,0.4c0.3-0.1,0.6,0,1,0.1c0.2,0,0.2,0,0.2-0.2c0,0,0-0.1,0-0.1c0.1-0.8-0.2-1.5-0.4-2.2
	c-0.1-0.2-0.3-0.4-0.5-0.5c-0.4-0.2-1.2-0.3-1.6-0.2c-0.7,0.2-1.4,0.4-2,0.7c-0.4,0.3-0.8,0.5-1.2,0.8c-0.4,0.3-0.7,0.6-1.1,0.9
	c-0.2,0.2-0.4,0.5-0.6,0.8c0,0,0,0.1,0,0.1c-0.3,0.5-0.5,0.5-1,0.1c-0.2-0.2-0.4-0.4-0.6-0.5c-0.2-0.1-0.3-0.4-0.6-0.5
	c-0.1,0-0.1-0.4-0.3-0.5c-0.3-0.3-0.3-0.7-0.2-1c0-0.4,0.2-0.4,0.6-0.5c0.5-0.2,0.8,0.1,1.2,0.4c0.2,0.2,0.4,0.4,0.6,0.5
	c0.3,0.2,0.5,0.2,0.7-0.1c0.3-0.3,0.6-0.6,1-0.7c0.1,0,0.1-0.1,0.2-0.1c0.3-0.3,0.7-0.6,1-0.8c0.5-0.2,0.9-0.5,1.4-0.6
	c0.3-0.1,0.6-0.2,0.9-0.3c0.3-0.1,0.6-0.2,0.9,0c0.2,0.1,0.5,0,0.7,0.1l0,0C123.6,10.9,123.8,11,124.2,11.6z"/>
<path d="M100.6,27.9c0-0.2-0.1-0.5-0.1-0.7c0-0.2,0-0.5,0-0.8c0-0.3-0.1-0.5,0-0.8c0.1-0.6,0.1-1.2,0.2-1.7c0.1-0.3,0.1-0.6,0.1-0.8
	c0-0.3,0.2-0.6,0-0.9c0.1-0.2,0.2-0.5,0.3-0.7c0.1-0.2,0-0.5,0.3-0.7c-0.1-0.2,0.1-0.4,0.1-0.6c0-0.2,0.2-0.4,0.2-0.7
	c0-0.1,0.2-0.2,0.2-0.2c0-0.1,0-0.2,0-0.3c0-0.2,0-0.4,0.2-0.6c0,0,0.1-0.1,0.1-0.2c0-0.2,0.1-0.3,0.1-0.4c0.3-0.3,0.6-0.7,0.7-1.2
	c0-0.1,0.1-0.1,0.1-0.2c0.2-0.3,0.4-0.5,0.6-0.9c0.1-0.2,0.2-0.3,0.3-0.5c0.2-0.2,0.4-0.5,0.6-0.7c0.7-0.8,1.2-1.6,1.9-2.4
	c0.1-0.2,0.3-0.3,0.4-0.5c0.1-0.2,0.3-0.3,0.4-0.5c0.1-0.2,0.3-0.3,0.4-0.5c0.1-0.2,0.3-0.4,0.4-0.5c0.4-0.3,0.4-0.8,0.2-1.2
	c-0.1-0.4,0.9-1,1.1-0.8c0,0,0.1,0.1,0.1,0.1c0.1,0,0.2-0.1,0.2-0.1c0-0.2,0-0.4,0-0.6c-0.2-0.5,1.4-0.7,1.4-0.2c0,0.1,0,0.1,0.1,0
	c0.2-0.1,0.4-0.2,0.6-0.4c0.2-0.1,0.3-0.4,0.6-0.4c0.5-0.1,0.8-0.6,1.3-0.8c0.1,0,0.1-0.1,0.2-0.1c0.1-0.1,0.2-0.3,0.3-0.1
	c0,0,0.1,0,0.1,0c0.1-0.3,0.5-0.2,0.7-0.4c0.2-0.1,0.3-0.1,0.5-0.3c0.1-0.2,0.4-0.1,0.5-0.2c0.3-0.2,0.6-0.3,1-0.4
	c0.2,0,0.4-0.1,0.6-0.3c0.2-0.2,0.6-0.3,0.8-0.5c0.3-0.2,0.6-0.3,0.9-0.4c0.2-0.1,0.5-0.1,0.7-0.2c0.3-0.1,0.7-0.3,1-0.3
	c0.4,0,0.7-0.3,1-0.2c0.1,0,0.1,0,0.2-0.1c0.9-0.4,1.4-0.5,2.4-0.5c0.2,0,0.3,0,0.5-0.1l0,0c0.3-0.1,0.5-0.2,0.8,0.1
	c0,0,0.1,0,0.2,0c0.5-0.1,0.7-0.1,1.3,0c0.5,0.1,1,0.3,1.5,0.4c0.2,0,0.4,0.1,0.5,0.3c0,0,0.1,0,0.1,0c0.4,0,0.6,0.2,0.8,0.5
	c0,0,0.1,0.1,0.1,0.1c0.5,0.1,0.6,0.6,0.9,0.8c0.1,0.1,0.2,0.4,0.2,0.6c0,0.2-0.3,0.4-0.5,0.2c-0.1-0.1-0.2-0.1-0.4-0.1
	c-0.1,0-0.3-0.1-0.4-0.1c-0.5,0-0.7-0.3-1.1-0.5c-0.3-0.2-0.7-0.4-1.1-0.6c-0.5-0.2-1-0.3-1.5-0.4c-0.2,0-0.4,0-0.6,0
	c-0.3,0.1-0.7,0.1-1,0.2c-0.1,0.1-0.3-0.1-0.4,0c-0.1,0.1-0.2,0.1-0.4,0.1c-0.3,0-0.5,0.1-0.8,0.3c-0.2,0.1-0.5,0-0.5,0.3
	c-0.2-0.1-0.4,0.2-0.6,0.2c-0.2,0-0.4,0.2-0.6,0.2c-0.2,0.1-0.4,0.1-0.7,0.2c-1.1,0.4-2.3,0.8-3.4,1.3c-0.3,0.2-0.7,0.3-1,0.4
	c-0.8,0.3-1.5,0.7-2.1,1.2c-0.6,0.4-1.3,0.9-1.9,1.3c-0.6,0.4-1.1,0.9-1.7,1.3c-0.1,0.1-0.2,0.2-0.2,0.3c-1.2,1.5-2.5,2.9-3.7,4.4
	c-0.5,0.9-1.2,1.5-1.8,2.3c-0.1,0.2-0.2,0.4-0.3,0.6c0,0.1-0.1,0.2-0.1,0.3c-0.6,0.6-0.8,1.3-1,2c-0.1,0.3-0.2,0.5-0.3,0.8
	c-0.2,0.5-0.3,1.1-0.5,1.6c-0.1,0.3-0.1,0.5-0.2,0.8c0,0.3-0.1,0.5-0.1,0.8c0,0.5,0,0.9-0.1,1.4c-0.1,0.5-0.1,1-0.1,1.5
	c0,0.5,0,1-0.1,1.4c0,0.3,0.1,0.5,0.1,0.8c0,0,0,0.1,0,0.1c0.3,0.1,0.3,0.3,0.3,0.6c0,0.3,0.2,0.7,0.4,1c0.2,0.3,0.4,0.5,0.6,0.8
	c0.2,0.3,0.5,0.5,0.7,0.7c0.4,0.5,0.9,0.8,1.3,1.3c0.1,0.1,0.2,0.2,0.4,0.3c0.1,0,0.3,0.1,0.3,0.2c0,0.2,0.2,0.1,0.3,0.2
	c0.2,0.2,0.4,0.4,0.7,0.3c0.1,0,0.1,0.1,0.2,0.2c0.1,0.1,0.2,0.1,0.3,0.2c0.2,0.1,0.4,0.2,0.7,0.2c0.2,0.1,0.4,0.1,0.6,0.2
	c0,0,0.1,0,0.1,0c0.4,0,0.8,0.1,1.2,0.1c0.2,0,0.4,0,0.5-0.1c0,0,0.1,0,0.1,0c0.1,0.1,0.3,0.2,0.4,0.2c0.4,0,0.9-0.1,1.3-0.1
	c0.4,0,0.8-0.2,1.3-0.2c0.4-0.1,0.8-0.2,1.2-0.3c0.4-0.1,0.8-0.3,1.2-0.5c0.2,0,0.3-0.1,0.5-0.2l0,0c0.5-0.2,1-0.3,1.5-0.5
	c0.2-0.1,0.3-0.3,0.5-0.3c0.3-0.3,0.8-0.2,1.1-0.6c0.2,0,0.4-0.1,0.6-0.3c0.1-0.1,0.3,0.1,0.4-0.1c0.1-0.2,0.2-0.3,0.4-0.3
	c0.2,0,0.3-0.2,0.4-0.3c0.4,0,0.6-0.5,1-0.6c0.3-0.4,0.7-0.8,1-1.2c0-0.1,0.1-0.1,0.1-0.2c0.2-0.1,0.3-0.3,0.4-0.4
	c0.1-0.1,0.1-0.2,0.1-0.2c0.1,0,0.1,0.1,0.2,0.1c0.1,0,0.2,0,0.2-0.1c0.1-0.2,0.4-0.4,0.6-0.4c0.3-0.1,0.4-0.4,0.6-0.5
	c0,0,0.1-0.1,0.1-0.2c0-0.2,0-0.2,0.2-0.3c0.2-0.1,0.3-0.3,0.4-0.4c0.3-0.4,0.6-0.6,1-0.9c0.1-0.1,0.3-0.2,0.3-0.4
	c0-0.2,0.2-0.3,0.3-0.4c0.1-0.1,0.1-0.4,0.2-0.4c0.1,0,0.3,0,0.4-0.2c0.1-0.1,0.1-0.3,0.3-0.4c0.2-0.1,0.3-0.3,0.4-0.4
	c0.2-0.2,0.3-0.4,0.5-0.6c0.1-0.1,0.1-0.1,0.1-0.2c0-0.3,0.1-0.5,0.4-0.6c0.2-0.1,0.2-0.4,0.4-0.6c0-0.1,0-0.2,0.1-0.2
	c0.5-0.2,0.6-0.7,0.8-1.1c0.2-0.3,0.3-0.6,0.5-0.9c0.1-0.1,0.1-0.3,0.2-0.4c0-0.1,0-0.2,0.1-0.2c0.1-0.2,0.3-0.3,0.2-0.5
	c0.2-0.1,0.1-0.4,0.2-0.6c0.2-0.3,0.2-0.7,0.3-1c0.2-0.6,0.3-1.3,0.3-2c0-0.3,0.1-0.6,0.1-0.9c0-0.1,0-0.2,0.1-0.2
	c0.1-0.1,0.1-0.2,0.1-0.3c0-0.2-0.1-0.4-0.1-0.6c0-0.2,0-0.4,0-0.6c0-0.4-0.2-0.8,0-1.2c0,0,0-0.1,0-0.1c-0.2-0.5-0.2-1-0.3-1.5
	c0-0.1,0-0.2-0.1-0.3c-0.1-0.2-0.1-0.4-0.1-0.6c0-0.3-0.1-0.6-0.3-0.8c-0.2-0.3-0.2-0.6-0.3-0.9c0.3-0.2,0-0.4,0-0.6
	c0-0.2,0-0.4-0.1-0.6c0-0.1,0.2-0.3,0.2-0.2c0.1,0.2,0.4,0.2,0.5,0.5c0.1,0.3,0.3,0.5,0.4,0.7l0,0c0.2,0.2,0.3,0.5,0.4,0.8
	c0,0.3,0.3,0.3,0.3,0.6c0,0.2,0,0.5,0.1,0.7c0.1,0.2,0.2,0.5,0.4,0.7c0,0,0.2,0,0.1,0.1c-0.1,0.1-0.1,0.2-0.1,0.4
	c0.1,0.3,0.1,0.6,0.2,0.9c0.1,0.3,0,0.5,0,0.8c0,0.2,0,0.4,0.1,0.6c0.1,0.2,0.1,0.5,0,0.6c-0.1,0.2,0,0.4-0.1,0.5
	c0.2,0.2,0.1,0.5,0,0.7c-0.1,0.2,0,0.4,0,0.5c0,0.5-0.1,0.9-0.2,1.4c0,0.2-0.1,0.4,0,0.6c0.1,0.2,0,0.4,0,0.6c0,0.2-0.1,0.4-0.2,0.6
	c-0.1,0.1-0.1,0.3-0.1,0.5c-0.1,0.6-0.4,1.2-0.8,1.7c0,0-0.1,0.1-0.1,0.1c0,0.4-0.3,0.6-0.5,0.9c-0.1,0.1-0.2,0.3-0.3,0.5
	c-0.3,0.5-0.6,1-0.8,1.6c0,0.1-0.1,0.1-0.1,0.2c-0.2,0-0.1,0.1-0.1,0.2c0,0-0.1,0.2-0.1,0.2c-0.2,0.2-0.4,0.4-0.5,0.7
	c-0.1,0.2-0.2,0.4-0.4,0.6c-0.4,0.5-0.9,0.8-1.3,1.3c-0.3,0.1-0.4,0.4-0.6,0.6c-0.2,0.2-0.4,0.4-0.6,0.6c-0.2,0.2-0.4,0.4-0.6,0.6
	c-0.1,0.1-0.3,0.3-0.3,0.5c-0.3,0.1-0.3,0.3-0.5,0.5c-0.5,0.3-0.9,0.7-1.3,1.1c-0.3,0.2-0.5,0.5-0.8,0.7c-0.2,0.2-0.5,0.4-0.8,0.6
	c-0.1,0.1-0.2,0.2-0.3,0.3c-0.1,0.2-0.3,0.3-0.5,0.4c-0.2,0-0.4,0.2-0.5,0.4c-0.2,0.2-0.4,0.3-0.6,0.4c-0.2,0.1-0.4,0.3-0.6,0.4
	c-0.3,0.3-0.7,0.3-1,0.5c-0.3,0.2-0.6,0.3-1,0.4c-0.2,0.1-0.3,0.2-0.5,0.3c-0.4,0.3-0.8,0.5-1.3,0.7c-0.1,0-0.1,0-0.2,0.1
	c-0.4,0.1-0.8,0.3-1.2,0.6c-0.1,0.1-0.3,0.1-0.4,0.1c-0.3,0.1-0.5,0.3-0.8,0.3l-0.1,0c-0.5,0.1-1,0.2-1.6,0.4
	c-0.5,0.1-1,0.1-1.6,0.2c-0.5,0-1.1,0.1-1.6,0.1c-0.5,0-1,0-1.5-0.3c-0.1,0-0.2,0-0.3,0c-0.1,0-0.2-0.3-0.4-0.1
	c-0.1,0.1-0.1-0.2-0.2,0c-0.3,0-0.5-0.2-0.8-0.2c-0.1-0.3-0.4-0.1-0.6-0.3c-0.1-0.1-0.4-0.2-0.6-0.3c0-0.3-0.2,0.1-0.2-0.1
	c0-0.2-0.2-0.1-0.3-0.2c-0.1-0.1-0.2,0-0.3-0.1c-0.2,0-0.3-0.2-0.4-0.3c-0.1-0.1-0.2-0.1-0.3,0.1c-0.1,0.1-1.4-0.5-1-1
	c0.1-0.2,0-0.1-0.1-0.2c-0.2-0.4-0.6-0.5-0.9-0.8c0,0-0.2,0.1-0.2,0c-0.1,0-0.1-0.2-0.1-0.2c-0.1-0.1-0.3,0.1-0.5-0.1
	c-0.1,0.1-1.1-0.4-0.9-0.9c0-0.1,0.2-0.2,0.2-0.3l0,0c0.1-0.2,0.2-0.3,0-0.5c-0.2-0.3-0.2-0.6-0.3-0.9c-0.1-0.6-0.1-1.2-0.3-1.8
	C100.8,28.5,100.6,28.2,100.6,27.9z"/>
<path d="M124.2,29.3C124.2,29.3,124.2,29.3,124.2,29.3C124.1,29.3,124.1,29.3,124.2,29.3C124.1,29.2,124.2,29.2,124.2,29.3
	C124.2,29.2,124.2,29.3,124.2,29.3z"/>
<path d="M131.1,6.6c0,0.1,0,0.3,0.2,0.3c0,0,0.1,0.1,0.1,0.1c0.1,0.4,0.2,0.8,0.2,1.2c0,0.1,0,0.2,0,0.3c0,0.2,0.1,0.4,0.1,0.6
	c0,0,0,0.1,0,0.1c0.2,0.2,0.1,0.5,0.2,0.8c0.1,0.2,0.1,0.4,0.1,0.6c0,0.4,0,0.9-0.1,1.3c0,0.3-0.1,0.6-0.2,0.9c0,0.1,0,0.1,0,0.2
	c0,0.2,0,0.4-0.1,0.5c-0.1,0.4-0.1,0.9-0.2,1.3c-0.1,0.3-0.2,0.5-0.2,0.8c0,0.3-0.2,0.6-0.2,0.9c0,0.1-0.1,0.3-0.1,0.4
	c0,0.1,0,0.3-0.1,0.3c-0.2,0.1-0.2,0.2-0.2,0.4l0,0c0,0.3-0.3,0.5-0.2,0.9c0,0-0.1,0.1-0.1,0.2c-0.1,0.2-0.3,0.3-0.2,0.5
	c0,0.1-0.1,0.2-0.2,0.3c-0.1,0.2-0.3,0.3-0.3,0.5c0,0.2-0.2,0.4-0.4,0.6c-0.2,0.2-0.3,0.5-0.4,0.7c-0.1,0.2-0.4,0.3-0.4,0.6
	c0,0.1-0.2,0.2-0.3,0.3c-0.2,0.1,0,0.2,0,0.3c0,0.1-0.2,0.2-0.2,0.4c-0.3,0.1-0.3,0.4-0.4,0.6c0,0.1-0.1,0.2-0.2,0.2
	c-0.3,0.1-0.4,0.5-0.7,0.6c0,0-0.1,0.1-0.1,0.2c-0.2,0.6-0.6,1-1.1,1.4c-0.2,0.1-0.3,0.3-0.5,0.4c-0.1,0-0.1,0.2-0.2,0.3
	c-0.2,0.2-0.3,0.5-0.6,0.6c-0.1,0.1-0.1,0.2-0.2,0.3c-0.1,0.2-0.2,0.3-0.5,0.3c-0.1,0-0.2,0.1,0,0.1c0,0,0,0.1,0,0.1
	c-0.2,0-0.3,0.3-0.5,0.4c-0.3,0.3-0.7,0.7-1,1c-0.1,0.1-0.4,0-0.5,0.3c-0.4,0.1-0.6,0.4-0.8,0.6c-0.1,0.1-0.1,0.3-0.2,0
	c0,0-0.1,0-0.1,0c0,0.2-0.2,0.2-0.4,0.4c-0.1,0.1-0.3,0.1-0.4,0.3c-0.2,0.2-0.5,0.3-0.7,0.5c-0.3,0.1-0.6,0.3-0.8,0.6
	c0,0-0.1,0.1-0.2,0.1c-0.1-0.1-0.2,0-0.3,0.1c-0.2,0.2-0.4,0.3-0.7,0.4c-0.1,0-0.3,0.1-0.4,0.2c-0.1,0.1-0.3,0.3-0.5,0.3
	c-0.2,0.3-0.5,0.3-0.7,0.5c0,0-0.1,0.1-0.2,0.1c-0.7,0.3-1.4,0.7-2.2,0.9c0,0-0.1,0-0.1,0c-0.4,0.2-0.7,0.2-1.1,0.2
	c-0.4-0.1-0.8-0.1-1.2-0.1c-0.2,0-0.3-0.1-0.5-0.1c-0.2-0.1-0.3-0.4-0.2-0.7c-0.1-0.2,0-0.2,0.2-0.3c0.3-0.1,0.6-0.1,0.9-0.1
	c0.3,0,0.6-0.1,0.9-0.1c0,0,0.1,0,0.1,0c0.5-0.3,1-0.3,1.5-0.4c0.3-0.1,0.7-0.3,1-0.4c0.2-0.1,0.3-0.3,0.6-0.1
	c0.1-0.2,0.3-0.3,0.4-0.4c0.2-0.1,0.4-0.2,0.6-0.4c0.4,0,0.5-0.4,0.8-0.4c0.2,0,0.4-0.3,0.6-0.4c0.1-0.1,0.2-0.1,0.3-0.2
	c0.2-0.3,0.5-0.4,0.8-0.5c0.4-0.2,0.7-0.6,1.1-0.7c0,0,0,0,0.1-0.1c0.3-0.4,0.7-0.6,1.1-0.8c0.6-0.4,1.1-0.8,1.6-1.3
	c0.3-0.4,0.7-0.7,1-1c0.1-0.1,0.2-0.3,0.2-0.4c0.1-0.2,0.2-0.4,0.5-0.5c0.2,0,0.3-0.2,0.5-0.3c0.7-0.9,1.5-1.8,2.2-2.6
	c0.1-0.1,0.2-0.3,0.3-0.5c0,0,0-0.1,0-0.1c0.3-0.3,0.4-0.8,0.6-1.1c0.2-0.2,0.3-0.4,0.5-0.7c0.3-0.5,0.5-1,0.8-1.5
	c0.1-0.1,0.1-0.2,0.1-0.3c0-0.1,0-0.2,0.1-0.2c0.1-0.2,0.4-0.3,0.3-0.5c-0.1-0.2,0.2-0.3,0.2-0.5c0-0.2,0.2-0.4,0.2-0.6
	c0-0.2,0.1-0.3,0.2-0.5c0.1-0.2,0.1-0.3,0.1-0.5c0-0.2,0.2-0.3,0.1-0.5c0.3-0.5,0.2-1.2,0.3-1.7c0,0,0-0.1,0-0.1
	c0.1-0.2-0.2-0.4,0-0.6c0.1-0.2,0-0.4,0.1-0.6c0-0.2,0-0.4,0.1-0.6c0.1-0.3,0.1-0.6,0-0.9c0-0.1-0.1-0.3-0.1-0.4l0,0
	c0-0.1-0.1-0.3,0.1-0.3c0-0.2,0-0.5,0-0.7c-0.1-0.4-0.1-0.9-0.3-1.3c-0.2-0.3-0.2-0.7-0.4-1.1c-0.1-0.2-0.1-0.5-0.2-0.7
	c0-0.1-0.1-0.2,0-0.2c0.1-0.1,0.3-0.2,0.3-0.1c0.2,0.1,0.5,0.1,0.6,0.4l0,0c0,0.2,0.1,0.4,0.4,0.4C131.1,6.3,131.1,6.5,131.1,6.6z"
	/>
<path d="M131.3,21.2C131.3,21.3,131.3,21.3,131.3,21.2C131.2,21.3,131.2,21.2,131.3,21.2C131.2,21.2,131.3,21.2,131.3,21.2
	C131.3,21.2,131.3,21.2,131.3,21.2z"/>
<path d="M125.6,28.3L125.6,28.3C125.6,28.3,125.6,28.2,125.6,28.3L125.6,28.3c0-0.1,0-0.2,0.1-0.3c0,0.1,0,0.1,0,0.1
	C125.7,28.2,125.6,28.2,125.6,28.3z"/>
<path d="M129.6,23.7C129.6,23.7,129.6,23.7,129.6,23.7L129.6,23.7C129.6,23.7,129.6,23.7,129.6,23.7L129.6,23.7z"/>
</svg>
