<?xml version="1.0" encoding="utf-8"?>
<!-- Generator: Adobe Illustrator 23.0.3, SVG Export Plug-In . SVG Version: 6.00 Build 0)  -->
<svg version="1.1" id="Layer_2" xmlns="http://www.w3.org/2000/svg" xmlns:xlink="http://www.w3.org/1999/xlink" x="0px" y="0px"
	 viewBox="0 0 375 260" enable-background="new 0 0 375 260" xml:space="preserve">
<path fill="#03EBC3" fill-opacity="0.1" d="M83.6,119.3c-28.7-5.3-59.1-5-83.6-2.9V188c57.5-5,109-18.1,154.4-34.5
	C124.7,135.8,101.3,122.5,83.6,119.3z"/>
<path fill="#03EBC3" fill-opacity="0.1" d="M375.1,259.6V48c-42.9,12.5-115.8,67.6-220.6,105.5C207.3,185,280,230.7,375.1,259.6z"/>
<path fill="#03EBC3" fill-opacity="0.1" d="M83.6,119.3c17.6,3.3,41.1,16.5,70.8,34.2c104.8-37.8,177.7-93,220.6-105.5V0.4H0.1v116
	C24.5,114.2,54.9,113.9,83.6,119.3z"/>
<path fill="#03EBC3" fill-opacity="0.1" d="M83.6,118.9c17.6,3.3,41.1,16.5,70.8,34.2c104.8-37.8,177.7-93,220.6-105.5V0H0v116
	C24.4,113.8,54.8,113.5,83.6,118.9z"/>
</svg>
